<?xml version="1.0" encoding="iso-8859-1"?>
<!-- Generator: Adobe Illustrator 16.0.0, SVG Export Plug-In . SVG Version: 6.00 Build 0)  -->
<!DOCTYPE svg PUBLIC "-//W3C//DTD SVG 1.1//EN" "http://www.w3.org/Graphics/SVG/1.1/DTD/svg11.dtd">
<svg version="1.1" id="&#x56FE;&#x5C42;_1" xmlns="http://www.w3.org/2000/svg" xmlns:xlink="http://www.w3.org/1999/xlink" x="0px"
	 y="0px" width="283.46px" height="283.46px" viewBox="0 0 283.46 283.46" style="enable-background:new 0 0 283.46 283.46;"
	 xml:space="preserve">
<linearGradient id="SVGID_1_" gradientUnits="userSpaceOnUse" x1="56.2495" y1="170.4561" x2="191.178" y2="123.9965">
	<stop  offset="0" style="stop-color:#49C0E5"/>
	<stop  offset="1" style="stop-color:#7A4999"/>
</linearGradient>
<path style="fill:none;stroke:url(#SVGID_1_);stroke-miterlimit:10;" d="M98.646,209.249c0,1.564-1.27,2.834-2.835,2.834H73.134
	c-1.565,0-2.835-1.27-2.835-2.834V73.187c0-1.565,1.27-2.835,2.835-2.835h22.677c1.565,0,2.835,1.27,2.835,2.835V209.249z
	 M212.031,186.571c0-1.565-1.27-2.834-2.834-2.834h-93.543c-1.565,0-2.835,1.269-2.835,2.834v22.678c0,1.564,1.27,2.834,2.835,2.834
	h93.543c1.564,0,2.834-1.27,2.834-2.834V186.571z M98.646,131.089L70.299,89.772 M70.299,141.218l22.856-70.866 M98.646,161.368
	l-28.347,11.039 M93.156,123.087l-22.856,38.281 M98.646,205.939l-28.347-17.964 M98.646,183.737l-16.918,28.346 M98.646,148.454
	L70.299,180.79 M87.767,212.083l-11.62-88.996 M81.728,70.352l-11.428,31.396 M115.654,212.083l39.776-28.346 M115.654,183.737
	l39.776,28.346 M172.197,183.737l22.156,28.346 M162.426,183.737l-16.59,21.508 M135.542,212.083l76.489-25.512 M173.787,212.083
	l14.578-28.346 M98.646,93.964l-28.347,16.467"/>
</svg>
