<?xml version="1.0" encoding="iso-8859-1"?>
<!-- Generator: Adobe Illustrator 16.0.0, SVG Export Plug-In . SVG Version: 6.00 Build 0)  -->
<!DOCTYPE svg PUBLIC "-//W3C//DTD SVG 1.1//EN" "http://www.w3.org/Graphics/SVG/1.1/DTD/svg11.dtd">
<svg version="1.1" id="&#x56FE;&#x5C42;_1" xmlns="http://www.w3.org/2000/svg" xmlns:xlink="http://www.w3.org/1999/xlink" x="0px"
	 y="0px" width="354.33px" height="354.33px" viewBox="0 0 354.33 354.33" style="enable-background:new 0 0 354.33 354.33;"
	 xml:space="preserve">
<g style="opacity:0.6;">
	<path style="fill:#20AEE0;" d="M289.39,251.57c-24.121,36.311-65.381,60.24-112.23,60.24s-88.11-23.93-112.23-60.24H289.39z"/>
	<path style="fill:#E83818;" d="M302.188,227.23c-2.4,5.98-5.209,11.74-8.4,17.25H148.819v-17.25H302.188z"/>
	<path style="fill:#563C94;" d="M120.469,227.23v17.25h-59.93c-3.19-5.51-6-11.27-8.399-17.25H120.469z"/>
	<path style="fill:#EEBA1D;" d="M120.469,55.01v143.871h-76.2c-1.149-7.07-1.75-14.33-1.75-21.721c0-0.879,0.01-1.76,0.03-2.641
		c0.011-0.789,0.03-1.568,0.06-2.359c0.041-0.959,0.08-1.92,0.141-2.869c0.04-0.83,0.1-1.66,0.16-2.49
		c0.01-0.041,0.01-0.07,0.01-0.111c0.05-0.658,0.109-1.328,0.17-1.988c0.04-0.441,0.08-0.871,0.13-1.311
		c0.06-0.621,0.13-1.25,0.2-1.881c0.09-0.809,0.2-1.629,0.311-2.439c0.229-1.779,0.51-3.551,0.819-5.311
		c0.12-0.699,0.25-1.389,0.38-2.09c0.35-1.85,0.75-3.689,1.18-5.52c0.16-0.689,0.33-1.381,0.5-2.061
		c0.631-2.49,1.33-4.949,2.09-7.379c0.25-0.801,0.511-1.59,0.781-2.381c0.209-0.641,0.43-1.279,0.649-1.91
		c0.2-0.549,0.39-1.1,0.59-1.639c0.181-0.49,0.36-0.98,0.55-1.461c0.041-0.119,0.09-0.24,0.141-0.35
		c0.21-0.561,0.42-1.121,0.65-1.67c0.289-0.75,0.6-1.5,0.909-2.24c0.261-0.6,0.511-1.211,0.78-1.811c0.15-0.34,0.3-0.68,0.449-1.02
		c0.221-0.5,0.451-1.01,0.681-1.51c0.31-0.65,0.61-1.291,0.92-1.93c0.24-0.5,0.479-0.98,0.72-1.471
		c0.971-1.949,1.98-3.869,3.041-5.76c0.379-0.69,0.77-1.371,1.17-2.051c0.149-0.26,0.299-0.52,0.449-0.77
		c0.68-1.16,1.381-2.311,2.11-3.439c0.43-0.701,0.88-1.391,1.33-2.07c0.45-0.69,0.909-1.37,1.37-2.041c0.93-1.35,1.88-2.689,2.85-4
		c0.48-0.659,0.98-1.309,1.48-1.959c0.49-0.65,1-1.291,1.51-1.93c0.51-0.65,1.02-1.281,1.54-1.91c0.521-0.631,1.05-1.25,1.579-1.871
		c1.061-1.239,2.15-2.459,3.261-3.659c0.55-0.601,1.11-1.2,1.681-1.79c0.559-0.59,1.129-1.17,1.709-1.75
		c1.07-1.08,2.15-2.141,3.26-3.18c0.67-0.641,1.36-1.271,2.051-1.891c0.57-0.52,1.14-1.029,1.72-1.529
		c0.14-0.121,0.28-0.25,0.42-0.371c0.521-0.439,1.03-0.89,1.56-1.319c1.25-1.06,2.521-2.08,3.811-3.091
		c2.07-1.619,4.189-3.17,6.359-4.67c0.531-0.369,1.061-0.729,1.591-1.08c0.68-0.459,1.37-0.909,2.06-1.35
		c0.69-0.449,1.381-0.88,2.08-1.31c1.43-0.89,2.891-1.75,4.36-2.591c0.67-0.379,1.35-0.75,2.03-1.119
		c0.029-0.02,0.06-0.03,0.08-0.051c0.699-0.379,1.399-0.75,2.1-1.109c1.23-0.641,2.48-1.27,3.73-1.87
		c0.489-0.229,0.969-0.47,1.459-0.69C120.339,55.07,120.409,55.03,120.469,55.01z"/>
	<path style="fill:#20AEE0;" d="M311.81,177.16c0,7.391-0.602,14.65-1.75,21.721h-161.24V45.53c0.34-0.08,0.689-0.16,1.039-0.229
		c0.34-0.07,0.681-0.141,1.031-0.211c0.529-0.109,1.059-0.209,1.6-0.31c0.479-0.091,0.97-0.181,1.459-0.261
		c0.58-0.109,1.16-0.199,1.75-0.289c0.531-0.09,1.07-0.17,1.611-0.25c1.459-0.221,2.92-0.41,4.389-0.58
		c0.561-0.07,1.121-0.131,1.691-0.18c0.35-0.041,0.689-0.07,1.039-0.101c0.35-0.04,0.7-0.069,1.051-0.101
		c0.549-0.049,1.1-0.09,1.66-0.129c0.549-0.041,1.1-0.08,1.649-0.11c0.21-0.021,0.409-0.03,0.62-0.04
		c0.85-0.051,1.699-0.09,2.55-0.12c1.729-0.069,3.46-0.101,5.2-0.101C251.519,42.52,311.81,102.801,311.81,177.16z"/>
</g>
<polygon style="fill:#FFFFFF;" points="233.865,198.885 233.865,227.234 148.825,227.234 148.825,244.484 120.475,244.484 
	120.475,113.845 148.825,113.845 148.825,198.885 "/>
<linearGradient id="SVGID_1_" gradientUnits="userSpaceOnUse" x1="177.1655" y1="318.8945" x2="177.1655" y2="35.4351">
	<stop  offset="0" style="stop-color:#DFE2D9"/>
	<stop  offset="1" style="stop-color:#FFFFFF"/>
</linearGradient>
<path style="fill:url(#SVGID_1_);" d="M177.165,35.435c-18.58,0-36.33,3.58-52.59,10.08c-1.38,0.55-2.75,1.12-4.101,1.71
	c-50.06,21.88-85.04,71.83-85.04,129.94c0,17.359,3.12,34,8.841,49.369c0.08,0.23,0.17,0.471,0.26,0.7
	c20.229,53.57,71.979,91.66,132.63,91.66s112.4-38.09,132.641-91.66c0.71-1.89,1.38-3.8,2.01-5.72c4.6-13.95,7.08-28.86,7.08-44.35
	C318.896,98.895,255.445,35.435,177.165,35.435z M177.165,311.814c-46.85,0-88.11-23.93-112.23-60.24h224.461
	C265.275,287.885,224.016,311.814,177.165,311.814z M310.065,198.885c-1.59,9.85-4.26,19.34-7.87,28.35
	c-2.4,5.98-5.21,11.74-8.4,17.25H60.545c-3.189-5.51-6-11.27-8.399-17.25c-3.61-9-6.271-18.49-7.87-28.33v-0.02
	c-1.15-7.07-1.75-14.33-1.75-21.72c0-0.88,0.01-1.76,0.029-2.641c0.011-0.79,0.03-1.569,0.061-2.359c0.04-0.96,0.08-1.92,0.14-2.87
	c0.04-0.83,0.101-1.66,0.16-2.49c0.01-0.04,0.01-0.07,0.01-0.11c0.05-0.659,0.11-1.329,0.17-1.989c0.04-0.44,0.08-0.87,0.13-1.311
	c0.061-0.62,0.131-1.25,0.2-1.88c0.09-0.81,0.2-1.63,0.311-2.439c0.229-1.78,0.51-3.551,0.819-5.311c0.12-0.7,0.25-1.39,0.38-2.09
	c0.351-1.85,0.75-3.69,1.181-5.52c0.16-0.69,0.33-1.381,0.5-2.061c0.63-2.49,1.33-4.95,2.09-7.38c0.25-0.8,0.51-1.59,0.78-2.38
	c0.21-0.641,0.43-1.28,0.649-1.91c0.2-0.55,0.391-1.1,0.59-1.64c0.181-0.49,0.36-0.98,0.551-1.46c0.04-0.12,0.09-0.24,0.14-0.351
	c0.21-0.56,0.42-1.12,0.65-1.67c0.29-0.75,0.6-1.5,0.909-2.24c0.261-0.6,0.511-1.21,0.78-1.81c0.15-0.34,0.3-0.68,0.45-1.021
	c0.22-0.5,0.45-1.01,0.68-1.51c0.311-0.649,0.61-1.29,0.92-1.93c0.24-0.5,0.48-0.98,0.721-1.47c0.97-1.95,1.979-3.87,3.04-5.761
	c0.38-0.689,0.77-1.37,1.17-2.05c0.149-0.26,0.3-0.52,0.449-0.77c0.681-1.16,1.381-2.311,2.11-3.44c0.43-0.7,0.88-1.39,1.33-2.07
	c0.45-0.689,0.91-1.369,1.37-2.04c0.93-1.35,1.88-2.689,2.85-4c0.48-0.659,0.98-1.31,1.48-1.96c0.49-0.649,1-1.29,1.51-1.93
	c0.51-0.649,1.021-1.28,1.54-1.91c0.521-0.63,1.05-1.25,1.58-1.87c1.06-1.239,2.15-2.46,3.26-3.659c0.55-0.601,1.11-1.2,1.681-1.79
	c0.56-0.591,1.13-1.17,1.71-1.75c1.069-1.08,2.149-2.141,3.26-3.181c0.67-0.64,1.359-1.27,2.05-1.89c0.57-0.521,1.14-1.03,1.72-1.53
	c0.141-0.12,0.28-0.25,0.42-0.37c0.521-0.439,1.03-0.89,1.561-1.319c1.25-1.061,2.52-2.091,3.81-3.091
	c2.07-1.619,4.19-3.17,6.36-4.67c0.53-0.369,1.06-0.729,1.59-1.08c0.68-0.46,1.37-0.909,2.06-1.35c0.69-0.45,1.381-0.88,2.08-1.31
	c1.431-0.891,2.891-1.75,4.36-2.591c0.67-0.38,1.35-0.75,2.03-1.119c0.029-0.021,0.06-0.03,0.08-0.051
	c0.699-0.38,1.399-0.75,2.1-1.109c1.23-0.641,2.48-1.271,3.73-1.87c0.489-0.23,0.97-0.47,1.46-0.69
	c0.069-0.029,0.14-0.069,0.199-0.09c1.181-0.55,2.37-1.09,3.57-1.6c0.74-0.32,1.48-0.63,2.23-0.94c0.02,0,0.04-0.01,0.06-0.02
	c4.91-2,9.95-3.721,15.12-5.141c2.43-0.659,4.89-1.26,7.37-1.779c0.34-0.08,0.689-0.16,1.04-0.23c0.34-0.07,0.68-0.14,1.03-0.21
	c0.529-0.11,1.06-0.21,1.6-0.31c0.479-0.091,0.97-0.181,1.46-0.261c0.58-0.109,1.16-0.199,1.75-0.29c0.53-0.09,1.07-0.17,1.61-0.25
	c1.46-0.22,2.92-0.409,4.39-0.579c0.56-0.07,1.12-0.131,1.69-0.181c0.35-0.04,0.689-0.069,1.039-0.1
	c0.351-0.04,0.7-0.07,1.051-0.101c0.55-0.05,1.1-0.09,1.66-0.13c0.55-0.04,1.1-0.08,1.649-0.109c0.21-0.021,0.41-0.03,0.62-0.04
	c0.85-0.051,1.7-0.09,2.55-0.12c1.73-0.07,3.46-0.101,5.2-0.101c74.36,0,134.65,60.28,134.65,134.641
	C311.815,184.555,311.215,191.814,310.065,198.885z"/>
<g>
	<rect x="120.475" y="113.845" style="fill:#59BEAF;" width="28.351" height="113.39"/>
	<rect x="162.995" y="198.885" style="fill:#59BEAF;" width="70.87" height="28.35"/>
</g>
<path style="fill:#FFFEF3;" d="M120.476,113.846"/>
<path style="fill:#FFFEF3;" d="M120.476,113.846"/>
<path style="fill:#D6ECE5;" d="M148.825,45.535v68.31h-28.351v-58.83c1.181-0.55,2.37-1.09,3.57-1.6c0.74-0.32,1.48-0.63,2.23-0.94
	c0.02,0,0.04-0.01,0.06-0.02c4.91-2,9.95-3.721,15.12-5.141C143.885,46.655,146.345,46.055,148.825,45.535z"/>
<rect x="148.825" y="198.885" style="fill:#D6ECE5;" width="14.17" height="28.35"/>
<path style="fill:#D6ECE5;" d="M120.475,198.885v28.35H52.146c-3.61-9-6.271-18.49-7.87-28.33v-0.02H120.475z"/>
<path style="fill:#D6ECE5;" d="M310.065,198.885c-1.59,9.85-4.26,19.34-7.87,28.35h-68.33v-28.35H310.065z"/>
<rect x="120.475" y="227.234" style="fill:#D6ECE5;" width="28.351" height="17.25"/>
</svg>
