<?xml version="1.0" encoding="iso-8859-1"?>
<!-- Generator: Adobe Illustrator 16.0.0, SVG Export Plug-In . SVG Version: 6.00 Build 0)  -->
<!DOCTYPE svg PUBLIC "-//W3C//DTD SVG 1.1//EN" "http://www.w3.org/Graphics/SVG/1.1/DTD/svg11.dtd">
<svg version="1.1" id="&#x56FE;&#x5C42;_1" xmlns="http://www.w3.org/2000/svg" xmlns:xlink="http://www.w3.org/1999/xlink" x="0px"
	 y="0px" width="283.46px" height="283.46px" viewBox="0 0 283.46 283.46" style="enable-background:new 0 0 283.46 283.46;"
	 xml:space="preserve">
<g id="XMLID_1_">
	<g>
		<linearGradient id="SVGID_1_" gradientUnits="userSpaceOnUse" x1="1.1411" y1="142.0049" x2="280.8086" y2="142.0049">
			<stop  offset="0" style="stop-color:#DFE2D9;stop-opacity:0.6"/>
			<stop  offset="1" style="stop-color:#FFFFFF;stop-opacity:0.5"/>
		</linearGradient>
		<path style="fill:url(#SVGID_1_);" d="M140.412,267.854c69.505,0,125.853-56.34,125.853-125.853
			c0-69.506-56.348-125.853-125.853-125.853c-69.513,0-125.853,56.347-125.853,125.853
			C14.559,211.515,70.898,267.854,140.412,267.854z M140.979,2.171c77.224,0,139.83,62.607,139.83,139.83
			c0,77.23-62.606,139.837-139.83,139.837c-77.23,0-139.837-62.607-139.837-139.837C1.141,64.778,63.748,2.171,140.979,2.171z"/>
		<linearGradient id="SVGID_2_" gradientUnits="userSpaceOnUse" x1="14.5586" y1="142.0015" x2="266.2646" y2="142.0015">
			<stop  offset="0" style="stop-color:#59BEAF;stop-opacity:0.8"/>
			<stop  offset="1" style="stop-color:#509999;stop-opacity:0.6"/>
			<stop  offset="1" style="stop-color:#509798;stop-opacity:0.4"/>
		</linearGradient>
		<path style="fill:url(#SVGID_2_);" d="M266.265,142.001c0,69.513-56.348,125.853-125.853,125.853
			c-69.513,0-125.853-56.34-125.853-125.853c0-69.506,56.34-125.853,125.853-125.853C209.917,16.148,266.265,72.496,266.265,142.001
			z"/>
	</g>
	<g>
	</g>
</g>
<g>
	<path id="path5925" style="fill:#FFFEF3;" d="M137.64,83.269c-1.101-0.01-2.201,0.044-3.298,0.168
		c-0.958,0.111-1.915,0.288-2.855,0.525c0.05,0.542,0.079,1.083,0.087,1.629c0.007,0.538-0.013,1.079-0.052,1.617
		c2.416-0.673,5.001-0.798,7.392-0.072c0.524,0.157,1.032,0.361,1.533,0.583c-0.138-0.332-0.265-0.669-0.381-1.009
		c-0.376-1.087-0.655-2.231-0.784-3.382C138.734,83.295,138.187,83.27,137.64,83.269L137.64,83.269z"/>
	<path id="path5921" style="fill:#FFFEF3;" d="M120.348,92.664c-0.672,1.365-1.201,2.814-1.638,4.291
		c0.238-0.399,0.512-0.78,0.807-1.139c0.578-0.709,1.221-1.365,1.916-1.962c-0.14-0.119-0.275-0.24-0.402-0.374
		C120.781,93.228,120.555,92.953,120.348,92.664L120.348,92.664z"/>
	<path id="path6020" style="fill:#FFFEF3;" d="M117.693,100.941c-0.665,2.928-1.268,5.875-2.386,8.653
		c-0.616,1.53-1.379,2.977-2.218,4.389c-2.42,6.26-8.208,18.083-10.585,26.483c-1.068,3.155-2.177,6.301-3.497,9.358
		c-0.804,1.861-1.688,3.69-2.368,5.604c-1.56,4.387-2.002,9.228-0.822,13.729c0.474,1.809,1.203,3.549,2.156,5.159
		c0.063,0.102,0.133,0.206,0.196,0.31c-0.029-2.059,0.053-4.119,0.252-6.164c0.678-6.931,2.607-13.715,5.418-20.085
		c1.855-4.203,4.095-8.236,6.681-12.036c-0.249-2.397-0.019-4.843,0.671-7.153c1.139-3.816,3.475-7.139,5.784-10.384
		c1.334-1.87,2.698-3.792,3.306-6.01c0.569-2.075,0.437-4.261,0.519-6.409c0.03-0.78,0.092-1.559,0.222-2.326
		c-0.479-0.43-0.987-0.825-1.531-1.167c-0.284-0.176-0.576-0.34-0.846-0.538s-0.52-0.43-0.691-0.716
		c-0.079-0.133-0.136-0.276-0.177-0.425c-0.015-0.034-0.031-0.066-0.043-0.1C117.715,101.059,117.703,101.002,117.693,100.941z
		 M96.125,173.899c0.133,0.226,0.277,0.442,0.426,0.655C96.401,174.342,96.258,174.125,96.125,173.899z M96.683,174.736
		c0.11,0.149,0.221,0.298,0.337,0.442C96.903,175.034,96.792,174.886,96.683,174.736z M89.271,174.998
		c-0.02,0-0.039,0.002-0.06,0.005c0.123-0.005,0.246-0.005,0.369,0C89.478,175,89.375,174.998,89.271,174.998L89.271,174.998z
		 M89.184,175.003c-0.137,0.005-0.273,0.013-0.409,0.026C88.91,175.016,89.048,175.008,89.184,175.003z M89.655,175.005
		c0.124,0.007,0.249,0.016,0.372,0.029C89.904,175.021,89.779,175.012,89.655,175.005z M90.086,175.041
		c0.144,0.015,0.287,0.038,0.429,0.063C90.373,175.079,90.23,175.056,90.086,175.041z M97.18,175.378
		c0.131,0.156,0.263,0.311,0.399,0.467C97.442,175.688,97.311,175.534,97.18,175.378z M97.678,175.957
		c0.179,0.193,0.362,0.389,0.55,0.581C98.04,176.346,97.856,176.15,97.678,175.957z"/>
	<path id="path5919" style="fill:#FFFEF3;" d="M168.502,199.469c-1.053,1.135-2.16,2.225-3.27,3.301
		c-4.079,3.95-8.307,7.853-13.317,10.525c-1.542,0.82-3.148,1.507-4.798,2.066c-2.774,0.913-5.68,1.329-8.59,1.64
		c-0.787,0.084-1.641,0.081-2.303,0.065c-4.569-0.098-9.146-0.897-13.375-2.636c-1.164-0.436-2.25-0.781-3.251-1.308
		c2.794,3.601,3.949,9.281,5.143,12.219c2.246-0.426,4.51-0.755,6.791-0.807c0.722-0.018,1.449-0.012,2.166-0.075
		c1.994,0.219,4.001,0.301,6.011,0.221c0.251-0.008,0.504-0.024,0.755-0.039c0.513,0.058,1.031,0.089,1.545,0.119
		c3.526,0.205,7.043,0.547,10.537,1.073c3.069,0.465,6.117,1.073,9.136,1.804c1.401,0.339,2.803,0.704,4.205,1.058
		c-1.62-10.278,0.092-20.225,2.606-29.021c-0.001,0.002-0.004,0.003-0.006,0.008C168.492,199.608,168.498,199.538,168.502,199.469
		L168.502,199.469z"/>
	<path id="path5917" style="fill:#FFFEF3;" d="M168.515,187.643c0.013,0.262,0.024,0.523,0.036,0.785
		C168.539,188.166,168.527,187.904,168.515,187.643z"/>
	<path id="path5915" style="fill:#FFFEF3;" d="M168.6,189.586c0.012,0.317,0.022,0.633,0.033,0.946
		C168.622,190.219,168.611,189.903,168.6,189.586z"/>
	<path id="path6289" style="fill:#FFFEF3;" d="M157.024,87.329c-0.082,0.526-0.193,1.049-0.335,1.561
		C156.832,88.378,156.942,87.855,157.024,87.329z"/>
	<path id="path6287" style="fill:#FFFEF3;" d="M156.636,89.07c-0.056,0.191-0.118,0.38-0.185,0.567
		C156.518,89.45,156.58,89.261,156.636,89.07z"/>
	<path id="path6285" style="fill:#FFFEF3;" d="M156.385,89.828c-0.091,0.238-0.185,0.476-0.293,0.709
		C156.2,90.304,156.294,90.066,156.385,89.828z"/>
	<path id="path6283" style="fill:#FFFEF3;" d="M155.368,93.852c0.115,0.067,0.226,0.139,0.329,0.219
		C155.594,93.994,155.483,93.919,155.368,93.852z"/>
	<path id="path6281" style="fill:#FFFEF3;" d="M155.785,94.137c0.025,0.02,0.05,0.039,0.074,0.061
		C155.835,94.176,155.811,94.156,155.785,94.137z"/>
	<path id="path6279" style="fill:#FFFEF3;" d="M155.982,94.313c0.021,0.018,0.04,0.038,0.06,0.057
		C156.022,94.351,156.004,94.331,155.982,94.313z"/>
	<path id="path6277" style="fill:#FFFEF3;" d="M172.585,99.073c-6.331,3.498-9.199,5.641-10.369,17.697
		c0.259,0.526,0.513,1.051,0.758,1.585c2.106,4.579,3.554,9.458,4.288,14.443c2.758,2.849,5.057,6.138,6.781,9.704
		c5.011,10.36,4.967,22.431,3.603,33.859c-0.043,0.355-0.063,0.529-0.087,0.724c-0.042,0.338-0.082,0.635-0.171,1.246
		c0.618,0.328,1.212,0.611,1.791,0.866c-0.586,1.797-0.763,3.716-0.615,5.586c0.139,1.725,0.571,3.536,1.751,4.889
		c0.954,1.098,2.283,1.765,3.632,2.162c2.325,0.688,4.85,0.653,7.151-0.1l0,0h0.002c3.763-1.263,7.09-3.767,9.345-7.031
		c0.742-1.075,1.389-2.263,1.685-3.575c0.043-0.188,0.076-0.382,0.102-0.576c1.189-2.053,2.003-4.344,2.44-6.68
		c0.825-4.396,0.446-8.939-0.321-13.35c-1.047-6.009-2.809-11.887-5.051-17.561c-1.648-4.175-3.578-8.279-6.273-11.867
		c-2.639-3.514-5.964-6.47-8.548-10.021c-1.362-1.87-2.521-3.905-3.939-5.724c0-0.002,0-0.002,0-0.002
		c-0.574-1.184-1.141-2.372-1.688-3.568c-1.706-3.714-3.256-7.514-5.274-11.069C173.258,100.158,172.926,99.614,172.585,99.073
		L172.585,99.073z M173.007,133.98c1.432,0.824,2.912,1.564,4.373,2.334c5.604,2.622,10.352,7.257,12.124,13.2
		c2.6,7.774,0.178,15.979-2.758,23.297c-0.046,0.048-0.093,0.113-0.139,0.188c0.195-0.013,0.392-0.026,0.591-0.026
		c0.92-0.014,1.847,0.106,2.757,0.262c1.4,0.238,2.787,0.56,4.184,0.82c0.239,0.044,0.482,0.088,0.724,0.133
		c-0.393-0.022-0.785-0.039-1.178-0.054c-0.142-0.003-0.287-0.004-0.432-0.009c-0.311-0.005-0.622-0.009-0.935-0.009
		c-0.109,0-0.22,0-0.329,0c-0.43,0.004-0.86,0.011-1.292,0.026c-0.969,0.038-1.938,0.106-2.905,0.195
		c-0.286,0.025-0.574,0.057-0.861,0.093c-0.286,0.036-0.573,0.078-0.855,0.127c-0.003,0-0.004-0.003-0.004,0
		c-0.001,0-0.003,0-0.004,0.003c-0.521,0.088-1.036,0.211-1.534,0.375l0,0c-0.268,0.094-0.534,0.193-0.792,0.315
		c-0.124,0.059-0.247,0.124-0.368,0.188c-0.366,0.199-0.712,0.424-1.058,0.656c-0.46,0.31-0.912,0.633-1.384,0.925
		c-0.179,0.108-0.362,0.212-0.548,0.313c-0.001,0-0.002,0.001-0.004,0.001c-0.021,0.011-0.046,0.022-0.065,0.031
		c0.49-0.893,1.11-1.716,1.863-2.402c0.846-0.775,1.859-1.374,2.955-1.697c2.406-6.728,4.538-13.687,3.47-20.605
		c-0.751-4.852-3.168-9.517-7.022-12.613c-2.337-1.88-5.187-3.18-7.578-5.17C173.656,134.591,173.329,134.29,173.007,133.98
		L173.007,133.98z"/>
	<path id="path6275" style="fill:#FFFEF3;" d="M158.704,109.729c0.05,0.111,0.103,0.223,0.153,0.331
		C158.807,109.952,158.754,109.841,158.704,109.729z"/>
	<path id="path6273" style="fill:#FFFEF3;" d="M159.217,110.822c0.275,0.577,0.56,1.149,0.848,1.716
		C159.778,111.971,159.492,111.398,159.217,110.822z"/>
	<path id="path6269" style="fill:#FFFEF3;" d="M184.306,180.871c0.11,0.035,0.221,0.07,0.33,0.101
		C184.526,180.941,184.416,180.906,184.306,180.871z"/>
	<path id="path6267" style="fill:#FFFEF3;" d="M185.565,181.243c0.246,0.066,0.494,0.127,0.74,0.188
		C186.06,181.37,185.812,181.31,185.565,181.243z"/>
	<path id="path6265" style="fill:#FFFEF3;" d="M186.622,181.499c0.15,0.032,0.302,0.063,0.452,0.094
		C186.924,181.563,186.772,181.531,186.622,181.499z"/>
	<path id="path6263" style="fill:#FFFEF3;" d="M187.46,181.663c0.102,0.019,0.203,0.036,0.307,0.052
		C187.663,181.699,187.562,181.682,187.46,181.663z"/>
	<path id="path5923" style="fill:#FFFEF3;" d="M188.289,181.792c0.043,0.007,0.083,0.012,0.127,0.015
		C188.372,181.804,188.332,181.799,188.289,181.792z"/>
	<path id="path5913" style="fill:#FFFEF3;" d="M168.648,196.087c-0.014,0.5-0.031,0.996-0.05,1.497
		C168.617,197.083,168.635,196.587,168.648,196.087z"/>
	<path id="path29670-2" style="fill:#FFFEF3;" d="M168.584,197.914c-0.023,0.508-0.048,1.01-0.079,1.516
		C168.536,198.924,168.561,198.422,168.584,197.914z"/>
	<path id="path28712-2" style="fill:#FFFEF3;stroke:#DFE2D9;stroke-width:2.2692;stroke-miterlimit:10;" d="M140.584,45.268
		c-4.594-0.049-9.242,0.879-13.287,3.059c-4.298,2.317-7.818,6.023-9.987,10.396c-2.168,4.371-2.985,9.304-3.149,14.183
		c-0.162,4.788,0.28,9.574,0.459,14.363c0.185,4.982,0.085,9.974,0.499,14.942c0.132,1.601,0.318,3.201,0.313,4.807
		c-0.006,1.754-0.238,3.545,0.202,5.246c0.293,1.131,0.881,2.18,1.651,3.06c0.38,0.437,0.806,0.829,1.261,1.182
		c0.735-1.167,1.372-2.384,1.735-3.71c0.569-2.075,0.437-4.261,0.519-6.409c0.03-0.78,0.092-1.559,0.222-2.326
		c-0.479-0.43-0.987-0.825-1.531-1.167c-0.284-0.176-0.576-0.34-0.846-0.538s-0.52-0.43-0.691-0.716
		c-0.079-0.133-0.136-0.276-0.177-0.425c-0.015-0.034-0.031-0.066-0.043-0.1c-0.04-0.12-0.056-0.247-0.056-0.373
		c-0.002-0.255,0.059-0.503,0.11-0.752c0.068-0.327,0.12-0.664,0.182-0.994c0.061-0.333,0.134-0.664,0.24-0.982
		c0.274-0.811,0.766-1.533,1.308-2.198c0.134-0.164,0.272-0.326,0.413-0.482c0.042-0.049,0.086-0.094,0.127-0.141
		c0.101-0.111,0.203-0.219,0.306-0.33c0.049-0.049,0.099-0.1,0.149-0.151c0.112-0.113,0.227-0.224,0.343-0.332
		c0.036-0.036,0.071-0.068,0.108-0.103c0.154-0.144,0.311-0.286,0.471-0.424c-0.14-0.119-0.275-0.24-0.402-0.374
		c-0.725-0.737-1.268-1.645-1.655-2.601c-0.773-1.922-0.925-4.026-1.073-6.09c-0.165-2.28-0.328-4.632,0.396-6.799
		c0.362-1.085,0.95-2.105,1.786-2.885c0.834-0.78,1.927-1.308,3.068-1.37c0.857-0.047,1.718,0.167,2.487,0.546
		c0.771,0.381,1.452,0.922,2.05,1.538c1.234,1.267,2.12,2.855,2.673,4.538c0.555,1.685,0.786,3.462,0.812,5.235
		c0.007,0.538-0.013,1.079-0.052,1.617c0,0,0.002,0,0.003,0c0.121-0.034,0.246-0.063,0.37-0.093
		c0.203-0.051,0.406-0.101,0.613-0.146c0.272-0.058,0.545-0.111,0.821-0.154c0.022-0.002,0.043-0.006,0.065-0.01
		c0.293-0.044,0.587-0.08,0.881-0.106c0.016,0,0.031,0,0.047-0.003c0.592-0.051,1.185-0.063,1.775-0.034
		c0.034,0.001,0.067,0.001,0.1,0.003c0.276,0.016,0.55,0.042,0.822,0.073c0.074,0.008,0.149,0.02,0.223,0.031
		c0.066,0.008,0.132,0.018,0.2,0.029c0.104,0.016,0.208,0.038,0.312,0.054c0.063,0.015,0.124,0.023,0.187,0.036
		c0.114,0.024,0.227,0.049,0.339,0.079c0.048,0.01,0.097,0.02,0.145,0.032c0.164,0.04,0.326,0.087,0.489,0.136
		c0.518,0.157,1.021,0.358,1.519,0.577c0.003,0,0.009,0.003,0.014,0.005c-0.138-0.332-0.265-0.669-0.381-1.009
		c-0.888-2.574-1.24-5.444-0.321-8.01c0.731-2.034,2.223-3.74,4.005-4.964c0.554-0.381,1.139-0.717,1.763-0.961
		c1.097-0.425,2.306-0.548,3.47-0.386c1.167,0.16,2.288,0.598,3.274,1.239c1.978,1.278,3.377,3.332,4.149,5.556
		c0.712,2.045,0.923,4.243,0.801,6.409c-0.095,1.697-0.4,3.401-1.114,4.946c-0.488,1.052-1.182,2.023-2.053,2.787
		c0,0,0.003,0,0.005,0c0.146,0.044,0.292,0.09,0.437,0.137c0.166,0.059,0.33,0.121,0.49,0.191c0.134,0.061,0.268,0.124,0.397,0.199
		l0,0c0.323,0.187,0.619,0.417,0.838,0.709l0,0c0.043,0.058,0.085,0.12,0.122,0.183c0.03,0.052,0.058,0.106,0.081,0.162
		c0.002,0,0.003,0,0.003,0.003c0.024,0.056,0.044,0.109,0.064,0.165c0.007,0.01,0.012,0.013,0.018,0.023
		c0.288,0.374,0.464,0.829,0.543,1.294c0.082,0.467,0.072,0.946,0.016,1.416c-0.112,0.941-0.407,1.85-0.53,2.79
		c-0.092,0.724-0.087,1.484-0.406,2.145c-0.082,0.165-0.181,0.318-0.296,0.465c0.229,0.394,0.444,0.802,0.641,1.215
		c0.643,1.347,1.146,2.757,1.726,4.132c1.186,2.813,2.68,5.479,4.029,8.215c5.968-0.096,10.229-2.255,10.585-8.511
		c0.352-6.464-0.684-12.917-1.013-19.384c-0.35-6.826,0.074-13.784-1.714-20.376c-0.873-3.215-2.265-6.285-4.054-9.094
		c-2.098-3.293-4.759-6.244-7.92-8.534C153.058,47.218,146.813,45.334,140.584,45.268z M151.168,68.179
		c0.698,0.029,1.374,0.185,2.092,0.662c1.993,1.322,2.961,2.836,3.708,4.681c0.204,0.505,0.4,1.363,0.16,1.629
		c-1.024-2.079-2.486-3.947-4.41-5.225c-0.994-0.661-2.109-1.141-3.274-1.393c0.186-0.388,0.659-0.331,1.018-0.347
		C150.7,68.176,150.937,68.169,151.168,68.179z M123.958,69.652c0.826,0.014,1.65,0.214,2.392,0.533
		c0.848,0.369,1.716,0.914,2.478,1.48c0.31,0.231,0.632,0.471,0.836,0.776c0.629,0.938,0.938,2.012,1.105,3.123
		c-0.675-1.439-1.672-2.797-3.014-3.899c-0.723-0.593-1.532-1.111-2.379-1.48c-0.623-0.268-1.308-0.447-1.997-0.505
		c0.075-0.008,0.152-0.01,0.228-0.015C123.726,69.66,123.841,69.648,123.958,69.652z"/>
	<path id="path8633" style="fill:#FFFEF3;" d="M101.582,186.242c1.971,3.02,2.174,3.175,3.827,5.854
		c0.646,1.051,0.798,1.303,1.134,1.866c2.118,3.55,4.065,7.215,6.513,10.545c1.598,2.174,3.401,4.189,5.007,6.36
		c1.606,2.166,3.028,4.519,3.741,7.12c0.926,3.383,0.567,7.108-1.041,10.223c-1.133,2.192-2.87,4.071-4.982,5.346
		c-2.112,1.271-4.594,1.932-7.059,1.838c-3.918-0.146-7.498-2.107-11.14-3.556c-7.42-2.956-15.482-3.883-23.13-6.184
		c-2.352-0.708-4.665-1.545-7.03-2.197c-1.053-0.287-2.12-0.542-3.114-0.992c-0.993-0.453-1.922-1.121-2.475-2.061
		c-0.427-0.727-0.608-1.586-0.595-2.428c0.011-0.844,0.208-1.677,0.495-2.47c0.574-1.584,1.501-3.019,2.128-4.587
		c1.021-2.555,1.207-5.372,1.067-8.124c-0.137-2.748-0.583-5.475-0.771-8.223c-0.084-1.225-0.116-2.468,0.118-3.674
		c0.233-1.208,0.754-2.389,1.64-3.24c0.816-0.787,1.9-1.253,3.009-1.484c1.109-0.233,2.252-0.243,3.386-0.217
		s2.27,0.087,3.398-0.006c1.129-0.094,2.265-0.348,3.248-0.911c0.936-0.532,1.701-1.329,2.335-2.199
		c0.633-0.873,1.147-1.824,1.672-2.765c0.524-0.94,1.07-1.879,1.757-2.708c0.688-0.829,1.53-1.553,2.526-1.964
		c1.025-0.426,2.179-0.505,3.27-0.302c1.091,0.198,2.122,0.672,3.039,1.294c1.836,1.247,3.197,3.063,4.5,4.858
		c1.198,1.649,2.375,3.31,3.527,4.992C101.581,186.246,101.582,186.245,101.582,186.242 M94.264,175.653
		c-4.169-2.256-8.315-3.271-11.672,0.552c-0.907,1.084-1.526,2.247-2.095,3.314c-1.136,2.138-2.149,3.647-2.818,3.938
		c-1.109,0.479-3.358,0.579-5.862,0.697c-2.504,0.117-5.449,0.266-7.881,2.292c-1.416,1.176-2.431,2.719-2.794,4.378
		c-0.364,1.657-0.177,3.256,0.147,4.956c0.951,4.981,2.041,10.38-0.078,14.659c-0.751,1.519-1.759,3.228-2.407,5.19
		c-0.646,1.969-0.867,4.496,0.47,6.712c0.913,1.511,2.199,2.624,3.485,3.153c1.285,0.529,2.313,0.646,3.618,1.022
		c1.641,0.477,5.385,1.668,7.034,2.175c8.131,2.504,15.522,3.771,23.274,6.16c1.432,0.442,3.275,1.388,5.31,2.245
		c2.034,0.856,4.341,1.679,6.937,1.393c5.329-0.587,11.126-3.496,14.036-8.388c2.284-3.843,2.467-8.125,1.312-12.19
		c-1.655-5.832-6.763-10.455-9.111-14.11C110.601,193.476,103.116,181.729,94.264,175.653z"/>
	<path id="path3732" style="fill:#FFFEF3;" d="M172.568,176.697c-0.154,0.001-0.311,0.005-0.472,0.015l0,0
		c-1.312,0.068-2.805,0.433-4.077,1.525c-1.097,0.945-1.679,2.152-1.98,3.299c-0.019,0.064-0.034,0.127-0.05,0.193
		c-0.049,0.213-0.091,0.425-0.123,0.636c-0.208,1.362-0.093,2.543-0.027,3.506c0.394,5.734,0.411,11.467-0.199,17.102
		c-0.334,3.101-0.865,6.224-1.432,9.379c-0.683,3.798-1.453,7.787-1.444,11.989c0.005,2.401,0.26,5.18,1.83,7.688
		c1.576,2.517,4.01,3.985,6.295,4.967c3.251,1.398,6.924,2.111,10.609,1.562c3.025-0.447,5.813-1.711,8.201-3.415
		c2.351-1.682,4.184-3.656,5.967-5.339c2.084-1.972,4.283-3.771,6.632-5.286c3.511-2.269,7.553-4.007,11.639-6.065
		c2.404-1.208,5.088-2.646,7.183-5.108c0.946-1.114,1.706-2.38,2.244-3.739l-0.055,0.034c0.06-0.138,0.106-0.283,0.137-0.432
		l0.031,0.037c0.267-1.129,0.233-2.286-0.068-3.383c-0.146-0.53-0.359-1.048-0.637-1.54c-0.619-1.098-1.446-1.885-2.229-2.497
		c-0.773-0.605-1.503-1.045-2.09-1.442c-1.254-0.844-2.486-1.856-3.773-2.924c-1.285-1.071-2.453-2.067-3.351-3.127
		c-0.885-1.048-1.51-2.189-1.72-3.268l0,0c-0.026-0.138-0.049-0.288-0.068-0.45c-0.127-1.148-0.101-1.738-0.193-2.643
		c-0.127-1.234-0.396-2.509-0.894-3.754c-0.365-0.917-0.889-1.926-1.772-2.814c-1.164-1.174-2.533-1.738-3.715-2.105
		c-1.149-0.358-2.377-0.595-3.66-0.626c-3.115-0.073-5.597,0.911-7.593,1.143c-1.85,0.215-3.83-0.013-5.79-0.537
		c-1.179-0.316-2.467-0.778-3.935-1.16c-2.325-0.604-4.574-0.845-6.65-1.15C174.566,176.853,173.644,176.691,172.568,176.697
		L172.568,176.697z M173.305,178.752c0.68,0.026,1.359,0.132,2.034,0.231c2.123,0.311,4.263,0.554,6.337,1.098
		c1.309,0.347,2.584,0.808,3.89,1.162c2.182,0.589,4.467,0.873,6.711,0.609c2.414-0.282,4.76-1.189,7.19-1.132
		c0.999,0.025,1.988,0.214,2.939,0.514c0.972,0.305,1.929,0.744,2.643,1.472c0.543,0.551,0.921,1.245,1.205,1.965
		c0.422,1.075,0.649,2.217,0.747,3.364c0.008,0.094,0.011,0.19,0.018,0.286l0,0c0.063,0.923,0.07,1.854,0.248,2.765
		c0.316,1.65,1.183,3.153,2.26,4.443c1.078,1.287,2.364,2.385,3.65,3.464c1.28,1.08,2.57,2.152,3.953,3.095
		c0.646,0.445,1.319,0.858,1.933,1.346c0.29,0.231,0.569,0.483,0.824,0.753l0,0c0.142,0.151,0.277,0.306,0.403,0.472
		c0.063,0.083,0.122,0.167,0.177,0.251c0.059,0.088,0.113,0.175,0.165,0.268c0.521,0.926,0.682,2.055,0.436,3.093
		c-0.097,0.252-0.208,0.499-0.326,0.739c-0.015,0.036-0.03,0.067-0.046,0.099c0,0.005,0,0.005,0,0.005
		c-0.388,0.784-0.866,1.524-1.433,2.194c-1.681,1.993-4.016,3.313-6.341,4.497c-3.965,2.022-8.075,3.794-11.804,6.227
		c-2.498,1.627-4.803,3.541-6.959,5.603c-1.845,1.76-3.593,3.643-5.661,5.137c-2.085,1.507-4.498,2.6-7.043,2.98
		c-3.096,0.464-6.293-0.138-9.162-1.386c-2.011-0.878-3.946-2.131-5.103-3.992c-1.163-1.869-1.428-4.159-1.432-6.359
		c-0.004-3.895,0.717-7.749,1.397-11.582c0.563-3.187,1.101-6.382,1.446-9.596c0.631-5.854,0.628-11.762,0.206-17.634
		c-0.008-0.095-0.013-0.195-0.021-0.29c-0.012-0.189-0.026-0.379-0.036-0.568c-0.025-0.384-0.027-0.774-0.022-1.143
		c-0.002-0.119,0.007-0.224,0.01-0.33c0.013-0.206,0.033-0.413,0.064-0.617c0.027-0.186,0.066-0.367,0.112-0.547
		c0.01-0.032,0.017-0.068,0.027-0.105c0.018-0.062,0.036-0.119,0.054-0.181c0.013-0.036,0.025-0.07,0.035-0.106
		c0.027-0.076,0.056-0.154,0.086-0.23c0.003-0.006,0.006-0.013,0.009-0.02c0.15-0.37,0.351-0.713,0.602-1.017
		c0.001,0,0.002-0.003,0.004-0.005c0.111-0.133,0.231-0.264,0.363-0.379c0.692-0.594,1.618-0.854,2.527-0.906
		C172.85,178.742,173.077,178.742,173.305,178.752L173.305,178.752z M206.799,188.239l0.064,0.854
		c-0.014-0.193-0.02-0.387-0.037-0.579C206.819,188.422,206.811,188.332,206.799,188.239z M206.863,189.094
		c0.035,0.61,0.062,1.219,0.134,1.823L206.863,189.094z"/>
	<path id="path28849-2" style="fill:#FFFEF3;" d="M131.91,84.656c-0.832,1-1.479,2.14-2.244,3.191
		c4.343-1.795,6.416-2.336,11.992,0.451c-0.557-0.708-0.869-1.576-1.258-2.388c-0.408-0.855-0.921-1.676-1.613-2.323
		C136.442,81.499,133.722,82.492,131.91,84.656L131.91,84.656z"/>
	<path id="path14967-1-0" style="fill:#FFFEF3;" d="M113.469,113.504c-1.784,2.229-3.565,4.454-5.341,6.688
		c-1.831,2.3-3.658,4.6-5.503,6.89c-2.264,2.806-4.582,5.634-6.055,8.926c-1.267,2.83-1.865,5.901-2.734,8.875
		c-0.984,3.38-2.323,6.645-3.825,9.827c-1.388,2.939-2.916,5.809-4.447,8.675c-1.113,2.084-2.246,4.217-2.631,6.548
		c-0.306,1.844-0.128,3.748,0.341,5.556c3.806-1,5.759-2.564,10.821,0.188c7.15,5.707,17.141,19.869,18.96,28.831
		c0.199,0.27,0.398,0.536,0.602,0.8c0.722,0.18,1.457,0.294,2.204,0.306c0.981,0.02,1.97-0.144,2.868-0.537
		c0.897-0.392,1.699-1.026,2.231-1.85c0.656-1.011,0.879-2.268,0.747-3.468c-0.131-1.195-0.599-2.339-1.225-3.367
		c-1.532-2.513-3.951-4.332-6.278-6.134c-5.025-3.892-9.885-7.999-14.536-12.328c-1.312-1.225-2.626-2.488-3.543-4.03
		c-0.894-1.501-1.376-3.212-1.703-4.929c-0.897-4.709-0.668-9.666,0.935-14.182c0.627-1.769,1.456-3.457,2.255-5.155
		c1.385-2.939,2.696-5.937,4.516-8.629C110.677,131.338,110.861,124.993,113.469,113.504z"/>
	<path id="path8561" style="fill:#FFFEF3;" d="M148.329,79.109c-0.157-0.007-0.314-0.007-0.472,0.005
		c-0.67,0.046-1.322,0.276-1.892,0.636c-0.569,0.356-1.053,0.842-1.434,1.396c-0.76,1.107-1.095,2.465-1.148,3.807
		c-0.04,1.007,0.071,2.029,0.405,2.979c0.301,0.859,0.791,1.657,1.454,2.278c1.074,0.294,2.036,0.629,2.785,1.276
		c0.09,0.008,0.18,0.02,0.27,0.024c1.031,0.049,2.075-0.248,2.923-0.838c0.677-0.469,1.219-1.115,1.606-1.841
		c0.389-0.726,0.621-1.53,0.728-2.342c0.189-1.438-0.026-2.944-0.689-4.235c-0.664-1.29-1.795-2.354-3.157-2.854
		C149.267,79.235,148.8,79.133,148.329,79.109L148.329,79.109z M148.99,80.715c0.1-0.005,0.198,0.002,0.286,0.014
		c0.772,0.098,1.544,0.621,2.018,1.32c0.523,0.771,1.065,1.955,0.677,2.823c-0.1,0.222-0.408,0.351-0.611,0.265
		c-0.653-0.278-0.525-1.505-0.989-2.099c-0.243-0.309-0.579-0.51-0.899-0.704c-0.329-0.205-0.793-0.161-1.044-0.479
		c-0.152-0.194-0.291-0.533-0.178-0.765C148.379,80.822,148.691,80.727,148.99,80.715z"/>
	<path id="path8579" style="fill:#FFFEF3;" d="M123.612,79.688c-0.298,0.022-0.591,0.093-0.864,0.217
		c-0.603,0.274-1.07,0.796-1.376,1.384c-0.307,0.587-0.463,1.244-0.573,1.895c-0.239,1.442-0.246,2.952,0.248,4.322
		c0.327,0.909,0.865,1.729,1.52,2.437c0.429,0.461,0.916,0.883,1.484,1.155c1.113-0.467,2.689-2.285,4.116-2.555
		c0.42-1.565,0.328-3.249-0.152-4.8c-0.369-1.196-0.981-2.349-1.939-3.156c-0.458-0.386-0.992-0.687-1.573-0.824
		C124.212,79.692,123.912,79.665,123.612,79.688L123.612,79.688z M124.938,81.2c0.217-0.003,0.458,0.083,0.641,0.181
		c0.636,0.337,1.151,1.01,1.36,1.719c0.23,0.78,0.359,1.893-0.223,2.442c-0.148,0.139-0.45,0.137-0.602,0
		c-0.481-0.44-0.022-1.358-0.254-1.981c-0.12-0.323-0.349-0.595-0.568-0.858c-0.228-0.268-0.64-0.393-0.762-0.724
		c-0.076-0.209-0.099-0.518,0.063-0.66C124.686,81.233,124.808,81.201,124.938,81.2L124.938,81.2z"/>
	<path id="path8549" style="fill:#FFFEF3;" d="M130.44,86.565c-3.02,1.051-5.749,2.915-7.826,5.345
		c-1.156,0.958-2.266,1.968-3.324,3.034c-1.438,1.922-2.497,5.287-1.583,5.467c0.022-0.143,0.05-0.279,0.08-0.422
		c0.135-0.66,0.208-1.335,0.422-1.976c0.274-0.811,0.766-1.533,1.308-2.198c0.948-1.164,2.067-2.186,3.312-3.022
		c2.043-2.403,4.738-4.246,7.716-5.279c2.683-0.932,5.652-1.2,8.369-0.378c1.214,0.368,2.355,0.946,3.475,1.545
		c1.088,0.585,2.164,1.191,3.27,1.741c2.227,1.103,4.572,1.966,6.985,2.548c0.788,0.191,1.588,0.355,2.327,0.684
		c0.538,0.238,1.056,0.582,1.357,1.092c0.239,0.597,0.488,0.845,0.558,0.198c-0.062-1.077-0.915-1.835-1.785-2.229
		c-0.782-0.345-1.601-0.51-2.379-0.698c-2.392-0.579-4.717-1.432-6.922-2.523c-1.095-0.546-2.169-1.152-3.26-1.737
		c-1.124-0.603-2.283-1.19-3.534-1.569C136.121,85.412,133.015,85.688,130.44,86.565L130.44,86.565z"/>
	<path id="path8535" style="fill:#FFFEF3;" d="M157.092,97.26c-0.006,0.182-0.02,0.366-0.04,0.547c-0.111,0.94-0.406,1.85-0.53,2.79
		c-0.091,0.724-0.086,1.484-0.405,2.145c-0.331,0.683-0.979,1.165-1.666,1.489c-0.688,0.323-1.431,0.515-2.144,0.778
		c-3.267,1.208-5.744,3.885-8.711,5.711c-1.558,0.961-3.26,1.689-5.017,2.207c-1.898,0.559-3.89,0.876-5.856,0.678
		c-1.676-0.168-3.325-0.719-4.704-1.687c-1.952-1.368-3.246-3.46-4.707-5.346c-1.089-1.403-2.315-2.733-3.821-3.68
		c-0.284-0.176-0.576-0.34-0.846-0.538s-0.52-0.43-0.691-0.716c-0.079-0.133-0.136-0.276-0.177-0.425
		c-0.015-0.034-0.031-0.066-0.043-0.1c-0.04-0.12-0.056-0.247-0.056-0.373c0-0.02,0.005-0.038,0.005-0.056
		c-1.07,0.515-1.034,2.314-0.53,2.836c2.027,1.25,3.867,2.807,5.436,4.6c1.446,1.647,2.785,3.696,4.901,5.092
		c1.555,1.024,3.356,1.549,5.147,1.709c2.116,0.188,4.211-0.121,6.19-0.654c1.816-0.49,3.592-1.18,5.246-2.126
		c3.11-1.782,5.58-4.242,8.526-5.18c0.646-0.204,1.416-0.358,2.222-0.701c0.402-0.168,0.813-0.389,1.194-0.698
		c0.379-0.307,0.725-0.698,0.963-1.18C157.004,102.92,159.415,97.571,157.092,97.26L157.092,97.26z"/>
	<path id="path8591" style="fill:#FFFEF3;" d="M152.852,96.68c-0.299-0.005-0.596,0.031-0.879,0.12
		c-0.373,0.119-0.708,0.336-1.009,0.585c-0.304,0.25-0.575,0.531-0.857,0.807c-0.83,0.799-1.74,1.51-2.664,2.2
		c-2.036,1.518-4.163,2.952-6.525,3.882c-1.542,0.61-3.163,0.995-4.788,1.319c-2.046,0.407-4.126,0.724-6.209,0.643
		c-2.085-0.08-4.187-0.577-5.949-1.688c-0.798-0.505-1.516-1.126-2.294-1.663c-0.776-0.536-1.64-0.992-2.577-1.098
		c-0.208-0.022-0.42-0.031-0.625-0.072c-0.067-0.013-0.134-0.036-0.2-0.059c-0.024,0.153-0.012,0.312,0.037,0.457
		c0.295,0.79,0.944,1.087,1.74,1.256c0.516,0.119,1.053,0.471,1.573,0.938c0.525,0.473,1.053,1.074,1.738,1.629
		c1.857,1.512,4.234,2.094,6.498,2.135c2.255,0.034,4.413-0.43,6.48-0.896c1.62-0.364,3.281-0.753,4.909-1.355
		c2.501-0.921,4.818-2.314,6.821-4.058c0.909-0.792,1.694-1.581,2.546-2.112c0.752-0.476,1.711-0.829,2.69-1.408
		c0.09-0.054,0.213-0.127,0.353-0.242c0.143-0.12,0.3-0.284,0.418-0.521c0.106-0.209,0.149-0.427,0.156-0.626
		c-0.164-0.027-0.327-0.059-0.49-0.084C153.451,96.719,153.148,96.682,152.852,96.68L152.852,96.68z"/>
	<path id="path8597" style="fill:#FFFEF3;" d="M137.786,88.774c-0.275,0.013-0.534,0.068-0.768,0.199
		c-0.143,0.078-0.302,0.271-0.252,0.43c0.148,0.476,0.915,0.399,1.36,0.629c0.39,0.2,0.705,0.639,1.146,0.654
		c0.419,0.009,1.079-0.153,1.132-0.567c0.074-0.551-0.73-0.894-1.246-1.099C138.743,88.862,138.246,88.746,137.786,88.774
		L137.786,88.774z M129.17,89.11c-0.561,0.075-1.251,0.907-0.981,1.36c0.084,0.143,0.341,0.324,0.516,0.226
		c0.265-0.144,0.483-0.664,0.769-0.868c0.191-0.132,0.146-0.631-0.076-0.705C129.326,89.101,129.251,89.101,129.17,89.11
		L129.17,89.11z"/>
	<path id="path6521" style="fill:#FFFEF3;" d="M195.26,173.944l-2.857-0.918c-1.152-0.372-2.319-0.72-3.521-0.825
		c-1.205-0.106-2.432,0.022-3.579,0.398l0,0l-0.987,0.684"/>
	<path id="path6519" style="fill:#FFFEF3;" d="M179.876,177.591c0.361-0.173,0.713-0.363,1.056-0.571
		c0.943-0.582,1.809-1.294,2.81-1.769c1.258-0.594,2.665-0.783,4.05-0.913c0.968-0.089,1.938-0.157,2.906-0.195
		c1.887-0.067,3.78-0.018,5.663,0.151l-1.101-0.35"/>
	<path id="path6517" style="fill:#FFFEF3;" d="M181.536,175.209l-1.642,1.137l-0.254,1.355c0.079-0.034,0.158-0.07,0.235-0.11"/>
	<path id="path29714-3-9-3-8-1" style="fill:#FFFEF3;" d="M184.314,173.283l-2.778,1.926"/>
</g>
<g id="XMLID_2_">
	<g>
		<linearGradient id="SVGID_3_" gradientUnits="userSpaceOnUse" x1="92.5698" y1="98.9248" x2="106.9102" y2="98.9248">
			<stop  offset="0" style="stop-color:#4C7FBA"/>
			<stop  offset="1" style="stop-color:#4EA7BC"/>
		</linearGradient>
		<polygon style="fill:url(#SVGID_3_);" points="106.91,41.38 106.91,159.71 92.57,152.24 92.57,38.14 		"/>
	</g>
	<g>
	</g>
</g>
<g id="XMLID_3_">
	<g>
		<linearGradient id="SVGID_4_" gradientUnits="userSpaceOnUse" x1="114.48" y1="162.7002" x2="157.1104" y2="162.7002">
			<stop  offset="0" style="stop-color:#4C7FBA"/>
			<stop  offset="1" style="stop-color:#4EA7BC"/>
		</linearGradient>
		<polygon style="fill:url(#SVGID_4_);" points="157.11,159.22 157.11,185.86 114.48,163.65 114.48,139.54 		"/>
	</g>
	<g>
	</g>
</g>
<linearGradient id="SVGID_5_" gradientUnits="userSpaceOnUse" x1="124.8403" y1="118.748" x2="189.3828" y2="118.748">
	<stop  offset="0" style="stop-color:#EB8256"/>
	<stop  offset="1" style="stop-color:#EDAE53"/>
</linearGradient>
<polygon style="fill:url(#SVGID_5_);" points="189.383,120.973 124.84,139.342 124.84,112.711 189.383,98.154 "/>
<linearGradient id="SVGID_6_" gradientUnits="userSpaceOnUse" x1="124.8403" y1="196.4219" x2="142.916" y2="196.4219">
	<stop  offset="0" style="stop-color:#EB8256"/>
	<stop  offset="1" style="stop-color:#EDAE53"/>
</linearGradient>
<polygon style="fill:url(#SVGID_6_);" points="142.916,236.449 124.84,245.865 124.84,152.657 142.916,146.979 "/>
<linearGradient id="SVGID_7_" gradientUnits="userSpaceOnUse" x1="151.4229" y1="210.7246" x2="189.3828" y2="210.7246">
	<stop  offset="0" style="stop-color:#EB8256"/>
	<stop  offset="1" style="stop-color:#EDAE53"/>
</linearGradient>
<polygon style="fill:url(#SVGID_7_);" points="189.383,212.249 151.423,232.02 151.423,206.96 189.383,189.43 "/>
</svg>
