<?xml version="1.0" encoding="iso-8859-1"?>
<!-- Generator: Adobe Illustrator 16.0.0, SVG Export Plug-In . SVG Version: 6.00 Build 0)  -->
<!DOCTYPE svg PUBLIC "-//W3C//DTD SVG 1.1//EN" "http://www.w3.org/Graphics/SVG/1.1/DTD/svg11.dtd">
<svg version="1.1" id="&#x56FE;&#x5C42;_1" xmlns="http://www.w3.org/2000/svg" xmlns:xlink="http://www.w3.org/1999/xlink" x="0px"
	 y="0px" width="283.46px" height="283.46px" viewBox="0 0 283.46 283.46" style="enable-background:new 0 0 283.46 283.46;"
	 xml:space="preserve">
<linearGradient id="SVGID_1_" gradientUnits="userSpaceOnUse" x1="17.0396" y1="183.9043" x2="265.2903" y2="98.4247">
	<stop  offset="0" style="stop-color:#49C0E5"/>
	<stop  offset="1" style="stop-color:#7A4999"/>
</linearGradient>
<path style="fill:url(#SVGID_1_);" d="M247.465,233.292c0,7.826-6.346,14.172-14.174,14.172H49.039
	c-7.828,0-14.173-6.346-14.173-14.172V49.04c0-7.828,6.346-14.174,14.173-14.174h184.252c7.828,0,14.174,6.346,14.174,14.174
	V233.292z"/>
<g>
	<g>
		<path style="fill:none;stroke:#FFFFFF;stroke-miterlimit:10;" d="M98.646,209.196c0,1.564-1.27,2.834-2.835,2.834H73.134
			c-1.565,0-2.835-1.27-2.835-2.834V73.134c0-1.564,1.27-2.834,2.835-2.834h22.677c1.565,0,2.835,1.27,2.835,2.834V209.196z"/>
		<path style="fill:none;stroke:#FFFFFF;stroke-miterlimit:10;" d="M212.031,209.196c0,1.564-1.27,2.834-2.834,2.834h-93.543
			c-1.565,0-2.835-1.27-2.835-2.834v-22.678c0-1.564,1.27-2.834,2.835-2.834h93.543c1.564,0,2.834,1.27,2.834,2.834V209.196z"/>
	</g>
	<line style="fill:none;stroke:#FFFFFF;stroke-miterlimit:10;" x1="70.299" y1="89.72" x2="98.646" y2="131.036"/>
	<line style="fill:none;stroke:#FFFFFF;stroke-miterlimit:10;" x1="93.156" y1="70.3" x2="70.299" y2="141.165"/>
	<line style="fill:none;stroke:#FFFFFF;stroke-miterlimit:10;" x1="70.299" y1="172.354" x2="98.646" y2="161.315"/>
	<line style="fill:none;stroke:#FFFFFF;stroke-miterlimit:10;" x1="93.156" y1="123.034" x2="70.299" y2="161.315"/>
	<line style="fill:none;stroke:#FFFFFF;stroke-miterlimit:10;" x1="70.299" y1="187.923" x2="98.646" y2="205.888"/>
	<line style="fill:none;stroke:#FFFFFF;stroke-miterlimit:10;" x1="81.727" y1="212.03" x2="98.646" y2="183.685"/>
	<line style="fill:none;stroke:#FFFFFF;stroke-miterlimit:10;" x1="70.299" y1="180.737" x2="98.646" y2="148.403"/>
	<line style="fill:none;stroke:#FFFFFF;stroke-miterlimit:10;" x1="76.147" y1="123.034" x2="87.766" y2="212.03"/>
	<line style="fill:none;stroke:#FFFFFF;stroke-miterlimit:10;" x1="81.727" y1="70.3" x2="70.299" y2="101.696"/>
	<line style="fill:none;stroke:#FFFFFF;stroke-miterlimit:10;" x1="115.654" y1="212.03" x2="155.43" y2="183.685"/>
	<line style="fill:none;stroke:#FFFFFF;stroke-miterlimit:10;" x1="115.654" y1="183.685" x2="155.43" y2="212.03"/>
	<line style="fill:none;stroke:#FFFFFF;stroke-miterlimit:10;" x1="172.197" y1="183.685" x2="194.354" y2="212.03"/>
	<line style="fill:none;stroke:#FFFFFF;stroke-miterlimit:10;" x1="145.836" y1="205.192" x2="162.426" y2="183.685"/>
	<line style="fill:none;stroke:#FFFFFF;stroke-miterlimit:10;" x1="212.031" y1="186.519" x2="135.542" y2="212.03"/>
	<line style="fill:none;stroke:#FFFFFF;stroke-miterlimit:10;" x1="173.787" y1="212.03" x2="188.365" y2="183.685"/>
	<line style="fill:none;stroke:#FFFFFF;stroke-miterlimit:10;" x1="98.646" y1="93.911" x2="70.299" y2="110.378"/>
</g>
</svg>
