<?xml version="1.0" encoding="iso-8859-1"?>
<!-- Generator: Adobe Illustrator 16.0.0, SVG Export Plug-In . SVG Version: 6.00 Build 0)  -->
<!DOCTYPE svg PUBLIC "-//W3C//DTD SVG 1.1//EN" "http://www.w3.org/Graphics/SVG/1.1/DTD/svg11.dtd">
<svg version="1.1" id="&#x56FE;&#x5C42;_1" xmlns="http://www.w3.org/2000/svg" xmlns:xlink="http://www.w3.org/1999/xlink" x="0px"
	 y="0px" width="283.46px" height="283.46px" viewBox="0 0 283.46 283.46" style="enable-background:new 0 0 283.46 283.46;"
	 xml:space="preserve">
<g>
	<path style="fill:#D83B3F;" d="M247.716,233.934c0,7.827-6.346,14.173-14.174,14.173H49.29c-7.827,0-14.173-6.346-14.173-14.173
		V49.682c0-7.828,6.346-14.174,14.173-14.174h184.252c7.828,0,14.174,6.346,14.174,14.174V233.934z"/>
	<g>
		<g>
			<g>
				<g>
					<path style="fill:#D83B3F;" d="M250.15,232.968c-0.037,1.221,0.383,0.782,0.457,0.966
						C250.516,231.894,250.041,233.02,250.15,232.968z"/>
					<polygon style="fill:#D83B3F;" points="249.199,212.837 249.37,213.193 248.951,210.226 					"/>
					<path style="fill:#D83B3F;" d="M249.207,194.011c-0.714,1.78,0.115,6.821-0.139,10.176l-0.162,0.553l0.574,1.513
						C249.389,202.176,249.008,196.881,249.207,194.011z"/>
					<path style="fill:#D83B3F;" d="M250.751,183.974c-0.278,0.618-0.239-2.172-0.087,2.341c0.03-0.228,0.048-0.293,0.07-0.425
						C250.73,185.484,250.73,184.925,250.751,183.974z"/>
					<path style="fill:#D83B3F;" d="M250.734,185.89C250.754,187.872,250.968,184.592,250.734,185.89L250.734,185.89z"/>
					<path style="fill:#D83B3F;" d="M250.575,176.734l0.248,2.611c0.164-0.546,0.201-2.87,0.32-2.007
						C251.008,174.66,250.845,175.211,250.575,176.734z"/>
					<path style="fill:#D83B3F;" d="M250.055,174.258l0.104,1.354C250.229,175.374,250.252,175.017,250.055,174.258z"/>
					<path style="fill:#D83B3F;" d="M250.381,178.481l-0.222-2.87c-0.115,0.378-0.347,0.418,0.08,1.317
						C250.027,176.694,250.23,177.262,250.381,178.481z"/>
					<path style="fill:#D83B3F;" d="M250.271,180.105c-0.154,1.465-0.252,3.358-0.5,0.736
						C249.87,185.838,250.372,185.102,250.271,180.105z"/>
					<path style="fill:#D83B3F;" d="M248.469,193.05l-0.209,1.958l0.239,1.694C248.381,195.856,248.692,192.929,248.469,193.05z"/>
					<path style="fill:#D83B3F;" d="M250.945,160.466c-0.152-0.163-0.405,0.878-0.6,1.073l0.174,1.929
						C250.624,162.477,250.72,160.598,250.945,160.466z"/>
					<path style="fill:#D83B3F;" d="M250.346,161.539l-0.261-2.887C250.055,161.23,250.178,161.702,250.346,161.539z"/>
					<polygon style="fill:#D83B3F;" points="249.262,173.792 249.81,178.533 249.254,172.879 					"/>
					<polygon style="fill:#D83B3F;" points="250.964,149.442 251.315,151.079 250.784,148.165 					"/>
					<path style="fill:#D83B3F;" d="M250.902,142.132c0.291,1.21,0.492-1.66,0.672-0.38c-0.053-1.987-0.303-3.683-0.527-5.209
						C251.173,138.165,251.141,139.895,250.902,142.132z"/>
					<path style="fill:#D83B3F;" d="M250.72,133.979c0.069,0.81,0.194,1.65,0.327,2.563
						C250.98,135.681,250.883,134.833,250.72,133.979z"/>
					<path style="fill:#D83B3F;" d="M250.16,153.736c0.092-0.223,0.332-0.653,0.434-2.271l-0.428,1.135
						C250.165,152.946,250.162,153.338,250.16,153.736z"/>
					<path style="fill:#D83B3F;" d="M250.152,152.64l0.014-0.04c0.013-1.232,0.021-2.086,0.024-2.452
						C250.186,150.462,250.175,151.212,250.152,152.64z"/>
					<path style="fill:#D83B3F;" d="M250.158,154.022c0.001-0.105,0.001-0.183,0.002-0.286
						C250.118,153.846,250.104,153.911,250.158,154.022z"/>
					<path style="fill:#D83B3F;" d="M249.648,166.227c-0.238-1.696-0.495-5.231-0.859-1.81
						C249.082,165.633,249.289,163.675,249.648,166.227z"/>
					<path style="fill:#D83B3F;" d="M249.624,155.432l-0.098,3.065c0.112-0.06,0.277-0.612,0.396,0.228L249.624,155.432z"/>
					<polygon style="fill:#D83B3F;" points="249.488,153.932 249.624,155.432 249.66,154.296 					"/>
					<path style="fill:#D83B3F;" d="M250.32,139.23c-0.187-1.324-0.202-2.773-0.232-4.409c-0.084,1.754-0.129,3.567-0.128,5.289
						C250.094,140.353,250.335,141.109,250.32,139.23z"/>
					<path style="fill:#D83B3F;" d="M250.201,145.746c-0.008-0.091-0.018-0.208-0.024-0.294
						C250.141,145.633,250.129,145.778,250.201,145.746z"/>
					<path style="fill:#D83B3F;" d="M250.092,118.712c-0.027,0.088-0.051,0.167-0.078,0.259c0.025,0.02,0.049,0.034,0.074,0.06
						L250.092,118.712z"/>
					<path style="fill:#D83B3F;" d="M249.881,140.404c-0.083,1.317,0.021,2.106,0.153,2.856c-0.043-0.985-0.071-2.03-0.074-3.151
						C249.899,140,249.859,139.98,249.881,140.404z"/>
					<path style="fill:#D83B3F;" d="M250.52,129.484c-0.089,0.687-0.164,1.465-0.234,2.283
						C250.42,131.097,250.631,129.728,250.52,129.484z"/>
					<path style="fill:#D83B3F;" d="M250.295,145.008c0.006,0.066,0.012,0.126,0.02,0.197
						C250.406,144.773,250.361,144.827,250.295,145.008z"/>
					<path style="fill:#D83B3F;" d="M250.295,145.008c-0.062-0.679-0.167-1.212-0.261-1.747c0.034,0.802,0.079,1.546,0.143,2.191
						C250.207,145.289,250.253,145.126,250.295,145.008z"/>
					<path style="fill:#D83B3F;" d="M247.348,113.832c0.396,0.233,0.763,3.698,0.338,6.69c0.297,2.944,1.6,1.019,2.328-1.55
						c-0.173-0.092-0.332-0.092-0.566-3.121c-0.217,1.061-0.506,6.722-0.864,4.166c-0.204-4.013,0.14-3.289,0.35-5.239
						c-0.493,1.658-0.718-5.106-1.444-4.232l0.256,3.519C247.631,114.13,247.451,112.854,247.348,113.832z"/>
					<path style="fill:#D83B3F;" d="M249.973,124.743l0.049,1.246c0.07-1.421,0.229-2.438,0.538-4.311
						c-0.193-2.074-0.341-2.504-0.472-2.647l-0.056,6.139L249.973,124.743z"/>
					<path style="fill:#D83B3F;" d="M250.023,131.586c-0.431-0.973-0.613-3.967-1.08-2.134c0.029,3.659,0.359,2.564,0.547,4.75
						c-0.107-5.904,0.24,1.696,0.484-2.57c0.073,1.16,0.096,2.204,0.113,3.188c0.053-1.063,0.117-2.088,0.197-3.053
						c-0.011,0.054-0.019,0.091-0.027,0.135l0.002,0.028c-0.003,0-0.004-0.006-0.007-0.006c-0.054,0.255-0.087,0.338-0.056,0.052
						c-0.005-0.02-0.007-0.091-0.008-0.124c-0.061-0.04-0.113-0.149-0.163-0.267c0.089-1.71,0.112-0.269,0.163,0.267
						c0.021,0.02,0.041,0.066,0.063,0.072l0.005-0.022l-0.236-5.914C249.963,127.241,249.975,128.808,250.023,131.586z"/>
					<path style="fill:#D83B3F;" d="M247.862,161.262c0.038-0.183,0.069-0.175,0.101-0.188
						C247.91,160.69,247.873,160.546,247.862,161.262z"/>
					<path style="fill:#D83B3F;" d="M248.123,158.83c0.06,0.43,0.232,0.788,0.188,2.186c-0.129,1.212-0.207-0.006-0.348,0.058
						c0.113,0.842,0.309,2.947,0.518,0.307l-0.059-0.418c0.148-2.381,0.686-5.44,0.745-5.024
						C248.779,156.633,248.503,157.245,248.123,158.83z"/>
					<path style="fill:#D83B3F;" d="M248.963,145.038l-0.211-4.924l-0.373,2.508l0.225-0.127
						C248.516,145.295,248.791,144.689,248.963,145.038z"/>
					<polygon style="fill:#D83B3F;" points="250.306,118.149 250.761,118.802 250.118,115.958 					"/>
					<polygon style="fill:#D83B3F;" points="250.251,111.75 250.646,111.986 250.408,110.296 					"/>
					<path style="fill:#D83B3F;" d="M37.492,119.968l0.112,1.445C37.57,120.728,37.532,120.286,37.492,119.968z"/>
					<path style="fill:#D83B3F;" d="M37.519,109.49l-0.195-0.254C37.432,109.721,37.511,109.92,37.519,109.49z"/>
					<path style="fill:#D83B3F;" d="M160.704,33.017c-2.109-0.37-4.467-0.943-4.212-0.498l0.649,0.434
						C158.614,32.875,159.741,32.924,160.704,33.017z"/>
					<path style="fill:#D83B3F;" d="M53.064,35.607c0.203,0.043,0.41,0.087,0.617,0.132c0.509-0.148,0.994-0.29,1.425-0.415
						C54.493,35.409,53.793,35.506,53.064,35.607z"/>
					<path style="fill:#D83B3F;" d="M51.58,37.403c0,0-0.695-0.07-1.389-0.14c-0.345-0.034-0.69-0.068-0.949-0.093
						c-0.231-0.014-0.385-0.022-0.385-0.022C49.366,37.197,50.342,37.325,51.58,37.403z"/>
					<path style="fill:#D83B3F;" d="M37.952,177.182l0.442,1.688C38.392,176.226,38.169,177.389,37.952,177.182z"/>
					<path style="fill:#D83B3F;" d="M249.584,45.672c-0.369-2.104-1.047-3.727-1.857-4.991
						C248.908,43.035,249.092,45.107,249.584,45.672z"/>
					<path style="fill:#D83B3F;" d="M32.888,115.843c0.079,0.884,0.167,1.266,0.264,1.238
						C33.078,116.17,32.995,115.652,32.888,115.843z"/>
					<path style="fill:#D83B3F;" d="M243.501,36.159c0.271,0.267,0.575,0.491,0.834,0.779c1.239,0.957,2.365,2.113,3.392,3.743
						C246.868,38.963,245.398,37.167,243.501,36.159z"/>
					<path style="fill:#D83B3F;" d="M177.773,245.631c0.151,0.02,0.335,0.029,0.47,0.052
						C178.291,245.624,178.08,245.621,177.773,245.631z"/>
					<path style="fill:#D83B3F;" d="M238.754,249.13c-0.308,0.142-0.735,0.262-1.211,0.384c-0.237,0.062-0.486,0.127-0.738,0.192
						l-0.774,0.127C236.535,249.796,237.387,249.646,238.754,249.13z"/>
					<path style="fill:#D83B3F;" d="M250.44,86.001C250.469,87.358,250.488,86.216,250.44,86.001L250.44,86.001z"/>
					<path style="fill:#D83B3F;" d="M248.725,92.602c-0.049-0.289-0.111-0.508-0.211-0.542
						C248.618,92.171,248.685,92.361,248.725,92.602z"/>
					<path style="fill:#D83B3F;" d="M229.017,35.572c-0.04,0-0.071-0.001-0.119-0.001C229.303,35.656,229.231,35.64,229.017,35.572z
						"/>
					<path style="fill:#D83B3F;" d="M250.243,88.043c0.054-0.51,0.098-1.097,0.129-1.736
						C250.338,86.588,250.297,87.116,250.243,88.043z"/>
					<path style="fill:#D83B3F;" d="M250.448,87.769c-0.017,0.468-0.029,0.836-0.042,1.187
						C250.479,89.126,250.523,88.975,250.448,87.769z"/>
					<path style="fill:#D83B3F;" d="M250.417,84.11c0.007,0.776-0.014,1.5-0.045,2.197c0.029-0.267,0.054-0.378,0.068-0.307
						C250.436,85.603,250.429,85.042,250.417,84.11z"/>
					<path style="fill:#D83B3F;" d="M66.595,246.792c0.091,0.013,0.194,0.027,0.294,0.041
						C68.259,246.652,67.654,246.682,66.595,246.792z"/>
					<path style="fill:#D83B3F;" d="M125.377,37.522c0.063-0.009,0.096-0.013,0.155-0.021c-0.063-0.005-0.143-0.011-0.203-0.015
						L125.377,37.522z"/>
					<path style="fill:#D83B3F;" d="M120.505,37.846c2.074-0.54,3.256-0.474,4.825-0.359l-1.608-1.251L120.505,37.846z"/>
					<path style="fill:#D83B3F;" d="M37.617,145.048l0.39-3.424c0.642,4.132,0.42,7.126,0.969,3.909
						c-1.358-0.485-0.139-13.304-1.496-13.782l0.286-2.257c-0.013,0.649,0.067,0.752,0.053,1.389c0.65-4.387-0.982-3.26-0.789-8.917
						c0.104-1.967,0.301-3.344,0.462-1.999l-0.336-4.395c0.026-1.274,0.262-0.963,0.236,0.311l-0.108-6.7l0.04,0.052
						c-0.213-0.956-0.542-3.121-0.683-4.18c0.195-1.704,0.144,0.852,0.313,0.418l-0.329-3.706c0.352-1.513,0.693,1.561,0.643,4.124
						c1.356-3.463-0.342-3.081,0.45-10.553l0.172,3.499c0.771-2.253,0.491-4.988,0.972-8.949c-0.251,0.94-1.21,7.93-1.549,3.901
						c0.103-1.13,0.151-2.627-0.122-4.801c0.483-0.016,0.364-2.138,0.337-4.793l0.64,0.183c-0.185-2.866-0.51-2.644-0.798-4.331
						c0.063-3.193,0.559-3.858,0.976-4.61c0.102-5.119-0.794,3.535-0.915-2.523c0.245-4.26-0.017-7.246-0.399-12.341
						c0.22-2.978,0.391,0.521,0.574-0.55l-0.51-2.639c0.012-0.649,0.169-0.438,0.248-0.331c-0.198-2.229-0.639-0.183-0.813-3.686
						c-0.176-0.235-0.2-0.801-0.149-1.586c0.025-0.392,0.07-0.839,0.123-1.327c0.027-0.244,0.056-0.498,0.085-0.76
						c0.042-0.234,0.085-0.476,0.129-0.723c0.147-0.986,0.497-2.005,0.814-3.001c0.38-0.984,0.755-1.958,1.101-2.854
						c0.635-0.701,0.1,0.594,0.461,0.473c1.101-2.272,2.028-3.017,2.704-3.728c0.181-0.175,0.357-0.346,0.544-0.526
						c0.202-0.166,0.414-0.341,0.655-0.539c0.234-0.217,0.529-0.402,0.869-0.64c0.333-0.255,0.75-0.479,1.246-0.752
						c0,0,0.058-0.014,0.159-0.04c0.099-0.03,0.246-0.057,0.425-0.078c0.357-0.036,0.817-0.146,1.291-0.154
						c0.941-0.075,1.867,0.015,1.867,0.015c-0.682-0.089-0.996-0.197-1.019-0.311c-0.025-0.135,0.241-0.29,0.714-0.438
						c0.458-0.167,1.17-0.306,1.974-0.425c0.8-0.116,1.685-0.243,2.539-0.366c-1.083-0.232-2.01-0.435-2.631-0.532l5.454-0.343
						c0.661,0.105,0.112,0.325-0.78,0.592c0.37-0.057,0.724-0.111,0.996-0.153c1.951,0.236,0.939,0.605-0.454,0.963
						c-0.667-0.134-1.325-0.266-1.966-0.395c-1.346,0.389-2.607,0.819-2.325,1.193c0.351-0.074,1.035-0.137,1.784-0.173
						c-0.35,0.105-0.573,0.2-0.414,0.264c0.187,0.067,0.756-0.074,1.648-0.237l1.242,0.713l0.299-0.283l7.138,0.446
						c5.104-0.718,9.546-1.774,17.647-2.069c-2.01,0.523-0.434,0.854-0.541,1.474c-2.209-0.656-6.278,0.279-10.474,0.146
						c2.189,0.069,1.708,0.364,1.151,0.467l7.488-0.597c-0.167,0.507,1.592,0.38,3.551,0.589c-1.481-1.001,5.581-0.667,8.63-0.974
						c0.187,0.336-0.542,0.68-4.26,0.599c4.101,0.754,5.299-1.176,9.324-0.536c-0.908,0.008-1.394-0.043-1.752,0.127
						c2.118-0.299,7.301-0.062,6.083,0.231l-0.908,0.007c6.027,0.119,18.352,0.007,19.251-0.843c0.056,0.11-0.792,1.025-1.154,1.197
						l10.752-2.862c-0.947,0.73,2.687,2.47-2.309,2.883c1.438,0.104,3.213,0.226,6.238-0.032c-0.979-0.104-2.444-1.056-1.107-1.123
						c3.675,0.813,2.552,0.435,7.078,1.128c-1.465-0.157,0.164-1.302,2.484-1.266c-0.366,0.171,0.191,1.131-0.657,1.25l5.772-1.125
						c-1.441,0.203-0.255,0.953,1.039,1.271c-0.602-0.22,4.988,0.021,6.528-0.091l-2.448-0.261c6.518,0.17,6.438-1.582,12.902-1.522
						c-0.78,0.232-1.935,1.43,1.354,1.571c1.509-0.576,6.672-2.771,12.396-3.214l1.095,0.329l4.392-0.375
						c-2.735,0.867-10.406,2.69-14.595,3.4c2.44,0.261,0.681,0.388,4.331,0.358c1.29,0.309-1.99,0.468-3.064,0.486l8.503,0.199
						c-0.374-0.673,6.505-0.674,6.179-1.234l-9.236,0.697c-0.374-0.671,5.343-1.908,11.37-1.79c1.528,0.268-1.146,1.197-1.023,1.421
						c0.784-0.231,5.721-0.442,6.27-0.278l-2.556,0.359c3.356,0.253,5.478-0.891,9.507-0.25c1.394,0.043,4.156,0.866,4.395,0.468
						c-2.269-0.767-2.715-3.14-1.202-3.716c0.49,0.052,7.309,0.733,8.894,1.112c2.293,0.602-3.439,1.434-1.489,1.95
						c0.088-0.184,1.354-0.41,1.879-0.483c1.461,0.157-0.604,0.569,2.572,0.486c0.525-0.682,6.457,0.058,1.496-0.576
						c3.105-0.195,3.305,0.14,6.951,0.11c-1.162-0.44,3.272-1.499,6.386-1.693c-0.184,0.173,0.513,0.399,0.852,0.502
						c3.175,0.082,5.669-0.074,7.917,0.644c2.249,0.654,4.302,1.792,6.359,3.8c0.105,0.269,0.64,0.899,0.892,1.462
						c0.275,0.548,0.399,0.917-0.06,0.55c0.555,0.564,1.18,1.06,1.887,2.651c0.294,1.671-0.051,0.757-0.458-0.188
						c-0.466-0.94-1.076-1.861-0.796-0.629c0.215,0,0.854,0.885,1.353,2.169c0.551,1.284,0.743,2.912,0.868,4.208
						c0.306-0.413,0.354-1.879-0.072-3.514c-0.417-1.632-1.374-3.285-2.172-4.222c0.329-0.226,1.372,0.411,2.421,2.121
						c0.126,0.217,0.259,0.445,0.396,0.684c0.109,0.253,0.224,0.517,0.342,0.791c0.257,0.55,0.406,1.178,0.589,1.851
						c0.141,0.662,0.25,1.438,0.315,2.149c0.054,0.718,0.11,1.468,0.169,2.242c0.209,4.929-0.546,2.138-0.426,2.994
						c-0.147,9.262,1.474,7.891,0.865,15.582c-0.538,3.051-1.07,0.137-1.458,0.814c-0.204-4.017,0.341-6.167,0.319-8.887
						l-0.254,3.35c-0.179-1.278-0.314-3.959-0.158-5.42c-0.483,2.556-0.094,15.647-0.539,22.793c0.18,1.27,0.367,3.461,0.583,2.424
						l-0.075-2.261c0.434-2.078,0.6,4.255,0.802,1.394c0.306,3.033,0.784,6.433,0.539,10.703l-0.613,0.802
						c0.179-0.091,0.365-2.791,0.179-3.991c0.271,1.779-0.83,6.547-0.027,8.497l0.425-2.994c0.308,3.045,0.959,6.81,0.766,10.593
						c0.605-1.722-0.069-0.872,0.64-3.561c-0.882,2.331,0.037-9.68-0.89-5.936c0.822-2.759,0.349-4.775,1.05-8.382
						c-0.202,0.111-0.387,1.278-0.287-1.899c-0.059-0.144-0.135-0.482-0.178-0.697c0.007-0.098,0.009-0.131,0.015-0.215
						c-0.009,0.063-0.016,0.111-0.024,0.175c-0.029-0.137-0.036-0.149-0.008,0.066c-0.088,0.756-0.195,1.37-0.308,1.618
						c-0.464-1.576-0.45-6.628-0.69-8.336c0.097-1.885,0.232,0.788,0.448-0.241l-0.359-2.552c0.449-0.253,0.746-5.008,1.009-0.567
						l0.021-3.997c0.252-2.353,0.353-5.589,0.163-7.585c0.098-1.885-0.497-4.761-0.146-3.121l-0.278-6.266l0.112-0.056
						c0.015-1.546-0.025-3.115-0.08-4.709c-0.028-0.797-0.058-1.6-0.088-2.41c-0.005-0.375-0.055-0.89-0.089-1.351l-0.06-0.707
						l-0.122-0.703c-0.632-3.766-2.496-7.376-5.409-10.363c-0.484-0.376-1.01-0.708-1.543-1.066c-0.572-0.3-1.13-0.678-1.796-0.959
						c-1.288-0.647-2.855-1.189-4.851-1.592l-0.746-0.504c-1.747-0.091-3.622-0.12-5.458-0.199c-1.815-0.063-3.44-0.094-4.014,0.109
						c-2.887-1.045-12.979-0.228-17.676-0.414l-0.179,0.507c-3.236-0.029-6.342,0.115-10.354,0.319l0.247,0.448
						c-3.464,0.368-8.905-0.319-14.384-0.273c0.371-0.171,1.764-0.126,2.743-0.023c-6.545-1.013-13.806,0.737-19.741-0.001
						c-1.477,0.163-2.552,0.107-3.587-0.005c0.136-0.001,0.263-0.009,0.366-0.023c-0.151-0.001-0.374-0.003-0.604-0.005
						c-0.653-0.076-1.331-0.155-2.055-0.239c0.617,0.109,1.21,0.199,1.728,0.24c-1.143,0.009-2.874,0.065-4.569,0.177l-0.721-0.481
						c-0.14,0.005-0.251,0.009-0.395,0.014c-1.664-0.178-1.338,0.228-0.445,0.59c-0.856,0.079-1.641,0.174-2.246,0.291
						c-1.354-0.777-4.45,0.262-6.293-0.567c-1.143,0.404-8.523,0.304-9.431,1.155c-0.056-0.111-0.557-0.164,0.358-0.17
						c-1.887-0.097-3.778-0.194-5.474,0.046l-0.8-0.612l-4.132,0.823c-2.508-0.373-3.543-0.59-1.055-1.061
						c-6.015,0.725-4.877,0.273-9.992,0.991l0.25-0.396c-1.831,0.015-4.753,0.545-5.852,0.218
						c-4.093-0.752-20.231-0.104-30.729-0.803c2.035,1.166-4.876-0.522-5.294,0.381c-0.609-0.275-2.074-0.431-0.374-0.671
						c-5.354,0.271-8.045-0.437-11.748,0.325c-0.613-0.277,1.147-0.404,0.605-0.568c-0.43,0.06-1.704,0.24-2.261,0.075
						c-0.545-0.164,0.784-0.231,1.632-0.352c-5.47,0.046-6.027,0.896-6.425,1.693c-2.771-0.377-4.156-0.324-6.155,0.199
						c-0.967-0.261-2.58-0.534,0.82-0.627c-0.489-0.004-1.422-0.049-2.659-0.055c-1.323-0.006-2.899,0.184-4.357,0.611
						c-2.949,0.859-5.126,2.741-4.992,3.039c-0.328,0.112-0.86,0.624-1.385,1.116c-0.476,0.542-0.926,1.088-1.06,1.333
						c-1.464,1.832-1.992,3.028-2.464,4.196c-0.11,0.297-0.22,0.594-0.336,0.906c-0.083,0.322-0.17,0.659-0.266,1.028
						c-0.107,0.366-0.165,0.776-0.228,1.234c-0.032,0.229-0.066,0.47-0.102,0.725c-0.012,0.257-0.024,0.529-0.037,0.816
						c0,0,0.042-0.316,0.085-0.631c0.046-0.315,0.132-0.624,0.132-0.624c0.536,1.896,0.046,3.638,0.112,7.055l-0.079-0.1
						c-0.556,7.795,0.267,3.368-0.368,11.051l0.479-0.418c1.032,0.716-0.608,6.811-0.214,11.27l0.274-1.608
						c0.353,2.436-1.403,6.807-1.532,9.251c-0.09,0.534-0.144-0.84-0.21-1.584c-0.608,6.405,0.628,0.828,0.774,5.605
						c-0.339,0.875-0.862-1.139-0.925,2.078c-0.274,1.601,1.1,9.315,0.45,13.698c0.261-0.967,0.522-1.922,0.718,0.291
						c0.093,3.399-0.987,9.188-0.164,12.257c-0.071,0.434-0.14,0.593-0.205,0.613c0.212,2.6,0.353,8.443,0.799,10.004
						c-1.657,2.405,0.806,16.151-0.722,16.091l0.082,7.993l-0.156-0.211c-0.101,5.107,0.265,6.915,0.632,8.706
						c-0.104,1.183-0.247,0.318-0.327,0.224c-0.308,7.46-0.243,8.204,0.518,14.458L33.482,175
						c0.288,1.695-0.777,10.788-0.199,18.104c-0.056-0.071-0.152-0.223-0.222-0.804c0.582,8.236-1.375,19.714,0.43,22.73
						l0.445,5.438c0.14-7.03,0.783,1.043,1.083-1.848c0.106,2.763-0.544,7.15-0.637,3.75l0.09-0.533
						c-0.941-1.246-0.333,8.738-0.974,8.551c0.032,1.759-0.068,3.355,0.103,5.351c0.191,1.906,0.76,3.769,1.62,5.47
						c1.716,3.41,4.669,6.151,8.181,7.609c1.75,0.736,3.638,1.157,5.528,1.212c1.751,0.064,3.348,0.071,5.018,0.105
						c3.302,0.054,6.574,0.094,9.813,0.104l-1.489-0.731l4.518,0.042c1.187,0.17,1.592,0.572-1.632,0.542
						c1.696,0.415,5.41-0.347,5.498-0.507c6.313,0.297-2.464,0.854-0.526,0.871l2.627-0.055l-0.593-0.086
						c2.129-0.299,2.321-0.615,6.198-0.579c2.452,0.146,1.258,0.451,2.221,0.479c-0.008,0.052,0.318,0.076,1.481,0.021l5.692,0.063
						l-2.277-0.578c2.524-0.285,5.358,0.03,2.731-0.624c3.854,1.009,21.242,0.362,23.607,0.675c3.535-0.42,7.026-0.413,11.349-0.362
						c-1.075-0.12-1.715-0.77,2.011-0.69c-1.362,1.34,6.827,0.582,9.841,1.546c-2.691-0.64,10.597-0.157,6.373-1.065
						c3.109,0.108,0.188,0.502,2.552,0.816c7.404-0.519,16.313,0.338,25.47,0.162c0.144-0.176-1.394-0.444,0.573-0.706l4.833,0.88
						c1.807-0.087,1.664-1.016,4.964-0.405c-0.466-0.147-1.162-0.371,0.052-0.427c8.965,0.428,18.124,0.252,27.318,0.171
						c4.597-0.04,9.202-0.058,13.797,0.036c2.297,0.047,4.592,0.121,6.881,0.234l3.429,0.2c1.164,0.068,2.197,0.197,3.603,0.201
						c-1.46-0.088-1.626-0.198-1.277-0.254c0.383-0.095,1.389-0.066,2.444-0.277c-1.383,0.125-0.029-0.435-0.334-0.63
						c0-0.001,2.103-0.074,4.119-0.807c0.491-0.196,1-0.372,1.454-0.585c0.449-0.229,0.869-0.442,1.229-0.625
						c0.685-0.434,1.142-0.724,1.142-0.724c0.403-0.748,2.1-2.271,3.23-4.165c1.167-1.855,1.806-3.907,1.563-4.41
						c0.063,0.013-0.703,2.542-0.78,2.516c0.338-1.765-0.497-0.714-1.552,0.381c-1.104,1.11-2.588,2.098-2.805,1.599
						c-0.756,1.522-2.76,2.816-5.082,3.413c-1.154,0.345-2.404,0.458-3.659,0.573c-0.674,0.042-1.354,0.084-2.043,0.127
						c-0.732,0.061-1.47,0.16-2.207,0.313c-1.298-0.195,1.115-0.309,0.414-0.531c-1.493,0.411-3.296,0.496-6.644,0.313l0.378-0.102
						c-9.399,0.1-13.432-0.305-23.989-0.574l0.78,0.474c-2.269-0.063-2.747-0.212-3.806-0.331c-2.604,0.719,6.369,0.041,3.997,0.833
						c-3.01-0.964-15.999-0.015-18.034-1.11c-3.491-0.006,1.023,0.549-2.468,0.543l-0.924-0.297l-0.884,0.382
						c-2.285-0.063-3.439-0.434-3.526-0.685c0.557,0.029,1.576-0.07,2.173-0.092c-2.97-0.35-8.367,0.119-9.387,0.006l3.352,0.182
						c-9.521,0.277-21.154-0.111-30.358,0.491l0.697,0.224c-7.026,0.414-5.629-0.246-13.348-0.055l0.283-0.053
						c-1.544,0.223-3.607,0.335-5.721,0.31c1.951-0.262-3.662-0.509-1.106-0.798c-7.624,0.443-3.774,0.348-8.806,1.179l-1.162-0.37
						c-1.712,0.335-1.855,0.512-5.708,0.607c3.161-0.318-2.46-0.564,1.079-0.985c-8.085-0.812-12.01,0.819-15.721-0.367
						c-3.71,1.026,6.999,0.569,4.92,0.79c1.744,0.335-3.065,0.767-5.605,0.664c-2.58-0.023-4.391-1.313-10.892-1.294
						c0.649,0.005,0.692-0.073,1.337-0.068c-2.432-0.262-4.765,0.354-7.747-0.071c-1.672,0.621-3.877-0.035-4.355,0.756l5.959-0.183
						c-3.38,0.207-6.548,1.134-12.114,0.685c0.43-0.16,2.086-0.37,3.225-0.487c-1.625-0.233-3.133,0.155-4.821-0.085
						c0.482-0.793,7.246-0.172,10.864-0.776c-1.744-0.335-6.847,0.573-5.028-0.284c-2.616,1.091-6.405-0.138-10.804,0.695
						l0.291-0.475c-0.697,0.074-2.142,0.299-3.424,0.287l2.325-0.615c-1.784,0.262-3.501,0.147-5.2,0.003l-1.271-0.109
						c-0.433-0.032-0.709-0.1-1.068-0.132c-0.342-0.019-0.672-0.11-1.01-0.154c-0.34-0.033-0.673-0.099-1.013-0.158
						c0.69,0.213,1.258,0.231,1.682,0.339c0.435,0.032,0.743,0.072,0.959,0.114c0.435,0.084,0.577,0.147,0.498,0.247
						c-0.115,0.188-0.746,0.422,0.767,0.595c-1.153,0.088-1.88,0.092-2.563,0.028c-0.666-0.083-1.198-0.192-1.626-0.368
						c-0.437-0.138-0.77-0.322-1.053-0.516c-0.285-0.187-0.533-0.352-0.757-0.577c-0.226-0.206-0.456-0.416-0.722-0.658
						c-0.246-0.268-0.555-0.514-0.902-0.848c-0.698-0.659-1.67-1.526-2.851-3.112c0.168,0.209,0.398,0.516,0.613,0.858
						c0.239,0.322,0.498,0.654,0.679,0.945c0.419,0.525,0.581,0.862-0.146,0.355c-1.111-1.14-2.004-3.04-2.111-3.984
						c-0.513-1.2-0.646-1.795-0.764-1.979c-0.107-0.188-0.122,0.014-0.118,0.317c-0.02,0.606,0.163,1.621-0.339,0.54
						c0.083-2.005-0.729-2.438-0.902-5.454l0.482-0.023c0.31-7.461-1.005-1.975-0.631-8.694l0.669,2.842l-0.173-3.503l0.549,0.725
						c-0.407-3.813-0.302-5-0.148-8.73c-0.34,0.868-0.875-0.489-0.891-3.794c0.287-2.253,0.458,1.267,0.39-3.419
						c0.302,1.055,0.681,2.217,0.236,4.255c0.157,0.207,0.303,1.043,0.458,1.259c0.33-2.429,0.075-6.1,0.071-7.795
						c-0.018,0.652-0.044,1.433-0.113,1.831l-0.668-6.791c0.181-1.067,0.327-0.22,0.469,0.621c-0.052-1.378-0.274-2.325-0.315-4.348
						c0.392,0.521,0.797,0.398,0.981,3.257l-0.435-6.466c0.17-0.434,0.468-3.319,0.613-2.483c0.23-3.583-0.761-8.798-0.457-13.551
						c-0.076-0.247-0.149-0.741-0.205-1.752c0.089-4.471,0.57-8.432,0.032-13.727l0.703-3.005c-0.16-4.148-0.886,4.068-1.151-2.839
						c-0.224-4.889,0.6-1.823,0.795-3.543c-0.354-2.429-1.076-6.656-0.503-11.15C37.669,142.492,37.565,143.662,37.617,145.048z
						 M37.306,93.889c0.101,0.991,0.414,2.966,0.129,3.69C36.882,96.453,37.146,95.581,37.306,93.889z M60.596,36.535
						c-0.736,0.16-1.875,0.081-3.165-0.102C58.367,36.393,59.422,36.411,60.596,36.535z M250.048,71.125
						c-0.009-0.042-0.016-0.071-0.023-0.105C250.213,68.808,250.139,69.592,250.048,71.125z M249.838,75.716
						c0.068,0.462,0.135,0.43,0.202,0.235c-0.122-0.32-0.13-1.352-0.097-2.526C249.817,73.752,249.73,74.345,249.838,75.716z
						 M81.093,250.039l-0.892-0.127C82.216,249.773,81.651,249.899,81.093,250.039z"/>
					<path style="fill:#D83B3F;" d="M51.779,37.195c-0.279-0.082-0.358-0.171-0.422-0.262
						C50.966,37.014,50.958,37.107,51.779,37.195z"/>
					<path style="fill:#D83B3F;" d="M37.871,176.867l-0.005,0.155c0.029,0.087,0.058,0.131,0.087,0.159L37.871,176.867z"/>
					<path style="fill:#D83B3F;" d="M210.704,37.476c-0.943-0.069-1.473-0.158-1.823-0.249
						C208.833,37.345,209.264,37.444,210.704,37.476z"/>
					<path style="fill:#D83B3F;" d="M250.658,100.05l-0.125-2.942c0.023,1.423-0.082,1.931-0.158,2.649
						C250.487,99.691,250.65,99.13,250.658,100.05z"/>
					<path style="fill:#D83B3F;" d="M247.673,125.579c0.06,0.43,0.007,0.912,0.066,1.336l0.224-0.118
						C247.949,124.966,247.768,123.687,247.673,125.579z"/>
					<path style="fill:#D83B3F;" d="M249.055,102.772c-0.405,0.233-0.268,2.078-0.192,4.138c0-0.123,0-0.241,0-0.364
						C249.43,107.154,249.242,104.958,249.055,102.772z"/>
					<path style="fill:#D83B3F;" d="M248.876,107.389c0.019,0.635,0.03,1.284,0.011,1.905
						C249.113,109.534,248.934,108.521,248.876,107.389z"/>
					<path style="fill:#D83B3F;" d="M250.107,81.541c-0.104,0.978,0.519,0.613,0.354,1.167
						C250.978,83.798,249.836,76.192,250.107,81.541z"/>
					<polygon style="fill:#D83B3F;" points="247.719,104.441 248.219,103.702 247.815,102.548 					"/>
					<path style="fill:#D83B3F;" d="M248.086,88.173l-0.139,3.292c0.084-0.05,0.133,0.368,0.171,0.882
						C248.135,90.318,248.234,88.095,248.086,88.173z"/>
					<path style="fill:#D83B3F;" d="M248.118,92.347c-0.01,1.057,0.001,2.062,0.083,2.649
						C248.195,94.425,248.18,93.195,248.118,92.347z"/>
					<polygon style="fill:#D83B3F;" points="247.568,99.94 247.672,98.967 247.709,96.642 					"/>
					<path style="fill:#D83B3F;" d="M248.183,52.782c0,0-0.036-0.898-0.071-1.797c-0.019-0.449-0.036-0.898-0.05-1.235
						c-0.028-0.343-0.048-0.572-0.048-0.572c-0.187-0.362-0.231,0.627-0.184,1.961C247.95,51.998,248.017,53.336,248.183,52.782z"/>
					<path style="fill:#D83B3F;" d="M246.811,63.646c0.104-0.972,0.216-1.035,0.381-1.584l-0.621-0.107L246.811,63.646z"/>
					<path style="fill:#D83B3F;" d="M246.666,53.168c-0.173-0.358-0.495-5.215-0.456-0.661
						C246.381,52.874,246.523,56.473,246.666,53.168z"/>
					<polygon style="fill:#D83B3F;" points="205.151,35.772 206.063,35.765 205.936,34.746 					"/>
					<path style="fill:#D83B3F;" d="M157.432,38.209c4.26,0.244,1.012-0.628,4.861-0.324c0.999-0.241-3.146-0.249-2.122-0.457
						C157.604,37.683,156.254,37.539,157.432,38.209z"/>
					<path style="fill:#D83B3F;" d="M160.171,37.429c0.414-0.04,0.852-0.089,1.313-0.155
						C160.74,37.337,160.39,37.386,160.171,37.429z"/>
					<path style="fill:#D83B3F;" d="M247.85,242.37c0,0,0.115-0.166,0.288-0.414c0.164-0.254,0.354-0.609,0.557-0.961
						c0.208-0.35,0.391-0.712,0.505-0.995c0.124-0.279,0.206-0.466,0.206-0.466s-0.262,0.459-0.524,0.917
						c-0.301,0.431-0.602,0.861-0.602,0.861s-0.097,0.27-0.193,0.538C247.968,242.11,247.85,242.37,247.85,242.37z"/>
					<path style="fill:#D83B3F;" d="M249.188,236.481c0,0,0.188-0.156,0.376-0.313c0.188-0.163,0.376-0.327,0.376-0.327
						c0.001,0-0.012-0.122-0.054-0.306c-0.046-0.181-0.106-0.423-0.167-0.664c-0.124-0.47-0.249-0.938-0.249-0.938
						c-0.001,0.348-0.004,0.859-0.031,1.35C249.419,235.773,249.289,236.232,249.188,236.481z"/>
					<path style="fill:#D83B3F;" d="M38.613,86.281l-0.156-0.207c-0.169,0.422-0.182,1.067-0.208,2.349L38.613,86.281z"/>
					<polygon style="fill:#D83B3F;" points="38.127,123.415 38.141,122.778 37.554,123.973 					"/>
					<path style="fill:#D83B3F;" d="M38.876,154.578c0.024-1.271-0.106-2.764-0.082-4.045
						C38.9,153.308,38.144,154.924,38.876,154.578z"/>
				</g>
			</g>
		</g>
	</g>
</g>
<g>
	<g>
		<rect x="70.55" y="70.94" style="fill:#FFFFFF;" width="28.347" height="141.733"/>
		<g>
			<g>
				<g>
					<g>
						<path style="fill:#D83B3F;" d="M101.332,212.276c-0.037,0.502,0.382,0.322,0.458,0.397
							C101.696,211.834,101.223,212.298,101.332,212.276z"/>
						<polygon style="fill:#D83B3F;" points="100.38,203.986 100.551,204.133 100.132,202.911 						"/>
						<path style="fill:#D83B3F;" d="M100.388,196.233c-0.714,0.733,0.115,2.81-0.139,4.19l-0.163,0.228l0.574,0.623
							C100.57,199.596,100.189,197.416,100.388,196.233z"/>
						<path style="fill:#D83B3F;" d="M101.932,192.101c-0.278,0.255-0.239-0.895-0.087,0.964c0.03-0.094,0.048-0.121,0.07-0.175
							C101.911,192.723,101.912,192.492,101.932,192.101z"/>
						<path style="fill:#D83B3F;" d="M101.916,192.89C101.936,193.706,102.149,192.355,101.916,192.89L101.916,192.89z"/>
						<path style="fill:#D83B3F;" d="M101.756,189.119l0.248,1.075c0.164-0.225,0.201-1.182,0.32-0.826
							C102.189,188.265,102.026,188.492,101.756,189.119z"/>
						<path style="fill:#D83B3F;" d="M101.235,188.1l0.105,0.558C101.409,188.56,101.433,188.412,101.235,188.1z"/>
						<path style="fill:#D83B3F;" d="M101.562,189.839l-0.222-1.182c-0.115,0.155-0.347,0.172,0.08,0.542
							C101.209,189.103,101.412,189.336,101.562,189.839z"/>
						<path style="fill:#D83B3F;" d="M101.453,190.508c-0.155,0.604-0.253,1.383-0.5,0.303
							C101.051,192.868,101.553,192.565,101.453,190.508z"/>
						<path style="fill:#D83B3F;" d="M99.65,195.838l-0.209,0.807l0.239,0.697C99.562,196.994,99.874,195.788,99.65,195.838z"/>
						<path style="fill:#D83B3F;" d="M102.126,182.42c-0.152-0.067-0.405,0.361-0.599,0.442l0.174,0.794
							C101.805,183.248,101.901,182.475,102.126,182.42z"/>
						<path style="fill:#D83B3F;" d="M101.527,182.862l-0.261-1.188C101.235,182.734,101.359,182.929,101.527,182.862z"/>
						<polygon style="fill:#D83B3F;" points="100.443,187.908 100.991,189.86 100.436,187.531 						"/>
						<polygon style="fill:#D83B3F;" points="102.145,177.881 102.497,178.555 101.965,177.354 						"/>
						<path style="fill:#D83B3F;" d="M102.083,174.87c0.291,0.498,0.493-0.684,0.672-0.156c-0.052-0.818-0.302-1.517-0.527-2.146
							C102.354,173.236,102.322,173.949,102.083,174.87z"/>
						<path style="fill:#D83B3F;" d="M101.901,171.513c0.07,0.334,0.195,0.68,0.328,1.056
							C102.161,172.214,102.064,171.864,101.901,171.513z"/>
						<path style="fill:#D83B3F;" d="M101.341,179.648c0.092-0.092,0.332-0.269,0.434-0.935l-0.427,0.467
							C101.346,179.323,101.344,179.484,101.341,179.648z"/>
						<path style="fill:#D83B3F;" d="M101.334,179.197l0.014-0.017c0.012-0.507,0.021-0.858,0.024-1.01
							C101.367,178.301,101.355,178.609,101.334,179.197z"/>
						<path style="fill:#D83B3F;" d="M101.339,179.767c0-0.043,0.001-0.075,0.002-0.118
							C101.299,179.694,101.285,179.721,101.339,179.767z"/>
						<path style="fill:#D83B3F;" d="M100.83,184.792c-0.239-0.698-0.495-2.154-0.859-0.745
							C100.263,184.548,100.47,183.741,100.83,184.792z"/>
						<path style="fill:#D83B3F;" d="M100.805,180.347l-0.098,1.263c0.113-0.024,0.277-0.252,0.396,0.094L100.805,180.347z"/>
						<polygon style="fill:#D83B3F;" points="100.669,179.729 100.805,180.347 100.841,179.879 						"/>
						<path style="fill:#D83B3F;" d="M101.501,173.675c-0.186-0.545-0.202-1.142-0.231-1.815c-0.084,0.723-0.129,1.469-0.128,2.178
							C101.275,174.138,101.516,174.449,101.501,173.675z"/>
						<path style="fill:#D83B3F;" d="M101.382,176.358c-0.008-0.038-0.017-0.085-0.024-0.121
							C101.322,176.312,101.31,176.372,101.382,176.358z"/>
						<polygon style="fill:#D83B3F;" points="101.272,165.226 101.195,165.333 101.269,165.357 						"/>
						<path style="fill:#D83B3F;" d="M101.062,174.158c-0.083,0.543,0.022,0.867,0.154,1.177c-0.043-0.406-0.071-0.836-0.074-1.298
							C101.081,173.992,101.041,173.984,101.062,174.158z"/>
						<path style="fill:#D83B3F;" d="M101.701,169.662c-0.089,0.282-0.165,0.604-0.235,0.94
							C101.602,170.326,101.813,169.762,101.701,169.662z"/>
						<path style="fill:#D83B3F;" d="M101.476,176.055c0.006,0.027,0.012,0.052,0.019,0.081
							C101.587,175.958,101.542,175.98,101.476,176.055z"/>
						<path style="fill:#D83B3F;" d="M101.476,176.055c-0.062-0.279-0.167-0.499-0.261-0.72c0.034,0.33,0.08,0.637,0.143,0.902
							C101.388,176.17,101.434,176.103,101.476,176.055z"/>
						<path style="fill:#D83B3F;" d="M98.529,163.216c0.396,0.097,0.762,1.523,0.337,2.755c0.297,1.213,1.6,0.42,2.328-0.638
							c-0.173-0.038-0.333-0.038-0.566-1.286c-0.216,0.438-0.506,2.769-0.864,1.716c-0.204-1.652,0.14-1.354,0.35-2.157
							c-0.494,0.683-0.718-2.103-1.444-1.742l0.255,1.449C98.813,163.339,98.632,162.813,98.529,163.216z"/>
						<path style="fill:#D83B3F;" d="M101.154,167.71l0.049,0.513c0.069-0.585,0.228-1.004,0.538-1.775
							c-0.193-0.854-0.34-1.031-0.472-1.09l-0.055,2.527L101.154,167.71z"/>
						<path style="fill:#D83B3F;" d="M101.205,170.527c-0.431-0.4-0.614-1.634-1.081-0.879c0.03,1.507,0.36,1.057,0.547,1.956
							c-0.107-2.431,0.24,0.698,0.484-1.058c0.073,0.478,0.096,0.907,0.114,1.313c0.052-0.438,0.117-0.859,0.197-1.257
							c-0.01,0.021-0.018,0.037-0.027,0.056l0.001,0.011l-0.007-0.002c-0.054,0.104-0.086,0.14-0.055,0.021
							c-0.005-0.009-0.007-0.038-0.009-0.051c-0.06-0.017-0.112-0.062-0.163-0.11c0.089-0.704,0.112-0.11,0.163,0.11
							c0.021,0.008,0.041,0.026,0.064,0.029l0.005-0.009l-0.236-2.436C101.144,168.738,101.156,169.384,101.205,170.527z"/>
						<path style="fill:#D83B3F;" d="M99.043,182.748c0.038-0.075,0.069-0.072,0.1-0.078
							C99.091,182.513,99.055,182.453,99.043,182.748z"/>
						<path style="fill:#D83B3F;" d="M99.304,181.746c0.06,0.178,0.232,0.325,0.188,0.9c-0.129,0.499-0.207-0.003-0.348,0.023
							c0.114,0.347,0.309,1.214,0.519,0.126l-0.059-0.172c0.148-0.98,0.686-2.24,0.745-2.068
							C99.96,180.842,99.684,181.094,99.304,181.746z"/>
						<path style="fill:#D83B3F;" d="M100.145,176.066l-0.211-2.027l-0.373,1.033l0.224-0.053
							C99.696,176.173,99.972,175.924,100.145,176.066z"/>
						<polygon style="fill:#D83B3F;" points="101.487,164.994 101.942,165.263 101.299,164.092 						"/>
						<polygon style="fill:#D83B3F;" points="101.432,162.358 101.828,162.456 101.589,161.761 						"/>
						<path style="fill:#D83B3F;" d="M72.925,99.884l0.112,0.595C73.003,100.197,72.965,100.016,72.925,99.884z"/>
						<path style="fill:#D83B3F;" d="M72.952,95.57l-0.195-0.105C72.865,95.665,72.944,95.747,72.952,95.57z"/>
						<path style="fill:#D83B3F;" d="M101.388,97.639c0.37-0.869,0.943-1.839,0.498-1.734l-0.434,0.267
							C101.529,96.778,101.481,97.242,101.388,97.639z"/>
						<path style="fill:#D83B3F;" d="M81.27,71.04l0.254,0.132c0.21-0.148,0.408-0.289,0.587-0.415
							C81.857,70.842,81.569,70.939,81.27,71.04z"/>
						<path style="fill:#D83B3F;" d="M80.658,72.835l-1.144-0.28C79.77,72.653,80.139,72.747,80.658,72.835z"/>
						<path style="fill:#D83B3F;" d="M73.385,123.445l0.442,0.695C73.825,123.051,73.602,123.53,73.385,123.445z"/>
						<path style="fill:#D83B3F;" d="M101.272,135.37c0.169-0.75,0.241-1.346,0.262-1.869
							C101.285,134.402,100.911,135.13,101.272,135.37z"/>
						<path style="fill:#D83B3F;" d="M68.321,98.186c0.079,0.364,0.167,0.521,0.264,0.51C68.511,98.32,68.428,98.107,68.321,98.186z
							"/>
						<path style="fill:#D83B3F;" d="M101.533,131.337c-0.043,0.131-0.065,0.262-0.102,0.397c0.073,0.547,0.131,1.098,0.104,1.767
							C101.72,132.833,101.834,132.071,101.533,131.337z"/>
						<path style="fill:#D83B3F;" d="M73.026,208.842c-0.02,0.023-0.029,0.051-0.052,0.073
							C73.033,208.918,73.036,208.887,73.026,208.842z"/>
						<path style="fill:#D83B3F;" d="M91.659,214.576c-0.244,0.027-0.644,0.027-1.021,0.033
							C90.822,214.639,91.13,214.637,91.659,214.576z"/>
						<path style="fill:#D83B3F;" d="M101.622,151.756C101.65,152.314,101.669,151.844,101.622,151.756L101.622,151.756z"/>
						<path style="fill:#D83B3F;" d="M99.906,154.474c-0.049-0.119-0.111-0.209-0.211-0.223
							C99.799,154.297,99.866,154.374,99.906,154.474z"/>
						<path style="fill:#D83B3F;" d="M98.833,125.77c0-0.017,0.001-0.03,0.001-0.049C98.749,125.888,98.765,125.858,98.833,125.77z"
							/>
						<path style="fill:#D83B3F;" d="M101.424,152.597c0.053-0.21,0.098-0.452,0.129-0.715
							C101.52,151.997,101.478,152.215,101.424,152.597z"/>
						<path style="fill:#D83B3F;" d="M101.629,152.483c-0.017,0.193-0.03,0.345-0.042,0.488
							C101.66,153.043,101.705,152.98,101.629,152.483z"/>
						<path style="fill:#D83B3F;" d="M101.598,150.977c0.007,0.32-0.014,0.618-0.045,0.905c0.029-0.109,0.054-0.155,0.068-0.126
							C101.617,151.592,101.61,151.36,101.598,150.977z"/>
						<path style="fill:#D83B3F;" d="M71.865,163.106c-0.014,0.038-0.022,0.08-0.041,0.121
							C72.004,163.792,71.975,163.543,71.865,163.106z"/>
						<path style="fill:#D83B3F;" d="M96.882,83.092c0.004,0.026,0.016,0.039,0.021,0.064c0.005-0.026,0.011-0.059,0.015-0.084
							L96.882,83.092z"/>
						<path style="fill:#D83B3F;" d="M96.559,81.085c0.54,0.854,0.474,1.341,0.359,1.987l1.251-0.662L96.559,81.085z"/>
						<path style="fill:#D83B3F;" d="M73.05,110.212l0.39-1.41c0.642,1.702,0.42,2.935,0.969,1.61
							c-1.358-0.2-0.139-5.479-1.496-5.675l0.286-0.93c-0.013,0.268,0.067,0.31,0.053,0.572c0.65-1.807-0.982-1.343-0.789-3.672
							c0.104-0.81,0.301-1.377,0.462-0.823l-0.336-1.81c0.026-0.525,0.262-0.397,0.236,0.128l-0.108-2.759l0.04,0.021
							c-0.213-0.394-0.542-1.285-0.683-1.721c0.195-0.702,0.144,0.351,0.313,0.172l-0.329-1.526
							c0.352-0.623,0.693,0.643,0.643,1.699c1.356-1.426-0.342-1.269,0.45-4.346l0.172,1.441c0.771-0.928,0.491-2.054,0.972-3.685
							c-0.251,0.387-1.21,3.266-1.549,1.606c0.103-0.465,0.151-1.082-0.122-1.977c0.483-0.006,0.364-0.88,0.337-1.974l0.64,0.076
							c-0.185-1.181-0.51-1.089-0.798-1.784c0.063-1.315,0.559-1.588,0.976-1.898c0.102-2.108-0.794,1.456-0.915-1.04
							c0.245-1.754-0.017-2.983-0.399-5.082c0.22-1.227,0.391,0.215,0.574-0.227c0,0-0.032-0.068-0.08-0.169
							c-0.048-0.098-0.112-0.266-0.176-0.291c-0.127-0.117-0.255-0.274-0.255-0.274c0.012-0.128,0.169-0.047,0.248-0.013
							c-0.099-0.217-0.259-0.289-0.416-0.387c-0.157-0.103-0.311-0.238-0.397-0.748c-0.309-0.29-0.149-0.646,0.061-0.901
							c0.438,0.134,0.868,0.289,1.196,0.354c0.334,0.065,0.575,0.04,0.823-0.185c0.262,0.182-0.051,0.392,0.073,0.64
							c0.133-0.065,0.179-0.121,0.374-0.168c0.229-0.047,0.424-0.088,0.595-0.124c0.342-0.076,0.59-0.131,0.826-0.184
							c0.47-0.118,0.885-0.259,1.89-0.612l1.711,0.42c-1.259-0.48,0.348-1.049,1.756-1.516c-0.446-0.232-0.828-0.435-1.084-0.532
							l2.246-0.343c0.272,0.105,0.046,0.325-0.321,0.592c0.152-0.053,0.298-0.105,0.41-0.153c0.803,0.236,0.387,0.605-0.187,0.963
							c-0.272-0.133-0.544-0.265-0.81-0.395c-0.554,0.389-1.074,0.819-0.958,1.193c0.145-0.074,0.426-0.137,0.734-0.173
							c-0.144,0.105-0.236,0.2-0.17,0.264c0.077,0.067,0.312-0.074,0.679-0.237l0.512,0.713l0.123-0.283l2.939,0.446
							c2.102-0.718,3.931-1.774,7.267-2.069c-0.828,0.523-0.179,0.854-0.223,1.474c-0.91-0.656-2.585,0.279-4.313,0.146
							c0.901,0.069,0.703,0.364,0.474,0.467l3.083-0.597c-0.069,0.507,0.656,0.38,1.462,0.589c-0.305-0.5,0.27-0.667,1.077-0.748
							c0.963-0.08,1.429-0.073,1.968-0.227c-0.045,0.168-0.163,0.338-0.352,0.456c-0.215,0.118-0.39,0.183-0.894,0.143
							c0.326,0.188,0.396,0.209,0.591,0.144c0.17-0.065,0.365-0.215,0.601-0.37c0.442-0.308,1.151-0.63,1.435-0.31
							c-0.257,0.008-0.356-0.043-0.586,0.127c0.201-0.076,0.443-0.117,0.675-0.132c0.043,0.624-0.144,1.456-0.363,1.329
							l-0.007-0.213c-0.03,0.38-0.045,0.827-0.038,1.3c0.009,0.368,0.019,0.746,0.028,1.122c0.016,0.425,0.038,0.848,0.068,1.254
							c0.12,1.625,0.36,2.987,0.785,3.172c-0.11,0.023-1.025-0.326-1.197-0.475l2.862,4.428c-0.73-0.39-2.47,1.106-2.883-0.951
							c-0.104,0.592-0.226,1.323,0.032,2.569c0.104-0.403,1.056-1.007,1.123-0.456c-0.813,1.513-0.435,1.051-1.128,2.915
							c0.157-0.604,1.302,0.067,1.266,1.023c-0.171-0.151-1.131,0.079-1.25-0.271l1.125,2.377c-0.203-0.594-0.953-0.105-1.271,0.428
							c0.22-0.248-0.021,2.054,0.091,2.688l0.261-1.008c-0.17,2.684,1.582,2.651,1.522,5.313c-0.232-0.321-1.43-0.796-1.571,0.558
							c0.576,0.621,2.771,2.748,3.214,5.105l-0.329,0.451l0.375,1.808c-0.867-1.126-2.69-4.285-3.4-6.01
							c-0.261,1.005-0.388,0.28-0.358,1.784c-0.309,0.531-0.468-0.82-0.486-1.262l-0.199,3.501c0.673-0.154,0.674,2.679,1.234,2.544
							l-0.697-3.803c0.671-0.154,1.908,2.2,1.79,4.682c-0.268,0.629-1.197-0.472-1.421-0.421c0.231,0.323,0.442,2.356,0.278,2.582
							l-0.359-1.052c-0.253,1.382,0.891,2.255,0.25,3.915c-0.043,0.574-0.866,1.711-0.468,1.81c0.767-0.935,3.14-1.118,3.716-0.495
							c-0.052,0.202-0.733,3.01-1.112,3.662c-0.602,0.944-1.434-1.417-1.95-0.613c0.184,0.036,0.41,0.558,0.483,0.774
							c-0.157,0.602-0.569-0.249-0.486,1.059c0.682,0.216-0.058,2.659,0.576,0.616c0.195,1.279-0.14,1.361-0.11,2.862
							c0.44-0.479,1.499,1.348,1.693,2.629c-0.173-0.075-0.399,0.211-0.502,0.351c-0.062,2.621-0.371,4.029-0.377,6.472
							c-0.165,0.227-0.365,1.407-0.658,0.903c0.121,0.353,0.352,0.674,0.368,1.428c-0.589,1.459-0.092-1.681-0.8-0.567
							c0.396,0.095,0.546,1.949,0.794,3.023c0.612-0.331,0.117-2.482-0.13-3.557c0.844-0.003,1.728,1.869,2.118,4.423
							c0.209,2.029-0.545,0.88-0.425,1.232c-0.147,3.814,1.474,3.25,0.865,6.416c-0.538,1.257-1.07,0.057-1.458,0.336
							c-0.204-1.654,0.341-2.539,0.32-3.66l-0.254,1.38c-0.179-0.526-0.314-1.63-0.159-2.232c-0.483,1.053-0.093,6.443-0.539,9.386
							c0.18,0.523,0.367,1.426,0.583,0.999l-0.075-0.932c0.434-0.855,0.6,1.753,0.802,0.574c0.305,1.249,0.784,2.649,0.539,4.407
							l-0.613,0.33c0.179-0.037,0.365-1.149,0.178-1.644c0.272,0.733-0.83,2.696-0.027,3.499l0.425-1.232
							c0.308,1.254,0.959,2.804,0.766,4.362c0.605-0.709-0.069-0.359,0.639-1.467c-0.881,0.96,0.037-3.985-0.889-2.443
							c0.822-1.137,0.349-1.967,1.05-3.452c-0.202,0.046-0.387,0.526-0.287-0.782c-0.059-0.059-0.134-0.198-0.178-0.286
							c0.007-0.04,0.009-0.055,0.015-0.089c-0.009,0.026-0.015,0.046-0.024,0.072c-0.03-0.057-0.037-0.062-0.008,0.026
							c-0.088,0.312-0.195,0.564-0.308,0.667c-0.464-0.649-0.45-2.729-0.69-3.433c0.096-0.776,0.232,0.324,0.448-0.1l-0.359-1.051
							c0.449-0.104,0.746-2.063,1.009-0.233l0.02-1.646c0.252-0.97,0.352-2.302,0.163-3.124c0.097-0.776-0.497-1.961-0.146-1.285
							l-0.278-2.581l0.112-0.023c0.057-2.547-0.744-5.243,0.067-8.154c-0.113-0.859-0.252-1.745-0.125-3.179l0.389-0.28
							c-0.136-1.1,0.389-3.305-0.016-3.777c1.045-1.188,0.228-5.344,0.414-7.278l-0.507-0.074c0.029-1.333-0.115-2.611-0.319-4.264
							l-0.448,0.102c-0.368-1.426,0.319-3.667,0.273-5.923c0.171,0.153,0.126,0.727,0.023,1.13c1.013-2.695-0.737-5.686,0.001-8.129
							c-0.163-0.608-0.107-1.051,0.005-1.477c0.001,0.056,0.009,0.108,0.023,0.15c0.005-0.062,0.006-0.154,0.005-0.249
							c0.077-0.269,0.167-0.547,0.239-0.846c-0.109,0.254-0.199,0.498-0.24,0.711c-0.009-0.471-0.065-1.184-0.177-1.882l0.481-0.297
							c-0.005-0.058-0.009-0.103-0.014-0.162c0.178-0.686-0.228-0.551-0.59-0.184c-0.079-0.353-0.174-0.676-0.291-0.925
							c0.777-0.558-0.262-1.833,0.567-2.592c-0.404-0.471-0.304-3.51-1.155-3.884c0.111-0.022,0.164-0.229,0.17,0.148
							c0.097-0.777,0.194-1.556-0.046-2.254l0.612-0.329l-0.823-1.702c0.373-1.033,0.59-1.459,1.061-0.435
							c-0.725-2.477-0.273-2.008-0.991-4.115l0.396,0.103c-0.015-0.754-0.545-1.957-0.218-2.41c0.218-0.487,0.318-1.389,0.368-2.53
							c0.05-1.53,0.049-3.572,0.064-5.628c-1.495-0.011-3.031-0.03-4.546-0.083c-0.365-0.016-0.727-0.032-1.084-0.047
							c-0.257-0.021-0.511-0.042-0.76-0.062c-0.499-0.047-0.981-0.106-1.437-0.18c0.837,1.166-2.008-0.522-2.18,0.381
							c-0.251-0.275-0.854-0.431-0.154-0.671c-2.205,0.271-3.313-0.437-4.837,0.325c-0.253-0.277,0.472-0.404,0.249-0.568
							c-0.177,0.06-0.702,0.24-0.931,0.075c-0.225-0.164,0.323-0.231,0.672-0.352c-2.252,0.046-2.482,0.896-2.646,1.693
							c-1.141-0.377-1.711-0.324-2.535,0.199c-0.398-0.261-1.062-0.534,0.338-0.627c-0.787-0.038-4.81-0.382-4.892,0.257
							c-0.246-0.162-1.1-0.047-1.308,0.026c-2.289-0.038-2.61-0.096-4.886-0.035l0.729,0.104c-0.102,0.273-0.307,0.375-0.638,0.396
							c0.038,0.65-0.191,1.261-0.131,2.441l-0.079-0.089c-0.139,0.958-0.192,1.615-0.203,2.047c0,0.109,0,0.205-0.001,0.292
							c0.004,0.065,0.007,0.123,0.011,0.176c0.01,0.105,0.024,0.191,0.039,0.276c0.057,0.341,0.104,0.676-0.213,2.258l0.479-0.172
							c1.032,0.295-0.608,2.805-0.214,4.641l0.274-0.663c0.353,1.003-1.403,2.803-1.532,3.81c-0.09,0.22-0.144-0.346-0.21-0.653
							c-0.608,2.638,0.628,0.341,0.774,2.309c-0.339,0.36-0.862-0.469-0.925,0.855c-0.274,0.659,1.1,3.836,0.45,5.641
							c0.261-0.398,0.522-0.792,0.718,0.12c0.093,1.4-0.987,3.784-0.164,5.047c-0.071,0.179-0.14,0.244-0.205,0.252
							c0.212,1.07,0.353,3.477,0.799,4.12c-1.657,0.99,0.806,6.651-0.722,6.626l0.082,3.292l-0.156-0.087
							c-0.101,2.104,0.265,2.848,0.632,3.585c-0.104,0.487-0.247,0.131-0.327,0.092c-0.308,3.072-0.243,3.378,0.518,5.954
							l-0.496,0.269c0.288,0.698-0.777,4.442-0.199,7.456c-0.056-0.029-0.152-0.092-0.222-0.331c0.582,3.392-1.375,8.118,0.43,9.36
							l0.445,2.24c0.14-2.895,0.783,0.429,1.083-0.761c0.106,1.138-0.544,2.944-0.637,1.544l0.09-0.219
							c-0.941-0.513-0.333,3.598-0.974,3.521c0.046,5.694-0.475,11.249-0.515,16.583l0.731-0.613l-0.042,1.86
							c-0.17,0.489-0.572,0.656-0.542-0.672c-0.415,0.698,0.347,2.228,0.506,2.264c-0.296,2.601-0.853-1.015-0.871-0.216
							l0.055,1.082l0.085-0.244c0.299,0.877,0.616,0.955,0.58,2.552c-0.146,1.01-0.451,0.519-0.479,0.915
							c-0.052-0.003-0.076,0.131-0.021,0.609l-0.063,2.345l0.578-0.938c0.285,1.039-0.03,2.206,0.624,1.124
							c-1.009,1.587-0.362,8.748-0.675,9.722c0.421,1.456,0.414,2.894,0.363,4.674c0.12-0.442,0.77-0.707,0.69,0.827
							c-1.34-0.561-0.582,2.812-1.545,4.053c0.639-1.108,0.158,4.364,1.065,2.625c-0.108,1.28-0.501,0.077-0.817,1.051
							c0.519,3.049-0.337,6.718-0.162,10.488c0.176,0.059,0.445-0.574,0.707,0.236l-0.879,1.99c0.043,0.372,0.297,0.543,0.464,0.791
							c0.083,0.146,0.145,0.219,0.147,0.513c0.002,0.282-0.054,0.635-0.207,1.171c0.148-0.325,0.371-0.742,0.427-0.071
							c-0.113,1.357-0.184,2.794-0.226,4.237c1.119,0.034,2.283,0.049,3.453,0.051c1.022-0.009,2.047-0.017,3.074-0.025
							c1.637-0.035,3.281-0.07,4.925-0.105c3.289-0.039,6.583,0.063,9.838,0.762c-1.015-0.34-0.339-0.374,0.438-0.387
							c-0.505-0.082,0.01-0.435-0.089-0.673l3.14,0.662c0.572-0.661,3.365-0.045,3.693-0.677l-0.994,0.113
							c1.321-0.746-1.851-1.659-1.657-2.617c-1.48,0.849-3.903-1.257-6.333-0.042c-0.535-0.195,0.459-0.309,0.17-0.53
							c-0.615,0.41-1.357,0.496-2.736,0.312l0.156-0.102c-3.87,0.101-5.531-0.305-9.878-0.574l0.321,0.474
							c-0.935-0.063-1.131-0.212-1.567-0.33c-1.072,0.718,2.623,0.04,1.646,0.832c-0.228-0.177-0.593-0.289-1.044-0.362
							c-0.226-0.036-0.473-0.063-0.734-0.081c-0.192-0.013-0.394-0.026-0.602-0.04c-0.619-0.034-1.353-0.007-1.767-0.112
							c0.077-0.452,0.223-0.832,0.514-1.096c0.003-0.283-0.134-0.187-0.271-0.069c-0.137,0.115-0.274,0.251-0.271-0.142
							c0-0.008,0.296-0.289,0.296-0.28c0,0.01-0.382-0.096-0.382-0.105c0.016-0.135,0.051-0.252,0.098-0.347
							c0.048-0.166,0.108-0.323,0.174-0.44c0.132-0.241,0.287-0.369,0.413-0.387c-0.03,0.208,0.07,0.696,0.092,0.847
							c0.349-1.127-0.119-3.419-0.005-3.817l-0.183,1.38c-0.277-3.921,0.112-8.711-0.491-12.501l-0.224,0.286
							c-0.414-2.893,0.246-2.317,0.054-5.496l0.053,0.116c-0.223-0.636-0.335-1.485-0.31-2.355c0.262,0.803,0.509-1.509,0.798-0.456
							c-0.444-3.14-0.349-1.554-1.179-3.626l0.371-0.479c-0.335-0.705-0.512-0.765-0.608-2.351c0.318,1.301,0.565-1.014,0.986,0.443
							c0.811-3.329-0.819-4.945,0.367-6.474c-1.026-1.527-0.57,2.882-0.79,2.026c-0.335,0.718-0.767-1.262-0.664-2.308
							c0.023-1.063,1.313-1.809,1.293-4.485c-0.005,0.267,0.073,0.285,0.068,0.551c0.262-1.002-0.354-1.963,0.071-3.19
							c-0.621-0.688,0.036-1.597-0.756-1.793l0.183,2.454c-0.207-1.393-1.133-2.697-0.684-4.989c0.16,0.178,0.37,0.859,0.487,1.328
							c0.233-0.669-0.155-1.29,0.085-1.985c0.792,0.198,0.172,2.983,0.776,4.474c0.334-0.718-0.574-2.819,0.284-2.07
							c-1.091-1.077,0.138-2.638-0.695-4.449l0.475,0.12c-0.075-0.287-0.299-0.882-0.287-1.41l0.615,0.958
							c-0.525-1.47,0.459-2.83,0.173-4.236c0.015,2.945-0.572,0.66-0.918,1.906c-0.635-3.634,1.241-2.09,1.014-6.159
							c0.067,0.551-0.285,2.069-0.505,1.207c0.098-0.773,0.28-1.797,0.529-2.272c-0.099-2.696-0.488,0.413-0.78-0.734
							c0.578-0.918-0.235-1.324-0.42-2.505l0.482-0.01c0.31-3.072-1.005-0.813-0.631-3.58l0.669,1.17l-0.173-1.442l0.549,0.298
							c-0.407-1.571-0.302-2.059-0.148-3.595c-0.34,0.357-0.875-0.202-0.891-1.563c0.287-0.928,0.458,0.521,0.39-1.408
							c0.302,0.435,0.681,0.913,0.236,1.752c0.157,0.085,0.303,0.43,0.458,0.518c0.33-1,0.075-2.511,0.071-3.209
							c-0.018,0.269-0.044,0.59-0.113,0.754l-0.668-2.797c0.181-0.439,0.327-0.09,0.469,0.256c-0.052-0.567-0.274-0.957-0.315-1.79
							c0.392,0.215,0.797,0.164,0.981,1.341l-0.435-2.662c0.17-0.179,0.468-1.367,0.613-1.023c0.23-1.476-0.761-3.623-0.457-5.58
							c-0.076-0.102-0.149-0.305-0.205-0.722c0.089-1.841,0.57-3.472,0.032-5.652l0.703-1.238c-0.16-1.708-0.886,1.676-1.151-1.168
							c-0.224-2.013,0.6-0.751,0.795-1.459c-0.354-1-1.076-2.741-0.503-4.592C73.102,109.16,72.998,109.642,73.05,110.212z
							 M72.739,89.145c0.101,0.408,0.414,1.221,0.129,1.52C72.315,90.201,72.58,89.842,72.739,89.145z M84.372,71.967
							c-0.303,0.16-0.772,0.081-1.303-0.102C83.454,71.826,83.888,71.844,84.372,71.967z M101.229,145.63
							c-0.008-0.018-0.014-0.03-0.023-0.044C101.394,144.676,101.319,144.998,101.229,145.63z M101.02,147.521
							c0.067,0.19,0.134,0.177,0.202,0.097c-0.122-0.132-0.13-0.557-0.096-1.04C100.999,146.712,100.911,146.956,101.02,147.521z
							 M68.618,169.077l0.126-0.367C68.883,169.539,68.757,169.307,68.618,169.077z"/>
						<path style="fill:#D83B3F;" d="M80.74,72.627c-0.115-0.082-0.147-0.171-0.174-0.262C80.406,72.446,80.403,72.54,80.74,72.627z
							"/>
						<path style="fill:#D83B3F;" d="M73.304,123.315l-0.005,0.064c0.029,0.036,0.058,0.054,0.087,0.065L73.304,123.315z"/>
						<path style="fill:#D83B3F;" d="M96.929,118.229c0.069-0.389,0.158-0.606,0.249-0.751
							C97.06,117.458,96.96,117.636,96.929,118.229z"/>
						<path style="fill:#D83B3F;" d="M101.839,157.541l-0.125-1.212c0.024,0.586-0.082,0.795-0.158,1.091
							C101.668,157.394,101.832,157.162,101.839,157.541z"/>
						<path style="fill:#D83B3F;" d="M98.854,168.054c0.059,0.177,0.006,0.376,0.066,0.55l0.224-0.048
							C99.13,167.802,98.949,167.274,98.854,168.054z"/>
						<path style="fill:#D83B3F;" d="M100.236,158.662c-0.406,0.096-0.268,0.855-0.193,1.704c-0.001-0.051-0.005-0.1,0-0.15
							C100.611,160.466,100.423,159.563,100.236,158.662z"/>
						<path style="fill:#D83B3F;" d="M100.057,160.563c0.019,0.262,0.03,0.529,0.01,0.785
							C100.295,161.446,100.115,161.029,100.057,160.563z"/>
						<path style="fill:#D83B3F;" d="M101.289,149.919c-0.104,0.402,0.519,0.252,0.354,0.48
							C102.159,150.849,101.017,147.717,101.289,149.919z"/>
						<polygon style="fill:#D83B3F;" points="98.899,159.349 99.4,159.045 98.997,158.569 						"/>
						<path style="fill:#D83B3F;" d="M99.267,152.65l-0.139,1.355c0.084-0.021,0.133,0.151,0.171,0.363
							C99.316,153.533,99.416,152.618,99.267,152.65z"/>
						<path style="fill:#D83B3F;" d="M99.299,154.369c-0.01,0.435,0.001,0.849,0.083,1.091
							C99.377,155.225,99.36,154.718,99.299,154.369z"/>
						<polygon style="fill:#D83B3F;" points="98.749,157.496 98.854,157.095 98.89,156.138 						"/>
						<path style="fill:#D83B3F;" d="M99.364,138.076l-0.144-1.48c-0.172-0.151-0.277,0.252-0.208,0.803
							C99.131,137.753,99.198,138.304,99.364,138.076z"/>
						<path style="fill:#D83B3F;" d="M97.992,142.55c0.104-0.4,0.216-0.426,0.381-0.652l-0.621-0.044L97.992,142.55z"/>
						<path style="fill:#D83B3F;" d="M97.847,138.235c-0.172-0.147-0.495-2.147-0.456-0.272
							C97.562,138.114,97.705,139.596,97.847,138.235z"/>
						<polygon style="fill:#D83B3F;" points="98.632,115.942 98.64,116.317 99.659,116.265 						"/>
						<path style="fill:#D83B3F;" d="M96.196,96.292c-0.244,1.754,0.628,0.417,0.324,2.001c0.241,0.412,0.249-1.295,0.457-0.874
							C96.722,96.362,96.866,95.806,96.196,96.292z"/>
						<path style="fill:#D83B3F;" d="M96.976,97.419c0.04,0.17,0.089,0.351,0.155,0.541C97.067,97.654,97.019,97.51,96.976,97.419z"
							/>
						<polygon style="fill:#D83B3F;" points="95.789,215.123 96.917,215.336 96.189,214.993 						"/>
						<path style="fill:#D83B3F;" d="M97.955,214.367l0.265,0.649l0.677-0.587C98.641,214.458,98.148,214.514,97.955,214.367z"/>
						<path style="fill:#D83B3F;" d="M74.046,86.012l-0.156-0.085c-0.169,0.174-0.182,0.439-0.208,0.967L74.046,86.012z"/>
						<polygon style="fill:#D83B3F;" points="73.561,101.304 73.574,101.042 72.987,101.534 						"/>
						<path style="fill:#D83B3F;" d="M74.309,114.137c0.024-0.523-0.106-1.138-0.082-1.666
							C74.333,113.614,73.577,114.279,74.309,114.137z"/>
					</g>
				</g>
			</g>
		</g>
	</g>
	<g>
		<rect x="113.07" y="184.326" style="fill:#FFFFFF;" width="99.212" height="28.348"/>
		<g>
			<g>
				<g>
					<g>
						<path style="fill:#D83B3F;" d="M214.717,212.376c-0.037,0.377,0.383,0.241,0.457,0.298
							C215.082,212.044,214.607,212.392,214.717,212.376z"/>
						<polygon style="fill:#D83B3F;" points="213.766,206.158 213.937,206.269 213.518,205.352 						"/>
						<path style="fill:#D83B3F;" d="M213.773,200.344c-0.714,0.55,0.115,2.106-0.139,3.143l-0.162,0.171l0.574,0.468
							C213.955,202.865,213.574,201.23,213.773,200.344z"/>
						<path style="fill:#D83B3F;" d="M215.317,197.244c-0.278,0.19-0.239-0.671-0.087,0.723c0.03-0.07,0.048-0.091,0.07-0.131
							C215.297,197.71,215.297,197.537,215.317,197.244z"/>
						<path style="fill:#D83B3F;" d="M215.301,197.836C215.32,198.448,215.534,197.435,215.301,197.836L215.301,197.836z"/>
						<path style="fill:#D83B3F;" d="M215.142,195.008l0.248,0.807c0.164-0.168,0.201-0.887,0.32-0.62
							C215.574,194.367,215.411,194.538,215.142,195.008z"/>
						<path style="fill:#D83B3F;" d="M214.621,194.243l0.104,0.418C214.795,194.588,214.818,194.478,214.621,194.243z"/>
						<path style="fill:#D83B3F;" d="M214.947,195.548l-0.222-0.887c-0.115,0.117-0.347,0.129,0.08,0.407
							C214.594,194.996,214.797,195.171,214.947,195.548z"/>
						<path style="fill:#D83B3F;" d="M214.838,196.049c-0.154,0.453-0.252,1.037-0.5,0.228
							C214.437,197.819,214.938,197.592,214.838,196.049z"/>
						<path style="fill:#D83B3F;" d="M213.035,200.047l-0.209,0.605l0.239,0.522C212.947,200.914,213.259,200.01,213.035,200.047z"
							/>
						<path style="fill:#D83B3F;" d="M215.512,189.983c-0.152-0.05-0.405,0.271-0.6,0.331l0.174,0.596
							C215.19,190.604,215.286,190.024,215.512,189.983z"/>
						<path style="fill:#D83B3F;" d="M214.912,190.314l-0.261-0.891C214.621,190.22,214.744,190.365,214.912,190.314z"/>
						<polygon style="fill:#D83B3F;" points="213.828,194.1 214.376,195.563 213.82,193.817 						"/>
						<path style="fill:#D83B3F;" d="M215.53,185.228l0.352,0.831c0-0.036-0.531-1.5-0.531-1.465L215.53,185.228z"/>
						<path style="fill:#D83B3F;" d="M215.46,181.14c0.007-0.002,0.014-0.004,0.015-0.006c0.114,0.147,0.214-0.04,0.305-0.305
							c-0.116-0.138-0.459-0.254,0.116-0.361c-1.285,0.052-2.513,0.302-3.508,0.526C213.387,180.869,214.431,180.901,215.46,181.14z
							"/>
						<path style="fill:#D83B3F;" d="M210.799,181.322c0.469-0.07,0.989-0.195,1.589-0.328
							C211.855,181.063,211.325,181.158,210.799,181.322z"/>
						<path style="fill:#D83B3F;" d="M214.727,187.729c0.092-0.12,0.332-0.355,0.434-1.257c0,0-0.106,0.176-0.214,0.351
							c-0.106,0.166-0.214,0.331-0.214,0.331C214.731,187.329,214.729,187.527,214.727,187.729z"/>
						<path style="fill:#D83B3F;" d="M214.719,187.176l0.014-0.022c0.013-0.626,0.021-1.061,0.024-1.247
							C214.752,186.066,214.741,186.449,214.719,187.176z"/>
						<path style="fill:#D83B3F;" d="M214.725,187.873c0.001-0.054,0.001-0.093,0.002-0.145
							C214.685,187.786,214.67,187.819,214.725,187.873z"/>
						<path style="fill:#D83B3F;" d="M214.215,191.763c-0.238-0.523-0.495-1.615-0.859-0.559
							C213.648,191.579,213.855,190.975,214.215,191.763z"/>
						<path style="fill:#D83B3F;" d="M214.19,188.429l-0.098,0.947c0.112-0.019,0.277-0.189,0.396,0.069L214.19,188.429z"/>
						<path style="fill:#D83B3F;" d="M214.055,187.864c0,0,0.034,0.167,0.068,0.333c0.033,0.116,0.067,0.231,0.067,0.231
							l0.036-0.404L214.055,187.864z"/>
						<path style="fill:#D83B3F;" d="M213.377,181.723c-0.823,0.186-1.544,0.201-2.377,0.23c0.841,0.084,1.689,0.13,2.53,0.129
							C213.757,181.947,214.364,181.707,213.377,181.723z"/>
						<path style="fill:#D83B3F;" d="M214.768,183.668c-0.008-0.042-0.018-0.092-0.024-0.132
							C214.707,183.654,214.695,183.735,214.768,183.668z"/>
						<polygon style="fill:#D83B3F;" points="205.044,181.951 205.124,182.028 205.143,181.955 						"/>
						<path style="fill:#D83B3F;" d="M213.606,182.162c0.304,0.044,0.576,0.034,0.845-0.005c0.034,0.166,0.089,0.285,0.149,0.4
							c-0.013-0.16-0.025-0.323-0.039-0.511c-0.325,0.021-0.675,0.033-1.031,0.035C213.427,182.143,213.384,182.183,213.606,182.162
							z"/>
						<path style="fill:#D83B3F;" d="M208.371,181.521c0.291,0.09,0.748,0.166,1.14,0.235
							C209.214,181.621,208.427,181.41,208.371,181.521z"/>
						<path style="fill:#D83B3F;" d="M214.861,183.221c0.007,0.029,0.013,0.057,0.02,0.087
							C214.973,183.014,214.928,183.076,214.861,183.221z"/>
						<path style="fill:#D83B3F;" d="M214.861,183.221c-0.062-0.303-0.167-0.484-0.261-0.663c0.034,0.366,0.079,0.699,0.143,0.979
							C214.773,183.432,214.819,183.313,214.861,183.221z"/>
						<path style="fill:#D83B3F;" d="M203.537,184.693c0.071-0.396,1.142-0.762,2.065-0.337c0.909-0.297,0.315-1.6-0.479-2.328
							c-0.028,0.173-0.028,0.333-0.964,0.566c0.328,0.216,2.076,0.506,1.287,0.864c-1.24,0.204-1.016-0.141-1.618-0.35
							c0.512,0.494-1.577,0.719-1.308,1.443l1.087-0.255C203.629,184.41,203.235,184.591,203.537,184.693z"/>
						<path style="fill:#D83B3F;" d="M206.907,182.068l0.385-0.049c-0.439-0.068-0.753-0.227-1.332-0.537
							c-0.641,0.193-0.773,0.34-0.817,0.473l1.896,0.055L206.907,182.068z"/>
						<path style="fill:#D83B3F;" d="M209.377,182.018c-0.264,0.216-0.779,0.369-1.011,0.527c-0.198,0.158-0.288,0.32-0.005,0.554
							c1.452-0.03,1.085-0.36,2.112-0.547c-1.341,0.054-1.141-0.007-0.833-0.11c0.304-0.104,0.77-0.252-0.249-0.374
							c0.581-0.073,1.11-0.096,1.608-0.114c-0.508-0.052-1.006-0.117-1.489-0.196c0.025,0.011,0.043,0.018,0.064,0.026l0.015-0.001
							l-0.004,0.007c0.12,0.054,0.155,0.086,0.016,0.055c-0.011,0.006-0.047,0.008-0.063,0.01c-0.031,0.06-0.095,0.111-0.16,0.162
							c-0.837-0.089-0.124-0.111,0.16-0.162c0.014-0.021,0.04-0.041,0.048-0.064l-0.011-0.006c0,0-0.19,0.016-0.477,0.037
							c-0.266,0.022-0.73,0.052-0.894,0.082c-0.457,0.059-0.913,0.117-0.913,0.117c0.193,0.03,0.41,0.042,0.688,0.04
							C208.351,182.049,208.801,182.035,209.377,182.018z"/>
						<path style="fill:#D83B3F;" d="M212.429,190.229c0.038-0.057,0.069-0.054,0.101-0.059
							C212.477,190.053,212.439,190.008,212.429,190.229z"/>
						<path style="fill:#D83B3F;" d="M212.689,189.479c0.06,0.133,0.232,0.243,0.188,0.675c-0.129,0.374-0.207-0.002-0.348,0.018
							c0.113,0.26,0.309,0.91,0.518,0.095l-0.059-0.129c0.148-0.735,0.686-1.68,0.745-1.552
							C213.346,188.8,213.069,188.989,212.689,189.479z"/>
						<path style="fill:#D83B3F;" d="M213.529,184.26c-0.041-0.353-0.082-0.705-0.082-1.099l-0.926,0.129
							c0.181,0.101,0.346,0.202,0.595,0.202l-0.171,0.342l0.225-0.264C213.082,184.705,213.357,184.252,213.529,184.26z"/>
						<polygon style="fill:#D83B3F;" points="204.87,181.736 205.072,181.281 204.193,181.924 						"/>
						<polygon style="fill:#D83B3F;" points="202.894,181.791 202.967,181.395 202.445,181.634 						"/>
						<path style="fill:#D83B3F;" d="M115.445,206.034l0.112,0.446C115.523,206.269,115.485,206.133,115.445,206.034z"/>
						<path style="fill:#D83B3F;" d="M115.472,202.798l-0.195-0.078C115.385,202.869,115.464,202.931,115.472,202.798z"/>
						<path style="fill:#D83B3F;" d="M154.354,181.836c-0.652-0.37-1.38-0.943-1.301-0.498l0.2,0.434
							C153.709,181.693,154.057,181.742,154.354,181.836z"/>
						<path style="fill:#D83B3F;" d="M121.11,184.426l0.19,0.132c0.158-0.148,0.306-0.288,0.44-0.415
							C121.55,184.229,121.334,184.325,121.11,184.426z"/>
						<path style="fill:#D83B3F;" d="M120.651,186.221l-0.858-0.279C119.985,186.039,120.262,186.133,120.651,186.221z"/>
						<path style="fill:#D83B3F;" d="M124.101,209.839l0.521-0.442C123.806,209.399,124.165,209.622,124.101,209.839z"/>
						<path style="fill:#D83B3F;" d="M182.652,181.951c-0.563-0.17-1.01-0.241-1.402-0.262
							C181.927,181.938,182.473,182.313,182.652,181.951z"/>
						<path style="fill:#D83B3F;" d="M110.841,204.761c0.079,0.272,0.167,0.391,0.264,0.382
							C111.031,204.861,110.948,204.701,110.841,204.761z"/>
						<path style="fill:#D83B3F;" d="M179.628,181.69c0.098,0.044,0.196,0.065,0.297,0.103c0.411-0.073,0.824-0.132,1.325-0.104
							C180.75,181.504,180.179,181.389,179.628,181.69z"/>
						<path style="fill:#D83B3F;" d="M188.185,210.198c0.046,0.02,0.103,0.028,0.145,0.052
							C188.344,210.191,188.279,210.188,188.185,210.198z"/>
						<path style="fill:#D83B3F;" d="M206.854,214.576c-0.184,0.027-0.483,0.027-0.767,0.033
							C206.226,214.639,206.457,214.637,206.854,214.576z"/>
						<path style="fill:#D83B3F;" d="M194.941,181.602C195.36,181.573,195.008,181.554,194.941,181.602L194.941,181.602z"/>
						<path style="fill:#D83B3F;" d="M196.979,183.317c-0.089,0.049-0.156,0.11-0.167,0.211
							C196.847,183.424,196.905,183.357,196.979,183.317z"/>
						<path style="fill:#D83B3F;" d="M175.452,184.391c-0.013,0-0.022-0.001-0.037-0.002
							C175.541,184.475,175.519,184.458,175.452,184.391z"/>
						<path style="fill:#D83B3F;" d="M195.572,181.799c-0.157-0.053-0.339-0.098-0.536-0.129
							C195.123,181.703,195.286,181.746,195.572,181.799z"/>
						<path style="fill:#D83B3F;" d="M195.487,181.594c0.145,0.017,0.258,0.029,0.366,0.042
							C195.906,181.563,195.859,181.518,195.487,181.594z"/>
						<path style="fill:#D83B3F;" d="M194.357,181.625c0.24-0.007,0.464,0.014,0.679,0.045c-0.082-0.029-0.117-0.054-0.095-0.068
							C194.818,181.606,194.645,181.613,194.357,181.625z"/>
						<path style="fill:#D83B3F;" d="M153.847,211.359c0.028,0.014,0.061,0.022,0.092,0.041
							C154.361,211.221,154.174,211.249,153.847,211.359z"/>
						<path style="fill:#D83B3F;" d="M143.443,186.341c0.02-0.005,0.029-0.016,0.048-0.021c-0.02-0.005-0.044-0.011-0.063-0.016
							L143.443,186.341z"/>
						<path style="fill:#D83B3F;" d="M141.939,186.664c0.64-0.54,1.005-0.474,1.49-0.359l-0.497-1.251L141.939,186.664z"/>
						<path style="fill:#D83B3F;" d="M115.959,210.174c-0.03,0-0.018-0.39,0.013-0.39c0.895-0.642,0.614-0.421,0.957-0.969
							c-0.311,0.48-0.51,0.639-0.702,0.702c-0.116-0.154,0.083-0.5-0.794-0.369c0-0.015,0.286-0.297,0.286-0.282
							c-0.013,0.064,0.067,0.066,0.053,0.126c0.325-0.104,0.08-0.548-0.223-0.816c-0.303-0.301-0.663-0.651-0.566-1.524
							c0.104-0.607,0.301-1.033,0.462-0.617l-0.336-1.357c0.026-0.394,0.262-0.298,0.236,0.096l-0.108-2.069l0.04,0.017
							c-0.213-0.296-0.542-0.964-0.683-1.291c0.195-0.526,0.144,0.263,0.313,0.129l-0.329-1.145
							c0.352-0.468,0.693,0.481,0.643,1.273c1.356-1.069-0.342-0.951,0.45-3.26l0.172,1.081c0.771-0.695,0.491-1.54,0.972-2.764
							c-0.251,0.29-1.21,2.449-1.549,1.205c0.103-0.35,0.151-0.812-0.122-1.483c0.483-0.005,0.364-0.66,0.337-1.479l0.64,0.056
							c-0.185-0.885-0.51-0.816-0.798-1.337c0.063-0.986,0.559-1.191,0.976-1.424c0.102-1.581-0.794,1.092-0.915-0.779
							c0.122-0.658,0.118-1.218,0.036-1.81c-0.042-0.296-0.102-0.6-0.177-0.928c-0.039-0.164-0.079-0.334-0.121-0.513
							c-0.043-0.154-0.089-0.195-0.137-0.316c0.22-0.395,0.391,0.136,0.574,0.014c0,0.03-0.51-0.454-0.51-0.485
							c0.012-0.094,0.169,0.007,0.248,0.052c-0.198-0.41-0.639-0.277-0.813-1.054c-0.309-0.295-0.149-0.521,0.061-0.661
							c0.764,0.269,1.332,0.618,1.557,0.169c0.242,0.182,0.06,0.392,0.215,0.64c0.583-0.525,0.766-0.381,2.193-1.088l1.283,0.42
							c-0.944-0.48,0.261-1.049,1.317-1.516c-0.334-0.232-0.621-0.436-0.813-0.531l1.684-0.344c0.204,0.105,0.035,0.324-0.241,0.592
							c0.114-0.053,0.224-0.105,0.307-0.153c0.603,0.236,0.291,0.605-0.14,0.963c-0.203-0.132-0.407-0.265-0.607-0.395
							c-0.416,0.389-0.805,0.819-0.718,1.193c0.108-0.073,0.32-0.138,0.551-0.173c-0.108,0.105-0.177,0.199-0.128,0.264
							c0.058,0.067,0.234-0.074,0.509-0.237l0.383,0.713l0.092-0.283l2.205,0.446c1.576-0.718,2.948-1.774,5.45-2.068
							c-0.621,0.522-0.134,0.854-0.167,1.473c-0.683-0.655-1.939,0.279-3.235,0.146c0.676,0.068,0.527,0.363,0.355,0.467
							l2.313-0.597c-0.052,0.507,0.492,0.38,1.097,0.589c-0.458-1.001,1.724-0.666,2.666-0.974c0.058,0.337-0.167,0.68-1.315,0.599
							c1.266,0.754,1.636-1.176,2.879-0.535c-0.28,0.008-0.431-0.044-0.541,0.127c0.654-0.299,2.255-0.063,1.878,0.23l-0.28,0.008
							c1.862,0.118,5.668,0.007,5.946-0.844c0.018,0.109-0.245,1.025-0.356,1.197l3.321-2.861c-0.293,0.73,0.829,2.47-0.714,2.883
							c0.444,0.104,0.992,0.225,1.927-0.033c-0.302-0.104-0.755-1.056-0.342-1.123c1.135,0.814,0.788,0.436,2.187,1.129
							c-0.453-0.156,0.05-1.303,0.767-1.266c-0.112,0.172,0.06,1.131-0.202,1.25l1.782-1.125c-0.445,0.203-0.078,0.953,0.321,1.271
							c-0.186-0.221,1.54,0.021,2.017-0.091l-0.757-0.261c2.013,0.17,1.988-1.582,3.985-1.522c-0.241,0.232-0.598,1.43,0.418,1.571
							c0.466-0.576,2.061-2.771,3.828-3.214l0.338,0.329l1.356-0.375c-0.845,0.867-3.214,2.69-4.507,3.4
							c0.753,0.26,0.21,0.388,1.337,0.357c0.398,0.309-0.614,0.469-0.946,0.486l2.626,0.199c-0.115-0.672,2.009-0.674,1.908-1.234
							l-2.853,0.697c-0.115-0.671,1.65-1.908,3.512-1.789c0.472,0.268-0.354,1.196-0.316,1.42c0.242-0.23,1.768-0.441,1.937-0.277
							l-0.789,0.359c1.036,0.253,1.691-0.891,2.937-0.25c0.43,0.043,1.283,0.866,1.356,0.469c-0.7-0.768-0.838-3.141-0.371-3.717
							c0.151,0.052,2.258,0.733,2.747,1.112c0.708,0.602-1.063,1.434-0.46,1.95c0.027-0.184,0.418-0.41,0.58-0.482
							c0.451,0.156-0.187,0.568,0.795,0.485c0.162-0.682,1.994,0.058,0.462-0.576c0.959-0.194,1.021,0.14,2.146,0.11
							c-0.358-0.44,1.011-1.499,1.973-1.693c-0.057,0.174,0.158,0.398,0.263,0.502c1.966,0.062,3.022,0.371,4.854,0.377
							c0.169,0.165,1.055,0.365,0.677,0.658c0.265-0.121,0.506-0.352,1.071-0.368c1.094,0.589-1.261,0.092-0.426,0.8
							c0.071-0.396,1.462-0.547,2.268-0.794c-0.248-0.612-1.861-0.117-2.668,0.13c-0.003-0.844,1.401-1.728,3.317-2.117
							c1.521-0.21,0.66,0.545,0.924,0.425c2.86,0.147,2.438-1.474,4.813-0.864c0.942,0.537,0.042,1.069,0.252,1.457
							c-1.241,0.203-1.905-0.342-2.745-0.32l1.034,0.255c-0.395,0.179-1.223,0.314-1.674,0.159c0.789,0.482,4.833,0.092,7.04,0.538
							c0.392-0.181,1.068-0.366,0.748-0.583l-0.698,0.075c-0.642-0.434,1.314-0.6,0.431-0.802c0.937-0.305,1.986-0.784,3.306-0.539
							l0.247,0.613c-0.028-0.18-0.861-0.365-1.232-0.178c0.55-0.272,2.022,0.829,2.624,0.026l-0.924-0.425
							c0.94-0.309,2.103-0.959,3.271-0.766c-0.532-0.605-0.27,0.069-1.1-0.639c0.72,0.881-2.99-0.037-1.833,0.889
							c-0.853-0.822-1.476-0.349-2.589-1.05c0.034,0.202,0.395,0.387-0.587,0.287c-0.044,0.06-0.148,0.134-0.215,0.179
							c-0.03-0.007-0.041-0.01-0.066-0.016l0.054,0.023c-0.042,0.031-0.046,0.037,0.021,0.009c0.233,0.089,0.423,0.194,0.5,0.308
							c-0.487,0.465-2.047,0.449-2.574,0.689c-0.583-0.096,0.243-0.231-0.075-0.447l-0.788,0.359
							c-0.078-0.449-1.547-0.746-0.175-1.01l-1.234-0.02c-0.727-0.252-1.727-0.352-2.343-0.163
							c-0.582-0.097-1.471,0.497-0.964,0.146l-1.936,0.278l-0.017-0.112c-1.911-0.057-3.933,0.744-6.116-0.066
							c-0.644,0.113-1.308,0.252-2.384,0.124l-0.21-0.389c-0.825,0.136-2.479-0.389-2.833,0.017
							c-0.892-1.046-4.008-0.229-5.459-0.414l-0.056,0.508c-0.999-0.029-1.958,0.115-3.197,0.318l0.076,0.448
							c-1.069,0.368-2.751-0.319-4.442-0.272c0.114-0.172,0.545-0.127,0.848-0.023c-2.021-1.013-4.265,0.736-6.098-0.001
							c-0.456,0.163-0.788,0.107-1.107-0.005c0.042-0.002,0.081-0.01,0.113-0.023c-0.047-0.006-0.116-0.007-0.188-0.006
							c-0.201-0.077-0.41-0.167-0.634-0.238c0.19,0.108,0.373,0.198,0.533,0.24c-0.353,0.009-0.888,0.064-1.411,0.177l-0.223-0.481
							c-0.043,0.005-0.077,0.009-0.122,0.014c-0.514-0.178-0.413,0.229-0.138,0.59c-0.265,0.08-0.507,0.175-0.693,0.291
							c-0.418-0.777-1.374,0.262-1.943-0.567c-0.354,0.404-2.633,0.304-2.913,1.155c-0.018-0.111-0.172-0.164,0.11-0.171
							c-0.582-0.097-1.166-0.194-1.69,0.046l-0.247-0.612l-1.276,0.823c-0.774-0.373-1.094-0.59-0.325-1.061
							c-1.858,0.725-1.506,0.272-3.086,0.99l0.078-0.396c-0.565,0.015-1.468,0.546-1.808,0.218c-1.264-0.752-6.248-0.104-9.49-0.803
							c0.628,1.166-1.506-0.522-1.635,0.381c-0.188-0.275-0.641-0.432-0.116-0.671c-1.653,0.271-2.484-0.437-3.628,0.325
							c-0.189-0.277,0.354-0.404,0.187-0.568c-0.133,0.06-0.526,0.24-0.699,0.075c-0.168-0.164,0.242-0.231,0.504-0.352
							c-1.689,0.046-1.862,0.896-1.984,1.693c-0.856-0.378-1.284-0.324-1.901,0.198c-0.299-0.26-0.797-0.533,0.253-0.627
							c-0.59-0.038-3.607-0.383-3.669,0.257c-0.184-0.162-1.112-0.048-1.28,0.026c-1.777-0.038-1.996-0.096-3.699-0.035l0.573,0.104
							c-0.008,0.273-0.137,0.375-0.379,0.396c0.038,0.497-0.191,0.898-0.131,1.798l-0.079-0.086
							c-0.278,1.396-0.211,1.835-0.155,2.159c0.029,0.173,0.055,0.338,0.034,0.653c-0.021,0.321-0.088,0.624-0.247,1.235l0.479-0.13
							c1.032,0.222-0.608,2.104-0.214,3.481l0.274-0.497c0.353,0.752-1.403,2.103-1.532,2.857c-0.09,0.165-0.144-0.26-0.21-0.489
							c-0.608,1.979,0.628,0.256,0.774,1.73c-0.339,0.271-0.862-0.352-0.925,0.643c-0.274,0.494,1.1,2.877,0.45,4.23
							c0.261-0.299,0.522-0.594,0.718,0.09c0.093,1.05-0.987,2.838-0.164,3.785c-0.071,0.134-0.14,0.184-0.205,0.189
							c0.212,0.803,0.353,2.607,0.799,3.09c-0.162,0.072-0.284,0.179-0.375,0.311s-0.15,0.267-0.185,0.554
							c-0.07,0.517-0.043,1.153,0.02,1.774c0.126,1.269,0.398,2.353,0.333,3.176c0.409,0.037,0.562,0.181,0.271,0.516l3.695-0.082
							l-0.133,0.156c0.571,0.024,1.136,0.021,1.479-0.005c0.283-0.026,0.518-0.073,0.721-0.136c0.406-0.125,0.684-0.309,0.96-0.492
							c0.365,0.104,0.099,0.247,0.069,0.327c2.304,0.308,2.534,0.243,4.466-0.519l0.201,0.496c0.524-0.288,3.332,0.777,5.592,0.199
							c-0.022,0.057-0.069,0.152-0.248,0.223c2.543-0.582,6.088,1.375,7.02-0.431l1.68-0.444c-2.171-0.141,0.322-0.783-0.57-1.084
							c0.853-0.105,2.208,0.545,1.158,0.638l-0.165-0.091c-0.385,0.941,2.699,0.334,2.641,0.975
							c4.271-0.047,8.437,0.475,12.438,0.515l-0.46-0.731l1.396,0.042c0.366,0.171,0.492,0.572-0.504,0.542
							c0.523,0.414,1.671-0.348,1.698-0.506c1.949,0.296-0.762,0.853-0.163,0.87l0.812-0.055l-0.183-0.085
							c0.657-0.299,0.717-0.616,1.914-0.58c0.757,0.146,0.389,0.451,0.686,0.479c-0.002,0.052,0.099,0.076,0.458,0.021l1.758,0.063
							l-0.703-0.577c0.779-0.284,1.655,0.03,0.844-0.624c1.189,1.009,6.561,0.362,7.291,0.676c1.092-0.422,2.17-0.414,3.505-0.363
							c-0.332-0.12-0.53-0.77,0.621-0.689c-0.421,1.34,2.108,0.581,3.039,1.545c-0.831-0.639,3.272-0.158,1.969-1.065
							c0.96,0.108,0.058,0.501,0.788,0.817c2.286-0.52,5.038,0.337,7.866,0.162c0.044-0.176-0.431-0.445,0.177-0.707l1.492,0.879
							c0.559-0.086,0.515-1.015,1.533-0.404c-0.144-0.148-0.358-0.371,0.017-0.428c5.537,0.857,11.314-0.701,16.938,0.908
							c-0.761-0.34-0.255-0.374,0.328-0.387c-0.379-0.082,0.008-0.435-0.066-0.673l2.354,0.662c0.43-0.661,2.524-0.045,2.771-0.677
							l-0.745,0.113c0.99-0.746-1.389-1.659-1.243-2.617c-1.11,0.849-2.928-1.257-4.75-0.042c-0.4-0.195,0.345-0.309,0.128-0.53
							c-0.461,0.41-1.018,0.496-2.052,0.312l0.117-0.102c-2.903,0.101-4.148-0.305-7.409-0.574l0.241,0.474
							c-0.701-0.063-0.849-0.212-1.176-0.33c-0.804,0.718,1.967,0.04,1.234,0.832c-0.93-0.964-4.941-0.015-5.569-1.109
							c-1.078-0.006,0.315,0.548-0.763,0.541l-0.285-0.296l-0.272,0.382c-0.706-0.063-1.063-0.434-1.09-0.685
							c0.173,0.03,0.487-0.07,0.672-0.092c-0.918-0.349-2.585,0.119-2.899,0.005l1.035,0.184c-2.941,0.277-6.533-0.112-9.376,0.49
							l0.215,0.224c-2.17,0.413-1.738-0.245-4.122-0.054l0.087-0.054c-0.477,0.223-1.113,0.335-1.767,0.31
							c0.603-0.262-1.131-0.509-0.342-0.799c-2.354,0.444-1.166,0.35-2.72,1.18l-0.359-0.371c-0.528,0.336-0.572,0.513-1.763,0.609
							c0.977-0.318-0.76-0.565,0.333-0.986c-2.497-0.811-3.709,0.818-4.855-0.367c-1.146,1.026,2.162,0.57,1.521,0.789
							c0.538,0.336-0.947,0.768-1.731,0.664c-0.797-0.022-1.356-1.313-3.364-1.293c0.201,0.005,0.214-0.072,0.413-0.068
							c-0.751-0.262-1.472,0.354-2.393-0.07c-0.516,0.62-1.197-0.036-1.345,0.756l1.841-0.184c-1.044,0.207-2.022,1.133-3.741,0.684
							c0.133-0.159,0.644-0.369,0.995-0.486c-0.501-0.233-0.967,0.154-1.488-0.085c0.148-0.792,2.237-0.173,3.355-0.776
							c-0.539-0.334-2.115,0.574-1.554-0.284c-0.808,1.091-1.978-0.138-3.337,0.695l0.09-0.475
							c-0.215,0.075-0.661,0.299-1.057,0.286l0.718-0.615c-1.102,0.525-2.122-0.459-3.177-0.173c2.209-0.015,0.495,0.571,1.43,0.918
							c-2.726,0.636-1.567-1.241-4.619-1.014c0.413-0.067,1.552,0.285,0.904,0.505c-0.58-0.098-1.347-0.279-1.704-0.529
							c-2.022,0.1,0.311,0.488-0.55,0.78c-0.688-0.578-0.994,0.235-1.879,0.421l-0.007-0.482c-2.304-0.311-0.61,1.005-2.685,0.631
							l0.878-0.669l-1.082,0.173l0.224-0.549c-1.178,0.407-1.544,0.302-2.696,0.148c0.268,0.34-0.151,0.875-1.171,0.891
							c-0.696-0.287,0.391-0.459-1.056-0.391c0.326-0.301,0.685-0.68,1.314-0.236c0.064-0.156,0.322-0.303,0.389-0.457
							c-0.75-0.33-1.883-0.076-2.407-0.071c0.202,0.019,0.442,0.044,0.565,0.112l-2.098,0.669c-0.329-0.181-0.067-0.327,0.192-0.47
							c-0.425,0.053-0.718,0.274-1.342,0.316c0.161-0.393,0.123-0.797,1.005-0.982l-1.997,0.436
							c-0.134-0.17-1.025-0.469-0.767-0.613c-1.106-0.23-2.717,0.762-4.185,0.457c-0.076,0.076-0.229,0.148-0.541,0.205
							c-1.381-0.089-2.604-0.57-4.239-0.032l-0.928-0.703c-1.281,0.159,1.256,0.886-0.877,1.151
							c-0.188,0.027-0.339,0.039-0.458,0.038c-0.141-0.002-0.119-0.017-0.167-0.041c-0.057-0.049-0.064-0.137-0.058-0.237
							c0.017-0.203,0.063-0.458,0.011-0.556c-0.107,0.171-0.334,0.428-0.644,0.583c-0.294,0.155-0.682,0.209-0.715-0.025
							l0.055-0.107c0.014,0.005,0.026,0.012,0.035,0.019C115.739,210.143,115.786,210.221,115.959,210.174z M115.259,197.979
							c0.101,0.307,0.414,0.916,0.129,1.14C114.835,198.771,115.1,198.502,115.259,197.979z M123.436,185.354
							c-0.228,0.159-0.579,0.08-0.978-0.103C122.748,185.211,123.073,185.229,123.436,185.354z M190.347,181.994
							c-0.013,0.008-0.022,0.014-0.032,0.023C189.631,181.83,189.873,181.904,190.347,181.994z M191.765,182.203
							c0.143-0.066,0.133-0.134,0.073-0.201c-0.1,0.122-0.418,0.131-0.78,0.096C191.158,182.225,191.342,182.313,191.765,182.203z
							 M158.325,214.606l-0.275-0.126C158.672,214.342,158.497,214.467,158.325,214.606z"/>
						<path style="fill:#D83B3F;" d="M120.713,186.014c-0.086-0.082-0.111-0.172-0.13-0.263
							C120.462,185.832,120.459,185.926,120.713,186.014z"/>
						<path style="fill:#D83B3F;" d="M124.003,209.92l0.048,0.006c0.027-0.029,0.041-0.059,0.049-0.087L124.003,209.92z"/>
						<path style="fill:#D83B3F;" d="M169.797,186.294c-0.292-0.069-0.455-0.157-0.563-0.249
							C169.219,186.163,169.352,186.263,169.797,186.294z"/>
						<path style="fill:#D83B3F;" d="M199.28,181.384l-0.908,0.126c0.439-0.024,0.596,0.081,0.817,0.158
							C199.17,181.555,198.996,181.392,199.28,181.384z"/>
						<path style="fill:#D83B3F;" d="M207.165,184.369c0.133-0.059,0.281-0.006,0.412-0.066l-0.036-0.225
							C206.976,184.094,206.58,184.273,207.165,184.369z"/>
						<path style="fill:#D83B3F;" d="M200.121,182.986c0.072,0.406,0.642,0.269,1.278,0.193c-0.038,0.002-0.074,0.005-0.112,0
							C201.475,182.611,200.796,182.8,200.121,182.986z"/>
						<path style="fill:#D83B3F;" d="M201.547,183.166c0.196-0.02,0.396-0.029,0.588-0.01
							C202.21,182.928,201.896,183.108,201.547,183.166z"/>
						<path style="fill:#D83B3F;" d="M193.563,181.935c0.302,0.104,0.189-0.519,0.36-0.354
							C194.261,181.064,191.912,182.206,193.563,181.935z"/>
						<polygon style="fill:#D83B3F;" points="200.637,184.324 200.408,183.822 200.052,184.227 						"/>
						<path style="fill:#D83B3F;" d="M195.612,183.956l1.017,0.139c-0.016-0.084,0.113-0.134,0.272-0.171
							C196.274,183.907,195.588,183.808,195.612,183.956z"/>
						<path style="fill:#D83B3F;" d="M196.901,183.924c0.326,0.01,0.637-0.001,0.818-0.083
							C197.543,183.846,197.163,183.863,196.901,183.924z"/>
						<polygon style="fill:#D83B3F;" points="199.246,184.475 198.946,184.369 198.228,184.333 						"/>
						<path style="fill:#D83B3F;" d="M184.682,183.859l-1.11,0.144c-0.112,0.172,0.189,0.276,0.603,0.208
							C184.439,184.092,184.853,184.025,184.682,183.859z"/>
						<path style="fill:#D83B3F;" d="M188.037,185.231c-0.3-0.104-0.319-0.216-0.489-0.381l-0.033,0.621L188.037,185.231z"/>
						<path style="fill:#D83B3F;" d="M184.801,185.377c-0.11,0.172-1.61,0.494-0.204,0.455
							C184.71,185.661,185.821,185.518,184.801,185.377z"/>
						<polygon style="fill:#D83B3F;" points="168.081,184.591 168.363,184.583 168.323,183.564 						"/>
						<path style="fill:#D83B3F;" d="M153.344,187.027c1.315,0.244,0.313-0.629,1.501-0.324c0.309-0.24-0.972-0.248-0.655-0.456
							C153.396,186.501,152.979,186.357,153.344,187.027z"/>
						<path style="fill:#D83B3F;" d="M154.189,186.247c0.128-0.04,0.263-0.089,0.405-0.155
							C154.365,186.156,154.257,186.205,154.189,186.247z"/>
						<polygon style="fill:#D83B3F;" points="209.951,215.123 210.797,215.336 210.251,214.993 						"/>
						<path style="fill:#D83B3F;" d="M211.575,214.367l0.199,0.649l0.508-0.587C212.091,214.458,211.721,214.514,211.575,214.367z"
							/>
						<path style="fill:#D83B3F;" d="M116.566,195.63l-0.156-0.063c-0.169,0.13-0.182,0.329-0.208,0.726L116.566,195.63z"/>
						<polygon style="fill:#D83B3F;" points="116.081,207.099 116.094,206.902 115.507,207.271 						"/>
						<path style="fill:#D83B3F;" d="M117.12,208.915c-0.289-0.013-0.166,0.015-0.207,0.041c-0.01,0.026-0.028,0.053-0.034,0.04
							c0.027-0.053,0.017,0.11,0.043,0.194c-0.011,0.021,0.026,0.037,0.076,0.044c0.039,0.007,0.07,0.004,0.093-0.013
							C117.135,209.188,117.146,209.098,117.12,208.915z"/>
					</g>
				</g>
			</g>
		</g>
	</g>
</g>
</svg>
