<?xml version="1.0" encoding="iso-8859-1"?>
<!-- Generator: Adobe Illustrator 16.0.0, SVG Export Plug-In . SVG Version: 6.00 Build 0)  -->
<!DOCTYPE svg PUBLIC "-//W3C//DTD SVG 1.1//EN" "http://www.w3.org/Graphics/SVG/1.1/DTD/svg11.dtd">
<svg version="1.1" id="&#x56FE;&#x5C42;_1" xmlns="http://www.w3.org/2000/svg" xmlns:xlink="http://www.w3.org/1999/xlink" x="0px"
	 y="0px" width="354.33px" height="354.33px" viewBox="0 0 354.33 354.33" style="enable-background:new 0 0 354.33 354.33;"
	 xml:space="preserve">
<path style="opacity:0.5;fill:#EEBA1D;" d="M106.295,54.405v164.649h-64.57c-4.09-13.24-6.29-27.31-6.29-41.89
	C35.435,124.705,63.935,78.905,106.295,54.405z"/>
<path style="fill:#D6ECE5;" d="M106.295,219.055v28.351h-52.26c-5.08-8.891-9.23-18.391-12.31-28.351H106.295z"/>
<path style="fill:#D6ECE5;" d="M134.646,247.405v65c-9.97-3.131-19.46-7.33-28.351-12.471v-52.529H134.646z"/>
<path style="opacity:0.5;fill:#563C94;" d="M106.295,247.405v52.52c-21.72-12.56-39.8-30.729-52.26-52.52H106.295z"/>
<path style="opacity:0.5;fill:#20AEE0;" d="M318.896,177.165c0,14.58-2.2,28.649-6.29,41.89h-177.96V41.925
	c13.42-4.22,27.71-6.49,42.52-6.49C255.436,35.436,318.896,98.896,318.896,177.165z"/>
<path style="fill:#D6ECE5;" d="M134.646,41.925v63.74h-28.351v-51.26C115.186,49.255,124.676,45.055,134.646,41.925z"/>
<rect x="134.646" y="219.055" style="fill:#D6ECE5;" width="14.17" height="28.351"/>
<path style="fill:#D6ECE5;" d="M312.605,219.055c-3.08,9.96-7.23,19.46-12.311,28.351h-52.27v-28.351H312.605z"/>
<g>
	<rect x="106.295" y="105.665" style="fill:#59BEAF;" width="28.351" height="141.74"/>
	<rect x="148.815" y="219.055" style="fill:#59BEAF;" width="99.21" height="28.351"/>
</g>
<path style="opacity:0.5;fill:#E83818;" d="M300.295,247.405c-24.42,42.71-70.42,71.489-123.13,71.489
	c-14.81,0-29.1-2.27-42.52-6.489v-65H300.295z"/>
</svg>
