<?xml version="1.0" encoding="iso-8859-1"?>
<!-- Generator: Adobe Illustrator 16.0.0, SVG Export Plug-In . SVG Version: 6.00 Build 0)  -->
<!DOCTYPE svg PUBLIC "-//W3C//DTD SVG 1.1//EN" "http://www.w3.org/Graphics/SVG/1.1/DTD/svg11.dtd">
<svg version="1.1" id="&#x56FE;&#x5C42;_1" xmlns="http://www.w3.org/2000/svg" xmlns:xlink="http://www.w3.org/1999/xlink" x="0px"
	 y="0px" width="354.33px" height="354.33px" viewBox="0 0 354.33 354.33" style="enable-background:new 0 0 354.33 354.33;"
	 xml:space="preserve">
<linearGradient id="SVGID_1_" gradientUnits="userSpaceOnUse" x1="92.2495" y1="208.4561" x2="227.178" y2="161.9965">
	<stop  offset="0" style="stop-color:#49C0E5"/>
	<stop  offset="1" style="stop-color:#7A4999"/>
</linearGradient>
<path style="fill:none;stroke:url(#SVGID_1_);stroke-miterlimit:10;" d="M134.646,247.249c0,1.564-1.27,2.834-2.835,2.834h-22.677
	c-1.565,0-2.835-1.27-2.835-2.834V111.187c0-1.565,1.27-2.835,2.835-2.835h22.677c1.565,0,2.835,1.27,2.835,2.835V247.249z
	 M248.031,224.571c0-1.565-1.27-2.834-2.834-2.834h-93.543c-1.565,0-2.835,1.269-2.835,2.834v22.678c0,1.564,1.27,2.834,2.835,2.834
	h93.543c1.564,0,2.834-1.27,2.834-2.834V224.571z M134.646,169.089l-28.347-41.317 M106.299,179.218l22.856-70.866 M134.646,199.368
	l-28.347,11.039 M129.156,161.087l-22.856,38.281 M134.646,243.939l-28.347-17.964 M134.646,221.737l-16.918,28.346
	 M134.646,186.454l-28.347,32.336 M123.767,250.083l-11.62-88.996 M117.728,108.352l-11.428,31.396 M151.654,250.083l39.776-28.346
	 M151.654,221.737l39.776,28.346 M208.197,221.737l22.156,28.346 M198.426,221.737l-16.59,21.508 M171.542,250.083l76.489-25.512
	 M209.787,250.083l14.578-28.346 M134.646,131.964l-28.347,16.467"/>
</svg>
