<?xml version="1.0" encoding="iso-8859-1"?>
<!-- Generator: Adobe Illustrator 16.0.0, SVG Export Plug-In . SVG Version: 6.00 Build 0)  -->
<!DOCTYPE svg PUBLIC "-//W3C//DTD SVG 1.1//EN" "http://www.w3.org/Graphics/SVG/1.1/DTD/svg11.dtd">
<svg version="1.1" id="&#x56FE;&#x5C42;_1" xmlns="http://www.w3.org/2000/svg" xmlns:xlink="http://www.w3.org/1999/xlink" x="0px"
	 y="0px" width="354.33px" height="354.33px" viewBox="0 0 354.33 354.33" style="enable-background:new 0 0 354.33 354.33;"
	 xml:space="preserve">
<polygon style="fill:#D6ECE5;" points="283.46,219.68 283.46,248.03 134.65,248.03 134.65,283.46 106.3,283.46 106.3,248.03 
	70.87,248.03 70.87,219.68 106.3,219.68 106.3,70.87 134.65,70.87 134.65,219.68 "/>
<path style="opacity:0.5;fill:#EEBA1D;" d="M106.3,70.87v148.81H70.87V85.04c0-7.83,6.34-14.17,14.17-14.17H106.3z"/>
<path style="opacity:0.5;fill:#20AEE0;" d="M283.46,85.04v134.64H134.65V70.87h134.64C277.12,70.87,283.46,77.21,283.46,85.04z"/>
<path style="opacity:0.5;fill:#563C94;" d="M106.3,248.03v35.43H85.04c-7.83,0-14.17-6.34-14.17-14.17v-21.26H106.3z"/>
<rect x="106.3" y="106.3" style="fill:#59BEAF;" width="28.35" height="141.73"/>
<rect x="106.3" y="70.87" style="fill:#D6ECE5;" width="28.35" height="35.43"/>
<rect x="134.65" y="219.68" style="fill:#D6ECE5;" width="14.17" height="28.351"/>
<rect x="70.87" y="219.68" style="fill:#D6ECE5;" width="35.43" height="28.351"/>
<g>
	<path id="path5925" style="fill:none;stroke:#FFFFFF;stroke-width:0.5;stroke-miterlimit:10;" d="M209.646,156.009
		c-1.102-0.01-2.201,0.045-3.299,0.17c-0.957,0.111-1.914,0.287-2.855,0.523c0.051,0.543,0.078,1.084,0.088,1.631
		c0.006,0.537-0.014,1.078-0.053,1.615c2.416-0.672,5.002-0.797,7.393-0.072c0.523,0.158,1.031,0.361,1.533,0.584
		c-0.139-0.332-0.266-0.67-0.383-1.01c-0.375-1.088-0.654-2.23-0.783-3.383C210.739,156.036,210.192,156.011,209.646,156.009
		L209.646,156.009z"/>
	<path id="path5921" style="fill:none;stroke:#FFFFFF;stroke-width:0.5;stroke-miterlimit:10;" d="M192.353,165.405
		c-0.672,1.363-1.199,2.814-1.637,4.289c0.238-0.398,0.512-0.779,0.807-1.139c0.578-0.709,1.221-1.365,1.916-1.961
		c-0.141-0.119-0.275-0.24-0.402-0.375C192.786,165.968,192.56,165.694,192.353,165.405L192.353,165.405z"/>
	<path id="path6020" style="fill:none;stroke:#FFFFFF;stroke-width:0.5;stroke-miterlimit:10;" d="M189.698,173.681
		c-0.664,2.93-1.268,5.877-2.387,8.654c-0.615,1.529-1.379,2.977-2.219,4.389c-2.42,6.26-8.208,18.084-10.584,26.482
		c-1.068,3.156-2.177,6.301-3.497,9.359c-0.805,1.861-1.688,3.689-2.367,5.604c-1.561,4.387-2.003,9.227-0.822,13.729
		c0.474,1.809,1.203,3.549,2.155,5.16c0.063,0.102,0.133,0.205,0.196,0.309c-0.029-2.059,0.053-4.119,0.252-6.164
		c0.679-6.93,2.607-13.715,5.419-20.084c1.855-4.203,4.094-8.236,6.68-12.035c-0.248-2.398-0.018-4.844,0.672-7.154
		c1.139-3.816,3.475-7.139,5.783-10.383c1.336-1.869,2.699-3.793,3.307-6.01c0.568-2.074,0.438-4.262,0.52-6.41
		c0.029-0.779,0.092-1.559,0.221-2.326c-0.479-0.43-0.986-0.824-1.531-1.166c-0.283-0.176-0.576-0.34-0.846-0.537
		c-0.27-0.199-0.52-0.43-0.691-0.717c-0.078-0.133-0.135-0.275-0.176-0.426c-0.016-0.033-0.031-0.066-0.045-0.1
		C189.72,173.8,189.708,173.743,189.698,173.681z M168.13,246.64c0.134,0.227,0.276,0.443,0.427,0.656
		C168.406,247.083,168.264,246.866,168.13,246.64z M168.688,247.478c0.11,0.148,0.221,0.297,0.338,0.441
		C168.908,247.774,168.798,247.626,168.688,247.478z M161.276,247.739c-0.02,0-0.039,0.002-0.06,0.004
		c0.123-0.004,0.246-0.004,0.369,0C161.483,247.741,161.381,247.739,161.276,247.739L161.276,247.739z M161.189,247.743
		c-0.138,0.006-0.273,0.014-0.41,0.027C160.916,247.757,161.054,247.749,161.189,247.743z M161.66,247.745
		c0.124,0.008,0.25,0.016,0.372,0.029C161.91,247.761,161.784,247.753,161.66,247.745z M162.092,247.782
		c0.144,0.014,0.286,0.037,0.429,0.063C162.378,247.819,162.235,247.796,162.092,247.782z M169.186,248.118
		c0.131,0.156,0.262,0.311,0.398,0.467C169.447,248.429,169.316,248.274,169.186,248.118z M169.684,248.698
		c0.178,0.193,0.361,0.389,0.549,0.58C170.045,249.087,169.861,248.892,169.684,248.698z"/>
	<path id="path5917" style="fill:none;stroke:#FFFFFF;stroke-width:0.5;stroke-miterlimit:10;" d="M240.521,260.384
		c0.012,0.262,0.023,0.523,0.035,0.785C240.544,260.907,240.532,260.646,240.521,260.384z"/>
	<path id="path5915" style="fill:none;stroke:#FFFFFF;stroke-width:0.5;stroke-miterlimit:10;" d="M240.604,262.327
		c0.012,0.316,0.023,0.633,0.033,0.945C240.628,262.96,240.616,262.644,240.604,262.327z"/>
	<path id="path6289" style="fill:none;stroke:#FFFFFF;stroke-width:0.5;stroke-miterlimit:10;" d="M229.03,160.069
		c-0.082,0.527-0.193,1.049-0.336,1.561C228.837,161.118,228.948,160.597,229.03,160.069z"/>
	<path id="path6287" style="fill:none;stroke:#FFFFFF;stroke-width:0.5;stroke-miterlimit:10;" d="M228.642,161.812
		c-0.057,0.189-0.119,0.379-0.186,0.566C228.522,162.19,228.585,162.001,228.642,161.812z"/>
	<path id="path6285" style="fill:none;stroke:#FFFFFF;stroke-width:0.5;stroke-miterlimit:10;" d="M228.39,162.569
		c-0.09,0.238-0.184,0.475-0.293,0.709C228.206,163.044,228.3,162.808,228.39,162.569z"/>
	<path id="path6283" style="fill:none;stroke:#FFFFFF;stroke-width:0.5;stroke-miterlimit:10;" d="M227.374,166.593
		c0.115,0.066,0.225,0.139,0.328,0.219C227.599,166.735,227.489,166.659,227.374,166.593z"/>
	<path id="path6281" style="fill:none;stroke:#FFFFFF;stroke-width:0.5;stroke-miterlimit:10;" d="M227.79,166.878
		c0.025,0.02,0.051,0.039,0.074,0.061C227.841,166.917,227.815,166.897,227.79,166.878z"/>
	<path id="path6279" style="fill:none;stroke:#FFFFFF;stroke-width:0.5;stroke-miterlimit:10;" d="M227.987,167.054
		c0.021,0.018,0.041,0.037,0.061,0.057C228.028,167.091,228.009,167.071,227.987,167.054z"/>
	<path id="path6277" style="fill:none;stroke:#FFFFFF;stroke-width:0.5;stroke-miterlimit:10;" d="M244.591,171.813
		c-6.332,3.498-9.199,5.641-10.369,17.697c0.258,0.525,0.512,1.051,0.758,1.586c2.105,4.578,3.553,9.457,4.287,14.441
		c2.758,2.85,5.057,6.139,6.781,9.705c5.012,10.359,4.967,22.43,3.604,33.859c-0.043,0.355-0.064,0.529-0.088,0.723
		c-0.041,0.338-0.082,0.635-0.17,1.246c0.617,0.328,1.211,0.611,1.791,0.867c-0.586,1.797-0.764,3.715-0.615,5.586
		c0.139,1.725,0.57,3.535,1.75,4.889c0.955,1.098,2.283,1.764,3.633,2.162c2.324,0.688,4.85,0.652,7.15-0.1l0,0h0.002
		c3.764-1.264,7.092-3.768,9.346-7.031c0.742-1.076,1.389-2.264,1.686-3.576c0.043-0.188,0.076-0.381,0.102-0.576
		c1.189-2.053,2.002-4.344,2.439-6.68c0.826-4.395,0.447-8.939-0.32-13.35c-1.047-6.008-2.809-11.887-5.051-17.561
		c-1.648-4.174-3.58-8.279-6.275-11.867c-2.639-3.514-5.963-6.469-8.547-10.021c-1.363-1.869-2.521-3.904-3.939-5.723
		c0-0.002,0-0.002,0-0.002c-0.574-1.184-1.141-2.371-1.689-3.568c-1.705-3.713-3.256-7.514-5.273-11.07
		C245.263,172.899,244.931,172.354,244.591,171.813L244.591,171.813z M245.013,206.722c1.432,0.822,2.912,1.563,4.373,2.334
		c5.604,2.621,10.352,7.256,12.123,13.199c2.6,7.773,0.178,15.979-2.758,23.297c-0.045,0.047-0.092,0.113-0.139,0.188
		c0.195-0.012,0.393-0.025,0.592-0.025c0.92-0.014,1.846,0.105,2.756,0.262c1.4,0.238,2.787,0.559,4.184,0.82
		c0.24,0.043,0.482,0.088,0.725,0.133c-0.393-0.023-0.785-0.039-1.178-0.055c-0.143-0.002-0.287-0.004-0.432-0.008
		c-0.311-0.006-0.623-0.01-0.936-0.01c-0.109,0-0.219,0-0.328,0c-0.43,0.004-0.861,0.012-1.293,0.027
		c-0.969,0.037-1.938,0.105-2.904,0.195c-0.287,0.025-0.574,0.057-0.861,0.092c-0.287,0.037-0.574,0.078-0.855,0.127
		c-0.004,0-0.004-0.002-0.004,0c-0.002,0-0.004,0-0.004,0.004c-0.521,0.088-1.037,0.211-1.535,0.375l0,0
		c-0.268,0.094-0.533,0.193-0.791,0.314c-0.125,0.059-0.248,0.125-0.369,0.188c-0.365,0.199-0.711,0.424-1.057,0.656
		c-0.461,0.311-0.912,0.633-1.385,0.926c-0.178,0.107-0.361,0.211-0.547,0.313c-0.002,0-0.002,0.002-0.004,0.002
		c-0.021,0.01-0.047,0.021-0.066,0.031c0.49-0.893,1.111-1.717,1.863-2.402c0.846-0.775,1.859-1.375,2.955-1.697
		c2.406-6.729,4.539-13.688,3.471-20.605c-0.752-4.852-3.168-9.518-7.023-12.613c-2.336-1.881-5.186-3.18-7.578-5.17
		C245.661,207.331,245.335,207.03,245.013,206.722L245.013,206.722z"/>
	<path id="path6275" style="fill:none;stroke:#FFFFFF;stroke-width:0.5;stroke-miterlimit:10;" d="M230.71,182.47
		c0.049,0.111,0.102,0.223,0.152,0.332C230.812,182.692,230.759,182.581,230.71,182.47z"/>
	<path id="path6273" style="fill:none;stroke:#FFFFFF;stroke-width:0.5;stroke-miterlimit:10;" d="M231.222,183.563
		c0.275,0.576,0.561,1.148,0.848,1.715C231.784,184.712,231.497,184.14,231.222,183.563z"/>
	<path id="path6269" style="fill:none;stroke:#FFFFFF;stroke-width:0.5;stroke-miterlimit:10;" d="M256.312,253.612
		c0.109,0.035,0.221,0.07,0.33,0.1C256.532,253.683,256.421,253.647,256.312,253.612z"/>
	<path id="path6267" style="fill:none;stroke:#FFFFFF;stroke-width:0.5;stroke-miterlimit:10;" d="M257.571,253.983
		c0.246,0.066,0.494,0.127,0.74,0.188C258.065,254.11,257.817,254.05,257.571,253.983z"/>
	<path id="path6265" style="fill:none;stroke:#FFFFFF;stroke-width:0.5;stroke-miterlimit:10;" d="M258.628,254.239
		c0.15,0.033,0.301,0.064,0.451,0.094C258.929,254.304,258.778,254.272,258.628,254.239z"/>
	<path id="path6263" style="fill:none;stroke:#FFFFFF;stroke-width:0.5;stroke-miterlimit:10;" d="M259.466,254.403
		c0.102,0.02,0.203,0.037,0.307,0.053C259.669,254.44,259.567,254.423,259.466,254.403z"/>
	<path id="path5923" style="fill:none;stroke:#FFFFFF;stroke-width:0.5;stroke-miterlimit:10;" d="M260.294,254.532
		c0.043,0.008,0.084,0.012,0.127,0.016C260.378,254.544,260.337,254.54,260.294,254.532z"/>
	<path id="path5913" style="fill:none;stroke:#FFFFFF;stroke-width:0.5;stroke-miterlimit:10;" d="M240.653,268.827
		c-0.014,0.5-0.031,0.996-0.049,1.498C240.622,269.823,240.64,269.327,240.653,268.827z"/>
	<path id="path29670-2" style="fill:none;stroke:#FFFFFF;stroke-width:0.5;stroke-miterlimit:10;" d="M240.589,270.655
		c-0.023,0.508-0.047,1.01-0.078,1.516C240.542,271.665,240.565,271.163,240.589,270.655z"/>
	<path id="path28712-2" style="fill:none;stroke:#FFFFFF;stroke-width:0.5;stroke-miterlimit:10;" d="M212.589,118.008
		c-4.594-0.049-9.24,0.88-13.285,3.059c-4.299,2.317-7.818,6.023-9.988,10.396c-2.168,4.371-2.984,9.304-3.148,14.184
		c-0.162,4.787,0.279,9.572,0.459,14.361c0.186,4.982,0.086,9.975,0.498,14.943c0.133,1.6,0.318,3.201,0.313,4.807
		c-0.006,1.754-0.236,3.545,0.203,5.246c0.293,1.131,0.881,2.18,1.65,3.059c0.381,0.438,0.807,0.83,1.262,1.182
		c0.734-1.166,1.371-2.383,1.734-3.709c0.568-2.074,0.438-4.262,0.52-6.41c0.029-0.779,0.092-1.559,0.221-2.326
		c-0.479-0.43-0.986-0.824-1.531-1.166c-0.283-0.176-0.576-0.34-0.846-0.537c-0.27-0.199-0.52-0.43-0.691-0.717
		c-0.078-0.133-0.135-0.275-0.176-0.426c-0.016-0.033-0.031-0.066-0.045-0.1c-0.039-0.119-0.055-0.246-0.055-0.373
		c-0.002-0.254,0.059-0.502,0.109-0.752c0.068-0.326,0.121-0.662,0.182-0.992c0.061-0.334,0.135-0.664,0.24-0.982
		c0.275-0.811,0.766-1.533,1.309-2.199c0.135-0.164,0.271-0.326,0.412-0.482c0.043-0.049,0.086-0.094,0.127-0.141
		c0.102-0.111,0.203-0.219,0.307-0.33c0.049-0.049,0.098-0.1,0.148-0.15c0.111-0.113,0.227-0.223,0.344-0.332
		c0.035-0.035,0.07-0.068,0.107-0.102c0.154-0.145,0.311-0.287,0.471-0.424c-0.141-0.119-0.275-0.24-0.402-0.375
		c-0.725-0.736-1.268-1.645-1.656-2.6c-0.771-1.922-0.924-4.025-1.072-6.09c-0.166-2.281-0.328-4.633,0.396-6.801
		c0.361-1.084,0.949-2.105,1.785-2.885c0.834-0.779,1.926-1.307,3.068-1.369c0.855-0.047,1.717,0.166,2.486,0.545
		c0.77,0.383,1.451,0.922,2.049,1.539c1.234,1.268,2.121,2.855,2.674,4.537c0.555,1.686,0.785,3.463,0.813,5.236
		c0.006,0.537-0.014,1.078-0.053,1.615h0.004c0.121-0.033,0.246-0.063,0.369-0.092c0.203-0.051,0.406-0.102,0.613-0.146
		c0.271-0.057,0.545-0.111,0.82-0.154c0.021-0.002,0.043-0.006,0.066-0.01c0.293-0.043,0.586-0.08,0.881-0.105
		c0.016,0,0.031,0,0.047-0.004c0.592-0.051,1.184-0.063,1.775-0.033c0.033,0.002,0.066,0.002,0.1,0.004
		c0.275,0.016,0.549,0.041,0.822,0.072c0.074,0.008,0.148,0.02,0.223,0.031c0.066,0.008,0.133,0.018,0.199,0.029
		c0.105,0.016,0.209,0.037,0.313,0.055c0.063,0.014,0.123,0.021,0.188,0.035c0.113,0.025,0.227,0.049,0.338,0.078
		c0.049,0.01,0.098,0.02,0.146,0.033c0.162,0.039,0.324,0.086,0.488,0.135c0.518,0.158,1.021,0.359,1.518,0.578
		c0.004,0,0.01,0.004,0.016,0.006c-0.139-0.332-0.266-0.67-0.383-1.01c-0.887-2.574-1.24-5.445-0.32-8.01
		c0.73-2.035,2.223-3.74,4.006-4.965c0.553-0.381,1.139-0.717,1.762-0.961c1.098-0.426,2.307-0.549,3.471-0.387
		c1.166,0.16,2.287,0.6,3.273,1.24c1.979,1.277,3.377,3.33,4.15,5.555c0.711,2.045,0.922,4.244,0.801,6.41
		c-0.096,1.695-0.4,3.4-1.115,4.945c-0.488,1.053-1.182,2.023-2.053,2.787c0,0,0.004,0,0.006,0c0.146,0.043,0.291,0.09,0.436,0.137
		c0.166,0.059,0.33,0.121,0.49,0.191c0.135,0.061,0.268,0.123,0.398,0.199l0,0c0.322,0.186,0.619,0.416,0.838,0.709l0,0
		c0.043,0.059,0.084,0.119,0.121,0.184c0.031,0.053,0.059,0.105,0.082,0.162c0.002,0,0.002,0,0.002,0.002
		c0.025,0.057,0.045,0.109,0.064,0.166c0.008,0.01,0.012,0.014,0.018,0.023c0.289,0.373,0.465,0.828,0.543,1.293
		c0.082,0.469,0.072,0.947,0.016,1.416c-0.111,0.941-0.406,1.85-0.529,2.791c-0.092,0.725-0.088,1.484-0.406,2.145
		c-0.082,0.164-0.182,0.318-0.297,0.465c0.23,0.395,0.445,0.803,0.641,1.215c0.643,1.348,1.146,2.758,1.727,4.133
		c1.186,2.813,2.68,5.479,4.029,8.215c5.967-0.096,10.229-2.256,10.584-8.512c0.352-6.463-0.684-12.918-1.012-19.383
		c-0.35-6.826,0.074-13.783-1.715-20.376c-0.873-3.215-2.264-6.284-4.053-9.094c-2.098-3.294-4.76-6.244-7.92-8.534
		C225.063,119.958,218.817,118.076,212.589,118.008z M223.173,140.919c0.699,0.029,1.375,0.185,2.092,0.662
		c1.994,1.322,2.961,2.835,3.709,4.681c0.203,0.506,0.4,1.363,0.16,1.629c-1.025-2.078-2.486-3.947-4.41-5.225
		c-0.994-0.661-2.109-1.141-3.275-1.392c0.186-0.388,0.66-0.331,1.018-0.347C222.706,140.917,222.942,140.91,223.173,140.919z
		 M195.964,142.394c0.826,0.014,1.65,0.213,2.393,0.531c0.848,0.369,1.715,0.914,2.477,1.48c0.311,0.232,0.633,0.471,0.836,0.777
		c0.631,0.938,0.939,2.012,1.105,3.123c-0.674-1.439-1.672-2.799-3.014-3.9c-0.723-0.592-1.531-1.111-2.379-1.48
		c-0.623-0.268-1.309-0.445-1.998-0.504c0.076-0.01,0.152-0.01,0.229-0.016C195.731,142.401,195.847,142.39,195.964,142.394z"/>
	<path id="path8633" style="fill:none;stroke:#FFFFFF;stroke-width:0.5;stroke-miterlimit:10;" d="M173.587,258.983
		c1.972,3.02,2.174,3.174,3.827,5.854c0.646,1.051,0.797,1.303,1.133,1.867c2.118,3.549,4.065,7.215,6.513,10.545
		c1.6,2.174,3.402,4.189,5.008,6.359c1.605,2.166,3.029,4.52,3.742,7.121c0.926,3.383,0.566,7.107-1.041,10.223
		c-1.135,2.191-2.871,4.07-4.982,5.346c-2.113,1.27-4.596,1.932-7.059,1.838c-3.919-0.146-7.498-2.107-11.141-3.557
		c-7.421-2.955-15.481-3.883-23.13-6.184c-2.352-0.707-4.665-1.545-7.031-2.197c-1.053-0.287-2.119-0.541-3.113-0.992
		c-0.993-0.453-1.922-1.121-2.475-2.061c-0.428-0.727-0.608-1.586-0.596-2.428c0.012-0.844,0.208-1.676,0.494-2.469
		c0.574-1.584,1.502-3.02,2.129-4.588c1.021-2.555,1.207-5.371,1.066-8.123c-0.137-2.748-0.582-5.475-0.771-8.223
		c-0.084-1.225-0.116-2.469,0.118-3.674c0.232-1.209,0.754-2.389,1.64-3.24c0.816-0.787,1.899-1.254,3.009-1.484
		c1.109-0.234,2.253-0.244,3.387-0.217c1.133,0.025,2.27,0.086,3.398-0.006c1.129-0.094,2.264-0.348,3.248-0.912
		c0.936-0.531,1.701-1.328,2.334-2.199c0.634-0.873,1.147-1.824,1.673-2.764c0.524-0.941,1.069-1.879,1.757-2.709
		c0.688-0.828,1.53-1.553,2.526-1.963c1.025-0.426,2.179-0.506,3.27-0.303c1.091,0.199,2.122,0.672,3.038,1.295
		c1.837,1.246,3.197,3.063,4.5,4.857c1.198,1.65,2.375,3.311,3.527,4.992C173.586,258.987,173.587,258.985,173.587,258.983
		 M166.27,248.394c-4.17-2.256-8.315-3.27-11.672,0.553c-0.907,1.084-1.526,2.246-2.096,3.314c-1.135,2.137-2.148,3.646-2.817,3.938
		c-1.108,0.479-3.358,0.578-5.862,0.697c-2.504,0.117-5.449,0.266-7.881,2.291c-1.416,1.176-2.432,2.719-2.794,4.379
		c-0.364,1.656-0.177,3.256,0.147,4.955c0.951,4.982,2.041,10.381-0.078,14.66c-0.75,1.518-1.759,3.227-2.406,5.189
		c-0.646,1.969-0.867,4.496,0.47,6.713c0.913,1.51,2.199,2.623,3.485,3.152c1.285,0.529,2.313,0.646,3.617,1.023
		c1.642,0.477,5.385,1.668,7.035,2.174c8.131,2.504,15.521,3.771,23.273,6.16c1.432,0.443,3.275,1.389,5.31,2.246
		c2.034,0.855,4.341,1.678,6.936,1.393c5.33-0.588,11.127-3.496,14.037-8.389c2.283-3.842,2.467-8.125,1.311-12.189
		c-1.654-5.832-6.762-10.455-9.109-14.111C182.606,266.216,175.121,254.47,166.27,248.394z"/>
	<path id="path3732" style="fill:none;stroke:#FFFFFF;stroke-width:0.5;stroke-miterlimit:10;" d="M244.573,249.438
		c-0.154,0-0.311,0.004-0.471,0.014l0,0c-1.313,0.068-2.805,0.434-4.078,1.525c-1.096,0.945-1.678,2.152-1.98,3.299
		c-0.018,0.064-0.033,0.127-0.049,0.193c-0.049,0.213-0.092,0.426-0.123,0.637c-0.209,1.361-0.094,2.543-0.027,3.506
		c0.393,5.734,0.41,11.467-0.199,17.102c-0.334,3.1-0.865,6.223-1.432,9.379c-0.684,3.797-1.453,7.787-1.445,11.988
		c0.006,2.402,0.26,5.18,1.83,7.689c1.576,2.516,4.01,3.984,6.295,4.967c3.252,1.398,6.924,2.111,10.609,1.561
		c3.025-0.447,5.814-1.711,8.201-3.414c2.352-1.682,4.184-3.656,5.967-5.34c2.086-1.971,4.285-3.77,6.633-5.285
		c3.512-2.27,7.553-4.008,11.639-6.066c2.404-1.207,5.088-2.645,7.184-5.107c0.945-1.115,1.705-2.381,2.244-3.74l-0.055,0.035
		c0.059-0.139,0.105-0.283,0.137-0.432l0.031,0.037c0.266-1.129,0.232-2.287-0.068-3.383c-0.146-0.531-0.359-1.049-0.637-1.541
		c-0.619-1.098-1.447-1.885-2.229-2.496c-0.773-0.605-1.504-1.045-2.09-1.443c-1.254-0.844-2.486-1.855-3.773-2.924
		c-1.285-1.07-2.453-2.066-3.352-3.127c-0.885-1.047-1.51-2.189-1.719-3.268l0,0c-0.027-0.137-0.049-0.287-0.068-0.449
		c-0.127-1.148-0.102-1.738-0.193-2.643c-0.127-1.234-0.396-2.51-0.895-3.754c-0.365-0.918-0.889-1.926-1.771-2.814
		c-1.164-1.174-2.533-1.738-3.715-2.105c-1.15-0.359-2.377-0.596-3.66-0.627c-3.117-0.072-5.598,0.912-7.594,1.143
		c-1.85,0.215-3.83-0.012-5.791-0.537c-1.178-0.316-2.467-0.777-3.934-1.16c-2.326-0.604-4.574-0.844-6.65-1.15
		C246.571,249.593,245.649,249.433,244.573,249.438L244.573,249.438z M245.31,251.493c0.68,0.025,1.359,0.131,2.035,0.23
		c2.123,0.311,4.262,0.555,6.336,1.098c1.309,0.348,2.584,0.809,3.891,1.162c2.182,0.59,4.467,0.873,6.711,0.609
		c2.414-0.281,4.76-1.189,7.191-1.131c0.998,0.025,1.988,0.213,2.939,0.514c0.971,0.305,1.928,0.744,2.643,1.471
		c0.543,0.551,0.92,1.246,1.205,1.965c0.422,1.076,0.648,2.217,0.746,3.365c0.008,0.094,0.012,0.189,0.018,0.285l0,0
		c0.063,0.924,0.07,1.855,0.248,2.766c0.316,1.65,1.184,3.152,2.26,4.443c1.078,1.287,2.365,2.385,3.65,3.463
		c1.281,1.08,2.57,2.152,3.953,3.096c0.646,0.445,1.32,0.857,1.934,1.346c0.289,0.23,0.568,0.482,0.824,0.752l0,0
		c0.141,0.152,0.277,0.307,0.402,0.473c0.063,0.082,0.123,0.166,0.178,0.25c0.059,0.088,0.113,0.176,0.164,0.268
		c0.521,0.926,0.682,2.055,0.436,3.094c-0.096,0.252-0.207,0.498-0.326,0.738c-0.014,0.037-0.029,0.068-0.045,0.1
		c0,0.004,0,0.004,0,0.004c-0.389,0.785-0.867,1.525-1.434,2.195c-1.68,1.992-4.016,3.313-6.34,4.496
		c-3.965,2.023-8.076,3.795-11.805,6.227c-2.498,1.627-4.803,3.541-6.959,5.604c-1.846,1.76-3.594,3.643-5.662,5.137
		c-2.084,1.506-4.498,2.6-7.043,2.98c-3.096,0.463-6.293-0.139-9.162-1.387c-2.01-0.877-3.945-2.131-5.102-3.992
		c-1.164-1.869-1.428-4.158-1.432-6.359c-0.004-3.895,0.717-7.748,1.396-11.582c0.564-3.186,1.102-6.381,1.447-9.596
		c0.631-5.854,0.627-11.762,0.205-17.633c-0.008-0.096-0.012-0.195-0.02-0.291c-0.012-0.189-0.027-0.379-0.037-0.568
		c-0.025-0.383-0.027-0.773-0.021-1.143c-0.002-0.119,0.006-0.223,0.01-0.33c0.012-0.205,0.033-0.412,0.064-0.617
		c0.027-0.186,0.066-0.367,0.111-0.547c0.01-0.031,0.018-0.068,0.027-0.105c0.018-0.061,0.037-0.119,0.055-0.18
		c0.012-0.037,0.025-0.07,0.035-0.107c0.027-0.076,0.055-0.154,0.086-0.23c0.002-0.006,0.006-0.012,0.008-0.02
		c0.15-0.369,0.352-0.713,0.602-1.016c0,0,0.002-0.004,0.004-0.006c0.111-0.133,0.232-0.264,0.363-0.379
		c0.693-0.594,1.619-0.854,2.527-0.906C244.854,251.483,245.083,251.483,245.31,251.493L245.31,251.493z M278.806,260.979
		l0.064,0.855c-0.014-0.193-0.02-0.387-0.037-0.58C278.825,261.163,278.817,261.073,278.806,260.979z M278.87,261.835
		c0.035,0.609,0.061,1.219,0.133,1.822L278.87,261.835z"/>
	<path id="path28849-2" style="fill:none;stroke:#FFFFFF;stroke-width:0.5;stroke-miterlimit:10;" d="M203.915,157.397
		c-0.832,1-1.479,2.139-2.244,3.191c4.344-1.795,6.416-2.336,11.992,0.449c-0.557-0.707-0.869-1.574-1.258-2.387
		c-0.408-0.855-0.922-1.676-1.613-2.322C208.446,154.239,205.728,155.233,203.915,157.397L203.915,157.397z"/>
	<path id="path14967-1-0" style="fill:none;stroke:#FFFFFF;stroke-width:0.5;stroke-miterlimit:10;" d="M185.474,186.245
		c-1.783,2.229-3.564,4.453-5.34,6.688c-1.831,2.301-3.659,4.6-5.503,6.891c-2.264,2.807-4.582,5.635-6.056,8.926
		c-1.267,2.83-1.864,5.9-2.733,8.875c-0.984,3.379-2.324,6.645-3.826,9.826c-1.387,2.939-2.915,5.809-4.446,8.676
		c-1.113,2.084-2.246,4.217-2.632,6.547c-0.305,1.844-0.128,3.748,0.342,5.557c3.807-1,5.76-2.564,10.821,0.188
		c7.15,5.707,17.141,19.869,18.959,28.832c0.199,0.27,0.398,0.535,0.604,0.799c0.721,0.18,1.457,0.295,2.203,0.307
		c0.98,0.02,1.971-0.145,2.867-0.537c0.898-0.393,1.699-1.027,2.232-1.85c0.656-1.012,0.879-2.268,0.746-3.469
		c-0.131-1.195-0.6-2.338-1.225-3.367c-1.533-2.512-3.951-4.332-6.279-6.133c-5.025-3.893-9.884-8-14.534-12.328
		c-1.313-1.225-2.627-2.488-3.544-4.031c-0.894-1.5-1.376-3.211-1.703-4.928c-0.897-4.709-0.668-9.666,0.935-14.182
		c0.628-1.77,1.457-3.457,2.256-5.156c1.385-2.939,2.695-5.936,4.516-8.629C182.683,204.079,182.866,197.733,185.474,186.245z"/>
	<path id="path8561" style="fill:none;stroke:#FFFFFF;stroke-width:0.5;stroke-miterlimit:10;" d="M220.335,151.851
		c-0.158-0.008-0.314-0.008-0.473,0.004c-0.67,0.047-1.322,0.277-1.891,0.637c-0.57,0.355-1.053,0.842-1.434,1.395
		c-0.76,1.107-1.096,2.465-1.148,3.807c-0.041,1.008,0.07,2.029,0.404,2.979c0.301,0.859,0.791,1.658,1.455,2.279
		c1.074,0.293,2.035,0.629,2.785,1.275c0.09,0.01,0.18,0.021,0.27,0.025c1.031,0.049,2.074-0.248,2.922-0.838
		c0.678-0.471,1.219-1.115,1.607-1.842c0.389-0.725,0.621-1.529,0.727-2.342c0.189-1.438-0.025-2.943-0.689-4.234
		s-1.795-2.354-3.156-2.854C221.272,151.976,220.806,151.874,220.335,151.851L220.335,151.851z M220.995,153.456
		c0.1-0.004,0.199,0.002,0.287,0.014c0.771,0.098,1.543,0.621,2.018,1.32c0.523,0.771,1.064,1.955,0.676,2.822
		c-0.1,0.223-0.408,0.352-0.611,0.266c-0.652-0.277-0.525-1.506-0.988-2.1c-0.244-0.309-0.58-0.51-0.9-0.703
		c-0.328-0.205-0.793-0.16-1.043-0.48c-0.152-0.193-0.291-0.531-0.178-0.764C220.384,153.563,220.696,153.468,220.995,153.456z"/>
	<path id="path8579" style="fill:none;stroke:#FFFFFF;stroke-width:0.5;stroke-miterlimit:10;" d="M195.618,152.429
		c-0.299,0.021-0.592,0.094-0.865,0.217c-0.602,0.275-1.068,0.797-1.375,1.385c-0.307,0.586-0.463,1.244-0.572,1.895
		c-0.24,1.441-0.246,2.951,0.248,4.322c0.326,0.908,0.865,1.729,1.52,2.436c0.428,0.461,0.916,0.883,1.484,1.156
		c1.113-0.467,2.689-2.285,4.115-2.555c0.42-1.566,0.328-3.25-0.152-4.801c-0.367-1.195-0.98-2.348-1.939-3.156
		c-0.457-0.385-0.992-0.686-1.572-0.824C196.218,152.433,195.917,152.405,195.618,152.429L195.618,152.429z M196.942,153.94
		c0.217-0.004,0.459,0.084,0.641,0.182c0.637,0.336,1.152,1.01,1.361,1.719c0.23,0.779,0.359,1.893-0.223,2.443
		c-0.148,0.139-0.451,0.137-0.604,0c-0.48-0.441-0.021-1.359-0.254-1.982c-0.119-0.322-0.348-0.594-0.568-0.857
		c-0.227-0.268-0.639-0.393-0.762-0.725c-0.076-0.209-0.1-0.518,0.063-0.66C196.69,153.974,196.813,153.942,196.942,153.94
		L196.942,153.94z"/>
	<path id="path8549" style="fill:none;stroke:#FFFFFF;stroke-width:0.5;stroke-miterlimit:10;" d="M202.446,159.306
		c-3.021,1.051-5.75,2.916-7.826,5.346c-1.156,0.957-2.268,1.967-3.324,3.033c-1.438,1.922-2.498,5.287-1.584,5.467
		c0.023-0.143,0.051-0.279,0.08-0.422c0.135-0.66,0.209-1.334,0.422-1.975c0.275-0.811,0.766-1.533,1.309-2.199
		c0.947-1.164,2.066-2.186,3.311-3.021c2.045-2.402,4.738-4.246,7.717-5.279c2.684-0.932,5.652-1.199,8.369-0.379
		c1.215,0.369,2.355,0.947,3.475,1.545c1.088,0.586,2.164,1.191,3.27,1.742c2.227,1.102,4.572,1.965,6.986,2.547
		c0.787,0.191,1.588,0.355,2.326,0.684c0.539,0.238,1.057,0.582,1.357,1.092c0.24,0.596,0.488,0.844,0.559,0.197
		c-0.063-1.076-0.916-1.836-1.785-2.229c-0.783-0.346-1.602-0.51-2.379-0.699c-2.393-0.578-4.717-1.432-6.922-2.523
		c-1.096-0.545-2.17-1.152-3.262-1.736c-1.123-0.604-2.283-1.189-3.533-1.568C208.126,158.153,205.021,158.429,202.446,159.306
		L202.446,159.306z"/>
	<path id="path8535" style="fill:none;stroke:#FFFFFF;stroke-width:0.5;stroke-miterlimit:10;" d="M229.097,170.001
		c-0.006,0.182-0.02,0.365-0.039,0.547c-0.111,0.941-0.406,1.85-0.531,2.791c-0.09,0.725-0.086,1.484-0.404,2.145
		c-0.332,0.684-0.979,1.166-1.666,1.488c-0.689,0.324-1.432,0.516-2.145,0.779c-3.266,1.207-5.744,3.885-8.711,5.711
		c-1.559,0.961-3.26,1.688-5.018,2.207c-1.896,0.559-3.889,0.875-5.855,0.678c-1.676-0.168-3.324-0.719-4.703-1.688
		c-1.953-1.367-3.246-3.459-4.707-5.346c-1.09-1.402-2.316-2.732-3.822-3.68c-0.283-0.176-0.576-0.34-0.846-0.537
		c-0.27-0.199-0.52-0.43-0.691-0.717c-0.078-0.133-0.135-0.275-0.176-0.426c-0.016-0.033-0.031-0.066-0.045-0.1
		c-0.039-0.119-0.055-0.246-0.055-0.373c0-0.02,0.004-0.037,0.004-0.055c-1.07,0.516-1.033,2.314-0.529,2.836
		c2.027,1.25,3.867,2.807,5.436,4.6c1.445,1.648,2.785,3.695,4.902,5.092c1.555,1.025,3.355,1.549,5.146,1.709
		c2.115,0.189,4.211-0.121,6.189-0.654c1.816-0.488,3.594-1.18,5.246-2.125c3.111-1.781,5.58-4.242,8.527-5.18
		c0.646-0.205,1.416-0.359,2.221-0.701c0.402-0.168,0.814-0.389,1.195-0.699c0.379-0.307,0.725-0.697,0.963-1.18
		C229.009,175.661,231.421,170.312,229.097,170.001L229.097,170.001z"/>
	<path id="path8591" style="fill:none;stroke:#FFFFFF;stroke-width:0.5;stroke-miterlimit:10;" d="M224.856,169.421
		c-0.299-0.006-0.596,0.031-0.879,0.119c-0.373,0.119-0.707,0.336-1.008,0.586c-0.305,0.25-0.576,0.529-0.857,0.807
		c-0.83,0.799-1.74,1.51-2.664,2.199c-2.037,1.52-4.164,2.953-6.525,3.883c-1.543,0.609-3.162,0.996-4.787,1.318
		c-2.047,0.408-4.127,0.725-6.211,0.643c-2.084-0.08-4.186-0.576-5.949-1.688c-0.797-0.506-1.516-1.127-2.293-1.662
		c-0.777-0.537-1.641-0.992-2.578-1.1c-0.209-0.021-0.42-0.031-0.625-0.07c-0.066-0.014-0.133-0.037-0.199-0.059
		c-0.023,0.152-0.012,0.311,0.037,0.457c0.295,0.789,0.945,1.086,1.74,1.256c0.516,0.119,1.053,0.471,1.572,0.938
		c0.525,0.473,1.055,1.074,1.738,1.629c1.857,1.512,4.234,2.094,6.498,2.135c2.256,0.035,4.412-0.43,6.48-0.896
		c1.619-0.363,3.281-0.752,4.908-1.354c2.502-0.922,4.818-2.314,6.822-4.059c0.908-0.793,1.693-1.582,2.545-2.113
		c0.752-0.475,1.711-0.828,2.691-1.406c0.09-0.055,0.213-0.127,0.352-0.242c0.143-0.119,0.301-0.285,0.418-0.521
		c0.107-0.209,0.15-0.426,0.156-0.627c-0.164-0.027-0.326-0.059-0.49-0.084C225.456,169.46,225.153,169.423,224.856,169.421
		L224.856,169.421z"/>
	<path id="path8597" style="fill:none;stroke:#FFFFFF;stroke-width:0.5;stroke-miterlimit:10;" d="M209.79,161.515
		c-0.275,0.014-0.533,0.068-0.768,0.199c-0.143,0.078-0.301,0.271-0.252,0.43c0.148,0.477,0.916,0.398,1.361,0.629
		c0.391,0.201,0.705,0.641,1.145,0.654c0.42,0.01,1.08-0.152,1.133-0.566c0.074-0.551-0.73-0.895-1.246-1.1
		C210.749,161.603,210.251,161.487,209.79,161.515L209.79,161.515z M201.175,161.851c-0.561,0.076-1.25,0.908-0.98,1.361
		c0.084,0.143,0.342,0.322,0.516,0.225c0.264-0.143,0.482-0.664,0.77-0.867c0.189-0.133,0.146-0.631-0.076-0.705
		C201.331,161.841,201.257,161.841,201.175,161.851L201.175,161.851z"/>
	<path id="path6521" style="fill:none;stroke:#FFFFFF;stroke-width:0.5;stroke-miterlimit:10;" d="M267.265,246.685l-2.857-0.918
		c-1.152-0.371-2.318-0.719-3.521-0.824c-1.205-0.107-2.432,0.021-3.578,0.398l0,0l-0.988,0.684"/>
	<path id="path6519" style="fill:none;stroke:#FFFFFF;stroke-width:0.5;stroke-miterlimit:10;" d="M251.882,250.331
		c0.361-0.172,0.713-0.363,1.055-0.57c0.943-0.582,1.809-1.295,2.811-1.77c1.258-0.594,2.664-0.783,4.049-0.912
		c0.969-0.09,1.938-0.158,2.906-0.195c1.887-0.068,3.781-0.018,5.664,0.15l-1.102-0.35"/>
	<path id="path6517" style="fill:none;stroke:#FFFFFF;stroke-width:0.5;stroke-miterlimit:10;" d="M253.542,247.95l-1.643,1.137
		l-0.254,1.355c0.08-0.035,0.158-0.07,0.236-0.111"/>
	<path id="path29714-3-9-3-8-1" style="fill:none;stroke:#FFFFFF;stroke-width:0.5;stroke-miterlimit:10;" d="M256.319,246.024
		l-2.777,1.926"/>
</g>
<rect x="148.82" y="219.68" style="fill:#59BEAF;" width="99.21" height="28.351"/>
<rect x="248.03" y="219.68" style="fill:#D6ECE5;" width="35.43" height="28.351"/>
<rect x="106.3" y="248.03" style="fill:#D6ECE5;" width="28.35" height="35.43"/>
<path style="opacity:0.5;fill:#E83818;" d="M283.46,248.03v21.26c0,7.83-6.34,14.17-14.17,14.17H134.65v-35.43H283.46z"/>
</svg>
