<?xml version="1.0" encoding="iso-8859-1"?>
<!-- Generator: Adobe Illustrator 16.0.0, SVG Export Plug-In . SVG Version: 6.00 Build 0)  -->
<!DOCTYPE svg PUBLIC "-//W3C//DTD SVG 1.1//EN" "http://www.w3.org/Graphics/SVG/1.1/DTD/svg11.dtd">
<svg version="1.1" id="&#x56FE;&#x5C42;_1" xmlns="http://www.w3.org/2000/svg" xmlns:xlink="http://www.w3.org/1999/xlink" x="0px"
	 y="0px" width="283.46px" height="283.46px" viewBox="0 0 283.46 283.46" style="enable-background:new 0 0 283.46 283.46;"
	 xml:space="preserve">
<g>
	<g>
		<path style="fill:#439346;" d="M98.646,209.316c0,1.566-1.27,2.834-2.835,2.834H73.133c-1.565,0-2.834-1.268-2.834-2.834V73.253
			c0-1.565,1.269-2.834,2.834-2.834h22.677c1.565,0,2.835,1.269,2.835,2.834V209.316z"/>
		<path style="fill:#439346;" d="M212.031,208.709c0,1.564-1.27,2.834-2.835,2.834h-93.543c-1.565,0-2.835-1.27-2.835-2.834v-22.678
			c0-1.564,1.27-2.834,2.835-2.834h93.543c1.565,0,2.835,1.27,2.835,2.834V208.709z"/>
	</g>
	<rect x="168.104" y="190.284" style="fill:#CDD6D9;" width="14.173" height="14.173"/>
	<rect x="170.938" y="193.119" style="fill:#34464E;" width="8.504" height="8.504"/>
	<rect x="131.993" y="190.285" style="fill:#F6E4B0;" width="28.345" height="2.835"/>
	<rect x="131.993" y="195.746" style="fill:#F6E4B0;" width="28.345" height="2.835"/>
	<rect x="131.993" y="201.207" style="fill:#F6E4B0;" width="28.345" height="2.835"/>
	<circle style="fill:#287539;" cx="118.488" cy="188.866" r="1.417"/>
	<circle style="fill:#287539;" cx="206.362" cy="188.866" r="1.417"/>
	<circle style="fill:#287539;" cx="118.488" cy="205.874" r="1.417"/>
	<circle style="fill:#287539;" cx="206.362" cy="207.29" r="1.417"/>
	<circle style="fill:#287539;" cx="75.969" cy="76.088" r="1.417"/>
	<g>
		<rect x="189.364" y="197.663" style="fill:#CDD6D9;" width="7.087" height="7.087"/>
		<rect x="189.364" y="199.789" style="fill:#ADB9C1;" width="7.086" height="2.835"/>
	</g>
	<rect x="189.365" y="190.284" style="fill:#ADDAED;" width="7.086" height="2.835"/>
	<g>
		<rect x="91.559" y="84.504" style="fill:#D35B83;" width="14.174" height="28.346"/>
		<rect x="98.646" y="88.047" style="fill:#CDD6D9;" width="7.087" height="21.26"/>
	</g>
	<rect x="95.811" y="115.684" style="fill:#CDD6D9;" width="8.504" height="5.669"/>
	<rect x="94.114" y="125.35" style="fill:#CDD6D9;" width="11.338" height="7.086"/>
	<circle style="fill:#287539;" cx="75.968" cy="205.874" r="1.417"/>
	<circle style="fill:#287539;" cx="92.976" cy="76.088" r="1.417"/>
	<circle style="fill:#287539;" cx="92.976" cy="205.874" r="1.417"/>
	<rect x="77.239" y="150.527" style="fill:#CDD6D9;" width="14.173" height="14.174"/>
	<rect x="80.074" y="153.363" style="fill:#34464E;" width="8.504" height="8.504"/>
	<rect x="77.24" y="172.467" style="fill:#F6E4B0;" width="2.835" height="28.345"/>
	<rect x="82.701" y="172.467" style="fill:#F6E4B0;" width="2.835" height="28.345"/>
	<rect x="88.162" y="172.467" style="fill:#ADDAED;" width="2.835" height="28.345"/>
	<g>
		<rect x="84.618" y="136.354" style="fill:#CDD6D9;" width="7.087" height="7.087"/>
		<rect x="86.744" y="136.355" style="fill:#ADB9C1;" width="2.835" height="7.086"/>
	</g>
	<rect x="77.239" y="136.354" style="fill:#ADDAED;" width="2.835" height="7.085"/>
	<g>
		<rect x="78.449" y="103.637" style="fill:#34464E;" width="8.504" height="8.504"/>
		<rect x="78.449" y="90.881" style="fill:#34464E;" width="8.504" height="8.504"/>
		<rect x="78.449" y="116.393" style="fill:#34464E;" width="8.504" height="8.504"/>
	</g>
</g>
</svg>
