<?xml version="1.0" encoding="iso-8859-1"?>
<!-- Generator: Adobe Illustrator 16.0.0, SVG Export Plug-In . SVG Version: 6.00 Build 0)  -->
<!DOCTYPE svg PUBLIC "-//W3C//DTD SVG 1.1//EN" "http://www.w3.org/Graphics/SVG/1.1/DTD/svg11.dtd">
<svg version="1.1" id="&#x56FE;&#x5C42;_1" xmlns="http://www.w3.org/2000/svg" xmlns:xlink="http://www.w3.org/1999/xlink" x="0px"
	 y="0px" width="283.46px" height="283.46px" viewBox="0 0 283.46 283.46" style="enable-background:new 0 0 283.46 283.46;"
	 xml:space="preserve">
<linearGradient id="SVGID_1_" gradientUnits="userSpaceOnUse" x1="40.6294" y1="175.7822" x2="241.7007" y2="106.5478">
	<stop  offset="0" style="stop-color:#49C0E5"/>
	<stop  offset="1" style="stop-color:#7A4999"/>
</linearGradient>
<circle style="fill:url(#SVGID_1_);" cx="141.165" cy="141.165" r="106.3"/>
<g>
	<path style="fill:none;stroke:#FFFFFF;stroke-miterlimit:10;" d="M194.314,192.188c0,1.175-0.953,2.126-2.126,2.126h-70.157
		c-1.174,0-2.126-0.951-2.126-2.126V175.18c0-1.173,0.952-2.125,2.126-2.125h70.157c1.173,0,2.126,0.952,2.126,2.125V192.188z"/>
	<path style="fill:none;stroke:#FFFFFF;stroke-miterlimit:10;" d="M109.276,192.188c0,1.175-0.952,2.126-2.126,2.126H90.142
		c-1.174,0-2.126-0.951-2.126-2.126V90.141c0-1.174,0.952-2.125,2.126-2.125h17.008c1.174,0,2.126,0.952,2.126,2.125V192.188z"/>
</g>
</svg>
