<?xml version="1.0" encoding="iso-8859-1"?>
<!-- Generator: Adobe Illustrator 16.0.0, SVG Export Plug-In . SVG Version: 6.00 Build 0)  -->
<!DOCTYPE svg PUBLIC "-//W3C//DTD SVG 1.1//EN" "http://www.w3.org/Graphics/SVG/1.1/DTD/svg11.dtd">
<svg version="1.1" id="&#x56FE;&#x5C42;_1" xmlns="http://www.w3.org/2000/svg" xmlns:xlink="http://www.w3.org/1999/xlink" x="0px"
	 y="0px" width="354.33px" height="354.33px" viewBox="0 0 354.33 354.33" style="enable-background:new 0 0 354.33 354.33;"
	 xml:space="preserve">
<linearGradient id="SVGID_1_" gradientUnits="userSpaceOnUse" x1="53.0396" y1="219.9053" x2="301.2903" y2="134.4257">
	<stop  offset="0" style="stop-color:#49C0E5"/>
	<stop  offset="1" style="stop-color:#7A4999"/>
</linearGradient>
<path style="fill:url(#SVGID_1_);" d="M283.465,269.292c0,7.826-6.346,14.172-14.174,14.172H85.039
	c-7.828,0-14.173-6.346-14.173-14.172V85.04c0-7.828,6.346-14.174,14.173-14.174h184.252c7.828,0,14.174,6.346,14.174,14.174
	V269.292z"/>
<g>
	<g>
		<path style="fill:none;stroke:#FFFFFF;stroke-miterlimit:10;" d="M134.646,245.196c0,1.564-1.27,2.834-2.835,2.834h-22.677
			c-1.565,0-2.835-1.27-2.835-2.834V109.134c0-1.564,1.27-2.834,2.835-2.834h22.677c1.565,0,2.835,1.27,2.835,2.834V245.196z"/>
		<path style="fill:none;stroke:#FFFFFF;stroke-miterlimit:10;" d="M248.031,245.196c0,1.564-1.27,2.834-2.834,2.834h-93.543
			c-1.565,0-2.835-1.27-2.835-2.834v-22.678c0-1.564,1.27-2.834,2.835-2.834h93.543c1.564,0,2.834,1.27,2.834,2.834V245.196z"/>
	</g>
	<line style="fill:none;stroke:#FFFFFF;stroke-miterlimit:10;" x1="106.299" y1="125.72" x2="134.646" y2="167.036"/>
	<line style="fill:none;stroke:#FFFFFF;stroke-miterlimit:10;" x1="129.156" y1="106.3" x2="106.299" y2="177.165"/>
	<line style="fill:none;stroke:#FFFFFF;stroke-miterlimit:10;" x1="106.299" y1="208.354" x2="134.646" y2="197.315"/>
	<line style="fill:none;stroke:#FFFFFF;stroke-miterlimit:10;" x1="129.156" y1="159.034" x2="106.299" y2="197.315"/>
	<line style="fill:none;stroke:#FFFFFF;stroke-miterlimit:10;" x1="106.299" y1="223.923" x2="134.646" y2="241.888"/>
	<line style="fill:none;stroke:#FFFFFF;stroke-miterlimit:10;" x1="117.727" y1="248.03" x2="134.646" y2="219.685"/>
	<line style="fill:none;stroke:#FFFFFF;stroke-miterlimit:10;" x1="106.299" y1="216.737" x2="134.646" y2="184.403"/>
	<line style="fill:none;stroke:#FFFFFF;stroke-miterlimit:10;" x1="112.147" y1="159.034" x2="123.766" y2="248.03"/>
	<line style="fill:none;stroke:#FFFFFF;stroke-miterlimit:10;" x1="117.727" y1="106.3" x2="106.299" y2="137.696"/>
	<line style="fill:none;stroke:#FFFFFF;stroke-miterlimit:10;" x1="151.654" y1="248.03" x2="191.43" y2="219.685"/>
	<line style="fill:none;stroke:#FFFFFF;stroke-miterlimit:10;" x1="151.654" y1="219.685" x2="191.43" y2="248.03"/>
	<line style="fill:none;stroke:#FFFFFF;stroke-miterlimit:10;" x1="208.197" y1="219.685" x2="230.354" y2="248.03"/>
	<line style="fill:none;stroke:#FFFFFF;stroke-miterlimit:10;" x1="181.836" y1="241.192" x2="198.426" y2="219.685"/>
	<line style="fill:none;stroke:#FFFFFF;stroke-miterlimit:10;" x1="248.031" y1="222.519" x2="171.542" y2="248.03"/>
	<line style="fill:none;stroke:#FFFFFF;stroke-miterlimit:10;" x1="209.787" y1="248.03" x2="224.365" y2="219.685"/>
	<line style="fill:none;stroke:#FFFFFF;stroke-miterlimit:10;" x1="134.646" y1="129.911" x2="106.299" y2="146.378"/>
</g>
</svg>
