<?xml version="1.0" encoding="iso-8859-1"?>
<!-- Generator: Adobe Illustrator 16.0.0, SVG Export Plug-In . SVG Version: 6.00 Build 0)  -->
<!DOCTYPE svg PUBLIC "-//W3C//DTD SVG 1.1//EN" "http://www.w3.org/Graphics/SVG/1.1/DTD/svg11.dtd">
<svg version="1.1" id="&#x56FE;&#x5C42;_1" xmlns="http://www.w3.org/2000/svg" xmlns:xlink="http://www.w3.org/1999/xlink" x="0px"
	 y="0px" width="283.46px" height="283.46px" viewBox="0 0 283.46 283.46" style="enable-background:new 0 0 283.46 283.46;"
	 xml:space="preserve">
<g>
	<polygon style="fill:#D6ECE5;" points="247.46,183.68 247.46,212.03 98.65,212.03 98.65,247.46 70.3,247.46 70.3,212.03 
		34.87,212.03 34.87,183.68 70.3,183.68 70.3,34.87 98.65,34.87 98.65,183.68 	"/>
	<path style="opacity:0.5;fill:#EEBA1D;" d="M70.3,34.87v148.81H34.87V49.04c0-7.83,6.34-14.17,14.17-14.17H70.3z"/>
	<path style="opacity:0.5;fill:#20AEE0;" d="M247.46,49.04v134.64H98.65V34.87h134.64C241.12,34.87,247.46,41.21,247.46,49.04z"/>
	<path style="opacity:0.5;fill:#563C94;" d="M70.3,212.03v35.43H49.04c-7.83,0-14.17-6.34-14.17-14.17v-21.26H70.3z"/>
	<rect x="70.3" y="70.3" style="fill:#59BEAF;" width="28.35" height="141.73"/>
	<rect x="70.3" y="34.87" style="fill:#D6ECE5;" width="28.35" height="35.43"/>
	<rect x="98.65" y="183.68" style="fill:#D6ECE5;" width="14.17" height="28.351"/>
	<rect x="34.87" y="183.68" style="fill:#D6ECE5;" width="35.43" height="28.351"/>
	<path id="path5925" style="fill:none;stroke:#FFFFFF;stroke-miterlimit:10;" d="M173.646,120.009
		c-1.102-0.01-2.201,0.045-3.299,0.17c-0.957,0.111-1.914,0.287-2.855,0.523c0.051,0.543,0.078,1.084,0.088,1.631
		c0.006,0.537-0.014,1.078-0.053,1.615c2.416-0.672,5.002-0.797,7.393-0.072c0.523,0.158,1.031,0.361,1.533,0.584
		c-0.139-0.332-0.266-0.67-0.383-1.01c-0.375-1.088-0.654-2.23-0.783-3.383C174.739,120.036,174.192,120.011,173.646,120.009
		L173.646,120.009z"/>
	<path id="path5921" style="fill:none;stroke:#FFFFFF;stroke-miterlimit:10;" d="M156.353,129.405
		c-0.672,1.363-1.199,2.814-1.637,4.289c0.238-0.398,0.512-0.779,0.807-1.139c0.578-0.709,1.221-1.365,1.916-1.961
		c-0.141-0.119-0.275-0.24-0.402-0.375C156.786,129.968,156.56,129.694,156.353,129.405L156.353,129.405z"/>
	<path id="path6020" style="fill:none;stroke:#FFFFFF;stroke-miterlimit:10;" d="M153.698,137.681
		c-0.664,2.93-1.268,5.877-2.387,8.654c-0.615,1.529-1.379,2.977-2.219,4.389c-2.42,6.26-8.208,18.084-10.584,26.482
		c-1.068,3.156-2.177,6.301-3.497,9.359c-0.805,1.861-1.688,3.689-2.367,5.604c-1.561,4.387-2.003,9.227-0.822,13.729
		c0.474,1.809,1.203,3.549,2.155,5.16c0.063,0.102,0.133,0.205,0.196,0.309c-0.029-2.059,0.053-4.119,0.252-6.164
		c0.679-6.93,2.607-13.715,5.419-20.084c1.855-4.203,4.094-8.236,6.68-12.035c-0.248-2.398-0.018-4.844,0.672-7.154
		c1.139-3.816,3.475-7.139,5.783-10.383c1.336-1.869,2.699-3.793,3.307-6.01c0.568-2.074,0.438-4.262,0.52-6.41
		c0.029-0.779,0.092-1.559,0.221-2.326c-0.479-0.43-0.986-0.824-1.531-1.166c-0.283-0.176-0.576-0.34-0.846-0.537
		c-0.27-0.199-0.52-0.43-0.691-0.717c-0.078-0.133-0.135-0.275-0.176-0.426c-0.016-0.033-0.031-0.066-0.045-0.1
		C153.72,137.8,153.708,137.743,153.698,137.681z M132.13,210.64c0.134,0.227,0.276,0.443,0.427,0.656
		C132.406,211.083,132.264,210.866,132.13,210.64z M132.688,211.478c0.11,0.148,0.221,0.297,0.338,0.441
		C132.908,211.774,132.798,211.626,132.688,211.478z M125.276,211.739c-0.02,0-0.039,0.002-0.06,0.004
		c0.123-0.004,0.246-0.004,0.369,0C125.483,211.741,125.381,211.739,125.276,211.739L125.276,211.739z M125.189,211.743
		c-0.138,0.006-0.273,0.014-0.41,0.027C124.916,211.757,125.054,211.749,125.189,211.743z M125.66,211.745
		c0.124,0.008,0.25,0.016,0.372,0.029C125.91,211.761,125.784,211.753,125.66,211.745z M126.092,211.782
		c0.144,0.014,0.286,0.037,0.429,0.063C126.378,211.819,126.235,211.796,126.092,211.782z M133.186,212.118
		c0.131,0.156,0.262,0.311,0.398,0.467C133.447,212.429,133.316,212.274,133.186,212.118z M133.684,212.698
		c0.178,0.193,0.361,0.389,0.549,0.58C134.045,213.087,133.861,212.892,133.684,212.698z"/>
	<path id="path5917" style="fill:none;stroke:#FFFFFF;stroke-miterlimit:10;" d="M204.521,224.384
		c0.012,0.262,0.023,0.523,0.035,0.785C204.544,224.907,204.532,224.646,204.521,224.384z"/>
	<path id="path5915" style="fill:none;stroke:#FFFFFF;stroke-miterlimit:10;" d="M204.604,226.327
		c0.012,0.316,0.023,0.633,0.033,0.945C204.628,226.96,204.616,226.644,204.604,226.327z"/>
	<path id="path6289" style="fill:none;stroke:#FFFFFF;stroke-miterlimit:10;" d="M193.03,124.069
		c-0.082,0.527-0.193,1.049-0.336,1.561C192.837,125.118,192.948,124.597,193.03,124.069z"/>
	<path id="path6287" style="fill:none;stroke:#FFFFFF;stroke-miterlimit:10;" d="M192.642,125.812
		c-0.057,0.189-0.119,0.379-0.186,0.566C192.522,126.19,192.585,126.001,192.642,125.812z"/>
	<path id="path6285" style="fill:none;stroke:#FFFFFF;stroke-miterlimit:10;" d="M192.39,126.569
		c-0.09,0.238-0.184,0.475-0.293,0.709C192.206,127.044,192.3,126.808,192.39,126.569z"/>
	<path id="path6283" style="fill:none;stroke:#FFFFFF;stroke-miterlimit:10;" d="M191.374,130.593
		c0.115,0.066,0.225,0.139,0.328,0.219C191.599,130.735,191.489,130.659,191.374,130.593z"/>
	<path id="path6281" style="fill:none;stroke:#FFFFFF;stroke-miterlimit:10;" d="M191.79,130.878
		c0.025,0.02,0.051,0.039,0.074,0.061C191.841,130.917,191.815,130.897,191.79,130.878z"/>
	<path id="path6279" style="fill:none;stroke:#FFFFFF;stroke-miterlimit:10;" d="M191.987,131.054
		c0.021,0.018,0.041,0.037,0.061,0.057C192.028,131.091,192.009,131.071,191.987,131.054z"/>
	<path id="path6277" style="fill:none;stroke:#FFFFFF;stroke-miterlimit:10;" d="M208.591,135.813
		c-6.332,3.498-9.199,5.641-10.369,17.697c0.258,0.525,0.512,1.051,0.758,1.586c2.105,4.578,3.553,9.457,4.287,14.441
		c2.758,2.85,5.057,6.139,6.781,9.705c5.012,10.359,4.967,22.43,3.604,33.859c-0.043,0.355-0.064,0.529-0.088,0.723
		c-0.041,0.338-0.082,0.635-0.17,1.246c0.617,0.328,1.211,0.611,1.791,0.867c-0.586,1.797-0.764,3.715-0.615,5.586
		c0.139,1.725,0.57,3.535,1.75,4.889c0.955,1.098,2.283,1.764,3.633,2.162c2.324,0.688,4.85,0.652,7.15-0.1l0,0h0.002
		c3.764-1.264,7.092-3.768,9.346-7.031c0.742-1.076,1.389-2.264,1.686-3.576c0.043-0.188,0.076-0.381,0.102-0.576
		c1.189-2.053,2.002-4.344,2.439-6.68c0.826-4.395,0.447-8.939-0.32-13.35c-1.047-6.008-2.809-11.887-5.051-17.561
		c-1.648-4.174-3.58-8.279-6.275-11.867c-2.639-3.514-5.963-6.469-8.547-10.021c-1.363-1.869-2.521-3.904-3.939-5.723
		c0-0.002,0-0.002,0-0.002c-0.574-1.184-1.141-2.371-1.689-3.568c-1.705-3.713-3.256-7.514-5.273-11.07
		C209.263,136.899,208.931,136.354,208.591,135.813L208.591,135.813z M209.013,170.722c1.432,0.822,2.912,1.563,4.373,2.334
		c5.604,2.621,10.352,7.256,12.123,13.199c2.6,7.773,0.178,15.979-2.758,23.297c-0.045,0.047-0.092,0.113-0.139,0.188
		c0.195-0.012,0.393-0.025,0.592-0.025c0.92-0.014,1.846,0.105,2.756,0.262c1.4,0.238,2.787,0.559,4.184,0.82
		c0.24,0.043,0.482,0.088,0.725,0.133c-0.393-0.023-0.785-0.039-1.178-0.055c-0.143-0.002-0.287-0.004-0.432-0.008
		c-0.311-0.006-0.623-0.01-0.936-0.01c-0.109,0-0.219,0-0.328,0c-0.43,0.004-0.861,0.012-1.293,0.027
		c-0.969,0.037-1.938,0.105-2.904,0.195c-0.287,0.025-0.574,0.057-0.861,0.092c-0.287,0.037-0.574,0.078-0.855,0.127
		c-0.004,0-0.004-0.002-0.004,0c-0.002,0-0.004,0-0.004,0.004c-0.521,0.088-1.037,0.211-1.535,0.375l0,0
		c-0.268,0.094-0.533,0.193-0.791,0.314c-0.125,0.059-0.248,0.125-0.369,0.188c-0.365,0.199-0.711,0.424-1.057,0.656
		c-0.461,0.311-0.912,0.633-1.385,0.926c-0.178,0.107-0.361,0.211-0.547,0.313c-0.002,0-0.002,0.002-0.004,0.002
		c-0.021,0.01-0.047,0.021-0.066,0.031c0.49-0.893,1.111-1.717,1.863-2.402c0.846-0.775,1.859-1.375,2.955-1.697
		c2.406-6.729,4.539-13.688,3.471-20.605c-0.752-4.852-3.168-9.518-7.023-12.613c-2.336-1.881-5.186-3.18-7.578-5.17
		C209.661,171.331,209.335,171.03,209.013,170.722L209.013,170.722z"/>
	<path id="path6275" style="fill:none;stroke:#FFFFFF;stroke-miterlimit:10;" d="M194.71,146.47
		c0.049,0.111,0.102,0.223,0.152,0.332C194.812,146.692,194.759,146.581,194.71,146.47z"/>
	<path id="path6273" style="fill:none;stroke:#FFFFFF;stroke-miterlimit:10;" d="M195.222,147.563
		c0.275,0.576,0.561,1.148,0.848,1.715C195.784,148.712,195.497,148.14,195.222,147.563z"/>
	<path id="path6269" style="fill:none;stroke:#FFFFFF;stroke-miterlimit:10;" d="M220.312,217.612c0.109,0.035,0.221,0.07,0.33,0.1
		C220.532,217.683,220.421,217.647,220.312,217.612z"/>
	<path id="path6267" style="fill:none;stroke:#FFFFFF;stroke-miterlimit:10;" d="M221.571,217.983
		c0.246,0.066,0.494,0.127,0.74,0.188C222.065,218.11,221.817,218.05,221.571,217.983z"/>
	<path id="path6265" style="fill:none;stroke:#FFFFFF;stroke-miterlimit:10;" d="M222.628,218.239
		c0.15,0.033,0.301,0.064,0.451,0.094C222.929,218.304,222.778,218.272,222.628,218.239z"/>
	<path id="path6263" style="fill:none;stroke:#FFFFFF;stroke-miterlimit:10;" d="M223.466,218.403
		c0.102,0.02,0.203,0.037,0.307,0.053C223.669,218.44,223.567,218.423,223.466,218.403z"/>
	<path id="path5923" style="fill:none;stroke:#FFFFFF;stroke-miterlimit:10;" d="M224.294,218.532
		c0.043,0.008,0.084,0.012,0.127,0.016C224.378,218.544,224.337,218.54,224.294,218.532z"/>
	<path id="path5913" style="fill:none;stroke:#FFFFFF;stroke-miterlimit:10;" d="M204.653,232.827
		c-0.014,0.5-0.031,0.996-0.049,1.498C204.622,233.823,204.64,233.327,204.653,232.827z"/>
	<path id="path29670-2" style="fill:none;stroke:#FFFFFF;stroke-miterlimit:10;" d="M204.589,234.655
		c-0.023,0.508-0.047,1.01-0.078,1.516C204.542,235.665,204.565,235.163,204.589,234.655z"/>
	<path id="path28712-2" style="fill:none;stroke:#FFFFFF;stroke-miterlimit:10;" d="M176.589,82.008
		c-4.594-0.049-9.24,0.88-13.285,3.059c-4.299,2.317-7.818,6.023-9.988,10.396c-2.168,4.371-2.984,9.304-3.148,14.184
		c-0.162,4.787,0.279,9.572,0.459,14.361c0.186,4.982,0.086,9.975,0.498,14.943c0.133,1.6,0.318,3.201,0.313,4.807
		c-0.006,1.754-0.236,3.545,0.203,5.246c0.293,1.131,0.881,2.18,1.65,3.059c0.381,0.438,0.807,0.83,1.262,1.182
		c0.734-1.166,1.371-2.383,1.734-3.709c0.568-2.074,0.438-4.262,0.52-6.41c0.029-0.779,0.092-1.559,0.221-2.326
		c-0.479-0.43-0.986-0.824-1.531-1.166c-0.283-0.176-0.576-0.34-0.846-0.537c-0.27-0.199-0.52-0.43-0.691-0.717
		c-0.078-0.133-0.135-0.275-0.176-0.426c-0.016-0.033-0.031-0.066-0.045-0.1c-0.039-0.119-0.055-0.246-0.055-0.373
		c-0.002-0.254,0.059-0.502,0.109-0.752c0.068-0.326,0.121-0.662,0.182-0.992c0.061-0.334,0.135-0.664,0.24-0.982
		c0.275-0.811,0.766-1.533,1.309-2.199c0.135-0.164,0.271-0.326,0.412-0.482c0.043-0.049,0.086-0.094,0.127-0.141
		c0.102-0.111,0.203-0.219,0.307-0.33c0.049-0.049,0.098-0.1,0.148-0.15c0.111-0.113,0.227-0.223,0.344-0.332
		c0.035-0.035,0.07-0.068,0.107-0.102c0.154-0.145,0.311-0.287,0.471-0.424c-0.141-0.119-0.275-0.24-0.402-0.375
		c-0.725-0.736-1.268-1.645-1.656-2.6c-0.771-1.922-0.924-4.025-1.072-6.09c-0.166-2.281-0.328-4.633,0.396-6.801
		c0.361-1.084,0.949-2.105,1.785-2.885c0.834-0.779,1.926-1.307,3.068-1.369c0.855-0.047,1.717,0.166,2.486,0.545
		c0.77,0.383,1.451,0.922,2.049,1.539c1.234,1.268,2.121,2.855,2.674,4.537c0.555,1.686,0.785,3.463,0.813,5.236
		c0.006,0.537-0.014,1.078-0.053,1.615h0.004c0.121-0.033,0.246-0.063,0.369-0.092c0.203-0.051,0.406-0.102,0.613-0.146
		c0.271-0.057,0.545-0.111,0.82-0.154c0.021-0.002,0.043-0.006,0.066-0.01c0.293-0.043,0.586-0.08,0.881-0.105
		c0.016,0,0.031,0,0.047-0.004c0.592-0.051,1.184-0.063,1.775-0.033c0.033,0.002,0.066,0.002,0.1,0.004
		c0.275,0.016,0.549,0.041,0.822,0.072c0.074,0.008,0.148,0.02,0.223,0.031c0.066,0.008,0.133,0.018,0.199,0.029
		c0.105,0.016,0.209,0.037,0.313,0.055c0.063,0.014,0.123,0.021,0.188,0.035c0.113,0.025,0.227,0.049,0.338,0.078
		c0.049,0.01,0.098,0.02,0.146,0.033c0.162,0.039,0.324,0.086,0.488,0.135c0.518,0.158,1.021,0.359,1.518,0.578
		c0.004,0,0.01,0.004,0.016,0.006c-0.139-0.332-0.266-0.67-0.383-1.01c-0.887-2.574-1.24-5.445-0.32-8.01
		c0.73-2.035,2.223-3.74,4.006-4.965c0.553-0.381,1.139-0.717,1.762-0.961c1.098-0.426,2.307-0.549,3.471-0.387
		c1.166,0.16,2.287,0.6,3.273,1.24c1.979,1.277,3.377,3.33,4.15,5.555c0.711,2.045,0.922,4.244,0.801,6.41
		c-0.096,1.695-0.4,3.4-1.115,4.945c-0.488,1.053-1.182,2.023-2.053,2.787c0,0,0.004,0,0.006,0c0.146,0.043,0.291,0.09,0.436,0.137
		c0.166,0.059,0.33,0.121,0.49,0.191c0.135,0.061,0.268,0.123,0.398,0.199l0,0c0.322,0.186,0.619,0.416,0.838,0.709l0,0
		c0.043,0.059,0.084,0.119,0.121,0.184c0.031,0.053,0.059,0.105,0.082,0.162c0.002,0,0.002,0,0.002,0.002
		c0.025,0.057,0.045,0.109,0.064,0.166c0.008,0.01,0.012,0.014,0.018,0.023c0.289,0.373,0.465,0.828,0.543,1.293
		c0.082,0.469,0.072,0.947,0.016,1.416c-0.111,0.941-0.406,1.85-0.529,2.791c-0.092,0.725-0.088,1.484-0.406,2.145
		c-0.082,0.164-0.182,0.318-0.297,0.465c0.23,0.395,0.445,0.803,0.641,1.215c0.643,1.348,1.146,2.758,1.727,4.133
		c1.186,2.813,2.68,5.479,4.029,8.215c5.967-0.096,10.229-2.256,10.584-8.512c0.352-6.463-0.684-12.918-1.012-19.383
		c-0.35-6.826,0.074-13.783-1.715-20.376c-0.873-3.215-2.264-6.284-4.053-9.094c-2.098-3.294-4.76-6.244-7.92-8.534
		C189.063,83.958,182.817,82.076,176.589,82.008z M187.173,104.919c0.699,0.029,1.375,0.185,2.092,0.662
		c1.994,1.322,2.961,2.835,3.709,4.681c0.203,0.506,0.4,1.363,0.16,1.629c-1.025-2.078-2.486-3.947-4.41-5.225
		c-0.994-0.661-2.109-1.141-3.275-1.392c0.186-0.388,0.66-0.331,1.018-0.347C186.706,104.917,186.942,104.91,187.173,104.919z
		 M159.964,106.394c0.826,0.014,1.65,0.213,2.393,0.531c0.848,0.369,1.715,0.914,2.477,1.48c0.311,0.232,0.633,0.471,0.836,0.777
		c0.631,0.938,0.939,2.012,1.105,3.123c-0.674-1.439-1.672-2.799-3.014-3.9c-0.723-0.592-1.531-1.111-2.379-1.48
		c-0.623-0.268-1.309-0.445-1.998-0.504c0.076-0.01,0.152-0.01,0.229-0.016C159.731,106.401,159.847,106.39,159.964,106.394z"/>
	<path id="path8633" style="fill:none;stroke:#FFFFFF;stroke-miterlimit:10;" d="M152.46,242.33c-0.49-0.62-0.92-1.22-1.29-1.79
		c-4.56-10.32-12.05-22.07-20.9-28.15c-0.23-0.12-0.46-0.25-0.69-0.359c-3.56-1.8-7.07-2.55-10.05,0
		c-0.08,0.06-0.15,0.13-0.22,0.189c-0.24,0.221-0.48,0.46-0.71,0.73c-0.91,1.08-1.53,2.24-2.1,3.31c-1.13,2.141-2.15,3.65-2.82,3.94
		c-1.1,0.479-3.35,0.58-5.86,0.7c-2.5,0.109-5.45,0.26-7.88,2.29c-0.48,0.399-0.91,0.84-1.29,1.31c-0.74,0.92-1.26,1.97-1.5,3.07
		c-0.37,1.649-0.18,3.25,0.14,4.949c0.96,4.98,2.05,10.381-0.07,14.66c-0.05,0.09-0.09,0.181-0.14,0.28h2.86
		c0.96-2.5,1.13-5.24,0.99-7.92c-0.14-2.75-0.58-5.48-0.77-8.22c-0.08-1.23-0.12-2.471,0.12-3.681c0.23-1.21,0.75-2.39,1.64-3.239
		c0.82-0.79,1.9-1.25,3.01-1.48c1.11-0.24,2.25-0.25,3.38-0.22c1.14,0.03,2.27,0.09,3.4-0.01c1.13-0.091,2.27-0.341,3.25-0.91
		c0.94-0.53,1.7-1.33,2.33-2.2c0.64-0.87,1.15-1.82,1.68-2.76c0.52-0.94,1.07-1.88,1.75-2.71c0.69-0.83,1.53-1.551,2.53-1.96
		c0.11-0.051,0.23-0.091,0.35-0.12c0.38-0.141,0.78-0.221,1.18-0.261c0.07-0.01,0.14-0.01,0.21-0.02c0.1,0,0.19-0.01,0.29-0.01h0.11
		c0.09,0,0.18,0,0.27,0.01c0.12,0,0.25,0.01,0.37,0.02c0.16,0.021,0.33,0.04,0.49,0.07c0.26,0.05,0.51,0.11,0.77,0.19
		c0.8,0.25,1.57,0.64,2.27,1.109c1.84,1.25,3.2,3.061,4.5,4.86c1.2,1.65,2.37,3.3,3.53,4.98c1.97,3.02,2.17,3.18,3.82,5.859
		c0.649,1.05,0.8,1.3,1.14,1.86c2.12,3.55,4.061,7.22,6.51,10.55c0.2,0.27,0.4,0.54,0.62,0.8c1.38,1.82,2.9,3.561,4.271,5.41h2.55
		C155.12,245.59,153.65,243.88,152.46,242.33z M153.95,247.46c-1.37-1.85-2.891-3.59-4.271-5.41c-0.22-0.26-0.42-0.53-0.62-0.8
		c-2.449-3.33-4.39-7-6.51-10.55c-0.34-0.561-0.49-0.811-1.14-1.86c-1.65-2.68-1.85-2.84-3.82-5.859
		c-1.16-1.681-2.33-3.33-3.53-4.98c-1.3-1.8-2.66-3.61-4.5-4.86c-0.7-0.47-1.47-0.859-2.27-1.109c-0.26-0.08-0.51-0.141-0.77-0.19
		c-0.16-0.03-0.33-0.05-0.49-0.07c-0.12-0.01-0.25-0.02-0.37-0.02c-0.09-0.01-0.18-0.01-0.27-0.01c-0.04,0-0.07,0-0.11,0
		c-0.1,0-0.19,0.01-0.29,0.01c-0.07,0.01-0.14,0.01-0.21,0.02c-0.4,0.04-0.8,0.12-1.18,0.261c-0.12,0.029-0.24,0.069-0.35,0.12
		c-1,0.409-1.84,1.13-2.53,1.96c-0.68,0.83-1.23,1.77-1.75,2.71c-0.53,0.939-1.04,1.89-1.68,2.76c-0.63,0.87-1.39,1.67-2.33,2.2
		c-0.98,0.569-2.12,0.819-3.25,0.91c-1.13,0.1-2.26,0.04-3.4,0.01c-1.13-0.03-2.27-0.021-3.38,0.22c-1.11,0.23-2.19,0.69-3.01,1.48
		c-0.89,0.85-1.41,2.029-1.64,3.239c-0.24,1.21-0.2,2.45-0.12,3.681c0.19,2.739,0.63,5.47,0.77,8.22c0.14,2.68-0.03,5.42-0.99,7.92"
		/>
	<path id="path3732" style="fill:none;stroke:#FFFFFF;stroke-miterlimit:10;" d="M242.87,225.83c0.04,0.61,0.06,1.22,0.13,1.83
		L242.87,225.83z M242.87,225.83c0.04,0.61,0.06,1.22,0.13,1.83L242.87,225.83z M247.33,231.07c-0.88-1.051-1.5-2.19-1.71-3.271
		c-0.03-0.13-0.05-0.28-0.07-0.45c-0.13-1.14-0.1-1.729-0.2-2.64c-0.119-1.229-0.39-2.51-0.89-3.75c-0.37-0.92-0.89-1.93-1.77-2.82
		c-1.171-1.17-2.53-1.729-3.721-2.1c-0.02-0.01-0.04-0.01-0.06-0.021c-1.13-0.35-2.33-0.579-3.601-0.609
		c-3.109-0.07-5.59,0.91-7.59,1.14c-1.85,0.22-3.83-0.01-5.79-0.53c-1.18-0.319-2.47-0.779-3.93-1.159
		c-0.75-0.2-1.49-0.351-2.22-0.48c-0.04-0.02-0.08-0.02-0.11-0.02c-0.729-0.141-1.439-0.25-2.13-0.351c-0.75-0.1-1.49-0.2-2.2-0.3
		c-0.77-0.12-1.689-0.28-2.77-0.27c-0.15,0-0.311,0-0.471,0.01c-1.31,0.069-2.8,0.439-4.08,1.53c-1.09,0.939-1.67,2.149-1.979,3.3
		c-0.01,0.06-0.03,0.12-0.04,0.189c-0.05,0.21-0.1,0.431-0.13,0.641c-0.21,1.359-0.09,2.54-0.03,3.5
		c0.4,5.739,0.41,11.47-0.189,17.1c-0.28,2.56-0.69,5.15-1.15,7.75h2.96c0.45-2.62,0.86-5.24,1.15-7.88
		c0.63-5.86,0.63-11.771,0.199-17.64c0-0.091-0.01-0.19-0.02-0.29c-0.01-0.19-0.021-0.381-0.03-0.57
		c-0.029-0.38-0.029-0.771-0.02-1.14c-0.01-0.12,0-0.221,0.01-0.33c0.01-0.2,0.03-0.41,0.06-0.62c0.03-0.181,0.07-0.36,0.11-0.54
		c0.01-0.03,0.021-0.07,0.03-0.11c0.02-0.06,0.04-0.12,0.05-0.18c0.01-0.04,0.03-0.07,0.04-0.11c0.03-0.069,0.05-0.149,0.08-0.229
		c0.01,0,0.01-0.011,0.01-0.021c0.15-0.37,0.351-0.71,0.601-1.01l0.01-0.01c0.109-0.13,0.229-0.261,0.359-0.38
		c0.69-0.591,1.62-0.851,2.53-0.9c0.22-0.02,0.45-0.02,0.68-0.01c0.681,0.029,1.36,0.13,2.03,0.229c1.25,0.181,2.5,0.34,3.74,0.561
		c0.87,0.14,1.74,0.319,2.6,0.54c1.311,0.35,2.58,0.81,3.891,1.16c0.699,0.189,1.41,0.35,2.13,0.47c1.52,0.25,3.06,0.319,4.58,0.14
		c2.42-0.28,4.76-1.189,7.189-1.13c0.9,0.03,1.8,0.18,2.66,0.44c0.09,0.02,0.19,0.05,0.28,0.08c0.97,0.3,1.93,0.739,2.649,1.47
		c0.54,0.55,0.921,1.24,1.2,1.96c0.42,1.08,0.65,2.22,0.75,3.37c0,0.09,0.01,0.189,0.01,0.279c0.07,0.931,0.07,1.86,0.25,2.771
		c0.32,1.65,1.19,3.15,2.261,4.439c0.58,0.7,1.229,1.341,1.899,1.94c0.021-0.3,0.03-0.61,0.03-0.92v-2.08
		C247.41,231.17,247.37,231.12,247.33,231.07z M243,227.66l-0.13-1.83C242.91,226.44,242.93,227.05,243,227.66z"/>
	<path id="path28849-2" style="fill:none;stroke:#FFFFFF;stroke-miterlimit:10;" d="M167.915,121.397
		c-0.832,1-1.479,2.139-2.244,3.191c4.344-1.795,6.416-2.336,11.992,0.449c-0.557-0.707-0.869-1.574-1.258-2.387
		c-0.408-0.855-0.922-1.676-1.613-2.322C172.446,118.239,169.728,119.233,167.915,121.397L167.915,121.397z"/>
	<path id="path14967-1-0" style="fill:none;stroke:#FFFFFF;stroke-miterlimit:10;" d="M149.474,150.245
		c-1.783,2.229-3.564,4.453-5.34,6.688c-1.831,2.301-3.659,4.6-5.503,6.891c-2.264,2.807-4.582,5.635-6.056,8.926
		c-1.267,2.83-1.864,5.9-2.733,8.875c-0.984,3.379-2.324,6.645-3.826,9.826c-1.387,2.939-2.915,5.809-4.446,8.676
		c-1.113,2.084-2.246,4.217-2.632,6.547c-0.305,1.844-0.128,3.748,0.342,5.557c3.807-1,5.76-2.564,10.821,0.188
		c7.15,5.707,17.141,19.869,18.959,28.832c0.199,0.27,0.398,0.535,0.604,0.799c0.721,0.18,1.457,0.295,2.203,0.307
		c0.98,0.02,1.971-0.145,2.867-0.537c0.898-0.393,1.699-1.027,2.232-1.85c0.656-1.012,0.879-2.268,0.746-3.469
		c-0.131-1.195-0.6-2.338-1.225-3.367c-1.533-2.512-3.951-4.332-6.279-6.133c-5.025-3.893-9.884-8-14.534-12.328
		c-1.313-1.225-2.627-2.488-3.544-4.031c-0.894-1.5-1.376-3.211-1.703-4.928c-0.897-4.709-0.668-9.666,0.935-14.182
		c0.628-1.77,1.457-3.457,2.256-5.156c1.385-2.939,2.695-5.936,4.516-8.629C146.683,168.079,146.866,161.733,149.474,150.245z"/>
	<path id="path8561" style="fill:none;stroke:#FFFFFF;stroke-miterlimit:10;" d="M184.335,115.851
		c-0.158-0.008-0.314-0.008-0.473,0.004c-0.67,0.047-1.322,0.277-1.891,0.637c-0.57,0.355-1.053,0.842-1.434,1.395
		c-0.76,1.107-1.096,2.465-1.148,3.807c-0.041,1.008,0.07,2.029,0.404,2.979c0.301,0.859,0.791,1.658,1.455,2.279
		c1.074,0.293,2.035,0.629,2.785,1.275c0.09,0.01,0.18,0.021,0.27,0.025c1.031,0.049,2.074-0.248,2.922-0.838
		c0.678-0.471,1.219-1.115,1.607-1.842c0.389-0.725,0.621-1.529,0.727-2.342c0.189-1.438-0.025-2.943-0.689-4.234
		s-1.795-2.354-3.156-2.854C185.272,115.976,184.806,115.874,184.335,115.851L184.335,115.851z M184.995,117.456
		c0.1-0.004,0.199,0.002,0.287,0.014c0.771,0.098,1.543,0.621,2.018,1.32c0.523,0.771,1.064,1.955,0.676,2.822
		c-0.1,0.223-0.408,0.352-0.611,0.266c-0.652-0.277-0.525-1.506-0.988-2.1c-0.244-0.309-0.58-0.51-0.9-0.703
		c-0.328-0.205-0.793-0.16-1.043-0.48c-0.152-0.193-0.291-0.531-0.178-0.764C184.384,117.563,184.696,117.468,184.995,117.456z"/>
	<path id="path8579" style="fill:none;stroke:#FFFFFF;stroke-miterlimit:10;" d="M159.618,116.429
		c-0.299,0.021-0.592,0.094-0.865,0.217c-0.602,0.275-1.068,0.797-1.375,1.385c-0.307,0.586-0.463,1.244-0.572,1.895
		c-0.24,1.441-0.246,2.951,0.248,4.322c0.326,0.908,0.865,1.729,1.52,2.436c0.428,0.461,0.916,0.883,1.484,1.156
		c1.113-0.467,2.689-2.285,4.115-2.555c0.42-1.566,0.328-3.25-0.152-4.801c-0.367-1.195-0.98-2.348-1.939-3.156
		c-0.457-0.385-0.992-0.686-1.572-0.824C160.218,116.433,159.917,116.405,159.618,116.429L159.618,116.429z M160.942,117.94
		c0.217-0.004,0.459,0.084,0.641,0.182c0.637,0.336,1.152,1.01,1.361,1.719c0.23,0.779,0.359,1.893-0.223,2.443
		c-0.148,0.139-0.451,0.137-0.604,0c-0.48-0.441-0.021-1.359-0.254-1.982c-0.119-0.322-0.348-0.594-0.568-0.857
		c-0.227-0.268-0.639-0.393-0.762-0.725c-0.076-0.209-0.1-0.518,0.063-0.66C160.69,117.974,160.813,117.942,160.942,117.94
		L160.942,117.94z"/>
	<path id="path8549" style="fill:none;stroke:#FFFFFF;stroke-miterlimit:10;" d="M166.446,123.306
		c-3.021,1.051-5.75,2.916-7.826,5.346c-1.156,0.957-2.268,1.967-3.324,3.033c-1.438,1.922-2.498,5.287-1.584,5.467
		c0.023-0.143,0.051-0.279,0.08-0.422c0.135-0.66,0.209-1.334,0.422-1.975c0.275-0.811,0.766-1.533,1.309-2.199
		c0.947-1.164,2.066-2.186,3.311-3.021c2.045-2.402,4.738-4.246,7.717-5.279c2.684-0.932,5.652-1.199,8.369-0.379
		c1.215,0.369,2.355,0.947,3.475,1.545c1.088,0.586,2.164,1.191,3.27,1.742c2.227,1.102,4.572,1.965,6.986,2.547
		c0.787,0.191,1.588,0.355,2.326,0.684c0.539,0.238,1.057,0.582,1.357,1.092c0.24,0.596,0.488,0.844,0.559,0.197
		c-0.063-1.076-0.916-1.836-1.785-2.229c-0.783-0.346-1.602-0.51-2.379-0.699c-2.393-0.578-4.717-1.432-6.922-2.523
		c-1.096-0.545-2.17-1.152-3.262-1.736c-1.123-0.604-2.283-1.189-3.533-1.568C172.126,122.153,169.021,122.429,166.446,123.306
		L166.446,123.306z"/>
	<path id="path8535" style="fill:none;stroke:#FFFFFF;stroke-miterlimit:10;" d="M193.097,134.001
		c-0.006,0.182-0.02,0.365-0.039,0.547c-0.111,0.941-0.406,1.85-0.531,2.791c-0.09,0.725-0.086,1.484-0.404,2.145
		c-0.332,0.684-0.979,1.166-1.666,1.488c-0.689,0.324-1.432,0.516-2.145,0.779c-3.266,1.207-5.744,3.885-8.711,5.711
		c-1.559,0.961-3.26,1.688-5.018,2.207c-1.896,0.559-3.889,0.875-5.855,0.678c-1.676-0.168-3.324-0.719-4.703-1.688
		c-1.953-1.367-3.246-3.459-4.707-5.346c-1.09-1.402-2.316-2.732-3.822-3.68c-0.283-0.176-0.576-0.34-0.846-0.537
		c-0.27-0.199-0.52-0.43-0.691-0.717c-0.078-0.133-0.135-0.275-0.176-0.426c-0.016-0.033-0.031-0.066-0.045-0.1
		c-0.039-0.119-0.055-0.246-0.055-0.373c0-0.02,0.004-0.037,0.004-0.055c-1.07,0.516-1.033,2.314-0.529,2.836
		c2.027,1.25,3.867,2.807,5.436,4.6c1.445,1.648,2.785,3.695,4.902,5.092c1.555,1.025,3.355,1.549,5.146,1.709
		c2.115,0.189,4.211-0.121,6.189-0.654c1.816-0.488,3.594-1.18,5.246-2.125c3.111-1.781,5.58-4.242,8.527-5.18
		c0.646-0.205,1.416-0.359,2.221-0.701c0.402-0.168,0.814-0.389,1.195-0.699c0.379-0.307,0.725-0.697,0.963-1.18
		C193.009,139.661,195.421,134.312,193.097,134.001L193.097,134.001z"/>
	<path id="path8591" style="fill:none;stroke:#FFFFFF;stroke-miterlimit:10;" d="M188.856,133.421
		c-0.299-0.006-0.596,0.031-0.879,0.119c-0.373,0.119-0.707,0.336-1.008,0.586c-0.305,0.25-0.576,0.529-0.857,0.807
		c-0.83,0.799-1.74,1.51-2.664,2.199c-2.037,1.52-4.164,2.953-6.525,3.883c-1.543,0.609-3.162,0.996-4.787,1.318
		c-2.047,0.408-4.127,0.725-6.211,0.643c-2.084-0.08-4.186-0.576-5.949-1.688c-0.797-0.506-1.516-1.127-2.293-1.662
		c-0.777-0.537-1.641-0.992-2.578-1.1c-0.209-0.021-0.42-0.031-0.625-0.07c-0.066-0.014-0.133-0.037-0.199-0.059
		c-0.023,0.152-0.012,0.311,0.037,0.457c0.295,0.789,0.945,1.086,1.74,1.256c0.516,0.119,1.053,0.471,1.572,0.938
		c0.525,0.473,1.055,1.074,1.738,1.629c1.857,1.512,4.234,2.094,6.498,2.135c2.256,0.035,4.412-0.43,6.48-0.896
		c1.619-0.363,3.281-0.752,4.908-1.354c2.502-0.922,4.818-2.314,6.822-4.059c0.908-0.793,1.693-1.582,2.545-2.113
		c0.752-0.475,1.711-0.828,2.691-1.406c0.09-0.055,0.213-0.127,0.352-0.242c0.143-0.119,0.301-0.285,0.418-0.521
		c0.107-0.209,0.15-0.426,0.156-0.627c-0.164-0.027-0.326-0.059-0.49-0.084C189.456,133.46,189.153,133.423,188.856,133.421
		L188.856,133.421z"/>
	<path id="path8597" style="fill:none;stroke:#FFFFFF;stroke-miterlimit:10;" d="M173.79,125.515
		c-0.275,0.014-0.533,0.068-0.768,0.199c-0.143,0.078-0.301,0.271-0.252,0.43c0.148,0.477,0.916,0.398,1.361,0.629
		c0.391,0.201,0.705,0.641,1.145,0.654c0.42,0.01,1.08-0.152,1.133-0.566c0.074-0.551-0.73-0.895-1.246-1.1
		C174.749,125.603,174.251,125.487,173.79,125.515L173.79,125.515z M165.175,125.851c-0.561,0.076-1.25,0.908-0.98,1.361
		c0.084,0.143,0.342,0.322,0.516,0.225c0.264-0.143,0.482-0.664,0.77-0.867c0.189-0.133,0.146-0.631-0.076-0.705
		C165.331,125.841,165.257,125.841,165.175,125.851L165.175,125.851z"/>
	<path id="path6521" style="fill:none;stroke:#FFFFFF;stroke-miterlimit:10;" d="M231.265,210.685l-2.857-0.918
		c-1.152-0.371-2.318-0.719-3.521-0.824c-1.205-0.107-2.432,0.021-3.578,0.398l0,0l-0.988,0.684"/>
	<path id="path6519" style="fill:none;stroke:#FFFFFF;stroke-miterlimit:10;" d="M215.882,214.331
		c0.361-0.172,0.713-0.363,1.055-0.57c0.943-0.582,1.809-1.295,2.811-1.77c1.258-0.594,2.664-0.783,4.049-0.912
		c0.969-0.09,1.938-0.158,2.906-0.195c1.887-0.068,3.781-0.018,5.664,0.15l-1.102-0.35"/>
	<path id="path6517" style="fill:none;stroke:#FFFFFF;stroke-miterlimit:10;" d="M217.542,211.95l-1.643,1.137l-0.254,1.355
		c0.08-0.035,0.158-0.07,0.236-0.111"/>
	<path id="path29714-3-9-3-8-1" style="fill:none;stroke:#FFFFFF;stroke-miterlimit:10;" d="M220.319,210.024l-2.777,1.926"/>
	<rect x="112.82" y="183.68" style="fill:#59BEAF;" width="99.21" height="28.351"/>
	<rect x="212.03" y="183.68" style="fill:#D6ECE5;" width="35.43" height="28.351"/>
	<rect x="70.3" y="212.03" style="fill:#D6ECE5;" width="28.35" height="35.43"/>
	<path style="opacity:0.5;fill:#E83818;" d="M247.46,212.03v21.26c0,0.31-0.01,0.62-0.03,0.92c-0.47,7.4-6.62,13.25-14.14,13.25
		H98.65v-35.43H247.46z"/>
</g>
</svg>
