<?xml version="1.0" encoding="iso-8859-1"?>
<!-- Generator: Adobe Illustrator 16.0.0, SVG Export Plug-In . SVG Version: 6.00 Build 0)  -->
<!DOCTYPE svg PUBLIC "-//W3C//DTD SVG 1.1//EN" "http://www.w3.org/Graphics/SVG/1.1/DTD/svg11.dtd">
<svg version="1.1" id="&#x56FE;&#x5C42;_1" xmlns="http://www.w3.org/2000/svg" xmlns:xlink="http://www.w3.org/1999/xlink" x="0px"
	 y="0px" width="354.33px" height="354.33px" viewBox="0 0 354.33 354.33" style="enable-background:new 0 0 354.33 354.33;"
	 xml:space="preserve">
<linearGradient id="SVGID_1_" gradientUnits="userSpaceOnUse" x1="42.6846" y1="223.3213" x2="310.7788" y2="131.009">
	<stop  offset="0" style="stop-color:#49C0E5"/>
	<stop  offset="1" style="stop-color:#7A4999"/>
</linearGradient>
<circle style="fill:url(#SVGID_1_);" cx="176.731" cy="177.165" r="141.732"/>
<g>
	<g>
		<path style="fill:none;stroke:#FFFFFF;stroke-miterlimit:10;" d="M134.213,245.196c0,1.564-1.27,2.834-2.835,2.834h-22.677
			c-1.565,0-2.835-1.27-2.835-2.834V109.134c0-1.565,1.27-2.835,2.835-2.835h22.677c1.565,0,2.835,1.27,2.835,2.835V245.196z"/>
		<path style="fill:none;stroke:#FFFFFF;stroke-miterlimit:10;" d="M247.598,245.196c0,1.564-1.27,2.834-2.834,2.834h-93.543
			c-1.565,0-2.835-1.27-2.835-2.834v-22.678c0-1.565,1.27-2.834,2.835-2.834h93.543c1.564,0,2.834,1.269,2.834,2.834V245.196z"/>
	</g>
	<line style="fill:none;stroke:#FFFFFF;stroke-miterlimit:10;" x1="105.866" y1="125.719" x2="134.213" y2="167.036"/>
	<line style="fill:none;stroke:#FFFFFF;stroke-miterlimit:10;" x1="128.723" y1="106.299" x2="105.866" y2="177.164"/>
	<line style="fill:none;stroke:#FFFFFF;stroke-miterlimit:10;" x1="105.866" y1="208.354" x2="134.213" y2="197.315"/>
	<line style="fill:none;stroke:#FFFFFF;stroke-miterlimit:10;" x1="128.723" y1="159.034" x2="105.866" y2="197.315"/>
	<line style="fill:none;stroke:#FFFFFF;stroke-miterlimit:10;" x1="105.866" y1="223.923" x2="134.213" y2="241.887"/>
	<line style="fill:none;stroke:#FFFFFF;stroke-miterlimit:10;" x1="117.294" y1="248.03" x2="134.213" y2="219.685"/>
	<line style="fill:none;stroke:#FFFFFF;stroke-miterlimit:10;" x1="105.866" y1="216.737" x2="134.213" y2="184.402"/>
	<line style="fill:none;stroke:#FFFFFF;stroke-miterlimit:10;" x1="111.714" y1="159.034" x2="123.333" y2="248.03"/>
	<line style="fill:none;stroke:#FFFFFF;stroke-miterlimit:10;" x1="117.294" y1="106.299" x2="105.866" y2="137.695"/>
	<line style="fill:none;stroke:#FFFFFF;stroke-miterlimit:10;" x1="151.221" y1="248.03" x2="190.997" y2="219.685"/>
	<line style="fill:none;stroke:#FFFFFF;stroke-miterlimit:10;" x1="151.221" y1="219.685" x2="190.997" y2="248.03"/>
	<line style="fill:none;stroke:#FFFFFF;stroke-miterlimit:10;" x1="207.764" y1="219.685" x2="229.92" y2="248.03"/>
	<line style="fill:none;stroke:#FFFFFF;stroke-miterlimit:10;" x1="181.402" y1="241.192" x2="197.992" y2="219.685"/>
	<line style="fill:none;stroke:#FFFFFF;stroke-miterlimit:10;" x1="247.598" y1="222.519" x2="171.109" y2="248.03"/>
	<line style="fill:none;stroke:#FFFFFF;stroke-miterlimit:10;" x1="209.354" y1="248.03" x2="223.932" y2="219.685"/>
	<line style="fill:none;stroke:#FFFFFF;stroke-miterlimit:10;" x1="134.213" y1="129.911" x2="105.866" y2="146.378"/>
</g>
</svg>
