<?xml version="1.0" encoding="iso-8859-1"?>
<!-- Generator: Adobe Illustrator 16.0.0, SVG Export Plug-In . SVG Version: 6.00 Build 0)  -->
<!DOCTYPE svg PUBLIC "-//W3C//DTD SVG 1.1//EN" "http://www.w3.org/Graphics/SVG/1.1/DTD/svg11.dtd">
<svg version="1.1" id="&#x56FE;&#x5C42;_1" xmlns="http://www.w3.org/2000/svg" xmlns:xlink="http://www.w3.org/1999/xlink" x="0px"
	 y="0px" width="354.33px" height="354.33px" viewBox="0 0 354.33 354.33" style="enable-background:new 0 0 354.33 354.33;"
	 xml:space="preserve">
<linearGradient id="SVGID_1_" gradientUnits="userSpaceOnUse" x1="43.1177" y1="223.3213" x2="311.2119" y2="131.009">
	<stop  offset="0" style="stop-color:#49C0E5"/>
	<stop  offset="1" style="stop-color:#7A4999"/>
</linearGradient>
<circle style="fill:url(#SVGID_1_);" cx="177.165" cy="177.165" r="141.732"/>
<g>
	<path style="fill:none;stroke:#FFFFFF;stroke-miterlimit:10;" d="M248.03,245.196c0,1.566-1.27,2.834-2.834,2.834h-93.543
		c-1.565,0-2.834-1.268-2.834-2.834v-22.678c0-1.564,1.269-2.834,2.834-2.834h93.543c1.564,0,2.834,1.27,2.834,2.834V245.196z"/>
	<path style="fill:none;stroke:#FFFFFF;stroke-miterlimit:10;" d="M134.646,245.196c0,1.566-1.27,2.834-2.835,2.834h-22.677
		c-1.565,0-2.834-1.268-2.834-2.834V109.133c0-1.565,1.269-2.834,2.834-2.834h22.677c1.565,0,2.835,1.269,2.835,2.834V245.196z"/>
</g>
</svg>
