<?xml version="1.0" encoding="iso-8859-1"?>
<!-- Generator: Adobe Illustrator 16.0.0, SVG Export Plug-In . SVG Version: 6.00 Build 0)  -->
<!DOCTYPE svg PUBLIC "-//W3C//DTD SVG 1.1//EN" "http://www.w3.org/Graphics/SVG/1.1/DTD/svg11.dtd">
<svg version="1.1" id="&#x56FE;&#x5C42;_1" xmlns="http://www.w3.org/2000/svg" xmlns:xlink="http://www.w3.org/1999/xlink" x="0px"
	 y="0px" width="283.46px" height="283.46px" viewBox="0 0 283.46 283.46" style="enable-background:new 0 0 283.46 283.46;"
	 xml:space="preserve">
<g>
	<g style="opacity:0.6;">
		<path style="fill:#20AEE0;" d="M225.334,196.969c-18.092,27.233-49.036,45.181-84.173,45.181s-66.083-17.947-84.173-45.181
			H225.334z"/>
		<path style="fill:#E83818;" d="M234.933,178.714c-1.8,4.485-3.907,8.806-6.3,12.938H119.906v-12.938H234.933z"/>
		<path style="fill:#563C94;" d="M98.643,178.714v12.938H53.695c-2.393-4.132-4.5-8.452-6.299-12.938H98.643z"/>
		<path style="fill:#EEBA1D;" d="M98.643,49.548v107.904h-57.15c-0.862-5.303-1.313-10.748-1.313-16.291
			c0-0.659,0.007-1.32,0.023-1.98c0.008-0.592,0.022-1.176,0.044-1.77c0.031-0.719,0.06-1.44,0.105-2.152
			c0.03-0.623,0.075-1.245,0.12-1.868c0.007-0.031,0.007-0.053,0.007-0.083c0.037-0.494,0.082-0.996,0.127-1.491
			c0.03-0.331,0.06-0.653,0.097-0.983c0.045-0.466,0.098-0.938,0.15-1.411c0.067-0.606,0.15-1.222,0.233-1.83
			c0.172-1.334,0.382-2.663,0.615-3.983c0.09-0.524,0.188-1.042,0.285-1.567c0.262-1.387,0.563-2.767,0.885-4.14
			c0.12-0.517,0.248-1.036,0.375-1.545c0.473-1.868,0.998-3.712,1.567-5.534c0.188-0.601,0.383-1.192,0.586-1.786
			c0.157-0.48,0.322-0.959,0.487-1.433c0.15-0.412,0.292-0.825,0.442-1.229c0.136-0.368,0.271-0.735,0.413-1.096
			c0.031-0.089,0.067-0.18,0.105-0.262c0.158-0.42,0.315-0.841,0.488-1.252c0.217-0.563,0.45-1.125,0.682-1.68
			c0.196-0.45,0.383-0.908,0.585-1.358c0.113-0.255,0.225-0.51,0.337-0.765c0.166-0.375,0.338-0.757,0.51-1.132
			c0.232-0.488,0.458-0.968,0.69-1.447c0.18-0.375,0.359-0.735,0.54-1.103c0.728-1.462,1.485-2.902,2.281-4.32
			c0.284-0.518,0.577-1.028,0.877-1.538c0.112-0.195,0.224-0.39,0.337-0.577c0.51-0.87,1.036-1.733,1.583-2.58
			c0.322-0.526,0.66-1.043,0.998-1.553c0.337-0.518,0.682-1.027,1.027-1.531c0.697-1.012,1.41-2.017,2.137-3
			c0.36-0.494,0.735-0.981,1.11-1.469c0.368-0.488,0.75-0.968,1.132-1.447c0.382-0.488,0.765-0.961,1.155-1.433
			c0.39-0.473,0.787-0.938,1.184-1.403c0.795-0.929,1.613-1.844,2.446-2.744c0.412-0.451,0.833-0.9,1.26-1.343
			c0.419-0.442,0.847-0.877,1.282-1.313c0.803-0.81,1.613-1.605,2.445-2.385c0.502-0.48,1.02-0.953,1.538-1.418
			c0.428-0.39,0.855-0.772,1.29-1.147c0.105-0.091,0.21-0.188,0.315-0.278c0.39-0.33,0.772-0.667,1.169-0.989
			c0.938-0.795,1.89-1.56,2.858-2.318c1.553-1.214,3.142-2.377,4.77-3.502c0.398-0.277,0.795-0.547,1.193-0.81
			c0.51-0.344,1.027-0.682,1.544-1.012c0.518-0.337,1.036-0.66,1.56-0.982c1.072-0.667,2.168-1.313,3.271-1.943
			c0.502-0.284,1.012-0.563,1.522-0.839c0.022-0.015,0.045-0.022,0.06-0.038c0.524-0.284,1.049-0.563,1.575-0.832
			c0.923-0.48,1.86-0.952,2.798-1.402c0.367-0.172,0.727-0.353,1.094-0.518C98.545,49.594,98.598,49.564,98.643,49.548z"/>
		<path style="fill:#20AEE0;" d="M242.148,141.161c0,5.543-0.451,10.988-1.313,16.291h-120.93V42.439
			c0.255-0.06,0.517-0.12,0.779-0.172c0.255-0.053,0.51-0.105,0.773-0.158c0.397-0.082,0.794-0.157,1.2-0.232
			c0.359-0.068,0.728-0.136,1.094-0.196c0.435-0.082,0.87-0.149,1.313-0.217c0.398-0.067,0.803-0.127,1.208-0.188
			c1.094-0.166,2.19-0.308,3.292-0.435c0.42-0.053,0.841-0.098,1.269-0.135c0.262-0.031,0.517-0.053,0.779-0.075
			c0.262-0.03,0.525-0.052,0.788-0.076c0.412-0.037,0.825-0.067,1.245-0.097c0.412-0.031,0.825-0.06,1.237-0.083
			c0.158-0.016,0.307-0.023,0.465-0.03c0.637-0.038,1.274-0.067,1.913-0.09c1.297-0.052,2.595-0.076,3.9-0.076
			C196.93,40.181,242.148,85.392,242.148,141.161z"/>
	</g>
	<polygon style="fill:#FFFFFF;" points="183.69,157.455 183.69,178.717 119.91,178.717 119.91,191.654 98.647,191.654 
		98.647,93.675 119.91,93.675 119.91,157.455 	"/>
	<linearGradient id="SVGID_1_" gradientUnits="userSpaceOnUse" x1="141.1655" y1="247.4619" x2="141.1655" y2="34.8677">
		<stop  offset="0" style="stop-color:#DFE2D9"/>
		<stop  offset="1" style="stop-color:#FFFFFF"/>
	</linearGradient>
	<path style="fill:url(#SVGID_1_);" d="M141.165,34.867c-13.935,0-27.248,2.685-39.442,7.56c-1.035,0.412-2.063,0.84-3.075,1.282
		c-37.545,16.41-63.78,53.873-63.78,97.456c0,13.02,2.34,25.5,6.631,37.026c0.06,0.173,0.127,0.354,0.194,0.525
		c15.172,40.178,53.985,68.745,99.473,68.745c45.487,0,84.3-28.567,99.48-68.745c0.532-1.417,1.035-2.85,1.507-4.29
		c3.45-10.462,5.311-21.645,5.311-33.262C247.463,82.462,199.875,34.867,141.165,34.867z M141.165,242.152
		c-35.137,0-66.083-17.947-84.173-45.181h168.346C207.248,224.205,176.303,242.152,141.165,242.152z M240.84,157.455
		c-1.191,7.387-3.194,14.505-5.902,21.262c-1.8,4.485-3.907,8.806-6.3,12.938H53.7c-2.393-4.132-4.5-8.452-6.3-12.938
		c-2.708-6.75-4.703-13.867-5.902-21.247v-0.015c-0.863-5.303-1.313-10.748-1.313-16.29c0-0.66,0.007-1.32,0.021-1.98
		c0.008-0.593,0.023-1.177,0.046-1.77c0.03-0.72,0.06-1.44,0.104-2.153c0.03-0.623,0.075-1.245,0.12-1.868
		c0.007-0.03,0.007-0.053,0.007-0.083c0.038-0.495,0.083-0.997,0.127-1.492c0.03-0.33,0.06-0.652,0.098-0.983
		c0.045-0.465,0.098-0.938,0.15-1.41c0.067-0.607,0.15-1.223,0.233-1.83c0.172-1.335,0.382-2.663,0.614-3.983
		c0.09-0.525,0.188-1.042,0.285-1.567c0.263-1.387,0.563-2.768,0.886-4.14c0.12-0.518,0.247-1.036,0.375-1.545
		c0.472-1.868,0.997-3.713,1.567-5.535c0.188-0.6,0.382-1.192,0.585-1.785c0.157-0.48,0.322-0.96,0.487-1.433
		c0.15-0.413,0.293-0.825,0.442-1.23c0.135-0.368,0.27-0.735,0.413-1.095c0.03-0.09,0.067-0.18,0.104-0.263
		c0.157-0.419,0.315-0.84,0.488-1.252c0.217-0.563,0.45-1.125,0.682-1.68c0.195-0.45,0.383-0.907,0.585-1.357
		c0.113-0.255,0.225-0.51,0.338-0.766c0.165-0.375,0.337-0.757,0.51-1.132c0.232-0.487,0.458-0.967,0.689-1.447
		c0.181-0.375,0.36-0.735,0.541-1.102c0.727-1.463,1.484-2.903,2.28-4.321c0.285-0.517,0.577-1.027,0.877-1.537
		c0.112-0.195,0.225-0.39,0.337-0.577c0.511-0.87,1.036-1.733,1.583-2.581c0.322-0.525,0.66-1.042,0.997-1.553
		c0.338-0.517,0.683-1.027,1.028-1.53c0.697-1.012,1.41-2.017,2.137-3c0.36-0.495,0.735-0.982,1.11-1.47
		c0.368-0.487,0.75-0.967,1.132-1.447c0.382-0.487,0.765-0.96,1.155-1.433c0.391-0.472,0.788-0.938,1.186-1.402
		c0.794-0.93,1.612-1.845,2.444-2.745c0.413-0.45,0.833-0.9,1.261-1.342c0.42-0.443,0.848-0.877,1.282-1.313
		c0.802-0.81,1.612-1.605,2.445-2.386c0.502-0.479,1.02-0.952,1.537-1.417c0.428-0.391,0.854-0.773,1.29-1.148
		c0.105-0.09,0.21-0.188,0.314-0.277c0.391-0.33,0.773-0.667,1.171-0.99c0.938-0.795,1.89-1.568,2.857-2.318
		c1.553-1.214,3.143-2.377,4.77-3.502c0.398-0.277,0.795-0.547,1.192-0.81c0.51-0.345,1.028-0.682,1.545-1.012
		c0.518-0.338,1.036-0.66,1.56-0.982c1.073-0.668,2.168-1.313,3.27-1.943c0.503-0.285,1.013-0.563,1.523-0.839
		c0.022-0.016,0.044-0.023,0.06-0.038c0.524-0.285,1.05-0.563,1.575-0.832c0.923-0.48,1.86-0.953,2.798-1.403
		c0.367-0.173,0.727-0.352,1.095-0.518c0.052-0.022,0.104-0.052,0.149-0.067c0.885-0.413,1.777-0.817,2.678-1.2
		c0.555-0.24,1.11-0.473,1.673-0.706c0.015,0,0.03-0.007,0.044-0.015c3.683-1.5,7.462-2.791,11.34-3.855
		c1.822-0.494,3.667-0.945,5.527-1.334c0.255-0.06,0.517-0.12,0.78-0.173c0.255-0.053,0.51-0.104,0.772-0.157
		c0.397-0.083,0.795-0.158,1.2-0.232c0.36-0.068,0.727-0.135,1.095-0.195c0.435-0.082,0.87-0.149,1.313-0.218
		c0.397-0.067,0.803-0.127,1.208-0.188c1.095-0.165,2.19-0.307,3.292-0.434c0.419-0.053,0.84-0.098,1.268-0.136
		c0.262-0.03,0.517-0.052,0.779-0.075c0.263-0.03,0.525-0.053,0.788-0.075c0.412-0.038,0.825-0.067,1.245-0.098
		c0.412-0.03,0.825-0.06,1.237-0.082c0.157-0.015,0.308-0.022,0.465-0.03c0.637-0.038,1.275-0.067,1.912-0.09
		c1.298-0.053,2.595-0.075,3.9-0.075c55.771,0,100.987,45.21,100.987,100.98C242.152,146.707,241.702,152.152,240.84,157.455z"/>
	<g>
		<rect x="98.647" y="93.675" style="fill:#59BEAF;" width="21.263" height="85.042"/>
		<rect x="130.538" y="157.455" style="fill:#59BEAF;" width="53.153" height="21.262"/>
	</g>
	<path style="fill:#FFFEF3;" d="M98.648,93.675"/>
	<path style="fill:#FFFEF3;" d="M98.648,93.675"/>
	<path style="fill:#D6ECE5;" d="M119.91,42.442v51.232H98.647V49.552c0.885-0.413,1.777-0.817,2.678-1.2
		c0.555-0.24,1.11-0.473,1.673-0.706c0.015,0,0.03-0.007,0.044-0.015c3.683-1.5,7.462-2.791,11.34-3.855
		C116.205,43.283,118.05,42.832,119.91,42.442z"/>
	<rect x="119.91" y="157.455" style="fill:#D6ECE5;" width="10.627" height="21.262"/>
	<path style="fill:#D6ECE5;" d="M98.647,157.455v21.262H47.4c-2.708-6.75-4.703-13.867-5.902-21.247v-0.015H98.647z"/>
	<path style="fill:#D6ECE5;" d="M240.84,157.455c-1.191,7.387-3.194,14.505-5.902,21.262H183.69v-21.262H240.84z"/>
	<rect x="98.647" y="178.717" style="fill:#D6ECE5;" width="21.263" height="12.938"/>
</g>
</svg>
