<?xml version="1.0" encoding="iso-8859-1"?>
<!-- Generator: Adobe Illustrator 16.0.0, SVG Export Plug-In . SVG Version: 6.00 Build 0)  -->
<!DOCTYPE svg PUBLIC "-//W3C//DTD SVG 1.1//EN" "http://www.w3.org/Graphics/SVG/1.1/DTD/svg11.dtd">
<svg version="1.1" id="&#x56FE;&#x5C42;_1" xmlns="http://www.w3.org/2000/svg" xmlns:xlink="http://www.w3.org/1999/xlink" x="0px"
	 y="0px" width="283.46px" height="283.46px" viewBox="0 0 283.46 283.46" style="enable-background:new 0 0 283.46 283.46;"
	 xml:space="preserve">
<g>
	<path style="opacity:0.6;fill:#EEBA1D;" d="M88.013,49.095v123.487H39.585c-3.067-9.931-4.717-20.482-4.717-31.417
		C34.868,101.819,56.243,67.47,88.013,49.095z"/>
	<path style="fill:#D6ECE5;" d="M88.013,172.582v21.263H48.817c-3.81-6.668-6.922-13.793-9.232-21.263H88.013z"/>
	<path style="fill:#D6ECE5;" d="M109.275,193.845v48.75c-7.478-2.349-14.595-5.498-21.263-9.354v-39.396H109.275z"/>
	<path style="opacity:0.6;fill:#563C94;" d="M88.013,193.845v39.39c-16.29-9.42-29.85-23.047-39.195-39.39H88.013z"/>
	<path style="opacity:0.6;fill:#20AEE0;" d="M247.463,141.165c0,10.935-1.65,21.487-4.718,31.417h-133.47V39.734
		c10.065-3.165,20.782-4.867,31.89-4.867C199.868,34.867,247.463,82.462,247.463,141.165z"/>
	<path style="fill:#D6ECE5;" d="M109.275,39.734V87.54H88.013V49.095C94.681,45.232,101.798,42.082,109.275,39.734z"/>
	<rect x="109.275" y="172.582" style="fill:#D6ECE5;" width="10.627" height="21.263"/>
	<path id="path5925_1_" style="fill:none;stroke:#FFFFFF;stroke-miterlimit:10;" d="M170.554,129.002
		c-0.826-0.007-1.651,0.034-2.475,0.127c-0.718,0.083-1.436,0.215-2.142,0.393c0.038,0.407,0.059,0.813,0.066,1.223
		c0.004,0.403-0.011,0.809-0.04,1.212c1.813-0.504,3.752-0.598,5.545-0.054c0.393,0.118,0.773,0.271,1.149,0.438
		c-0.104-0.249-0.199-0.502-0.287-0.757c-0.281-0.815-0.49-1.673-0.587-2.537C171.374,129.022,170.964,129.004,170.554,129.002
		L170.554,129.002z"/>
	<path id="path5921_1_" style="fill:none;stroke:#FFFFFF;stroke-miterlimit:10;" d="M157.584,136.05
		c-0.504,1.022-0.899,2.11-1.228,3.217c0.179-0.299,0.384-0.585,0.604-0.854c0.434-0.532,0.916-1.024,1.438-1.471
		c-0.105-0.089-0.207-0.18-0.302-0.281C157.909,136.471,157.739,136.266,157.584,136.05L157.584,136.05z"/>
	<path id="path6020_1_" style="fill:none;stroke:#FFFFFF;stroke-miterlimit:10;" d="M155.593,142.257
		c-0.498,2.195-0.95,4.406-1.79,6.489c-0.461,1.147-1.034,2.232-1.664,3.292c-1.814,4.694-6.155,13.563-7.938,19.861
		c-0.802,2.367-1.633,4.726-2.623,7.02c-0.603,1.396-1.267,2.768-1.776,4.203c-1.169,3.29-1.501,6.92-0.616,10.296
		c0.355,1.356,0.902,2.662,1.617,3.87c0.047,0.076,0.1,0.154,0.147,0.231c-0.021-1.544,0.041-3.089,0.19-4.623
		c0.508-5.197,1.954-10.286,4.063-15.063c1.392-3.152,3.07-6.178,5.01-9.027c-0.187-1.798-0.014-3.632,0.504-5.365
		c0.854-2.862,2.605-5.354,4.337-7.787c1.002-1.402,2.024-2.845,2.48-4.507c0.426-1.557,0.328-3.196,0.39-4.808
		c0.021-0.585,0.068-1.169,0.165-1.745c-0.358-0.322-0.739-0.618-1.148-0.874c-0.212-0.133-0.432-0.255-0.634-0.403
		c-0.202-0.149-0.39-0.322-0.519-0.537c-0.059-0.1-0.102-0.207-0.132-0.319c-0.012-0.025-0.023-0.05-0.034-0.075
		C155.609,142.345,155.601,142.303,155.593,142.257z M139.417,196.975c0.1,0.17,0.208,0.333,0.319,0.492
		C139.625,197.308,139.517,197.145,139.417,196.975z M139.836,197.604c0.082,0.111,0.165,0.223,0.252,0.331
		C140.001,197.826,139.918,197.715,139.836,197.604z M134.276,197.8c-0.015,0-0.029,0.001-0.044,0.003
		c0.092-0.003,0.185-0.003,0.277,0C134.432,197.801,134.355,197.8,134.276,197.8L134.276,197.8z M134.211,197.803
		c-0.103,0.004-0.205,0.01-0.308,0.021C134.006,197.813,134.109,197.807,134.211,197.803z M134.564,197.804
		c0.093,0.006,0.188,0.012,0.279,0.022C134.752,197.815,134.657,197.81,134.564,197.804z M134.888,197.832
		c0.108,0.01,0.214,0.027,0.322,0.047C135.103,197.859,134.996,197.842,134.888,197.832z M140.208,198.084
		c0.098,0.117,0.197,0.232,0.3,0.35C140.405,198.316,140.306,198.201,140.208,198.084z M140.581,198.519
		c0.135,0.146,0.272,0.292,0.413,0.436C140.854,198.811,140.716,198.664,140.581,198.519z"/>
	<path id="path5917_1_" style="fill:none;stroke:#FFFFFF;stroke-miterlimit:10;" d="M193.71,207.283
		c0.009,0.196,0.018,0.393,0.026,0.589C193.728,207.676,193.719,207.479,193.71,207.283z"/>
	<path id="path5915_1_" style="fill:none;stroke:#FFFFFF;stroke-miterlimit:10;" d="M193.772,208.74
		c0.009,0.237,0.018,0.475,0.025,0.709C193.79,209.215,193.781,208.978,193.772,208.74z"/>
	<path id="path6289_1_" style="fill:none;stroke:#FFFFFF;stroke-miterlimit:10;" d="M185.092,132.048
		c-0.062,0.395-0.145,0.787-0.252,1.17C184.947,132.834,185.03,132.443,185.092,132.048z"/>
	<path id="path6287_1_" style="fill:none;stroke:#FFFFFF;stroke-miterlimit:10;" d="M184.801,133.354
		c-0.043,0.143-0.09,0.285-0.14,0.425C184.711,133.639,184.758,133.497,184.801,133.354z"/>
	<path id="path6285_1_" style="fill:none;stroke:#FFFFFF;stroke-miterlimit:10;" d="M184.611,133.923
		c-0.067,0.179-0.138,0.356-0.22,0.532C184.474,134.279,184.544,134.102,184.611,133.923z"/>
	<path id="path6283_1_" style="fill:none;stroke:#FFFFFF;stroke-miterlimit:10;" d="M183.85,136.94
		c0.087,0.05,0.169,0.104,0.246,0.164C184.019,137.047,183.937,136.99,183.85,136.94z"/>
	<path id="path6281_1_" style="fill:none;stroke:#FFFFFF;stroke-miterlimit:10;" d="M184.162,137.154
		c0.019,0.015,0.038,0.029,0.056,0.045C184.2,137.183,184.181,137.168,184.162,137.154z"/>
	<path id="path6279_1_" style="fill:none;stroke:#FFFFFF;stroke-miterlimit:10;" d="M184.31,137.286
		c0.017,0.013,0.031,0.028,0.046,0.042C184.341,137.313,184.326,137.299,184.31,137.286z"/>
	<path id="path6277_1_" style="fill:none;stroke:#FFFFFF;stroke-miterlimit:10;" d="M196.763,140.855
		c-4.749,2.623-6.899,4.23-7.777,13.272c0.193,0.395,0.384,0.788,0.568,1.189c1.579,3.434,2.665,7.093,3.216,10.831
		c2.068,2.138,3.792,4.604,5.086,7.279c3.759,7.77,3.725,16.822,2.702,25.395c-0.032,0.267-0.048,0.396-0.065,0.542
		c-0.031,0.253-0.062,0.476-0.128,0.935c0.463,0.246,0.908,0.458,1.344,0.65c-0.439,1.348-0.573,2.786-0.462,4.189
		c0.104,1.293,0.428,2.651,1.313,3.666c0.717,0.823,1.713,1.323,2.725,1.622c1.743,0.516,3.638,0.489,5.363-0.075l0,0h0.001
		c2.823-0.947,5.319-2.825,7.01-5.273c0.557-0.807,1.041-1.697,1.264-2.682c0.032-0.141,0.058-0.286,0.076-0.433
		c0.893-1.539,1.502-3.258,1.83-5.01c0.619-3.296,0.335-6.704-0.24-10.012c-0.785-4.506-2.106-8.915-3.788-13.171
		c-1.236-3.13-2.686-6.209-4.707-8.9c-1.979-2.635-4.472-4.852-6.41-7.516c-1.022-1.402-1.891-2.929-2.954-4.292
		c0-0.002,0-0.002,0-0.002c-0.431-0.888-0.855-1.778-1.268-2.676c-1.278-2.785-2.441-5.636-3.955-8.302
		C197.267,141.67,197.018,141.261,196.763,140.855L196.763,140.855z M197.079,167.036c1.073,0.617,2.184,1.172,3.279,1.75
		c4.203,1.967,7.764,5.442,9.093,9.9c1.949,5.83,0.133,11.983-2.068,17.473c-0.034,0.035-0.069,0.085-0.104,0.141
		c0.146-0.009,0.295-0.02,0.444-0.02c0.689-0.01,1.384,0.079,2.066,0.196c1.051,0.179,2.091,0.419,3.138,0.615
		c0.181,0.032,0.362,0.066,0.544,0.1c-0.295-0.018-0.589-0.029-0.884-0.041c-0.106-0.001-0.215-0.003-0.323-0.006
		c-0.233-0.004-0.468-0.007-0.702-0.007c-0.082,0-0.164,0-0.246,0c-0.322,0.003-0.646,0.009-0.97,0.021
		c-0.727,0.027-1.453,0.079-2.178,0.146c-0.216,0.019-0.431,0.042-0.646,0.068c-0.215,0.028-0.431,0.059-0.642,0.096
		c-0.003,0-0.003-0.002-0.003,0c-0.001,0-0.003,0-0.003,0.003c-0.391,0.065-0.777,0.158-1.151,0.281l0,0
		c-0.2,0.07-0.399,0.145-0.593,0.235c-0.094,0.044-0.187,0.094-0.277,0.141c-0.273,0.149-0.533,0.318-0.792,0.492
		c-0.346,0.233-0.685,0.475-1.039,0.694c-0.133,0.081-0.271,0.158-0.41,0.234c-0.001,0-0.001,0.002-0.003,0.002
		c-0.016,0.007-0.035,0.016-0.05,0.023c0.368-0.67,0.834-1.288,1.397-1.802c0.635-0.582,1.395-1.031,2.217-1.273
		c1.805-5.046,3.404-10.266,2.603-15.454c-0.563-3.639-2.376-7.138-5.268-9.46c-1.752-1.41-3.889-2.385-5.684-3.877
		C197.565,167.493,197.32,167.268,197.079,167.036L197.079,167.036z"/>
	<path id="path6275_1_" style="fill:none;stroke:#FFFFFF;stroke-miterlimit:10;" d="M186.352,148.848
		c0.037,0.083,0.076,0.167,0.114,0.248C186.428,149.015,186.389,148.931,186.352,148.848z"/>
	<path id="path6273_1_" style="fill:none;stroke:#FFFFFF;stroke-miterlimit:10;" d="M186.735,149.667
		c0.207,0.433,0.421,0.862,0.636,1.287C187.157,150.529,186.942,150.1,186.735,149.667z"/>
	<path id="path6269_1_" style="fill:none;stroke:#FFFFFF;stroke-miterlimit:10;" d="M205.553,202.204
		c0.082,0.026,0.166,0.053,0.248,0.075C205.719,202.257,205.635,202.23,205.553,202.204z"/>
	<path id="path6267_1_" style="fill:none;stroke:#FFFFFF;stroke-miterlimit:10;" d="M206.498,202.482
		c0.185,0.05,0.37,0.096,0.555,0.141C206.868,202.578,206.683,202.532,206.498,202.482z"/>
	<path id="path6265_1_" style="fill:none;stroke:#FFFFFF;stroke-miterlimit:10;" d="M207.29,202.675
		c0.113,0.024,0.226,0.048,0.339,0.07C207.516,202.723,207.403,202.699,207.29,202.675z"/>
	<path id="path6263_1_" style="fill:none;stroke:#FFFFFF;stroke-miterlimit:10;" d="M207.919,202.798
		c0.076,0.015,0.152,0.027,0.229,0.039C208.071,202.825,207.995,202.813,207.919,202.798z"/>
	<path id="path5923_1_" style="fill:none;stroke:#FFFFFF;stroke-miterlimit:10;" d="M208.54,202.895
		c0.032,0.006,0.063,0.009,0.095,0.012C208.603,202.903,208.572,202.9,208.54,202.895z"/>
	<path id="path5913_1_" style="fill:none;stroke:#FFFFFF;stroke-miterlimit:10;" d="M193.81,213.615
		c-0.011,0.375-0.023,0.747-0.037,1.124C193.786,214.362,193.799,213.99,193.81,213.615z"/>
	<path id="path29670-2_1_" style="fill:none;stroke:#FFFFFF;stroke-miterlimit:10;" d="M193.761,214.986
		c-0.018,0.381-0.035,0.758-0.059,1.137C193.726,215.744,193.743,215.367,193.761,214.986z"/>
	<path id="path28712-2_1_" style="fill:none;stroke:#FFFFFF;stroke-miterlimit:10;" d="M172.761,100.501
		c-3.445-0.037-6.93,0.66-9.964,2.294c-3.224,1.738-5.863,4.518-7.491,7.798c-1.626,3.278-2.238,6.978-2.361,10.638
		c-0.121,3.59,0.21,7.18,0.345,10.771c0.139,3.737,0.064,7.48,0.373,11.207c0.1,1.2,0.239,2.4,0.234,3.605
		c-0.004,1.315-0.177,2.658,0.152,3.935c0.22,0.848,0.661,1.635,1.238,2.294c0.285,0.328,0.604,0.622,0.946,0.886
		c0.551-0.874,1.028-1.787,1.301-2.781c0.426-1.557,0.328-3.196,0.39-4.808c0.021-0.585,0.068-1.169,0.165-1.745
		c-0.358-0.322-0.739-0.618-1.148-0.874c-0.212-0.133-0.432-0.255-0.634-0.403c-0.202-0.149-0.39-0.322-0.519-0.537
		c-0.059-0.1-0.102-0.207-0.132-0.319c-0.012-0.025-0.023-0.05-0.034-0.075c-0.029-0.089-0.041-0.185-0.041-0.278
		c-0.001-0.191,0.044-0.377,0.082-0.564c0.052-0.245,0.091-0.497,0.137-0.745c0.045-0.25,0.101-0.498,0.18-0.737
		c0.207-0.608,0.574-1.15,0.981-1.649c0.102-0.123,0.204-0.244,0.31-0.361c0.032-0.037,0.064-0.07,0.095-0.106
		c0.076-0.083,0.152-0.164,0.23-0.247c0.036-0.037,0.073-0.075,0.111-0.113c0.083-0.084,0.17-0.167,0.258-0.249
		c0.026-0.026,0.053-0.051,0.08-0.076c0.116-0.108,0.233-0.215,0.354-0.318c-0.105-0.089-0.207-0.18-0.302-0.281
		c-0.544-0.552-0.951-1.233-1.242-1.949c-0.579-1.441-0.693-3.02-0.805-4.568c-0.124-1.71-0.246-3.475,0.298-5.1
		c0.271-0.813,0.712-1.579,1.339-2.164c0.625-0.585,1.444-0.98,2.301-1.027c0.642-0.035,1.288,0.125,1.865,0.409
		c0.577,0.287,1.088,0.691,1.536,1.154c0.926,0.951,1.591,2.142,2.006,3.403c0.416,1.264,0.589,2.597,0.609,3.927
		c0.004,0.403-0.011,0.809-0.04,1.212h0.003c0.091-0.025,0.185-0.047,0.277-0.069c0.152-0.038,0.305-0.076,0.46-0.109
		c0.203-0.043,0.408-0.083,0.615-0.116c0.016-0.001,0.032-0.004,0.05-0.007c0.22-0.033,0.439-0.06,0.66-0.08
		c0.012,0,0.023,0,0.035-0.002c0.444-0.038,0.888-0.047,1.332-0.025c0.024,0.001,0.05,0.001,0.074,0.003
		c0.207,0.012,0.412,0.031,0.617,0.055c0.056,0.006,0.111,0.015,0.167,0.023c0.05,0.006,0.1,0.013,0.149,0.022
		c0.079,0.012,0.156,0.028,0.234,0.041c0.047,0.011,0.092,0.017,0.141,0.027c0.085,0.019,0.17,0.037,0.253,0.059
		c0.037,0.007,0.073,0.015,0.11,0.024c0.121,0.03,0.243,0.065,0.366,0.102c0.388,0.118,0.766,0.269,1.138,0.433
		c0.003,0,0.008,0.003,0.012,0.004c-0.104-0.249-0.199-0.502-0.287-0.757c-0.665-1.931-0.93-4.083-0.24-6.007
		c0.548-1.526,1.667-2.805,3.005-3.724c0.414-0.286,0.854-0.538,1.321-0.721c0.823-0.319,1.729-0.411,2.603-0.29
		c0.875,0.12,1.716,0.449,2.455,0.93c1.484,0.958,2.533,2.498,3.113,4.167c0.533,1.534,0.691,3.183,0.601,4.807
		c-0.072,1.272-0.301,2.551-0.837,3.709c-0.366,0.79-0.886,1.518-1.539,2.09c0,0,0.003,0,0.004,0
		c0.11,0.032,0.219,0.067,0.327,0.103c0.124,0.044,0.247,0.091,0.367,0.144c0.102,0.045,0.201,0.093,0.299,0.149l0,0
		c0.242,0.14,0.465,0.313,0.629,0.532l0,0c0.032,0.044,0.063,0.09,0.091,0.138c0.023,0.04,0.044,0.079,0.062,0.122
		c0.001,0,0.001,0,0.001,0.002c0.02,0.042,0.034,0.082,0.049,0.124c0.006,0.007,0.009,0.01,0.013,0.018
		c0.217,0.28,0.349,0.621,0.407,0.97c0.062,0.351,0.055,0.71,0.012,1.062c-0.083,0.706-0.305,1.388-0.396,2.093
		c-0.069,0.542-0.066,1.113-0.305,1.608c-0.062,0.123-0.137,0.239-0.223,0.349c0.173,0.296,0.334,0.603,0.48,0.911
		c0.481,1.011,0.859,2.068,1.295,3.1c0.889,2.109,2.01,4.109,3.021,6.161c4.476-0.072,7.672-1.691,7.938-6.384
		c0.264-4.848-0.513-9.688-0.759-14.536c-0.263-5.12,0.056-10.338-1.286-15.283c-0.655-2.411-1.698-4.713-3.04-6.82
		c-1.573-2.471-3.569-4.683-5.939-6.401C182.117,101.964,177.433,100.552,172.761,100.501z M180.699,117.685
		c0.524,0.022,1.031,0.139,1.568,0.497c1.496,0.992,2.221,2.127,2.782,3.511c0.152,0.379,0.3,1.022,0.12,1.222
		c-0.77-1.559-1.865-2.96-3.308-3.918c-0.746-0.496-1.582-0.856-2.457-1.044c0.14-0.291,0.495-0.248,0.764-0.26
		C180.349,117.683,180.526,117.678,180.699,117.685z M160.292,118.791c0.62,0.01,1.238,0.16,1.795,0.399
		c0.636,0.277,1.286,0.686,1.857,1.11c0.232,0.174,0.475,0.353,0.627,0.583c0.473,0.704,0.704,1.509,0.829,2.342
		c-0.506-1.08-1.254-2.099-2.261-2.925c-0.542-0.444-1.148-0.833-1.784-1.11c-0.467-0.201-0.981-0.334-1.498-0.378
		c0.057-0.007,0.114-0.007,0.171-0.011C160.118,118.796,160.204,118.788,160.292,118.791z"/>
	<path id="path8633_1_" style="fill:none;stroke:#FFFFFF;stroke-miterlimit:10;" d="M143.51,206.232
		c1.478,2.265,1.63,2.381,2.869,4.391c0.485,0.788,0.6,0.977,0.852,1.4c1.588,2.661,3.048,5.411,4.884,7.908
		c1.199,1.631,2.552,3.143,3.756,4.77c1.204,1.625,2.271,3.39,2.807,5.341c0.694,2.537,0.425,5.331-0.781,7.667
		c-0.851,1.644-2.153,3.053-3.736,4.01c-1.585,0.952-3.447,1.448-5.294,1.378c-2.938-0.109-5.624-1.58-8.355-2.667
		c-5.566-2.217-11.611-2.912-17.348-4.638c-1.764-0.53-3.499-1.159-5.273-1.648c-0.79-0.215-1.589-0.405-2.335-0.744
		c-0.745-0.34-1.441-0.841-1.856-1.545c-0.321-0.545-0.457-1.189-0.447-1.821c0.009-0.633,0.156-1.257,0.371-1.852
		c0.431-1.188,1.126-2.265,1.597-3.44c0.766-1.916,0.905-4.028,0.8-6.093c-0.103-2.061-0.437-4.105-0.578-6.167
		c-0.063-0.918-0.087-1.852,0.088-2.755c0.174-0.907,0.565-1.792,1.23-2.431c0.612-0.59,1.424-0.94,2.256-1.113
		c0.832-0.176,1.69-0.183,2.54-0.162c0.85,0.019,1.702,0.064,2.549-0.005c0.847-0.07,1.698-0.261,2.436-0.684
		c0.702-0.398,1.276-0.996,1.75-1.649c0.475-0.655,0.861-1.368,1.254-2.073c0.394-0.706,0.802-1.409,1.318-2.031
		c0.516-0.621,1.148-1.165,1.895-1.473c0.769-0.319,1.634-0.379,2.452-0.227c0.818,0.149,1.591,0.504,2.279,0.971
		c1.377,0.935,2.397,2.297,3.374,3.644c0.898,1.237,1.782,2.482,2.646,3.744C143.509,206.235,143.51,206.234,143.51,206.232
		 M138.021,198.29c-3.127-1.691-6.236-2.452-8.754,0.415c-0.681,0.813-1.145,1.685-1.572,2.485
		c-0.851,1.603-1.611,2.735-2.113,2.953c-0.832,0.359-2.519,0.434-4.397,0.523c-1.878,0.088-4.087,0.199-5.911,1.718
		c-1.062,0.882-1.824,2.039-2.096,3.284c-0.273,1.242-0.132,2.442,0.111,3.717c0.713,3.736,1.531,7.785-0.059,10.995
		c-0.563,1.138-1.319,2.42-1.805,3.892c-0.485,1.477-0.65,3.372,0.352,5.035c0.685,1.132,1.649,1.967,2.614,2.364
		c0.964,0.396,1.735,0.484,2.713,0.768c1.231,0.357,4.039,1.251,5.276,1.63c6.098,1.878,11.641,2.829,17.455,4.62
		c1.074,0.333,2.457,1.042,3.982,1.685c1.525,0.642,3.256,1.259,5.201,1.045c3.998-0.441,8.346-2.622,10.528-6.292
		c1.712-2.881,1.85-6.094,0.982-9.142c-1.24-4.374-5.071-7.842-6.832-10.584C150.274,211.657,144.661,202.848,138.021,198.29z"/>
	<path id="path3732_1_" style="fill:none;stroke:#FFFFFF;stroke-miterlimit:10;" d="M222.446,207.934
		c-0.007-0.068-0.016-0.136-0.022-0.203l0.045,0.638C222.461,208.226,222.453,208.083,222.446,207.934z M222.559,209.531
		l-0.067-0.817c0.015,0.276,0.03,0.547,0.06,0.824c0.008,0.067,0.016,0.135,0.023,0.202L222.559,209.531z M223.661,204.716
		c-0.271-0.689-0.659-1.448-1.327-2.115c-0.87-0.877-1.897-1.305-2.783-1.574c-0.015-0.009-0.037-0.009-0.052-0.016
		c-0.848-0.263-1.756-0.436-2.693-0.458c-2.339-0.052-4.199,0.683-5.699,0.855c-1.388,0.165-2.873-0.007-4.343-0.397
		c-0.877-0.24-1.845-0.585-2.947-0.87c-0.563-0.15-1.117-0.263-1.665-0.359c-0.03-0.016-0.06-0.016-0.083-0.016h-0.007
		c-0.54-0.104-1.073-0.188-1.59-0.263c-0.563-0.075-1.11-0.149-1.644-0.225c-0.576-0.09-1.274-0.21-2.076-0.203
		c-0.121,0-0.233,0-0.354,0.008c-0.989,0.053-2.107,0.33-3.06,1.147c-0.825,0.705-1.261,1.613-1.485,2.475
		c-0.015,0.046-0.029,0.091-0.037,0.144c-0.037,0.157-0.067,0.314-0.09,0.479c-0.158,1.021-0.075,1.905-0.023,2.625
		c0.293,4.305,0.309,8.603-0.149,12.825c-0.248,2.325-0.652,4.672-1.072,7.035c-0.518,2.85-1.095,5.843-1.088,8.992
		c0,0.353,0.016,0.712,0.037,1.087c0.743-0.375,1.479-0.757,2.213-1.162v-0.172c-0.007-2.918,0.54-5.813,1.05-8.686
		c0.42-2.393,0.825-4.784,1.08-7.2c0.473-4.387,0.473-8.819,0.157-13.223c-0.007-0.067-0.007-0.142-0.015-0.217
		c-0.007-0.143-0.022-0.285-0.029-0.428c-0.016-0.285-0.023-0.577-0.016-0.855c0-0.09,0.008-0.164,0.008-0.247
		c0.008-0.157,0.022-0.308,0.045-0.465c0.022-0.135,0.053-0.27,0.082-0.405c0.008-0.03,0.016-0.052,0.023-0.082
		c0.015-0.046,0.029-0.09,0.045-0.136c0.007-0.03,0.015-0.052,0.022-0.082c0.021-0.053,0.044-0.112,0.067-0.173
		c0,0,0-0.007,0.007-0.015c0.113-0.277,0.263-0.532,0.45-0.757v-0.009c0.082-0.097,0.173-0.194,0.27-0.284
		c0.525-0.442,1.216-0.638,1.898-0.675c0.172-0.016,0.345-0.016,0.51-0.008c0.51,0.022,1.02,0.097,1.529,0.173
		c0.938,0.135,1.875,0.255,2.806,0.419c0.652,0.105,1.306,0.24,1.942,0.405c0.982,0.263,1.942,0.608,2.926,0.87
		c0.262,0.075,0.524,0.135,0.794,0.195c0.263,0.06,0.525,0.105,0.796,0.149c1.14,0.195,2.295,0.248,3.442,0.113
		c1.808-0.21,3.569-0.893,5.392-0.848c0.676,0.022,1.343,0.135,1.988,0.33c0.074,0.015,0.142,0.037,0.217,0.06
		c0.728,0.225,1.44,0.556,1.98,1.103c0.404,0.413,0.689,0.93,0.9,1.47c0.322,0.811,0.487,1.666,0.563,2.527
		c0.007,0.067,0.007,0.144,0.015,0.211c0.038,0.524,0.045,1.05,0.104,1.574c0.556-0.651,1.096-1.313,1.621-1.979
		C224.217,206.508,224.014,205.601,223.661,204.716z M222.551,209.538l0.008-0.007l-0.067-0.817
		C222.506,208.99,222.521,209.261,222.551,209.538z M222.424,207.73l0.045,0.638c-0.008-0.143-0.016-0.285-0.022-0.435
		C222.439,207.865,222.431,207.798,222.424,207.73z M222.446,207.934c-0.007-0.068-0.016-0.136-0.022-0.203l0.045,0.638
		C222.461,208.226,222.453,208.083,222.446,207.934z M222.559,209.531l-0.067-0.817c0.015,0.276,0.03,0.547,0.06,0.824
		c0.008,0.067,0.016,0.135,0.023,0.202L222.559,209.531z M222.446,207.934c-0.007-0.068-0.016-0.136-0.022-0.203l0.045,0.638
		C222.461,208.226,222.453,208.083,222.446,207.934z M222.559,209.531l-0.067-0.817c0.015,0.276,0.03,0.547,0.06,0.824
		c0.008,0.067,0.016,0.135,0.023,0.202L222.559,209.531z"/>
	<path id="path28849-2_1_" style="fill:none;stroke:#FFFFFF;stroke-miterlimit:10;" d="M166.256,130.043
		c-0.624,0.75-1.109,1.604-1.684,2.394c3.258-1.346,4.813-1.752,8.994,0.337c-0.417-0.53-0.651-1.181-0.943-1.791
		c-0.306-0.641-0.691-1.257-1.21-1.742C169.654,127.675,167.615,128.42,166.256,130.043L166.256,130.043z"/>
	<path id="path14967-1-0_1_" style="fill:none;stroke:#FFFFFF;stroke-miterlimit:10;" d="M152.425,151.679
		c-1.338,1.672-2.674,3.34-4.005,5.016c-1.374,1.726-2.744,3.45-4.128,5.168c-1.698,2.104-3.436,4.226-4.541,6.694
		c-0.95,2.122-1.399,4.426-2.051,6.656c-0.738,2.534-1.742,4.983-2.869,7.37c-1.04,2.204-2.187,4.356-3.335,6.507
		c-0.835,1.563-1.685,3.162-1.974,4.91c-0.229,1.383-0.096,2.811,0.256,4.167c2.855-0.75,4.32-1.923,8.116,0.141
		c5.363,4.28,12.855,14.902,14.22,21.624c0.149,0.202,0.299,0.401,0.452,0.6c0.541,0.135,1.093,0.221,1.652,0.229
		c0.735,0.015,1.479-0.108,2.15-0.402c0.674-0.295,1.274-0.771,1.675-1.388c0.492-0.759,0.659-1.7,0.56-2.602
		c-0.099-0.896-0.45-1.753-0.919-2.525c-1.149-1.884-2.963-3.249-4.709-4.6c-3.77-2.919-7.413-6-10.901-9.246
		c-0.984-0.918-1.97-1.866-2.657-3.023c-0.671-1.125-1.032-2.408-1.277-3.695c-0.673-3.532-0.501-7.25,0.701-10.637
		c0.471-1.327,1.092-2.593,1.69-3.867c1.04-2.204,2.022-4.451,3.388-6.472C150.331,165.055,150.469,160.295,152.425,151.679z"/>
	<path id="path8561_1_" style="fill:none;stroke:#FFFFFF;stroke-miterlimit:10;" d="M178.57,125.883
		c-0.118-0.005-0.235-0.005-0.354,0.003c-0.502,0.035-0.991,0.208-1.418,0.477c-0.428,0.267-0.789,0.631-1.075,1.046
		c-0.569,0.83-0.821,1.849-0.861,2.855c-0.03,0.755,0.053,1.522,0.304,2.234c0.226,0.645,0.593,1.244,1.091,1.709
		c0.806,0.22,1.526,0.472,2.089,0.957c0.067,0.007,0.135,0.016,0.202,0.019c0.773,0.037,1.556-0.186,2.191-0.629
		c0.509-0.353,0.914-0.836,1.206-1.381c0.291-0.544,0.466-1.147,0.545-1.757c0.142-1.078-0.02-2.208-0.518-3.176
		c-0.498-0.968-1.346-1.765-2.367-2.14C179.273,125.978,178.924,125.901,178.57,125.883L178.57,125.883z M179.065,127.088
		c0.075-0.003,0.149,0.001,0.216,0.01c0.578,0.073,1.157,0.465,1.513,0.99c0.393,0.579,0.799,1.466,0.507,2.117
		c-0.074,0.167-0.306,0.264-0.458,0.199c-0.489-0.208-0.395-1.129-0.741-1.574c-0.184-0.231-0.436-0.382-0.676-0.528
		c-0.246-0.153-0.595-0.12-0.782-0.36c-0.114-0.145-0.218-0.399-0.133-0.573C178.607,127.168,178.842,127.097,179.065,127.088z"/>
	<path id="path8579_1_" style="fill:none;stroke:#FFFFFF;stroke-miterlimit:10;" d="M160.033,126.317
		c-0.225,0.017-0.444,0.07-0.649,0.163c-0.451,0.206-0.801,0.597-1.031,1.038c-0.229,0.44-0.347,0.933-0.429,1.421
		c-0.181,1.082-0.185,2.214,0.186,3.242c0.245,0.682,0.649,1.297,1.14,1.827c0.321,0.346,0.688,0.662,1.113,0.867
		c0.835-0.35,2.018-1.714,3.087-1.916c0.314-1.175,0.246-2.438-0.114-3.601c-0.275-0.897-0.735-1.761-1.455-2.367
		c-0.343-0.289-0.744-0.515-1.179-0.618C160.482,126.32,160.257,126.3,160.033,126.317L160.033,126.317z M161.026,127.451
		c0.162-0.003,0.344,0.063,0.48,0.136c0.478,0.252,0.864,0.758,1.021,1.29c0.173,0.584,0.27,1.419-0.167,1.832
		c-0.111,0.104-0.338,0.103-0.452,0c-0.36-0.331-0.017-1.019-0.19-1.486c-0.09-0.242-0.261-0.446-0.427-0.644
		c-0.17-0.201-0.479-0.294-0.571-0.543c-0.057-0.157-0.074-0.389,0.047-0.495C160.837,127.476,160.93,127.452,161.026,127.451
		L161.026,127.451z"/>
	<path id="path8549_1_" style="fill:none;stroke:#FFFFFF;stroke-miterlimit:10;" d="M165.154,131.475
		c-2.267,0.788-4.313,2.187-5.87,4.009c-0.867,0.717-1.7,1.475-2.493,2.274c-1.078,1.441-1.873,3.965-1.188,4.101
		c0.018-0.107,0.038-0.209,0.06-0.316c0.102-0.495,0.157-1.001,0.316-1.481c0.207-0.608,0.574-1.15,0.981-1.649
		c0.711-0.873,1.55-1.639,2.483-2.266c1.533-1.802,3.554-3.184,5.787-3.959c2.013-0.699,4.239-0.899,6.277-0.284
		c0.911,0.276,1.767,0.71,2.605,1.159c0.816,0.439,1.623,0.894,2.452,1.306c1.67,0.827,3.43,1.474,5.24,1.91
		c0.59,0.144,1.19,0.267,1.744,0.513c0.404,0.179,0.793,0.437,1.019,0.819c0.18,0.447,0.366,0.633,0.419,0.148
		c-0.047-0.807-0.688-1.376-1.339-1.671c-0.588-0.259-1.201-0.382-1.784-0.524c-1.795-0.434-3.538-1.074-5.191-1.893
		c-0.822-0.409-1.628-0.864-2.446-1.303c-0.843-0.452-1.713-0.892-2.65-1.176C169.414,130.61,167.085,130.817,165.154,131.475
		L165.154,131.475z"/>
	<path id="path8535_1_" style="fill:none;stroke:#FFFFFF;stroke-miterlimit:10;" d="M185.142,139.496
		c-0.004,0.136-0.015,0.274-0.029,0.41c-0.083,0.706-0.305,1.388-0.398,2.093c-0.067,0.542-0.064,1.113-0.303,1.608
		c-0.249,0.513-0.734,0.874-1.25,1.116c-0.517,0.243-1.073,0.387-1.608,0.584c-2.449,0.906-4.308,2.914-6.533,4.283
		c-1.169,0.722-2.444,1.267-3.763,1.655c-1.423,0.419-2.917,0.657-4.392,0.509c-1.257-0.126-2.493-0.539-3.527-1.266
		c-1.465-1.025-2.435-2.595-3.53-4.009c-0.817-1.053-1.737-2.05-2.867-2.76c-0.212-0.133-0.432-0.255-0.634-0.403
		c-0.202-0.149-0.39-0.322-0.519-0.537c-0.059-0.1-0.102-0.207-0.132-0.319c-0.012-0.025-0.023-0.05-0.034-0.075
		c-0.029-0.089-0.041-0.185-0.041-0.278c0-0.015,0.003-0.029,0.003-0.042c-0.803,0.386-0.774,1.735-0.396,2.127
		c1.521,0.938,2.9,2.104,4.076,3.449c1.084,1.236,2.089,2.771,3.677,3.819c1.166,0.769,2.517,1.161,3.86,1.281
		c1.586,0.142,3.158-0.091,4.642-0.49c1.362-0.367,2.695-0.885,3.935-1.594c2.334-1.337,4.186-3.182,6.396-3.886
		c0.485-0.153,1.063-0.269,1.666-0.525c0.302-0.126,0.61-0.292,0.896-0.524c0.284-0.229,0.543-0.522,0.722-0.885
		C185.076,143.741,186.885,139.729,185.142,139.496L185.142,139.496z"/>
	<path id="path8591_1_" style="fill:none;stroke:#FFFFFF;stroke-miterlimit:10;" d="M181.962,139.061
		c-0.225-0.004-0.447,0.023-0.659,0.089c-0.28,0.089-0.53,0.252-0.756,0.439c-0.229,0.188-0.433,0.397-0.644,0.605
		c-0.622,0.599-1.305,1.132-1.998,1.65c-1.527,1.139-3.123,2.214-4.894,2.911c-1.157,0.457-2.372,0.747-3.591,0.989
		c-1.535,0.306-3.095,0.543-4.658,0.481c-1.563-0.06-3.139-0.432-4.462-1.266c-0.598-0.379-1.137-0.845-1.72-1.247
		s-1.23-0.743-1.934-0.824c-0.156-0.016-0.314-0.023-0.469-0.053c-0.05-0.01-0.1-0.027-0.149-0.044
		c-0.018,0.114-0.009,0.233,0.028,0.343c0.221,0.592,0.709,0.814,1.305,0.941c0.387,0.09,0.79,0.354,1.18,0.704
		c0.394,0.354,0.791,0.806,1.304,1.222c1.393,1.134,3.176,1.57,4.873,1.601c1.692,0.026,3.31-0.322,4.86-0.672
		c1.215-0.272,2.461-0.564,3.682-1.016c1.876-0.691,3.613-1.735,5.116-3.044c0.682-0.594,1.271-1.186,1.909-1.584
		c0.563-0.356,1.283-0.622,2.019-1.055c0.067-0.041,0.159-0.095,0.264-0.182c0.106-0.089,0.226-0.213,0.313-0.391
		c0.08-0.157,0.112-0.319,0.117-0.47c-0.123-0.021-0.245-0.044-0.368-0.063C182.411,139.09,182.185,139.063,181.962,139.061
		L181.962,139.061z"/>
	<path id="path8597_1_" style="fill:none;stroke:#FFFFFF;stroke-miterlimit:10;" d="M170.662,133.132
		c-0.207,0.01-0.4,0.051-0.576,0.149c-0.106,0.059-0.226,0.204-0.188,0.322c0.111,0.357,0.687,0.299,1.021,0.472
		c0.293,0.15,0.529,0.48,0.858,0.491c0.315,0.007,0.811-0.114,0.85-0.425c0.056-0.413-0.548-0.671-0.935-0.825
		C171.381,133.198,171.008,133.111,170.662,133.132L170.662,133.132z M164.2,133.384c-0.42,0.057-0.938,0.681-0.735,1.021
		c0.063,0.107,0.257,0.242,0.387,0.169c0.198-0.107,0.362-0.498,0.577-0.65c0.143-0.1,0.11-0.474-0.057-0.529
		C164.317,133.376,164.262,133.376,164.2,133.384L164.2,133.384z"/>
	<path id="path6521_1_" style="fill:none;stroke:#FFFFFF;stroke-miterlimit:10;" d="M213.768,197.009l-2.143-0.688
		c-0.864-0.278-1.739-0.539-2.642-0.618c-0.903-0.081-1.823,0.016-2.684,0.299l0,0l-0.741,0.513"/>
	<path id="path6519_1_" style="fill:none;stroke:#FFFFFF;stroke-miterlimit:10;" d="M202.23,199.743
		c0.271-0.129,0.535-0.272,0.791-0.428c0.708-0.437,1.356-0.971,2.108-1.327c0.943-0.445,1.998-0.587,3.036-0.684
		c0.727-0.067,1.453-0.119,2.18-0.146c1.415-0.052,2.836-0.014,4.248,0.112l-0.826-0.262"/>
	<path id="path6517_1_" style="fill:none;stroke:#FFFFFF;stroke-miterlimit:10;" d="M203.476,197.958l-1.231,0.853l-0.19,1.017
		c0.06-0.026,0.118-0.053,0.177-0.084"/>
	<path id="path29714-3-9-3-8-1_1_" style="fill:none;stroke:#FFFFFF;stroke-miterlimit:10;" d="M205.559,196.514l-2.083,1.444"/>
	<path style="fill:#D6ECE5;" d="M242.745,172.582c-2.31,7.47-5.423,14.595-9.232,21.263h-39.202v-21.263H242.745z"/>
	<g>
		<rect x="88.013" y="87.54" style="fill:#59BEAF;" width="21.263" height="106.305"/>
		<rect x="119.903" y="172.582" style="fill:#59BEAF;" width="74.408" height="21.263"/>
	</g>
	<path style="opacity:0.6;fill:#E83818;" d="M233.509,193.849c-2.723,4.755-5.798,9.277-9.194,13.537
		c-0.525,0.667-1.065,1.328-1.621,1.979c-0.037,0.053-0.082,0.113-0.135,0.166l-0.008,0.007
		c-8.587,10.223-19.072,18.795-30.907,25.192c-0.734,0.405-1.47,0.787-2.213,1.162c-14.481,7.396-30.892,11.565-48.262,11.565
		c-11.108,0-21.825-1.702-31.89-4.859v-48.75H233.509z"/>
</g>
</svg>
