<?xml version="1.0" encoding="iso-8859-1"?>
<!-- Generator: Adobe Illustrator 16.0.0, SVG Export Plug-In . SVG Version: 6.00 Build 0)  -->
<!DOCTYPE svg PUBLIC "-//W3C//DTD SVG 1.1//EN" "http://www.w3.org/Graphics/SVG/1.1/DTD/svg11.dtd">
<svg version="1.1" id="&#x56FE;&#x5C42;_1" xmlns="http://www.w3.org/2000/svg" xmlns:xlink="http://www.w3.org/1999/xlink" x="0px"
	 y="0px" width="354.33px" height="354.33px" viewBox="0 0 354.33 354.33" style="enable-background:new 0 0 354.33 354.33;"
	 xml:space="preserve">
<linearGradient id="SVGID_1_" gradientUnits="userSpaceOnUse" x1="53.04" y1="219.9053" x2="301.2904" y2="134.4258">
	<stop  offset="0" style="stop-color:#49C0E5"/>
	<stop  offset="1" style="stop-color:#7A4999"/>
</linearGradient>
<path style="fill:url(#SVGID_1_);" d="M283.465,269.292c0,7.826-6.346,14.172-14.174,14.172H85.04
	c-7.828,0-14.173-6.346-14.173-14.172V85.04c0-7.828,6.346-14.174,14.173-14.174h184.251c7.828,0,14.174,6.346,14.174,14.174
	V269.292z"/>
<g>
	<path style="fill:none;stroke:#FFFFFF;stroke-miterlimit:10;" d="M134.646,245.197c0,1.565-1.27,2.834-2.835,2.834h-22.677
		c-1.565,0-2.834-1.269-2.834-2.834V109.134c0-1.565,1.269-2.834,2.834-2.834h22.677c1.565,0,2.835,1.269,2.835,2.834V245.197z"/>
	<path style="fill:none;stroke:#FFFFFF;stroke-miterlimit:10;" d="M248.032,245.196c0,1.565-1.27,2.835-2.835,2.835h-93.543
		c-1.565,0-2.835-1.27-2.835-2.835V222.52c0-1.565,1.27-2.835,2.835-2.835h93.543c1.565,0,2.835,1.27,2.835,2.835V245.196z"/>
</g>
</svg>
