<?xml version="1.0" encoding="iso-8859-1"?>
<!-- Generator: Adobe Illustrator 16.0.0, SVG Export Plug-In . SVG Version: 6.00 Build 0)  -->
<!DOCTYPE svg PUBLIC "-//W3C//DTD SVG 1.1//EN" "http://www.w3.org/Graphics/SVG/1.1/DTD/svg11.dtd">
<svg version="1.1" id="&#x56FE;&#x5C42;_1" xmlns="http://www.w3.org/2000/svg" xmlns:xlink="http://www.w3.org/1999/xlink" x="0px"
	 y="0px" width="354.33px" height="354.33px" viewBox="0 0 354.33 354.33" style="enable-background:new 0 0 354.33 354.33;"
	 xml:space="preserve">
<path style="opacity:0.6;fill:#EEBA1D;" d="M106.295,54.405v164.649h-64.57c-4.09-13.24-6.29-27.31-6.29-41.89
	C35.435,124.705,63.935,78.905,106.295,54.405z"/>
<path style="fill:#D6ECE5;" d="M106.295,219.055v28.351h-52.26c-5.08-8.891-9.23-18.391-12.31-28.351H106.295z"/>
<path style="fill:#D6ECE5;" d="M134.646,247.405v65c-9.97-3.131-19.46-7.33-28.351-12.471v-52.529H134.646z"/>
<path style="opacity:0.6;fill:#563C94;" d="M106.295,247.405v52.52c-21.72-12.56-39.8-30.729-52.26-52.52H106.295z"/>
<path style="opacity:0.6;fill:#20AEE0;" d="M318.896,177.165c0,14.58-2.2,28.649-6.29,41.89h-177.96V41.925
	c13.42-4.22,27.71-6.49,42.52-6.49C255.436,35.436,318.896,98.896,318.896,177.165z"/>
<path style="fill:#D6ECE5;" d="M134.646,41.925v63.74h-28.351v-51.26C115.186,49.255,124.676,45.055,134.646,41.925z"/>
<rect x="134.646" y="219.055" style="fill:#D6ECE5;" width="14.17" height="28.351"/>
<g>
	<path id="path5925_1_" style="fill:none;stroke:#FFFFFF;stroke-width:0.5;stroke-miterlimit:10;" d="M216.35,160.949
		c-1.102-0.01-2.201,0.045-3.299,0.169c-0.957,0.111-1.914,0.287-2.855,0.524c0.051,0.543,0.078,1.084,0.088,1.63
		c0.006,0.537-0.014,1.078-0.053,1.616c2.416-0.673,5.002-0.798,7.393-0.072c0.523,0.157,1.031,0.361,1.533,0.583
		c-0.139-0.332-0.266-0.669-0.383-1.01c-0.375-1.087-0.654-2.23-0.783-3.382C217.443,160.976,216.896,160.951,216.35,160.949
		L216.35,160.949z"/>
	<path id="path5921_1_" style="fill:none;stroke:#FFFFFF;stroke-width:0.5;stroke-miterlimit:10;" d="M199.057,170.346
		c-0.672,1.363-1.199,2.813-1.637,4.289c0.238-0.399,0.512-0.78,0.807-1.14c0.578-0.709,1.221-1.365,1.916-1.961
		c-0.141-0.119-0.275-0.24-0.402-0.375C199.49,170.907,199.264,170.634,199.057,170.346L199.057,170.346z"/>
	<path id="path6020_1_" style="fill:none;stroke:#FFFFFF;stroke-width:0.5;stroke-miterlimit:10;" d="M196.402,178.621
		c-0.664,2.928-1.268,5.875-2.387,8.653c-0.615,1.529-1.379,2.977-2.219,4.389c-2.42,6.26-8.207,18.083-10.584,26.482
		c-1.068,3.156-2.177,6.301-3.497,9.359c-0.804,1.861-1.688,3.689-2.368,5.604c-1.559,4.387-2.002,9.227-0.822,13.729
		c0.475,1.809,1.203,3.549,2.156,5.16c0.063,0.102,0.133,0.205,0.196,0.309c-0.028-2.059,0.054-4.119,0.253-6.164
		c0.678-6.93,2.606-13.715,5.418-20.084c1.855-4.203,4.094-8.236,6.68-12.036c-0.248-2.397-0.018-4.843,0.672-7.153
		c1.139-3.816,3.475-7.139,5.783-10.383c1.336-1.87,2.699-3.793,3.307-6.01c0.568-2.075,0.438-4.262,0.52-6.41
		c0.029-0.779,0.092-1.559,0.221-2.326c-0.479-0.43-0.986-0.824-1.531-1.166c-0.283-0.177-0.576-0.34-0.846-0.538
		s-0.52-0.43-0.691-0.716c-0.078-0.133-0.135-0.276-0.176-0.426c-0.016-0.033-0.031-0.066-0.045-0.1
		C196.424,178.739,196.412,178.683,196.402,178.621z M174.834,251.579c0.133,0.227,0.277,0.443,0.426,0.656
		C175.111,252.022,174.967,251.806,174.834,251.579z M175.393,252.417c0.109,0.148,0.221,0.297,0.336,0.441
		C175.613,252.714,175.502,252.565,175.393,252.417z M167.98,252.679c-0.02,0-0.039,0.002-0.06,0.004
		c0.123-0.004,0.246-0.004,0.369,0C168.188,252.681,168.085,252.679,167.98,252.679L167.98,252.679z M167.894,252.683
		c-0.138,0.006-0.273,0.014-0.41,0.027C167.62,252.696,167.758,252.688,167.894,252.683z M168.364,252.685
		c0.124,0.008,0.25,0.016,0.372,0.029C168.614,252.7,168.488,252.692,168.364,252.685z M168.796,252.722
		c0.144,0.014,0.286,0.037,0.429,0.063C169.082,252.759,168.939,252.735,168.796,252.722z M175.889,253.058
		c0.131,0.156,0.264,0.311,0.4,0.467C176.152,253.368,176.02,253.214,175.889,253.058z M176.387,253.638
		c0.18,0.193,0.363,0.389,0.551,0.58C176.75,254.026,176.566,253.831,176.387,253.638z"/>
	<path id="path5917_1_" style="fill:none;stroke:#FFFFFF;stroke-width:0.5;stroke-miterlimit:10;" d="M247.225,265.323
		c0.012,0.262,0.023,0.523,0.035,0.785C247.248,265.847,247.236,265.585,247.225,265.323z"/>
	<path id="path5915_1_" style="fill:none;stroke:#FFFFFF;stroke-width:0.5;stroke-miterlimit:10;" d="M247.309,267.267
		c0.012,0.316,0.023,0.633,0.033,0.945C247.332,267.899,247.32,267.583,247.309,267.267z"/>
	<path id="path6289_1_" style="fill:none;stroke:#FFFFFF;stroke-width:0.5;stroke-miterlimit:10;" d="M235.734,165.01
		c-0.082,0.526-0.193,1.049-0.336,1.561C235.541,166.059,235.652,165.536,235.734,165.01z"/>
	<path id="path6287_1_" style="fill:none;stroke:#FFFFFF;stroke-width:0.5;stroke-miterlimit:10;" d="M235.346,166.751
		c-0.057,0.19-0.119,0.38-0.186,0.567C235.227,167.131,235.289,166.941,235.346,166.751z"/>
	<path id="path6285_1_" style="fill:none;stroke:#FFFFFF;stroke-width:0.5;stroke-miterlimit:10;" d="M235.094,167.51
		c-0.09,0.238-0.184,0.475-0.293,0.709C234.91,167.984,235.004,167.748,235.094,167.51z"/>
	<path id="path6283_1_" style="fill:none;stroke:#FFFFFF;stroke-width:0.5;stroke-miterlimit:10;" d="M234.078,171.532
		c0.115,0.067,0.225,0.139,0.328,0.219C234.303,171.675,234.193,171.6,234.078,171.532z"/>
	<path id="path6281_1_" style="fill:none;stroke:#FFFFFF;stroke-width:0.5;stroke-miterlimit:10;" d="M234.494,171.817
		c0.025,0.02,0.051,0.039,0.074,0.061C234.545,171.856,234.52,171.837,234.494,171.817z"/>
	<path id="path6279_1_" style="fill:none;stroke:#FFFFFF;stroke-width:0.5;stroke-miterlimit:10;" d="M234.691,171.993
		c0.021,0.018,0.041,0.037,0.061,0.057C234.732,172.03,234.713,172.011,234.691,171.993z"/>
	<path id="path6277_1_" style="fill:none;stroke:#FFFFFF;stroke-width:0.5;stroke-miterlimit:10;" d="M251.295,176.753
		c-6.332,3.498-9.199,5.641-10.369,17.697c0.258,0.525,0.512,1.051,0.758,1.585c2.105,4.579,3.553,9.458,4.287,14.442
		c2.758,2.85,5.057,6.139,6.781,9.705c5.012,10.359,4.967,22.43,3.604,33.859c-0.043,0.355-0.064,0.529-0.088,0.723
		c-0.041,0.338-0.082,0.635-0.17,1.246c0.617,0.328,1.211,0.611,1.791,0.867c-0.586,1.797-0.764,3.715-0.615,5.586
		c0.139,1.725,0.57,3.535,1.75,4.889c0.955,1.098,2.283,1.764,3.633,2.162c2.324,0.688,4.85,0.652,7.15-0.1l0,0h0.002
		c3.764-1.264,7.092-3.768,9.346-7.031c0.742-1.076,1.389-2.264,1.686-3.576c0.043-0.188,0.076-0.381,0.102-0.576
		c1.189-2.053,2.002-4.344,2.439-6.68c0.826-4.395,0.447-8.939-0.32-13.35c-1.047-6.008-2.809-11.887-5.051-17.561
		c-1.648-4.174-3.58-8.279-6.275-11.867c-2.639-3.514-5.963-6.469-8.547-10.021c-1.363-1.869-2.521-3.904-3.939-5.723
		c0-0.002,0-0.002,0-0.002c-0.574-1.184-1.141-2.372-1.689-3.568c-1.705-3.714-3.256-7.514-5.273-11.069
		C251.967,177.839,251.635,177.294,251.295,176.753L251.295,176.753z M251.717,211.66c1.432,0.823,2.912,1.563,4.373,2.334
		c5.604,2.622,10.352,7.257,12.123,13.2c2.6,7.773,0.178,15.979-2.758,23.297c-0.045,0.047-0.092,0.113-0.139,0.188
		c0.195-0.012,0.393-0.025,0.592-0.025c0.92-0.014,1.846,0.105,2.756,0.262c1.4,0.238,2.787,0.559,4.184,0.82
		c0.24,0.043,0.482,0.088,0.725,0.133c-0.393-0.023-0.785-0.039-1.178-0.055c-0.143-0.002-0.287-0.004-0.432-0.008
		c-0.311-0.006-0.623-0.01-0.936-0.01c-0.109,0-0.219,0-0.328,0c-0.43,0.004-0.861,0.012-1.293,0.027
		c-0.969,0.037-1.938,0.105-2.904,0.195c-0.287,0.025-0.574,0.057-0.861,0.092c-0.287,0.037-0.574,0.078-0.855,0.127
		c-0.004,0-0.004-0.002-0.004,0c-0.002,0-0.004,0-0.004,0.004c-0.521,0.088-1.037,0.211-1.535,0.375l0,0
		c-0.268,0.094-0.533,0.193-0.791,0.314c-0.125,0.059-0.248,0.125-0.369,0.188c-0.365,0.199-0.711,0.424-1.057,0.656
		c-0.461,0.311-0.912,0.633-1.385,0.926c-0.178,0.107-0.361,0.211-0.547,0.313c-0.002,0-0.002,0.002-0.004,0.002
		c-0.021,0.01-0.047,0.021-0.066,0.031c0.49-0.893,1.111-1.717,1.863-2.402c0.846-0.775,1.859-1.375,2.955-1.697
		c2.406-6.729,4.539-13.688,3.471-20.605c-0.752-4.852-3.168-9.518-7.023-12.613c-2.336-1.881-5.186-3.18-7.578-5.17
		C252.365,212.271,252.039,211.97,251.717,211.66L251.717,211.66z"/>
	<path id="path6275_1_" style="fill:none;stroke:#FFFFFF;stroke-width:0.5;stroke-miterlimit:10;" d="M237.414,187.409
		c0.049,0.111,0.102,0.223,0.152,0.331C237.516,187.632,237.463,187.521,237.414,187.409z"/>
	<path id="path6273_1_" style="fill:none;stroke:#FFFFFF;stroke-width:0.5;stroke-miterlimit:10;" d="M237.926,188.502
		c0.275,0.577,0.561,1.149,0.848,1.716C238.488,189.651,238.201,189.079,237.926,188.502z"/>
	<path id="path6269_1_" style="fill:none;stroke:#FFFFFF;stroke-width:0.5;stroke-miterlimit:10;" d="M263.016,258.552
		c0.109,0.035,0.221,0.07,0.33,0.1C263.236,258.622,263.125,258.587,263.016,258.552z"/>
	<path id="path6267_1_" style="fill:none;stroke:#FFFFFF;stroke-width:0.5;stroke-miterlimit:10;" d="M264.275,258.923
		c0.246,0.066,0.494,0.127,0.74,0.188C264.77,259.05,264.521,258.989,264.275,258.923z"/>
	<path id="path6265_1_" style="fill:none;stroke:#FFFFFF;stroke-width:0.5;stroke-miterlimit:10;" d="M265.332,259.179
		c0.15,0.033,0.301,0.064,0.451,0.094C265.633,259.243,265.482,259.212,265.332,259.179z"/>
	<path id="path6263_1_" style="fill:none;stroke:#FFFFFF;stroke-width:0.5;stroke-miterlimit:10;" d="M266.17,259.343
		c0.102,0.02,0.203,0.037,0.307,0.053C266.373,259.38,266.271,259.362,266.17,259.343z"/>
	<path id="path5923_1_" style="fill:none;stroke:#FFFFFF;stroke-width:0.5;stroke-miterlimit:10;" d="M266.998,259.472
		c0.043,0.008,0.084,0.012,0.127,0.016C267.082,259.483,267.041,259.479,266.998,259.472z"/>
	<path id="path5913_1_" style="fill:none;stroke:#FFFFFF;stroke-width:0.5;stroke-miterlimit:10;" d="M247.357,273.767
		c-0.014,0.5-0.031,0.996-0.049,1.498C247.326,274.763,247.344,274.267,247.357,273.767z"/>
	<path id="path29670-2_1_" style="fill:none;stroke:#FFFFFF;stroke-width:0.5;stroke-miterlimit:10;" d="M247.293,275.595
		c-0.023,0.508-0.047,1.01-0.078,1.516C247.246,276.604,247.27,276.103,247.293,275.595z"/>
	<path id="path28712-2_1_" style="fill:none;stroke:#FFFFFF;stroke-width:0.5;stroke-miterlimit:10;" d="M219.293,122.948
		c-4.594-0.049-9.24,0.88-13.285,3.059c-4.299,2.317-7.818,6.023-9.988,10.397c-2.168,4.371-2.984,9.304-3.148,14.184
		c-0.162,4.787,0.279,9.573,0.459,14.362c0.186,4.982,0.086,9.974,0.498,14.942c0.133,1.6,0.318,3.2,0.313,4.807
		c-0.006,1.754-0.236,3.545,0.203,5.246c0.293,1.131,0.881,2.18,1.65,3.059c0.381,0.438,0.807,0.829,1.262,1.182
		c0.734-1.166,1.371-2.384,1.734-3.709c0.568-2.075,0.438-4.262,0.52-6.41c0.029-0.779,0.092-1.559,0.221-2.326
		c-0.479-0.43-0.986-0.824-1.531-1.166c-0.283-0.177-0.576-0.34-0.846-0.538s-0.52-0.43-0.691-0.716
		c-0.078-0.133-0.135-0.276-0.176-0.426c-0.016-0.033-0.031-0.066-0.045-0.1c-0.039-0.119-0.055-0.246-0.055-0.372
		c-0.002-0.255,0.059-0.503,0.109-0.752c0.068-0.327,0.121-0.663,0.182-0.993c0.061-0.334,0.135-0.664,0.24-0.982
		c0.275-0.811,0.766-1.533,1.309-2.199c0.135-0.163,0.271-0.325,0.412-0.481c0.043-0.05,0.086-0.094,0.127-0.142
		c0.102-0.11,0.203-0.219,0.307-0.329c0.049-0.05,0.098-0.101,0.148-0.151c0.111-0.112,0.227-0.223,0.344-0.332
		c0.035-0.035,0.07-0.068,0.107-0.102c0.154-0.145,0.311-0.287,0.471-0.424c-0.141-0.119-0.275-0.24-0.402-0.375
		c-0.725-0.736-1.268-1.644-1.656-2.599c-0.771-1.922-0.924-4.026-1.072-6.091c-0.166-2.28-0.328-4.633,0.396-6.8
		c0.361-1.085,0.949-2.105,1.785-2.885c0.834-0.78,1.926-1.308,3.068-1.37c0.855-0.047,1.717,0.167,2.486,0.546
		c0.77,0.382,1.451,0.922,2.049,1.538c1.234,1.268,2.121,2.855,2.674,4.538c0.555,1.685,0.785,3.462,0.813,5.235
		c0.006,0.537-0.014,1.078-0.053,1.616h0.004c0.121-0.034,0.246-0.063,0.369-0.093c0.203-0.051,0.406-0.102,0.613-0.146
		c0.271-0.058,0.545-0.111,0.82-0.154c0.021-0.002,0.043-0.006,0.066-0.01c0.293-0.044,0.586-0.08,0.881-0.106
		c0.016,0,0.031,0,0.047-0.003c0.592-0.051,1.184-0.063,1.775-0.034c0.033,0.002,0.066,0.002,0.1,0.004
		c0.275,0.016,0.549,0.042,0.822,0.073c0.074,0.008,0.148,0.02,0.223,0.031c0.066,0.008,0.133,0.018,0.199,0.029
		c0.105,0.016,0.209,0.037,0.313,0.054c0.063,0.015,0.123,0.022,0.188,0.036c0.113,0.024,0.227,0.049,0.338,0.078
		c0.049,0.01,0.098,0.02,0.146,0.032c0.162,0.04,0.324,0.087,0.488,0.136c0.518,0.157,1.021,0.358,1.518,0.577
		c0.004,0,0.01,0.004,0.016,0.006c-0.139-0.332-0.266-0.669-0.383-1.01c-0.887-2.574-1.24-5.444-0.32-8.01
		c0.73-2.034,2.223-3.74,4.006-4.965c0.553-0.381,1.139-0.717,1.762-0.961c1.098-0.425,2.307-0.548,3.471-0.386
		c1.166,0.16,2.287,0.599,3.273,1.239c1.979,1.278,3.377,3.331,4.15,5.556c0.711,2.045,0.922,4.243,0.801,6.409
		c-0.096,1.696-0.4,3.401-1.115,4.946c-0.488,1.053-1.182,2.023-2.053,2.786c0,0,0.004,0,0.006,0
		c0.146,0.043,0.291,0.09,0.436,0.137c0.166,0.059,0.33,0.121,0.49,0.191c0.135,0.061,0.268,0.124,0.398,0.199l0,0
		c0.322,0.187,0.619,0.417,0.838,0.709l0,0c0.043,0.059,0.084,0.12,0.121,0.184c0.031,0.053,0.059,0.105,0.082,0.162
		c0.002,0,0.002,0,0.002,0.003c0.025,0.056,0.045,0.109,0.064,0.165c0.008,0.01,0.012,0.014,0.018,0.023
		c0.289,0.373,0.465,0.828,0.543,1.294c0.082,0.468,0.072,0.946,0.016,1.415c-0.111,0.941-0.406,1.851-0.529,2.791
		c-0.092,0.724-0.088,1.483-0.406,2.145c-0.082,0.164-0.182,0.318-0.297,0.465c0.23,0.395,0.445,0.803,0.641,1.215
		c0.643,1.348,1.146,2.758,1.727,4.133c1.186,2.813,2.68,5.479,4.029,8.215c5.967-0.097,10.229-2.256,10.584-8.512
		c0.352-6.464-0.684-12.917-1.012-19.382c-0.35-6.826,0.074-13.784-1.715-20.377c-0.873-3.215-2.264-6.284-4.053-9.094
		c-2.098-3.294-4.76-6.245-7.92-8.535C231.768,124.898,225.521,123.015,219.293,122.948z M229.877,145.859
		c0.699,0.029,1.375,0.185,2.092,0.662c1.994,1.322,2.961,2.836,3.709,4.682c0.203,0.505,0.4,1.363,0.16,1.629
		c-1.025-2.079-2.486-3.947-4.41-5.225c-0.994-0.661-2.109-1.142-3.275-1.393c0.186-0.388,0.66-0.331,1.018-0.347
		C229.41,145.856,229.646,145.85,229.877,145.859z M202.668,147.333c0.826,0.014,1.65,0.214,2.393,0.532
		c0.848,0.369,1.715,0.914,2.477,1.48c0.311,0.231,0.633,0.471,0.836,0.776c0.631,0.938,0.939,2.013,1.105,3.123
		c-0.674-1.439-1.672-2.798-3.014-3.899c-0.723-0.593-1.531-1.111-2.379-1.48c-0.623-0.268-1.309-0.446-1.998-0.505
		c0.076-0.009,0.152-0.01,0.229-0.015C202.436,147.341,202.551,147.329,202.668,147.333z"/>
	<path id="path8633_1_" style="fill:none;stroke:#FFFFFF;stroke-width:0.5;stroke-miterlimit:10;" d="M180.291,263.923
		c1.971,3.02,2.174,3.174,3.826,5.854c0.646,1.051,0.799,1.303,1.135,1.867c2.117,3.549,4.064,7.215,6.512,10.545
		c1.6,2.174,3.402,4.189,5.008,6.359c1.605,2.166,3.029,4.52,3.742,7.121c0.926,3.383,0.566,7.107-1.041,10.223
		c-1.135,2.191-2.871,4.07-4.982,5.346c-2.113,1.27-4.596,1.932-7.059,1.838c-3.918-0.146-7.498-2.107-11.141-3.557
		c-7.421-2.955-15.481-3.883-23.13-6.184c-2.352-0.707-4.665-1.545-7.031-2.197c-1.053-0.287-2.119-0.541-3.113-0.992
		c-0.993-0.453-1.922-1.121-2.475-2.061c-0.428-0.727-0.608-1.586-0.596-2.428c0.012-0.844,0.208-1.676,0.494-2.469
		c0.574-1.584,1.502-3.02,2.129-4.588c1.021-2.555,1.207-5.371,1.066-8.123c-0.137-2.748-0.582-5.475-0.771-8.223
		c-0.084-1.225-0.116-2.469,0.118-3.674c0.232-1.209,0.754-2.389,1.64-3.24c0.816-0.787,1.899-1.254,3.009-1.484
		c1.109-0.234,2.253-0.244,3.387-0.217c1.133,0.025,2.27,0.086,3.398-0.006c1.129-0.094,2.264-0.348,3.248-0.912
		c0.936-0.531,1.701-1.328,2.334-2.199c0.634-0.873,1.147-1.824,1.673-2.764c0.524-0.941,1.069-1.879,1.757-2.709
		c0.688-0.828,1.53-1.553,2.526-1.963c1.025-0.426,2.179-0.506,3.27-0.303c1.091,0.199,2.121,0.672,3.039,1.295
		c1.836,1.246,3.196,3.063,4.499,4.857c1.198,1.65,2.376,3.311,3.527,4.992C180.29,263.927,180.291,263.925,180.291,263.923
		 M172.974,253.333c-4.17-2.256-8.315-3.27-11.672,0.553c-0.907,1.084-1.526,2.246-2.096,3.314
		c-1.135,2.137-2.148,3.646-2.817,3.938c-1.108,0.479-3.358,0.578-5.862,0.697c-2.504,0.117-5.449,0.266-7.881,2.291
		c-1.416,1.176-2.432,2.719-2.794,4.379c-0.364,1.656-0.177,3.256,0.147,4.955c0.951,4.982,2.041,10.381-0.078,14.66
		c-0.75,1.518-1.759,3.227-2.406,5.189c-0.646,1.969-0.867,4.496,0.47,6.713c0.913,1.51,2.199,2.623,3.485,3.152
		c1.285,0.529,2.313,0.646,3.617,1.023c1.642,0.477,5.385,1.668,7.035,2.174c8.131,2.504,15.521,3.771,23.273,6.16
		c1.432,0.443,3.275,1.389,5.31,2.246c2.034,0.855,4.342,1.678,6.936,1.393c5.33-0.588,11.127-3.496,14.037-8.389
		c2.283-3.842,2.467-8.125,1.311-12.189c-1.654-5.832-6.762-10.455-9.109-14.111C189.311,271.155,181.826,259.409,172.974,253.333z"
		/>
	<path id="path3732_1_" style="fill:none;stroke:#FFFFFF;stroke-width:0.5;stroke-miterlimit:10;" d="M251.277,254.378
		c-0.154,0-0.311,0.004-0.471,0.014l0,0c-1.313,0.068-2.805,0.434-4.078,1.525c-1.096,0.945-1.678,2.152-1.98,3.299
		c-0.018,0.064-0.033,0.127-0.049,0.193c-0.049,0.213-0.092,0.426-0.123,0.637c-0.209,1.361-0.094,2.543-0.027,3.506
		c0.393,5.734,0.41,11.467-0.199,17.102c-0.334,3.1-0.865,6.223-1.432,9.379c-0.684,3.797-1.453,7.787-1.445,11.988
		c0.006,2.402,0.26,5.18,1.83,7.689c1.576,2.516,4.01,3.984,6.295,4.967c3.252,1.398,6.924,2.111,10.609,1.561
		c3.025-0.447,5.814-1.711,8.201-3.414c2.352-1.682,4.184-3.656,5.967-5.34c2.086-1.971,4.285-3.77,6.633-5.285
		c3.512-2.27,7.553-4.008,11.639-6.066c2.404-1.207,5.088-2.645,7.184-5.107c0.945-1.115,1.705-2.381,2.244-3.74l-0.055,0.035
		c0.059-0.139,0.105-0.283,0.137-0.432l0.031,0.037c0.266-1.129,0.232-2.287-0.068-3.383c-0.146-0.531-0.359-1.049-0.637-1.541
		c-0.619-1.098-1.447-1.885-2.229-2.496c-0.773-0.605-1.504-1.045-2.09-1.443c-1.254-0.844-2.486-1.855-3.773-2.924
		c-1.285-1.07-2.453-2.066-3.352-3.127c-0.885-1.047-1.51-2.189-1.719-3.268l0,0c-0.027-0.137-0.049-0.287-0.068-0.449
		c-0.127-1.148-0.102-1.738-0.193-2.643c-0.127-1.234-0.396-2.51-0.895-3.754c-0.365-0.918-0.889-1.926-1.771-2.814
		c-1.164-1.174-2.533-1.738-3.715-2.105c-1.15-0.359-2.377-0.596-3.66-0.627c-3.117-0.072-5.598,0.912-7.594,1.143
		c-1.85,0.215-3.83-0.012-5.791-0.537c-1.178-0.316-2.467-0.777-3.934-1.16c-2.326-0.604-4.574-0.844-6.65-1.15
		C253.275,254.532,252.354,254.372,251.277,254.378L251.277,254.378z M252.014,256.433c0.68,0.025,1.359,0.131,2.035,0.23
		c2.123,0.311,4.262,0.555,6.336,1.098c1.309,0.348,2.584,0.809,3.891,1.162c2.182,0.59,4.467,0.873,6.711,0.609
		c2.414-0.281,4.76-1.189,7.191-1.131c0.998,0.025,1.988,0.213,2.939,0.514c0.971,0.305,1.928,0.744,2.643,1.471
		c0.543,0.551,0.92,1.246,1.205,1.965c0.422,1.076,0.648,2.217,0.746,3.365c0.008,0.094,0.012,0.189,0.018,0.285l0,0
		c0.063,0.924,0.07,1.855,0.248,2.766c0.316,1.65,1.184,3.152,2.26,4.443c1.078,1.287,2.365,2.385,3.65,3.463
		c1.281,1.08,2.57,2.152,3.953,3.096c0.646,0.445,1.32,0.857,1.934,1.346c0.289,0.23,0.568,0.482,0.824,0.752l0,0
		c0.141,0.152,0.277,0.307,0.402,0.473c0.063,0.082,0.123,0.166,0.178,0.25c0.059,0.088,0.113,0.176,0.164,0.268
		c0.521,0.926,0.682,2.055,0.436,3.094c-0.096,0.252-0.207,0.498-0.326,0.738c-0.014,0.037-0.029,0.068-0.045,0.1
		c0,0.004,0,0.004,0,0.004c-0.389,0.785-0.867,1.525-1.434,2.195c-1.68,1.992-4.016,3.313-6.34,4.496
		c-3.965,2.023-8.076,3.795-11.805,6.227c-2.498,1.627-4.803,3.541-6.959,5.604c-1.846,1.76-3.594,3.643-5.662,5.137
		c-2.084,1.506-4.498,2.6-7.043,2.98c-3.096,0.463-6.293-0.139-9.162-1.387c-2.01-0.877-3.945-2.131-5.102-3.992
		c-1.164-1.869-1.428-4.158-1.432-6.359c-0.004-3.895,0.717-7.748,1.396-11.582c0.564-3.186,1.102-6.381,1.447-9.596
		c0.631-5.854,0.627-11.762,0.205-17.633c-0.008-0.096-0.012-0.195-0.02-0.291c-0.012-0.189-0.027-0.379-0.037-0.568
		c-0.025-0.383-0.027-0.773-0.021-1.143c-0.002-0.119,0.006-0.223,0.01-0.33c0.012-0.205,0.033-0.412,0.064-0.617
		c0.027-0.186,0.066-0.367,0.111-0.547c0.01-0.031,0.018-0.068,0.027-0.105c0.018-0.061,0.037-0.119,0.055-0.18
		c0.012-0.037,0.025-0.07,0.035-0.107c0.027-0.076,0.055-0.154,0.086-0.23c0.002-0.006,0.006-0.012,0.008-0.02
		c0.15-0.369,0.352-0.713,0.602-1.016c0,0,0.002-0.004,0.004-0.006c0.111-0.133,0.232-0.264,0.363-0.379
		c0.693-0.594,1.619-0.854,2.527-0.906C251.559,256.423,251.787,256.423,252.014,256.433L252.014,256.433z M285.51,265.919
		l0.064,0.855c-0.014-0.193-0.02-0.387-0.037-0.58C285.529,266.103,285.521,266.013,285.51,265.919z M285.574,266.774
		c0.035,0.609,0.061,1.219,0.133,1.822L285.574,266.774z"/>
	<path id="path28849-2_1_" style="fill:none;stroke:#FFFFFF;stroke-width:0.5;stroke-miterlimit:10;" d="M210.619,162.337
		c-0.832,1.001-1.479,2.14-2.244,3.191c4.344-1.795,6.416-2.336,11.992,0.45c-0.557-0.707-0.869-1.575-1.258-2.388
		c-0.408-0.854-0.922-1.676-1.613-2.322C215.15,159.18,212.432,160.173,210.619,162.337L210.619,162.337z"/>
	<path id="path14967-1-0_1_" style="fill:none;stroke:#FFFFFF;stroke-width:0.5;stroke-miterlimit:10;" d="M192.178,191.185
		c-1.783,2.229-3.564,4.453-5.34,6.688c-1.832,2.301-3.658,4.6-5.504,6.891c-2.264,2.806-4.581,5.634-6.055,8.926
		c-1.267,2.829-1.865,5.9-2.734,8.875c-0.984,3.379-2.322,6.645-3.825,9.826c-1.387,2.939-2.915,5.809-4.446,8.676
		c-1.113,2.084-2.246,4.217-2.632,6.547c-0.305,1.844-0.128,3.748,0.342,5.557c3.807-1,5.76-2.564,10.821,0.188
		c7.15,5.707,17.141,19.869,18.959,28.832c0.199,0.27,0.398,0.535,0.604,0.799c0.721,0.18,1.457,0.295,2.203,0.307
		c0.98,0.02,1.971-0.145,2.867-0.537c0.898-0.393,1.699-1.027,2.232-1.85c0.656-1.012,0.879-2.268,0.746-3.469
		c-0.131-1.195-0.6-2.338-1.225-3.367c-1.533-2.512-3.951-4.332-6.279-6.133c-5.025-3.893-9.884-8-14.535-12.328
		c-1.312-1.225-2.626-2.488-3.543-4.031c-0.895-1.5-1.376-3.211-1.703-4.928c-0.897-4.709-0.668-9.666,0.936-14.182
		c0.627-1.77,1.455-3.457,2.254-5.156c1.386-2.939,2.696-5.936,4.517-8.629C189.387,209.019,189.57,202.673,192.178,191.185z"/>
	<path id="path8561_1_" style="fill:none;stroke:#FFFFFF;stroke-width:0.5;stroke-miterlimit:10;" d="M227.039,156.79
		c-0.158-0.007-0.314-0.007-0.473,0.005c-0.67,0.046-1.322,0.276-1.891,0.636c-0.57,0.355-1.053,0.842-1.434,1.396
		c-0.76,1.106-1.096,2.465-1.148,3.807c-0.041,1.007,0.07,2.029,0.404,2.979c0.301,0.859,0.791,1.658,1.455,2.279
		c1.074,0.293,2.035,0.629,2.785,1.275c0.09,0.009,0.18,0.021,0.27,0.025c1.031,0.049,2.074-0.248,2.922-0.839
		c0.678-0.47,1.219-1.114,1.607-1.841c0.389-0.726,0.621-1.53,0.727-2.343c0.189-1.438-0.025-2.943-0.689-4.234
		c-0.664-1.29-1.795-2.354-3.156-2.854C227.977,156.916,227.51,156.814,227.039,156.79L227.039,156.79z M227.699,158.396
		c0.1-0.005,0.199,0.002,0.287,0.014c0.771,0.098,1.543,0.62,2.018,1.32c0.523,0.771,1.064,1.955,0.676,2.822
		c-0.1,0.223-0.408,0.352-0.611,0.265c-0.652-0.277-0.525-1.505-0.988-2.099c-0.244-0.309-0.58-0.51-0.9-0.704
		c-0.328-0.204-0.793-0.16-1.043-0.479c-0.152-0.193-0.291-0.532-0.178-0.765C227.088,158.503,227.4,158.408,227.699,158.396z"/>
	<path id="path8579_1_" style="fill:none;stroke:#FFFFFF;stroke-width:0.5;stroke-miterlimit:10;" d="M202.322,157.368
		c-0.299,0.022-0.592,0.094-0.865,0.218c-0.602,0.274-1.068,0.796-1.375,1.384c-0.307,0.587-0.463,1.244-0.572,1.895
		c-0.24,1.442-0.246,2.952,0.248,4.322c0.326,0.909,0.865,1.729,1.52,2.437c0.428,0.461,0.916,0.883,1.484,1.156
		c1.113-0.467,2.689-2.285,4.115-2.555c0.42-1.566,0.328-3.25-0.152-4.801c-0.367-1.196-0.98-2.349-1.939-3.156
		c-0.457-0.386-0.992-0.687-1.572-0.824C202.922,157.373,202.621,157.346,202.322,157.368L202.322,157.368z M203.646,158.881
		c0.217-0.004,0.459,0.083,0.641,0.181c0.637,0.337,1.152,1.011,1.361,1.72c0.23,0.779,0.359,1.893-0.223,2.442
		c-0.148,0.139-0.451,0.137-0.604,0c-0.48-0.44-0.021-1.358-0.254-1.981c-0.119-0.323-0.348-0.595-0.568-0.858
		c-0.227-0.268-0.639-0.393-0.762-0.724c-0.076-0.21-0.1-0.519,0.063-0.66C203.395,158.914,203.518,158.882,203.646,158.881
		L203.646,158.881z"/>
	<path id="path8549_1_" style="fill:none;stroke:#FFFFFF;stroke-width:0.5;stroke-miterlimit:10;" d="M209.15,164.246
		c-3.021,1.051-5.75,2.915-7.826,5.346c-1.156,0.956-2.268,1.967-3.324,3.032c-1.438,1.922-2.498,5.287-1.584,5.468
		c0.023-0.143,0.051-0.279,0.08-0.422c0.135-0.66,0.209-1.335,0.422-1.976c0.275-0.811,0.766-1.533,1.309-2.199
		c0.947-1.164,2.066-2.186,3.311-3.021c2.045-2.402,4.738-4.245,7.717-5.279c2.684-0.932,5.652-1.199,8.369-0.378
		c1.215,0.368,2.355,0.946,3.475,1.545c1.088,0.586,2.164,1.191,3.27,1.741c2.227,1.103,4.572,1.966,6.986,2.547
		c0.787,0.191,1.588,0.355,2.326,0.684c0.539,0.238,1.057,0.582,1.357,1.092c0.24,0.597,0.488,0.845,0.559,0.197
		c-0.063-1.076-0.916-1.835-1.785-2.229c-0.783-0.345-1.602-0.509-2.379-0.698c-2.393-0.578-4.717-1.432-6.922-2.523
		c-1.096-0.545-2.17-1.152-3.262-1.737c-1.123-0.603-2.283-1.189-3.533-1.568C214.83,163.093,211.725,163.369,209.15,164.246
		L209.15,164.246z"/>
	<path id="path8535_1_" style="fill:none;stroke:#FFFFFF;stroke-width:0.5;stroke-miterlimit:10;" d="M235.801,174.94
		c-0.006,0.182-0.02,0.365-0.039,0.547c-0.111,0.941-0.406,1.851-0.531,2.791c-0.09,0.724-0.086,1.483-0.404,2.145
		c-0.332,0.684-0.979,1.165-1.666,1.488c-0.689,0.324-1.432,0.516-2.145,0.778c-3.266,1.208-5.744,3.886-8.711,5.711
		c-1.559,0.962-3.26,1.688-5.018,2.207c-1.896,0.559-3.889,0.876-5.855,0.678c-1.676-0.168-3.324-0.719-4.703-1.687
		c-1.953-1.368-3.246-3.46-4.707-5.346c-1.09-1.403-2.316-2.733-3.822-3.68c-0.283-0.177-0.576-0.34-0.846-0.538
		s-0.52-0.43-0.691-0.716c-0.078-0.133-0.135-0.276-0.176-0.426c-0.016-0.033-0.031-0.066-0.045-0.1
		c-0.039-0.119-0.055-0.246-0.055-0.372c0-0.02,0.004-0.038,0.004-0.056c-1.07,0.515-1.033,2.314-0.529,2.836
		c2.027,1.25,3.867,2.807,5.436,4.6c1.445,1.647,2.785,3.695,4.902,5.092c1.555,1.024,3.355,1.549,5.146,1.709
		c2.115,0.188,4.211-0.121,6.189-0.654c1.816-0.489,3.594-1.18,5.246-2.125c3.111-1.782,5.58-4.242,8.527-5.181
		c0.646-0.204,1.416-0.358,2.221-0.7c0.402-0.169,0.814-0.39,1.195-0.699c0.379-0.307,0.725-0.697,0.963-1.18
		C235.713,180.601,238.125,175.251,235.801,174.94L235.801,174.94z"/>
	<path id="path8591_1_" style="fill:none;stroke:#FFFFFF;stroke-width:0.5;stroke-miterlimit:10;" d="M231.561,174.36
		c-0.299-0.006-0.596,0.031-0.879,0.119c-0.373,0.119-0.707,0.336-1.008,0.586c-0.305,0.25-0.576,0.53-0.857,0.807
		c-0.83,0.799-1.74,1.51-2.664,2.2c-2.037,1.519-4.164,2.952-6.525,3.882c-1.543,0.609-3.162,0.995-4.787,1.318
		c-2.047,0.408-4.127,0.725-6.211,0.643c-2.084-0.08-4.186-0.576-5.949-1.688c-0.797-0.506-1.516-1.127-2.293-1.663
		s-1.641-0.991-2.578-1.099c-0.209-0.021-0.42-0.031-0.625-0.071c-0.066-0.013-0.133-0.036-0.199-0.059
		c-0.023,0.153-0.012,0.312,0.037,0.457c0.295,0.79,0.945,1.087,1.74,1.256c0.516,0.119,1.053,0.471,1.572,0.938
		c0.525,0.473,1.055,1.074,1.738,1.629c1.857,1.512,4.234,2.094,6.498,2.135c2.256,0.034,4.412-0.43,6.48-0.896
		c1.619-0.363,3.281-0.752,4.908-1.354c2.502-0.921,4.818-2.313,6.822-4.058c0.908-0.792,1.693-1.581,2.545-2.112
		c0.752-0.476,1.711-0.829,2.691-1.407c0.09-0.055,0.213-0.127,0.352-0.242c0.143-0.119,0.301-0.284,0.418-0.521
		c0.107-0.209,0.15-0.426,0.156-0.626c-0.164-0.027-0.326-0.06-0.49-0.085C232.16,174.399,231.857,174.362,231.561,174.36
		L231.561,174.36z"/>
	<path id="path8597_1_" style="fill:none;stroke:#FFFFFF;stroke-width:0.5;stroke-miterlimit:10;" d="M216.494,166.455
		c-0.275,0.013-0.533,0.068-0.768,0.199c-0.143,0.078-0.301,0.271-0.252,0.43c0.148,0.476,0.916,0.398,1.361,0.629
		c0.391,0.2,0.705,0.64,1.145,0.654c0.42,0.01,1.08-0.152,1.133-0.566c0.074-0.551-0.73-0.895-1.246-1.1
		C217.453,166.543,216.955,166.427,216.494,166.455L216.494,166.455z M207.879,166.791c-0.561,0.076-1.25,0.908-0.98,1.36
		c0.084,0.143,0.342,0.323,0.516,0.226c0.264-0.144,0.482-0.664,0.77-0.867c0.189-0.133,0.146-0.632-0.076-0.705
		C208.035,166.781,207.961,166.781,207.879,166.791L207.879,166.791z"/>
	<path id="path6521_1_" style="fill:none;stroke:#FFFFFF;stroke-width:0.5;stroke-miterlimit:10;" d="M273.969,251.624l-2.857-0.918
		c-1.152-0.371-2.318-0.719-3.521-0.824c-1.205-0.107-2.432,0.021-3.578,0.398l0,0l-0.988,0.684"/>
	<path id="path6519_1_" style="fill:none;stroke:#FFFFFF;stroke-width:0.5;stroke-miterlimit:10;" d="M258.586,255.271
		c0.361-0.172,0.713-0.363,1.055-0.57c0.943-0.582,1.809-1.295,2.811-1.77c1.258-0.594,2.664-0.783,4.049-0.912
		c0.969-0.09,1.938-0.158,2.906-0.195c1.887-0.068,3.781-0.018,5.664,0.15l-1.102-0.35"/>
	<path id="path6517_1_" style="fill:none;stroke:#FFFFFF;stroke-width:0.5;stroke-miterlimit:10;" d="M260.246,252.89l-1.643,1.137
		l-0.254,1.355c0.08-0.035,0.158-0.07,0.236-0.111"/>
	<path id="path29714-3-9-3-8-1_1_" style="fill:none;stroke:#FFFFFF;stroke-width:0.5;stroke-miterlimit:10;" d="M263.023,250.964
		l-2.777,1.926"/>
</g>
<path style="fill:#D6ECE5;" d="M312.605,219.055c-3.08,9.96-7.23,19.46-12.311,28.351h-52.27v-28.351H312.605z"/>
<g>
	<rect x="106.295" y="105.665" style="fill:#59BEAF;" width="28.351" height="141.74"/>
	<rect x="148.815" y="219.055" style="fill:#59BEAF;" width="99.21" height="28.351"/>
</g>
<path style="opacity:0.6;fill:#E83818;" d="M300.295,247.405c-24.42,42.71-70.42,71.489-123.13,71.489
	c-14.81,0-29.1-2.27-42.52-6.489v-65H300.295z"/>
</svg>
