<?xml version="1.0" encoding="iso-8859-1"?>
<!-- Generator: Adobe Illustrator 16.0.0, SVG Export Plug-In . SVG Version: 6.00 Build 0)  -->
<!DOCTYPE svg PUBLIC "-//W3C//DTD SVG 1.1//EN" "http://www.w3.org/Graphics/SVG/1.1/DTD/svg11.dtd">
<svg version="1.1" id="&#x56FE;&#x5C42;_1" xmlns="http://www.w3.org/2000/svg" xmlns:xlink="http://www.w3.org/1999/xlink" x="0px"
	 y="0px" width="354.33px" height="354.33px" viewBox="0 0 354.33 354.33" style="enable-background:new 0 0 354.33 354.33;"
	 xml:space="preserve">
<g>
	<path style="fill:#D83B3F;" d="M283.716,268.934c0,7.827-6.346,14.173-14.174,14.173H85.29c-7.827,0-14.173-6.346-14.173-14.173
		V84.682c0-7.828,6.346-14.174,14.173-14.174h184.252c7.828,0,14.174,6.346,14.174,14.174V268.934z"/>
	<g>
		<g>
			<g>
				<g>
					<path style="fill:#D83B3F;" d="M286.15,267.968c-0.037,1.221,0.383,0.782,0.457,0.966
						C286.516,266.894,286.041,268.02,286.15,267.968z"/>
					<polygon style="fill:#D83B3F;" points="285.199,247.837 285.37,248.193 284.951,245.226 					"/>
					<path style="fill:#D83B3F;" d="M285.207,229.011c-0.714,1.78,0.115,6.821-0.139,10.176l-0.162,0.553l0.574,1.513
						C285.389,237.176,285.008,231.881,285.207,229.011z"/>
					<path style="fill:#D83B3F;" d="M286.751,218.974c-0.278,0.618-0.239-2.172-0.087,2.341c0.03-0.228,0.048-0.293,0.07-0.425
						C286.73,220.484,286.73,219.925,286.751,218.974z"/>
					<path style="fill:#D83B3F;" d="M286.734,220.89C286.754,222.872,286.968,219.592,286.734,220.89L286.734,220.89z"/>
					<path style="fill:#D83B3F;" d="M286.575,211.734l0.248,2.611c0.164-0.546,0.201-2.87,0.32-2.007
						C287.008,209.66,286.845,210.211,286.575,211.734z"/>
					<path style="fill:#D83B3F;" d="M286.055,209.258l0.104,1.354C286.229,210.374,286.252,210.017,286.055,209.258z"/>
					<path style="fill:#D83B3F;" d="M286.381,213.481l-0.222-2.87c-0.115,0.378-0.347,0.418,0.08,1.317
						C286.027,211.694,286.23,212.262,286.381,213.481z"/>
					<path style="fill:#D83B3F;" d="M286.271,215.105c-0.154,1.465-0.252,3.358-0.5,0.736
						C285.87,220.838,286.372,220.102,286.271,215.105z"/>
					<path style="fill:#D83B3F;" d="M284.469,228.05l-0.209,1.958l0.239,1.694C284.381,230.856,284.692,227.929,284.469,228.05z"/>
					<path style="fill:#D83B3F;" d="M286.945,195.466c-0.152-0.163-0.405,0.878-0.6,1.073l0.174,1.929
						C286.624,197.477,286.72,195.598,286.945,195.466z"/>
					<path style="fill:#D83B3F;" d="M286.346,196.539l-0.261-2.887C286.055,196.23,286.178,196.702,286.346,196.539z"/>
					<polygon style="fill:#D83B3F;" points="285.262,208.792 285.81,213.533 285.254,207.879 					"/>
					<polygon style="fill:#D83B3F;" points="286.964,184.442 287.315,186.079 286.784,183.165 					"/>
					<path style="fill:#D83B3F;" d="M286.902,177.132c0.291,1.21,0.492-1.66,0.672-0.38c-0.053-1.987-0.303-3.683-0.527-5.209
						C287.173,173.165,287.141,174.895,286.902,177.132z"/>
					<path style="fill:#D83B3F;" d="M286.72,168.979c0.069,0.81,0.194,1.65,0.327,2.563
						C286.98,170.681,286.883,169.833,286.72,168.979z"/>
					<path style="fill:#D83B3F;" d="M286.16,188.736c0.092-0.223,0.332-0.653,0.434-2.271l-0.428,1.135
						C286.165,187.946,286.162,188.338,286.16,188.736z"/>
					<path style="fill:#D83B3F;" d="M286.152,187.64l0.014-0.04c0.013-1.232,0.021-2.086,0.024-2.452
						C286.186,185.462,286.175,186.212,286.152,187.64z"/>
					<path style="fill:#D83B3F;" d="M286.158,189.022c0.001-0.105,0.001-0.183,0.002-0.286
						C286.118,188.846,286.104,188.911,286.158,189.022z"/>
					<path style="fill:#D83B3F;" d="M285.648,201.227c-0.238-1.696-0.495-5.231-0.859-1.81
						C285.082,200.633,285.289,198.675,285.648,201.227z"/>
					<path style="fill:#D83B3F;" d="M285.624,190.432l-0.098,3.065c0.112-0.06,0.277-0.612,0.396,0.228L285.624,190.432z"/>
					<polygon style="fill:#D83B3F;" points="285.488,188.932 285.624,190.432 285.66,189.296 					"/>
					<path style="fill:#D83B3F;" d="M286.32,174.23c-0.187-1.324-0.202-2.773-0.232-4.409c-0.084,1.754-0.129,3.567-0.128,5.289
						C286.094,175.353,286.335,176.109,286.32,174.23z"/>
					<path style="fill:#D83B3F;" d="M286.201,180.746c-0.008-0.091-0.018-0.208-0.024-0.294
						C286.141,180.633,286.129,180.778,286.201,180.746z"/>
					<path style="fill:#D83B3F;" d="M286.092,153.712c-0.027,0.088-0.051,0.167-0.078,0.259c0.025,0.02,0.049,0.034,0.074,0.06
						L286.092,153.712z"/>
					<path style="fill:#D83B3F;" d="M285.881,175.404c-0.083,1.317,0.021,2.106,0.153,2.856c-0.043-0.985-0.071-2.03-0.074-3.151
						C285.899,175,285.859,174.98,285.881,175.404z"/>
					<path style="fill:#D83B3F;" d="M286.52,164.484c-0.089,0.687-0.164,1.465-0.234,2.283
						C286.42,166.097,286.631,164.728,286.52,164.484z"/>
					<path style="fill:#D83B3F;" d="M286.295,180.008c0.006,0.066,0.012,0.126,0.02,0.197
						C286.406,179.773,286.361,179.827,286.295,180.008z"/>
					<path style="fill:#D83B3F;" d="M286.295,180.008c-0.062-0.679-0.167-1.212-0.261-1.747c0.034,0.802,0.079,1.546,0.143,2.191
						C286.207,180.289,286.253,180.126,286.295,180.008z"/>
					<path style="fill:#D83B3F;" d="M283.348,148.832c0.396,0.233,0.763,3.698,0.338,6.69c0.297,2.944,1.6,1.019,2.328-1.55
						c-0.173-0.092-0.332-0.092-0.566-3.121c-0.217,1.061-0.506,6.722-0.864,4.166c-0.204-4.013,0.14-3.289,0.35-5.239
						c-0.493,1.658-0.718-5.106-1.444-4.232l0.256,3.519C283.631,149.13,283.451,147.854,283.348,148.832z"/>
					<path style="fill:#D83B3F;" d="M285.973,159.743l0.049,1.246c0.07-1.421,0.229-2.438,0.538-4.311
						c-0.193-2.074-0.341-2.504-0.472-2.647l-0.056,6.139L285.973,159.743z"/>
					<path style="fill:#D83B3F;" d="M286.023,166.586c-0.431-0.973-0.613-3.967-1.08-2.134c0.029,3.659,0.359,2.564,0.547,4.75
						c-0.107-5.904,0.24,1.696,0.484-2.57c0.073,1.16,0.096,2.204,0.113,3.188c0.053-1.063,0.117-2.088,0.197-3.053
						c-0.011,0.054-0.019,0.091-0.027,0.135l0.002,0.028c-0.003,0-0.004-0.006-0.007-0.006c-0.054,0.255-0.087,0.338-0.056,0.052
						c-0.005-0.02-0.007-0.091-0.008-0.124c-0.061-0.04-0.113-0.149-0.163-0.267c0.089-1.71,0.112-0.269,0.163,0.267
						c0.021,0.02,0.041,0.066,0.063,0.072l0.005-0.022l-0.236-5.914C285.963,162.241,285.975,163.808,286.023,166.586z"/>
					<path style="fill:#D83B3F;" d="M283.862,196.262c0.038-0.183,0.069-0.175,0.101-0.188
						C283.91,195.69,283.873,195.546,283.862,196.262z"/>
					<path style="fill:#D83B3F;" d="M284.123,193.83c0.06,0.43,0.232,0.788,0.188,2.186c-0.129,1.212-0.207-0.006-0.348,0.058
						c0.113,0.842,0.309,2.947,0.518,0.307l-0.059-0.418c0.148-2.381,0.686-5.44,0.745-5.024
						C284.779,191.633,284.503,192.245,284.123,193.83z"/>
					<path style="fill:#D83B3F;" d="M284.963,180.038l-0.211-4.924l-0.373,2.508l0.225-0.127
						C284.516,180.295,284.791,179.689,284.963,180.038z"/>
					<polygon style="fill:#D83B3F;" points="286.306,153.149 286.761,153.802 286.118,150.958 					"/>
					<polygon style="fill:#D83B3F;" points="286.251,146.75 286.646,146.986 286.408,145.296 					"/>
					<path style="fill:#D83B3F;" d="M73.492,154.968l0.112,1.445C73.57,155.728,73.532,155.286,73.492,154.968z"/>
					<path style="fill:#D83B3F;" d="M73.519,144.49l-0.195-0.254C73.432,144.721,73.511,144.92,73.519,144.49z"/>
					<path style="fill:#D83B3F;" d="M196.702,68.017c-2.107-0.37-4.463-0.943-4.208-0.498l0.647,0.434
						C194.614,67.875,195.743,67.924,196.702,68.017z"/>
					<path style="fill:#D83B3F;" d="M89.064,70.607c0.201,0.043,0.41,0.087,0.617,0.132c0.511-0.149,0.992-0.29,1.423-0.415
						C90.491,70.409,89.795,70.506,89.064,70.607z"/>
					<path style="fill:#D83B3F;" d="M87.578,72.403c0,0-0.695-0.07-1.389-0.14c-0.345-0.034-0.69-0.067-0.949-0.093
						c-0.231-0.014-0.385-0.022-0.385-0.022C85.368,72.197,86.343,72.325,87.578,72.403z"/>
					<path style="fill:#D83B3F;" d="M73.952,212.182l0.442,1.688C74.392,211.226,74.169,212.389,73.952,212.182z"/>
					<path style="fill:#D83B3F;" d="M285.584,80.67c-0.369-2.1-1.047-3.724-1.858-4.991
						C284.908,78.035,285.092,80.107,285.584,80.67z"/>
					<path style="fill:#D83B3F;" d="M68.888,150.843c0.079,0.884,0.167,1.266,0.264,1.238
						C69.078,151.17,68.995,150.652,68.888,150.843z"/>
					<path style="fill:#D83B3F;" d="M279.501,71.159c0.273,0.268,0.573,0.489,0.833,0.778c1.238,0.957,2.364,2.113,3.392,3.743
						C282.868,73.963,281.397,72.166,279.501,71.159z"/>
					<path style="fill:#D83B3F;" d="M213.773,280.631c0.151,0.02,0.335,0.029,0.47,0.052
						C214.291,280.624,214.08,280.621,213.773,280.631z"/>
					<path style="fill:#D83B3F;" d="M274.754,284.13c-0.308,0.142-0.735,0.262-1.211,0.384c-0.237,0.062-0.486,0.127-0.738,0.192
						l-0.774,0.127C272.535,284.796,273.387,284.646,274.754,284.13z"/>
					<path style="fill:#D83B3F;" d="M286.44,121.001C286.469,122.358,286.488,121.216,286.44,121.001L286.44,121.001z"/>
					<path style="fill:#D83B3F;" d="M284.725,127.602c-0.049-0.289-0.111-0.508-0.211-0.542
						C284.618,127.171,284.685,127.361,284.725,127.602z"/>
					<path style="fill:#D83B3F;" d="M265.017,70.572c-0.04,0-0.071-0.001-0.117-0.001C265.303,70.656,265.233,70.64,265.017,70.572z
						"/>
					<path style="fill:#D83B3F;" d="M286.243,123.043c0.054-0.51,0.098-1.097,0.129-1.736
						C286.338,121.588,286.297,122.116,286.243,123.043z"/>
					<path style="fill:#D83B3F;" d="M286.448,122.769c-0.017,0.468-0.029,0.836-0.042,1.187
						C286.479,124.126,286.523,123.975,286.448,122.769z"/>
					<path style="fill:#D83B3F;" d="M286.417,119.11c0.007,0.776-0.014,1.5-0.045,2.197c0.029-0.267,0.054-0.378,0.068-0.307
						C286.436,120.603,286.429,120.042,286.417,119.11z"/>
					<path style="fill:#D83B3F;" d="M102.595,281.792c0.091,0.013,0.194,0.027,0.294,0.041
						C104.259,281.652,103.654,281.682,102.595,281.792z"/>
					<path style="fill:#D83B3F;" d="M161.377,72.522c0.063-0.009,0.098-0.013,0.155-0.021c-0.063-0.005-0.143-0.011-0.201-0.015
						L161.377,72.522z"/>
					<path style="fill:#D83B3F;" d="M156.503,72.846c2.076-0.54,3.256-0.474,4.829-0.359l-1.612-1.251L156.503,72.846z"/>
					<path style="fill:#D83B3F;" d="M73.617,180.048l0.39-3.424c0.642,4.132,0.42,7.126,0.969,3.909
						c-1.358-0.485-0.139-13.304-1.496-13.782l0.286-2.257c-0.013,0.649,0.067,0.752,0.053,1.389c0.65-4.387-0.982-3.26-0.789-8.917
						c0.104-1.967,0.301-3.344,0.462-1.999l-0.336-4.395c0.026-1.274,0.262-0.963,0.236,0.311l-0.108-6.7l0.04,0.052
						c-0.213-0.956-0.542-3.121-0.683-4.18c0.195-1.704,0.144,0.852,0.313,0.418l-0.329-3.706c0.352-1.513,0.693,1.561,0.643,4.124
						c1.356-3.463-0.342-3.081,0.45-10.553l0.172,3.499c0.771-2.253,0.491-4.988,0.972-8.947c-0.251,0.939-1.21,7.928-1.549,3.899
						c0.103-1.13,0.151-2.627-0.122-4.799c0.483-0.02,0.364-2.14,0.337-4.793l0.64,0.181c-0.185-2.868-0.51-2.642-0.798-4.329
						c0.063-3.197,0.559-3.86,0.976-4.612c0.102-5.119-0.794,3.535-0.915-2.523c0.245-4.258-0.017-7.248-0.399-12.341
						c0.22-2.98,0.391,0.521,0.574-0.547l-0.51-2.642c0.012-0.647,0.169-0.438,0.248-0.333c-0.198-2.225-0.639-0.183-0.813-3.682
						c-0.176-0.236-0.2-0.803-0.149-1.588c0.025-0.393,0.07-0.84,0.123-1.328c0.027-0.244,0.056-0.498,0.085-0.76
						c0.042-0.234,0.085-0.476,0.129-0.723c0.147-0.985,0.497-2.005,0.815-3.001c0.379-0.984,0.755-1.958,1.101-2.854
						c0.635-0.701,0.101,0.592,0.462,0.472c1.101-2.271,2.027-3.016,2.703-3.727c0.181-0.175,0.357-0.346,0.544-0.526
						c0.202-0.166,0.414-0.341,0.655-0.539c0.234-0.217,0.529-0.402,0.869-0.64c0.333-0.255,0.749-0.479,1.245-0.752
						c0,0,0.058-0.014,0.159-0.039c0.1-0.03,0.246-0.058,0.425-0.078c0.358-0.036,0.817-0.146,1.291-0.154
						c0.941-0.075,1.868,0.015,1.868,0.015c-0.681-0.089-0.995-0.197-1.017-0.312c-0.024-0.135,0.242-0.29,0.715-0.438
						c0.459-0.167,1.17-0.306,1.974-0.425c0.8-0.116,1.684-0.243,2.538-0.366c-1.083-0.232-2.008-0.435-2.629-0.532l5.454-0.343
						c0.659,0.105,0.109,0.325-0.785,0.592c0.372-0.057,0.724-0.111,1-0.153c1.951,0.236,0.939,0.605-0.458,0.963
						c-0.663-0.133-1.323-0.266-1.964-0.395c-1.348,0.389-2.607,0.819-2.327,1.193c0.354-0.074,1.037-0.137,1.788-0.173
						c-0.352,0.105-0.577,0.2-0.414,0.264c0.185,0.067,0.754-0.074,1.646-0.237l1.24,0.713l0.301-0.283l7.136,0.446
						c5.105-0.718,9.546-1.774,17.649-2.069c-2.01,0.523-0.432,0.854-0.541,1.474c-2.211-0.656-6.276,0.279-10.476,0.146
						c2.191,0.069,1.71,0.364,1.153,0.467l7.49-0.597c-0.169,0.507,1.59,0.38,3.547,0.589c-1.479-1.001,5.583-0.667,8.631-0.974
						c0.189,0.336-0.542,0.68-4.26,0.599c4.103,0.754,5.301-1.176,9.328-0.536c-0.908,0.008-1.397-0.043-1.756,0.127
						c2.12-0.299,7.305-0.062,6.085,0.231l-0.906,0.007c6.027,0.119,18.348,0.007,19.248-0.843c0.06,0.11-0.79,1.025-1.154,1.197
						l10.754-2.862c-0.947,0.73,2.689,2.47-2.309,2.883c1.435,0.104,3.211,0.226,6.236-0.032c-0.979-0.104-2.44-1.056-1.103-1.123
						c3.672,0.813,2.549,0.435,7.076,1.128c-1.467-0.157,0.164-1.302,2.482-1.266c-0.362,0.171,0.193,1.131-0.655,1.25l5.772-1.125
						c-1.441,0.203-0.255,0.953,1.037,1.271c-0.6-0.22,4.99,0.021,6.528-0.091l-2.446-0.261c6.518,0.17,6.438-1.582,12.902-1.522
						c-0.782,0.232-1.933,1.43,1.355,1.571c1.507-0.576,6.672-2.771,12.393-3.214l1.097,0.329l4.39-0.375
						c-2.733,0.867-10.402,2.69-14.591,3.4c2.438,0.261,0.679,0.388,4.332,0.358c1.289,0.309-1.991,0.468-3.065,0.486l8.503,0.199
						c-0.378-0.673,6.503-0.674,6.179-1.234l-9.236,0.697c-0.374-0.671,5.341-1.908,11.365-1.79
						c1.533,0.268-1.146,1.197-1.021,1.421c0.782-0.231,5.719-0.442,6.271-0.278l-2.556,0.359c3.354,0.253,5.474-0.891,9.505-0.25
						c1.392,0.043,4.154,0.866,4.395,0.468c-2.269-0.767-2.713-3.14-1.2-3.716c0.488,0.052,7.305,0.733,8.894,1.112
						c2.291,0.602-3.439,1.434-1.489,1.95c0.084-0.184,1.35-0.41,1.877-0.483c1.461,0.157-0.604,0.569,2.57,0.486
						c0.529-0.682,6.457,0.058,1.501-0.576c3.104-0.195,3.3,0.14,6.946,0.11c-1.16-0.44,3.274-1.499,6.386-1.693
						c-0.184,0.173,0.515,0.399,0.854,0.502c3.175,0.082,5.668-0.074,7.916,0.644c2.25,0.654,4.304,1.792,6.361,3.801
						c0.104,0.268,0.639,0.897,0.891,1.46c0.275,0.548,0.398,0.916-0.06,0.55c0.554,0.563,1.181,1.062,1.888,2.653
						c0.294,1.671-0.052,0.757-0.458-0.188c-0.467-0.941-1.078-1.863-0.798-0.632c0.215,0,0.854,0.886,1.354,2.17
						c0.551,1.285,0.743,2.913,0.868,4.208c0.306-0.412,0.354-1.877-0.071-3.512c-0.417-1.631-1.374-3.285-2.172-4.222
						c0.328-0.227,1.37,0.409,2.42,2.118c0.126,0.218,0.258,0.446,0.396,0.684c0.109,0.253,0.223,0.517,0.341,0.791
						c0.257,0.55,0.407,1.178,0.59,1.85c0.141,0.662,0.25,1.439,0.315,2.149c0.054,0.719,0.11,1.469,0.169,2.243
						c0.209,4.931-0.546,2.138-0.426,2.994c-0.147,9.262,1.474,7.891,0.865,15.582c-0.538,3.051-1.07,0.137-1.458,0.814
						c-0.204-4.017,0.341-6.167,0.319-8.889l-0.254,3.352c-0.179-1.278-0.314-3.959-0.158-5.42
						c-0.483,2.558-0.094,15.647-0.539,22.793c0.18,1.27,0.367,3.461,0.583,2.424l-0.075-2.261c0.434-2.078,0.6,4.255,0.802,1.394
						c0.306,3.033,0.784,6.433,0.539,10.703l-0.613,0.802c0.179-0.091,0.365-2.791,0.179-3.991c0.271,1.779-0.83,6.547-0.027,8.497
						l0.425-2.994c0.308,3.045,0.959,6.81,0.766,10.593c0.605-1.722-0.069-0.872,0.64-3.561c-0.882,2.331,0.037-9.68-0.89-5.936
						c0.822-2.759,0.349-4.775,1.05-8.382c-0.202,0.111-0.387,1.278-0.287-1.899c-0.059-0.144-0.135-0.482-0.178-0.697
						c0.007-0.098,0.009-0.131,0.015-0.215c-0.009,0.063-0.016,0.111-0.024,0.175c-0.029-0.137-0.036-0.149-0.008,0.066
						c-0.088,0.756-0.195,1.37-0.308,1.618c-0.464-1.576-0.45-6.628-0.69-8.336c0.097-1.885,0.232,0.788,0.448-0.241l-0.359-2.552
						c0.449-0.253,0.746-5.008,1.009-0.567l0.021-3.997c0.252-2.353,0.353-5.589,0.163-7.585c0.098-1.885-0.497-4.761-0.146-3.119
						l-0.278-6.268l0.112-0.058c0.015-1.546-0.025-3.115-0.08-4.708c-0.028-0.797-0.058-1.6-0.088-2.41
						c-0.005-0.375-0.055-0.891-0.09-1.351l-0.059-0.707l-0.123-0.704c-0.632-3.766-2.496-7.376-5.409-10.363
						c-0.484-0.375-1.01-0.708-1.542-1.065c-0.572-0.3-1.129-0.678-1.795-0.959c-1.288-0.647-2.856-1.189-4.852-1.592l-0.743-0.504
						c-1.749-0.091-3.625-0.12-5.461-0.199c-1.816-0.063-3.441-0.094-4.016,0.109c-2.885-1.045-12.975-0.228-17.676-0.414
						l-0.177,0.507c-3.236-0.029-6.34,0.115-10.356,0.319l0.247,0.448c-3.464,0.368-8.903-0.319-14.382-0.273
						c0.373-0.171,1.762-0.126,2.745-0.023c-6.545-1.013-13.808,0.737-19.743-0.001c-1.479,0.163-2.55,0.107-3.587-0.005
						c0.138-0.001,0.261-0.009,0.366-0.023c-0.151-0.001-0.376-0.003-0.606-0.005c-0.653-0.076-1.327-0.154-2.055-0.239
						c0.619,0.109,1.212,0.199,1.728,0.24c-1.141,0.009-2.87,0.065-4.565,0.177l-0.723-0.481c-0.138,0.005-0.249,0.009-0.393,0.014
						c-1.664-0.178-1.338,0.228-0.449,0.59c-0.854,0.079-1.637,0.174-2.244,0.291c-1.352-0.777-4.448,0.262-6.293-0.567
						c-1.143,0.404-8.525,0.304-9.429,1.155c-0.058-0.111-0.557-0.164,0.358-0.17c-1.891-0.097-3.78-0.194-5.476,0.046l-0.802-0.612
						l-4.128,0.823c-2.508-0.373-3.547-0.59-1.057-1.061c-6.013,0.725-4.879,0.273-9.992,0.991l0.249-0.396
						c-1.827,0.015-4.749,0.545-5.852,0.218c-4.088-0.752-20.231-0.104-30.727-0.803c2.037,1.166-4.878-0.522-5.294,0.381
						c-0.611-0.275-2.074-0.431-0.374-0.671c-5.356,0.271-8.047-0.437-11.746,0.325c-0.613-0.277,1.146-0.404,0.601-0.568
						c-0.43,0.06-1.702,0.24-2.259,0.075c-0.545-0.164,0.784-0.231,1.632-0.352c-5.472,0.046-6.025,0.896-6.423,1.693
						c-2.773-0.377-4.156-0.324-6.159,0.199c-0.965-0.261-2.576-0.534,0.824-0.627c-0.489-0.004-1.423-0.049-2.66-0.055
						c-1.324-0.006-2.9,0.184-4.359,0.611c-2.949,0.859-5.126,2.741-4.989,3.037c-0.329,0.113-0.861,0.625-1.387,1.117
						c-0.477,0.542-0.925,1.088-1.06,1.332c-1.464,1.832-1.992,3.029-2.465,4.198c-0.11,0.297-0.22,0.595-0.336,0.906
						c-0.083,0.322-0.17,0.66-0.266,1.029c-0.108,0.367-0.165,0.776-0.228,1.234c-0.032,0.229-0.065,0.47-0.102,0.725
						c-0.011,0.257-0.023,0.528-0.036,0.816c0,0,0.042-0.316,0.085-0.633c0.046-0.315,0.132-0.624,0.133-0.624
						c0.535,1.896,0.045,3.638,0.112,7.057l-0.079-0.098c-0.556,7.791,0.267,3.364-0.368,11.049l0.479-0.418
						c1.032,0.716-0.608,6.809-0.214,11.27l0.274-1.61c0.353,2.436-1.403,6.809-1.532,9.255c-0.09,0.534-0.144-0.842-0.21-1.586
						c-0.608,6.405,0.628,0.83,0.774,5.603c-0.339,0.88-0.862-1.134-0.925,2.078c-0.274,1.603,1.1,9.317,0.45,13.7
						c0.261-0.967,0.522-1.922,0.718,0.291c0.093,3.399-0.987,9.188-0.164,12.257c-0.071,0.434-0.14,0.593-0.205,0.613
						c0.212,2.6,0.353,8.443,0.799,10.004c-1.657,2.405,0.806,16.151-0.722,16.091l0.082,7.993l-0.156-0.211
						c-0.101,5.107,0.265,6.915,0.632,8.706c-0.104,1.183-0.247,0.318-0.327,0.224c-0.308,7.46-0.243,8.204,0.518,14.458L69.482,210
						c0.288,1.695-0.777,10.788-0.199,18.104c-0.056-0.071-0.152-0.223-0.222-0.804c0.582,8.236-1.375,19.714,0.43,22.73
						l0.445,5.438c0.14-7.03,0.783,1.043,1.083-1.848c0.106,2.763-0.544,7.15-0.637,3.75l0.09-0.533
						c-0.941-1.246-0.333,8.738-0.974,8.551c0.032,1.759-0.068,3.355,0.103,5.351c0.191,1.906,0.76,3.769,1.62,5.47
						c1.716,3.41,4.669,6.151,8.181,7.609c1.75,0.736,3.638,1.157,5.528,1.212c1.751,0.064,3.348,0.071,5.018,0.105
						c3.302,0.054,6.574,0.094,9.813,0.104l-1.489-0.731l4.518,0.042c1.187,0.17,1.592,0.572-1.632,0.542
						c1.696,0.415,5.41-0.347,5.498-0.507c6.313,0.297-2.464,0.854-0.526,0.871l2.627-0.055l-0.593-0.086
						c2.129-0.299,2.321-0.615,6.198-0.579c2.452,0.146,1.258,0.451,2.221,0.479c-0.008,0.052,0.318,0.076,1.481,0.021l5.692,0.063
						l-2.277-0.578c2.524-0.285,5.358,0.03,2.731-0.624c3.854,1.009,21.242,0.362,23.607,0.675c3.535-0.42,7.026-0.413,11.349-0.362
						c-1.075-0.12-1.715-0.77,2.011-0.69c-1.362,1.34,6.827,0.582,9.841,1.546c-2.691-0.64,10.597-0.157,6.373-1.065
						c3.109,0.108,0.188,0.502,2.552,0.816c7.404-0.519,16.313,0.338,25.47,0.162c0.144-0.176-1.394-0.444,0.573-0.706l4.833,0.88
						c1.807-0.087,1.664-1.016,4.964-0.405c-0.466-0.147-1.162-0.371,0.052-0.427c8.965,0.428,18.124,0.252,27.318,0.171
						c4.597-0.04,9.202-0.058,13.797,0.036c2.297,0.047,4.592,0.121,6.881,0.234l3.429,0.2c1.164,0.068,2.197,0.197,3.603,0.201
						c-1.46-0.088-1.626-0.198-1.277-0.254c0.383-0.095,1.389-0.066,2.444-0.277c-1.383,0.125-0.029-0.435-0.334-0.63
						c0-0.001,2.103-0.074,4.119-0.807c0.491-0.196,1-0.372,1.454-0.585c0.449-0.229,0.869-0.442,1.229-0.625
						c0.685-0.434,1.142-0.724,1.142-0.724c0.403-0.748,2.1-2.271,3.23-4.165c1.167-1.855,1.806-3.907,1.563-4.41
						c0.063,0.013-0.703,2.542-0.78,2.516c0.338-1.765-0.497-0.714-1.552,0.381c-1.104,1.11-2.588,2.098-2.805,1.599
						c-0.756,1.522-2.76,2.816-5.082,3.413c-1.154,0.345-2.404,0.458-3.659,0.573c-0.674,0.042-1.354,0.084-2.043,0.127
						c-0.732,0.061-1.47,0.16-2.207,0.313c-1.298-0.195,1.115-0.309,0.414-0.531c-1.493,0.411-3.296,0.496-6.644,0.313l0.378-0.102
						c-9.399,0.1-13.432-0.305-23.989-0.574l0.78,0.474c-2.269-0.063-2.747-0.212-3.806-0.331c-2.604,0.719,6.369,0.041,3.997,0.833
						c-3.01-0.964-15.999-0.015-18.034-1.11c-3.491-0.006,1.023,0.549-2.468,0.543l-0.924-0.297l-0.884,0.382
						c-2.285-0.063-3.439-0.434-3.526-0.685c0.557,0.029,1.576-0.07,2.173-0.092c-2.97-0.35-8.367,0.119-9.387,0.006l3.352,0.182
						c-9.521,0.277-21.154-0.111-30.358,0.491l0.697,0.224c-7.026,0.414-5.629-0.246-13.348-0.055l0.283-0.053
						c-1.544,0.223-3.607,0.335-5.721,0.31c1.951-0.262-3.662-0.509-1.106-0.798c-7.624,0.443-3.774,0.348-8.806,1.179l-1.162-0.37
						c-1.712,0.335-1.855,0.512-5.708,0.607c3.161-0.318-2.46-0.564,1.079-0.985c-8.085-0.812-12.01,0.819-15.721-0.367
						c-3.71,1.026,6.999,0.569,4.92,0.79c1.744,0.335-3.065,0.767-5.605,0.664c-2.58-0.023-4.391-1.313-10.892-1.294
						c0.649,0.005,0.692-0.073,1.337-0.068c-2.432-0.262-4.765,0.354-7.747-0.071c-1.672,0.621-3.877-0.035-4.355,0.756l5.959-0.183
						c-3.38,0.207-6.548,1.134-12.114,0.685c0.43-0.16,2.086-0.37,3.225-0.487c-1.625-0.233-3.133,0.155-4.821-0.085
						c0.482-0.793,7.246-0.172,10.864-0.776c-1.744-0.335-6.847,0.573-5.028-0.284c-2.616,1.091-6.405-0.138-10.804,0.695
						l0.291-0.475c-0.697,0.074-2.142,0.299-3.424,0.287l2.325-0.615c-1.784,0.262-3.501,0.147-5.2,0.003l-1.271-0.109
						c-0.433-0.032-0.709-0.1-1.068-0.132c-0.342-0.019-0.672-0.11-1.01-0.154c-0.34-0.033-0.673-0.099-1.013-0.158
						c0.69,0.213,1.258,0.231,1.682,0.339c0.435,0.032,0.743,0.072,0.959,0.114c0.435,0.084,0.577,0.147,0.498,0.247
						c-0.115,0.188-0.746,0.422,0.767,0.595c-1.153,0.088-1.88,0.092-2.563,0.028c-0.666-0.083-1.198-0.192-1.626-0.368
						c-0.437-0.138-0.77-0.322-1.053-0.516c-0.285-0.187-0.533-0.352-0.757-0.577c-0.226-0.206-0.456-0.416-0.722-0.658
						c-0.246-0.268-0.555-0.514-0.902-0.848c-0.698-0.659-1.67-1.526-2.851-3.112c0.168,0.209,0.398,0.516,0.613,0.858
						c0.239,0.323,0.498,0.654,0.679,0.945c0.419,0.525,0.581,0.862-0.146,0.355c-1.111-1.14-2.004-3.04-2.111-3.984
						c-0.513-1.2-0.646-1.795-0.764-1.979c-0.107-0.188-0.122,0.014-0.118,0.317c-0.02,0.606,0.163,1.621-0.339,0.54
						c0.083-2.005-0.729-2.438-0.902-5.454l0.482-0.023c0.31-7.461-1.005-1.975-0.631-8.694l0.669,2.842l-0.173-3.503l0.549,0.725
						c-0.407-3.813-0.302-5-0.148-8.73c-0.34,0.868-0.875-0.489-0.891-3.794c0.287-2.253,0.458,1.267,0.39-3.419
						c0.302,1.055,0.681,2.217,0.236,4.255c0.157,0.207,0.303,1.043,0.458,1.259c0.33-2.429,0.075-6.1,0.071-7.795
						c-0.018,0.652-0.044,1.433-0.113,1.831l-0.668-6.791c0.181-1.067,0.327-0.22,0.469,0.621c-0.052-1.378-0.274-2.325-0.315-4.348
						c0.392,0.521,0.797,0.398,0.981,3.257l-0.435-6.466c0.17-0.434,0.468-3.319,0.613-2.483c0.23-3.583-0.761-8.798-0.457-13.551
						c-0.076-0.247-0.149-0.741-0.205-1.752c0.089-4.471,0.57-8.432,0.032-13.727l0.703-3.005c-0.16-4.148-0.886,4.068-1.151-2.839
						c-0.224-4.889,0.6-1.823,0.795-3.543c-0.354-2.429-1.076-6.656-0.503-11.15C73.669,177.492,73.565,178.662,73.617,180.048z
						 M73.306,128.889c0.101,0.991,0.414,2.966,0.129,3.69C72.882,131.453,73.146,130.581,73.306,128.889z M96.596,71.535
						c-0.736,0.16-1.877,0.081-3.163-0.102C94.367,71.393,95.424,71.411,96.596,71.535z M286.048,106.125
						c-0.009-0.042-0.016-0.071-0.023-0.105C286.213,103.808,286.139,104.592,286.048,106.125z M285.838,110.716
						c0.068,0.462,0.135,0.43,0.202,0.235c-0.122-0.32-0.13-1.352-0.097-2.526C285.817,108.752,285.73,109.345,285.838,110.716z
						 M117.093,285.039l-0.892-0.127C118.216,284.773,117.651,284.899,117.093,285.039z"/>
					<path style="fill:#D83B3F;" d="M87.779,72.195c-0.281-0.082-0.358-0.171-0.424-0.262
						C86.964,72.014,86.957,72.107,87.779,72.195z"/>
					<path style="fill:#D83B3F;" d="M73.871,211.867l-0.005,0.155c0.029,0.087,0.058,0.131,0.087,0.159L73.871,211.867z"/>
					<path style="fill:#D83B3F;" d="M246.706,72.476c-0.945-0.069-1.473-0.158-1.823-0.249
						C244.831,72.345,245.262,72.444,246.706,72.476z"/>
					<path style="fill:#D83B3F;" d="M286.658,135.05l-0.125-2.942c0.023,1.423-0.082,1.931-0.158,2.649
						C286.487,134.691,286.65,134.13,286.658,135.05z"/>
					<path style="fill:#D83B3F;" d="M283.673,160.579c0.06,0.43,0.007,0.912,0.066,1.336l0.224-0.118
						C283.949,159.966,283.768,158.687,283.673,160.579z"/>
					<path style="fill:#D83B3F;" d="M285.055,137.772c-0.405,0.233-0.268,2.078-0.192,4.138c0-0.123,0-0.241,0-0.364
						C285.43,142.154,285.242,139.958,285.055,137.772z"/>
					<path style="fill:#D83B3F;" d="M284.876,142.389c0.019,0.635,0.03,1.284,0.011,1.905
						C285.113,144.534,284.934,143.521,284.876,142.389z"/>
					<path style="fill:#D83B3F;" d="M286.107,116.541c-0.104,0.978,0.519,0.613,0.354,1.167
						C286.978,118.798,285.836,111.192,286.107,116.541z"/>
					<polygon style="fill:#D83B3F;" points="283.719,139.441 284.219,138.702 283.815,137.548 					"/>
					<path style="fill:#D83B3F;" d="M284.086,123.173l-0.139,3.292c0.084-0.05,0.133,0.368,0.171,0.882
						C284.135,125.318,284.234,123.095,284.086,123.173z"/>
					<path style="fill:#D83B3F;" d="M284.118,127.347c-0.01,1.057,0.001,2.062,0.083,2.649
						C284.195,129.425,284.18,128.195,284.118,127.347z"/>
					<polygon style="fill:#D83B3F;" points="283.568,134.94 283.672,133.967 283.709,131.642 					"/>
					<path style="fill:#D83B3F;" d="M284.183,87.782c0,0-0.036-0.898-0.071-1.796c-0.019-0.449-0.036-0.898-0.05-1.235
						c-0.028-0.343-0.048-0.572-0.048-0.572c-0.187-0.362-0.232,0.627-0.184,1.961C283.95,87,284.017,88.334,284.183,87.782z"/>
					<path style="fill:#D83B3F;" d="M282.811,98.648c0.104-0.972,0.216-1.037,0.381-1.584l-0.621-0.109L282.811,98.648z"/>
					<path style="fill:#D83B3F;" d="M282.666,88.17c-0.173-0.358-0.495-5.215-0.456-0.661
						C282.381,87.874,282.523,91.473,282.666,88.17z"/>
					<polygon style="fill:#D83B3F;" points="241.151,70.772 242.064,70.765 241.934,69.746 					"/>
					<path style="fill:#D83B3F;" d="M193.434,73.209c4.258,0.244,1.012-0.628,4.859-0.324c0.999-0.241-3.146-0.249-2.12-0.457
						C193.604,72.683,192.254,72.539,193.434,73.209z"/>
					<path style="fill:#D83B3F;" d="M196.173,72.429c0.412-0.04,0.848-0.089,1.312-0.155
						C196.74,72.337,196.39,72.386,196.173,72.429z"/>
					<path style="fill:#D83B3F;" d="M283.85,277.37c0,0,0.115-0.166,0.288-0.414c0.164-0.254,0.354-0.609,0.557-0.961
						c0.208-0.35,0.391-0.712,0.505-0.995c0.124-0.279,0.206-0.466,0.206-0.466s-0.262,0.459-0.524,0.917
						c-0.301,0.431-0.602,0.861-0.602,0.861s-0.097,0.27-0.193,0.538C283.968,277.11,283.85,277.37,283.85,277.37z"/>
					<path style="fill:#D83B3F;" d="M285.188,271.481c0,0,0.188-0.156,0.376-0.313c0.188-0.163,0.376-0.327,0.376-0.327
						c0.001,0-0.012-0.122-0.054-0.306c-0.046-0.181-0.106-0.423-0.167-0.664c-0.124-0.47-0.249-0.938-0.249-0.938
						c-0.001,0.348-0.004,0.859-0.031,1.35C285.419,270.773,285.289,271.232,285.188,271.481z"/>
					<path style="fill:#D83B3F;" d="M74.613,121.283l-0.156-0.209c-0.169,0.424-0.182,1.065-0.208,2.349L74.613,121.283z"/>
					<polygon style="fill:#D83B3F;" points="74.127,158.415 74.141,157.778 73.554,158.973 					"/>
					<path style="fill:#D83B3F;" d="M74.876,189.578c0.024-1.271-0.106-2.764-0.082-4.045
						C74.9,188.308,74.144,189.924,74.876,189.578z"/>
				</g>
			</g>
		</g>
	</g>
</g>
<g>
	<g>
		<rect x="106.55" y="105.94" style="fill:#FFFFFF;" width="28.347" height="141.733"/>
		<g>
			<g>
				<g>
					<g>
						<path style="fill:#D83B3F;" d="M137.332,247.276c-0.037,0.502,0.382,0.322,0.458,0.397
							C137.696,246.834,137.223,247.298,137.332,247.276z"/>
						<polygon style="fill:#D83B3F;" points="136.38,238.986 136.551,239.133 136.132,237.911 						"/>
						<path style="fill:#D83B3F;" d="M136.388,231.233c-0.714,0.733,0.115,2.81-0.139,4.19l-0.163,0.228l0.574,0.623
							C136.57,234.596,136.189,232.416,136.388,231.233z"/>
						<path style="fill:#D83B3F;" d="M137.932,227.101c-0.278,0.255-0.239-0.895-0.087,0.964c0.03-0.094,0.048-0.121,0.07-0.175
							C137.911,227.723,137.912,227.492,137.932,227.101z"/>
						<path style="fill:#D83B3F;" d="M137.916,227.89C137.936,228.706,138.149,227.355,137.916,227.89L137.916,227.89z"/>
						<path style="fill:#D83B3F;" d="M137.756,224.119l0.248,1.075c0.164-0.225,0.201-1.182,0.32-0.826
							C138.189,223.265,138.026,223.492,137.756,224.119z"/>
						<path style="fill:#D83B3F;" d="M137.235,223.1l0.105,0.558C137.409,223.56,137.433,223.412,137.235,223.1z"/>
						<path style="fill:#D83B3F;" d="M137.562,224.839l-0.222-1.182c-0.115,0.155-0.347,0.172,0.08,0.542
							C137.209,224.103,137.412,224.336,137.562,224.839z"/>
						<path style="fill:#D83B3F;" d="M137.453,225.508c-0.155,0.604-0.253,1.383-0.5,0.303
							C137.051,227.868,137.553,227.565,137.453,225.508z"/>
						<path style="fill:#D83B3F;" d="M135.65,230.838l-0.209,0.807l0.239,0.697C135.562,231.994,135.874,230.788,135.65,230.838z"/>
						<path style="fill:#D83B3F;" d="M138.126,217.42c-0.152-0.067-0.405,0.361-0.599,0.442l0.174,0.794
							C137.805,218.248,137.901,217.475,138.126,217.42z"/>
						<path style="fill:#D83B3F;" d="M137.527,217.862l-0.261-1.188C137.235,217.734,137.359,217.929,137.527,217.862z"/>
						<polygon style="fill:#D83B3F;" points="136.443,222.908 136.991,224.86 136.436,222.531 						"/>
						<polygon style="fill:#D83B3F;" points="138.145,212.881 138.497,213.555 137.965,212.354 						"/>
						<path style="fill:#D83B3F;" d="M138.083,209.87c0.291,0.498,0.493-0.684,0.672-0.156c-0.052-0.818-0.302-1.517-0.527-2.146
							C138.354,208.236,138.322,208.949,138.083,209.87z"/>
						<path style="fill:#D83B3F;" d="M137.901,206.513c0.07,0.334,0.195,0.68,0.328,1.056
							C138.161,207.214,138.064,206.864,137.901,206.513z"/>
						<path style="fill:#D83B3F;" d="M137.341,214.648c0.092-0.092,0.332-0.269,0.434-0.935l-0.427,0.467
							C137.346,214.323,137.344,214.484,137.341,214.648z"/>
						<path style="fill:#D83B3F;" d="M137.334,214.197l0.014-0.017c0.012-0.507,0.021-0.858,0.024-1.01
							C137.367,213.301,137.355,213.609,137.334,214.197z"/>
						<path style="fill:#D83B3F;" d="M137.339,214.767c0-0.043,0.001-0.075,0.002-0.118
							C137.299,214.694,137.285,214.721,137.339,214.767z"/>
						<path style="fill:#D83B3F;" d="M136.83,219.792c-0.239-0.698-0.495-2.154-0.859-0.745
							C136.263,219.548,136.47,218.741,136.83,219.792z"/>
						<path style="fill:#D83B3F;" d="M136.805,215.347l-0.098,1.263c0.113-0.024,0.277-0.252,0.396,0.094L136.805,215.347z"/>
						<polygon style="fill:#D83B3F;" points="136.669,214.729 136.805,215.347 136.841,214.879 						"/>
						<path style="fill:#D83B3F;" d="M137.501,208.675c-0.186-0.545-0.202-1.142-0.231-1.815c-0.084,0.723-0.129,1.469-0.128,2.178
							C137.275,209.138,137.516,209.449,137.501,208.675z"/>
						<path style="fill:#D83B3F;" d="M137.382,211.358c-0.008-0.038-0.017-0.085-0.024-0.121
							C137.322,211.312,137.31,211.372,137.382,211.358z"/>
						<polygon style="fill:#D83B3F;" points="137.272,200.226 137.195,200.333 137.269,200.357 						"/>
						<path style="fill:#D83B3F;" d="M137.062,209.158c-0.083,0.543,0.022,0.867,0.154,1.177c-0.043-0.406-0.071-0.836-0.074-1.298
							C137.081,208.992,137.041,208.984,137.062,209.158z"/>
						<path style="fill:#D83B3F;" d="M137.701,204.662c-0.089,0.282-0.165,0.604-0.235,0.94
							C137.602,205.326,137.813,204.762,137.701,204.662z"/>
						<path style="fill:#D83B3F;" d="M137.476,211.055c0.006,0.027,0.012,0.052,0.019,0.081
							C137.587,210.958,137.542,210.98,137.476,211.055z"/>
						<path style="fill:#D83B3F;" d="M137.476,211.055c-0.062-0.279-0.167-0.499-0.261-0.72c0.034,0.33,0.08,0.637,0.143,0.902
							C137.388,211.17,137.434,211.103,137.476,211.055z"/>
						<path style="fill:#D83B3F;" d="M134.529,198.216c0.396,0.097,0.762,1.523,0.337,2.755c0.297,1.213,1.6,0.42,2.328-0.638
							c-0.173-0.038-0.333-0.038-0.566-1.286c-0.216,0.438-0.506,2.769-0.864,1.716c-0.204-1.652,0.14-1.354,0.35-2.157
							c-0.494,0.683-0.718-2.103-1.444-1.742l0.255,1.449C134.813,198.339,134.632,197.813,134.529,198.216z"/>
						<path style="fill:#D83B3F;" d="M137.154,202.71l0.049,0.513c0.069-0.585,0.228-1.004,0.538-1.775
							c-0.193-0.854-0.34-1.031-0.472-1.09l-0.055,2.527L137.154,202.71z"/>
						<path style="fill:#D83B3F;" d="M137.205,205.527c-0.431-0.4-0.614-1.634-1.081-0.879c0.03,1.507,0.36,1.057,0.547,1.956
							c-0.107-2.431,0.24,0.698,0.484-1.058c0.073,0.478,0.096,0.907,0.114,1.313c0.052-0.438,0.117-0.859,0.197-1.257
							c-0.01,0.021-0.018,0.037-0.027,0.056l0.001,0.011l-0.007-0.002c-0.054,0.104-0.086,0.14-0.055,0.021
							c-0.005-0.009-0.007-0.038-0.009-0.051c-0.06-0.017-0.112-0.062-0.163-0.11c0.089-0.704,0.112-0.11,0.163,0.11
							c0.021,0.008,0.041,0.026,0.064,0.029l0.005-0.009l-0.236-2.436C137.144,203.738,137.156,204.384,137.205,205.527z"/>
						<path style="fill:#D83B3F;" d="M135.043,217.748c0.038-0.075,0.069-0.072,0.1-0.078
							C135.091,217.513,135.055,217.453,135.043,217.748z"/>
						<path style="fill:#D83B3F;" d="M135.304,216.746c0.06,0.178,0.232,0.325,0.188,0.9c-0.129,0.499-0.207-0.003-0.348,0.023
							c0.114,0.347,0.309,1.214,0.519,0.126l-0.059-0.172c0.148-0.98,0.686-2.24,0.745-2.068
							C135.96,215.842,135.684,216.094,135.304,216.746z"/>
						<path style="fill:#D83B3F;" d="M136.145,211.066l-0.211-2.027l-0.373,1.033l0.224-0.053
							C135.696,211.173,135.972,210.924,136.145,211.066z"/>
						<polygon style="fill:#D83B3F;" points="137.487,199.994 137.942,200.263 137.299,199.092 						"/>
						<polygon style="fill:#D83B3F;" points="137.432,197.358 137.828,197.456 137.589,196.761 						"/>
						<path style="fill:#D83B3F;" d="M108.925,134.884l0.112,0.595C109.003,135.197,108.965,135.016,108.925,134.884z"/>
						<path style="fill:#D83B3F;" d="M108.952,130.57l-0.195-0.105C108.865,130.665,108.944,130.747,108.952,130.57z"/>
						<path style="fill:#D83B3F;" d="M137.388,132.638c0.37-0.868,0.943-1.837,0.498-1.733l-0.434,0.267
							C137.529,131.778,137.481,132.243,137.388,132.638z"/>
						<path style="fill:#D83B3F;" d="M117.27,106.04c0.082,0.043,0.168,0.087,0.254,0.132c0.21-0.149,0.407-0.289,0.586-0.415
							C117.856,105.842,117.57,105.939,117.27,106.04z"/>
						<path style="fill:#D83B3F;" d="M116.658,107.835l-1.145-0.28C115.771,107.653,116.139,107.747,116.658,107.835z"/>
						<path style="fill:#D83B3F;" d="M109.385,158.445l0.442,0.695C109.825,158.051,109.602,158.53,109.385,158.445z"/>
						<path style="fill:#D83B3F;" d="M137.272,170.369c0.169-0.75,0.241-1.345,0.262-1.869
							C137.285,169.402,136.911,170.13,137.272,170.369z"/>
						<path style="fill:#D83B3F;" d="M104.321,133.186c0.079,0.364,0.167,0.521,0.264,0.51
							C104.511,133.32,104.428,133.107,104.321,133.186z"/>
						<path style="fill:#D83B3F;" d="M137.533,166.337c-0.043,0.132-0.065,0.262-0.102,0.396c0.073,0.547,0.131,1.098,0.104,1.767
							C137.72,167.833,137.834,167.071,137.533,166.337z"/>
						<path style="fill:#D83B3F;" d="M109.026,243.842c-0.02,0.023-0.029,0.051-0.052,0.073
							C109.033,243.918,109.036,243.887,109.026,243.842z"/>
						<path style="fill:#D83B3F;" d="M127.659,249.576c-0.244,0.027-0.644,0.027-1.021,0.033
							C126.822,249.639,127.13,249.637,127.659,249.576z"/>
						<path style="fill:#D83B3F;" d="M137.622,186.756C137.65,187.314,137.669,186.844,137.622,186.756L137.622,186.756z"/>
						<path style="fill:#D83B3F;" d="M135.906,189.474c-0.049-0.119-0.111-0.209-0.211-0.223
							C135.799,189.297,135.866,189.374,135.906,189.474z"/>
						<path style="fill:#D83B3F;" d="M134.833,160.77c0-0.017,0.001-0.03,0.001-0.048
							C134.749,160.888,134.765,160.859,134.833,160.77z"/>
						<path style="fill:#D83B3F;" d="M137.424,187.597c0.053-0.21,0.098-0.452,0.129-0.715
							C137.52,186.997,137.478,187.215,137.424,187.597z"/>
						<path style="fill:#D83B3F;" d="M137.629,187.483c-0.017,0.193-0.03,0.345-0.042,0.488
							C137.66,188.043,137.705,187.98,137.629,187.483z"/>
						<path style="fill:#D83B3F;" d="M137.598,185.977c0.007,0.32-0.014,0.618-0.045,0.905c0.029-0.109,0.054-0.155,0.068-0.126
							C137.617,186.592,137.61,186.36,137.598,185.977z"/>
						<path style="fill:#D83B3F;" d="M107.865,198.106c-0.014,0.038-0.022,0.08-0.041,0.121
							C108.004,198.792,107.975,198.543,107.865,198.106z"/>
						<path style="fill:#D83B3F;" d="M132.882,118.092c0.004,0.026,0.016,0.04,0.021,0.064c0.005-0.026,0.011-0.059,0.015-0.083
							L132.882,118.092z"/>
						<path style="fill:#D83B3F;" d="M132.559,116.084c0.54,0.855,0.474,1.341,0.359,1.988l1.251-0.664L132.559,116.084z"/>
						<path style="fill:#D83B3F;" d="M109.05,145.212l0.39-1.41c0.642,1.702,0.42,2.935,0.969,1.61
							c-1.358-0.2-0.139-5.479-1.496-5.675l0.286-0.93c-0.013,0.268,0.067,0.31,0.053,0.572c0.65-1.807-0.982-1.343-0.789-3.672
							c0.104-0.81,0.301-1.377,0.462-0.823l-0.336-1.81c0.026-0.525,0.262-0.397,0.236,0.128l-0.108-2.759l0.04,0.021
							c-0.213-0.394-0.542-1.285-0.683-1.721c0.195-0.702,0.144,0.351,0.313,0.172l-0.329-1.526
							c0.352-0.623,0.693,0.643,0.643,1.699c1.356-1.426-0.342-1.269,0.45-4.346l0.172,1.441c0.771-0.928,0.491-2.054,0.972-3.684
							c-0.251,0.387-1.21,3.265-1.549,1.605c0.103-0.465,0.151-1.082-0.122-1.976c0.483-0.008,0.364-0.881,0.337-1.974l0.64,0.075
							c-0.185-1.181-0.51-1.088-0.798-1.783c0.063-1.316,0.559-1.589,0.976-1.899c0.102-2.108-0.794,1.456-0.915-1.04
							c0.245-1.753-0.017-2.984-0.399-5.082c0.22-1.227,0.391,0.215,0.574-0.226c0,0-0.032-0.068-0.08-0.17
							c-0.048-0.098-0.112-0.267-0.176-0.292c-0.127-0.117-0.255-0.274-0.255-0.274c0.012-0.128,0.169-0.047,0.248-0.014
							c-0.099-0.216-0.259-0.289-0.416-0.386c-0.157-0.103-0.311-0.238-0.397-0.748c-0.309-0.29-0.149-0.646,0.061-0.902
							c0.438,0.134,0.868,0.289,1.196,0.354c0.334,0.065,0.575,0.04,0.823-0.185c0.262,0.182-0.05,0.392,0.074,0.64
							c0.133-0.065,0.179-0.121,0.374-0.168c0.229-0.047,0.424-0.088,0.595-0.124c0.341-0.076,0.589-0.131,0.826-0.184
							c0.47-0.118,0.885-0.259,1.889-0.612l1.711,0.42c-1.257-0.48,0.349-1.049,1.757-1.516c-0.446-0.232-0.827-0.435-1.083-0.532
							l2.246-0.343c0.271,0.105,0.045,0.325-0.323,0.592c0.153-0.053,0.298-0.105,0.412-0.153c0.803,0.236,0.387,0.605-0.188,0.963
							c-0.271-0.132-0.543-0.265-0.809-0.395c-0.555,0.389-1.074,0.819-0.958,1.193c0.146-0.074,0.427-0.137,0.736-0.173
							c-0.145,0.105-0.238,0.2-0.17,0.264c0.076,0.067,0.311-0.074,0.678-0.237l0.511,0.713l0.124-0.283l2.939,0.446
							c2.102-0.718,3.931-1.774,7.268-2.069c-0.828,0.523-0.178,0.854-0.223,1.474c-0.911-0.656-2.584,0.279-4.314,0.146
							c0.902,0.069,0.704,0.364,0.475,0.467l3.084-0.597c-0.07,0.507,0.655,0.38,1.46,0.589c-0.305-0.5,0.271-0.667,1.078-0.748
							c0.962-0.08,1.429-0.073,1.967-0.227c-0.044,0.168-0.163,0.338-0.352,0.456c-0.215,0.118-0.389,0.183-0.894,0.143
							c0.327,0.188,0.396,0.209,0.592,0.144c0.17-0.065,0.365-0.215,0.601-0.37c0.442-0.308,1.151-0.63,1.436-0.31
							c-0.257,0.008-0.357-0.043-0.588,0.127c0.202-0.076,0.443-0.117,0.675-0.132c0.043,0.624-0.144,1.457-0.363,1.329
							l-0.007-0.212c-0.03,0.38-0.045,0.827-0.038,1.3c0.009,0.367,0.019,0.746,0.028,1.122c0.016,0.425,0.038,0.848,0.068,1.254
							c0.12,1.625,0.36,2.986,0.785,3.171c-0.11,0.024-1.025-0.326-1.197-0.476l2.862,4.429c-0.73-0.39-2.47,1.107-2.883-0.951
							c-0.104,0.591-0.226,1.322,0.032,2.568c0.104-0.403,1.056-1.005,1.123-0.454c-0.813,1.512-0.435,1.05-1.128,2.914
							c0.157-0.604,1.302,0.067,1.266,1.022c-0.171-0.149-1.131,0.08-1.25-0.27l1.125,2.377c-0.203-0.594-0.953-0.105-1.271,0.427
							c0.22-0.247-0.021,2.055,0.091,2.688l0.261-1.007c-0.17,2.684,1.582,2.651,1.522,5.313c-0.232-0.322-1.43-0.796-1.571,0.559
							c0.576,0.62,2.771,2.748,3.214,5.103l-0.329,0.452l0.375,1.807c-0.867-1.125-2.69-4.283-3.4-6.008
							c-0.261,1.004-0.388,0.279-0.358,1.784c-0.309,0.531-0.468-0.82-0.486-1.263l-0.199,3.502
							c0.673-0.156,0.674,2.678,1.234,2.544l-0.697-3.803c0.671-0.154,1.908,2.199,1.79,4.68c-0.268,0.631-1.197-0.472-1.421-0.42
							c0.231,0.322,0.442,2.355,0.278,2.583l-0.359-1.053c-0.253,1.381,0.891,2.254,0.25,3.914c-0.043,0.573-0.866,1.71-0.468,1.81
							c0.767-0.935,3.14-1.117,3.716-0.495c-0.052,0.201-0.733,3.008-1.112,3.663c-0.602,0.943-1.434-1.417-1.95-0.613
							c0.184,0.034,0.41,0.556,0.483,0.773c-0.157,0.602-0.569-0.249-0.486,1.058c0.682,0.218-0.058,2.659,0.576,0.618
							c0.195,1.279-0.14,1.359-0.11,2.86c0.44-0.478,1.499,1.349,1.693,2.63c-0.173-0.076-0.399,0.212-0.502,0.352
							c-0.062,2.621-0.371,4.028-0.377,6.473c-0.165,0.226-0.365,1.405-0.658,0.902c0.121,0.352,0.352,0.675,0.368,1.429
							c-0.589,1.459-0.092-1.681-0.8-0.569c0.396,0.095,0.546,1.95,0.794,3.024c0.612-0.331,0.117-2.481-0.13-3.557
							c0.844-0.005,1.728,1.867,2.118,4.422c0.209,2.03-0.545,0.88-0.425,1.232c-0.147,3.814,1.474,3.25,0.865,6.416
							c-0.538,1.257-1.07,0.057-1.458,0.336c-0.204-1.654,0.341-2.539,0.32-3.661l-0.254,1.38c-0.179-0.526-0.314-1.63-0.159-2.232
							c-0.483,1.054-0.093,6.443-0.539,9.386c0.18,0.523,0.367,1.426,0.583,0.999l-0.075-0.932c0.434-0.855,0.6,1.753,0.802,0.574
							c0.305,1.249,0.784,2.649,0.539,4.407l-0.613,0.33c0.179-0.037,0.365-1.149,0.178-1.644c0.272,0.733-0.83,2.696-0.027,3.499
							l0.425-1.232c0.308,1.254,0.959,2.804,0.766,4.362c0.605-0.709-0.069-0.359,0.639-1.467c-0.881,0.96,0.037-3.985-0.889-2.443
							c0.822-1.137,0.349-1.967,1.05-3.452c-0.202,0.046-0.387,0.526-0.287-0.782c-0.059-0.059-0.134-0.198-0.178-0.286
							c0.007-0.04,0.009-0.055,0.015-0.089c-0.009,0.026-0.015,0.046-0.024,0.072c-0.03-0.057-0.037-0.062-0.008,0.026
							c-0.088,0.312-0.195,0.564-0.308,0.667c-0.464-0.649-0.45-2.729-0.69-3.433c0.096-0.776,0.232,0.324,0.448-0.1l-0.359-1.051
							c0.449-0.104,0.746-2.063,1.009-0.233l0.02-1.646c0.252-0.97,0.352-2.302,0.163-3.124c0.097-0.776-0.497-1.961-0.146-1.285
							l-0.278-2.581l0.112-0.024c0.057-2.546-0.744-5.242,0.067-8.154c-0.113-0.857-0.252-1.744-0.125-3.178l0.389-0.28
							c-0.136-1.101,0.389-3.306-0.016-3.778c1.045-1.188,0.228-5.343,0.414-7.279l-0.507-0.073
							c0.029-1.333-0.115-2.611-0.319-4.265l-0.448,0.102c-0.368-1.426,0.319-3.667,0.273-5.922c0.171,0.153,0.126,0.726,0.023,1.13
							c1.013-2.695-0.737-5.686,0.001-8.13c-0.163-0.609-0.107-1.05,0.005-1.477c0.001,0.056,0.009,0.107,0.023,0.15
							c0.005-0.062,0.006-0.155,0.005-0.25c0.077-0.269,0.167-0.546,0.239-0.846c-0.109,0.255-0.199,0.499-0.24,0.711
							c-0.009-0.47-0.065-1.182-0.177-1.88l0.481-0.297c-0.005-0.057-0.009-0.102-0.014-0.162c0.178-0.685-0.228-0.551-0.59-0.185
							c-0.079-0.352-0.174-0.674-0.291-0.924c0.777-0.557-0.262-1.832,0.567-2.592c-0.404-0.471-0.304-3.511-1.155-3.883
							c0.111-0.023,0.164-0.229,0.17,0.147c0.097-0.778,0.194-1.556-0.046-2.255l0.612-0.33l-0.823-1.7
							c0.373-1.033,0.59-1.46,1.061-0.435c-0.725-2.476-0.273-2.009-0.991-4.115l0.396,0.103c-0.015-0.752-0.545-1.956-0.218-2.41
							c0.218-0.486,0.318-1.388,0.368-2.529c0.05-1.53,0.049-3.572,0.064-5.628c-1.496-0.011-3.031-0.03-4.546-0.083
							c-0.365-0.016-0.727-0.032-1.085-0.047c-0.257-0.021-0.51-0.042-0.76-0.062c-0.499-0.047-0.98-0.106-1.436-0.18
							c0.838,1.166-2.009-0.522-2.18,0.381c-0.252-0.275-0.854-0.431-0.154-0.671c-2.206,0.271-3.314-0.437-4.837,0.325
							c-0.252-0.277,0.472-0.404,0.248-0.568c-0.177,0.06-0.701,0.24-0.93,0.075c-0.225-0.164,0.323-0.231,0.672-0.352
							c-2.253,0.046-2.481,0.896-2.645,1.693c-1.142-0.377-1.711-0.324-2.536,0.199c-0.397-0.261-1.061-0.534,0.339-0.627
							c-0.788-0.038-4.811-0.382-4.892,0.257c-0.247-0.162-1.101-0.047-1.308,0.026c-2.288-0.038-2.612-0.096-4.887-0.035
							l0.73,0.104c-0.102,0.274-0.307,0.375-0.639,0.396c0.037,0.65-0.191,1.261-0.131,2.441l-0.079-0.088
							c-0.139,0.958-0.192,1.614-0.203,2.046c0,0.109,0,0.205-0.001,0.291c0.004,0.065,0.007,0.123,0.011,0.176
							c0.01,0.105,0.024,0.191,0.039,0.276c0.057,0.341,0.104,0.676-0.213,2.259l0.479-0.172c1.032,0.295-0.608,2.804-0.214,4.641
							l0.274-0.663c0.353,1.003-1.403,2.804-1.532,3.811c-0.09,0.22-0.144-0.347-0.21-0.653c-0.608,2.638,0.628,0.342,0.774,2.308
							c-0.339,0.362-0.862-0.467-0.925,0.855c-0.274,0.66,1.1,3.837,0.45,5.642c0.261-0.398,0.522-0.792,0.718,0.12
							c0.093,1.4-0.987,3.784-0.164,5.047c-0.071,0.179-0.14,0.244-0.205,0.252c0.212,1.07,0.353,3.477,0.799,4.12
							c-1.657,0.99,0.806,6.651-0.722,6.626l0.082,3.292l-0.156-0.087c-0.101,2.104,0.265,2.848,0.632,3.585
							c-0.104,0.487-0.247,0.131-0.327,0.092c-0.308,3.072-0.243,3.378,0.518,5.954l-0.496,0.269
							c0.288,0.698-0.777,4.442-0.199,7.456c-0.056-0.029-0.152-0.092-0.222-0.331c0.582,3.392-1.375,8.118,0.43,9.36l0.445,2.24
							c0.14-2.895,0.783,0.429,1.083-0.761c0.106,1.138-0.544,2.944-0.637,1.544l0.09-0.219c-0.941-0.513-0.333,3.598-0.974,3.521
							c0.046,5.694-0.475,11.249-0.515,16.583l0.731-0.613l-0.042,1.86c-0.17,0.489-0.572,0.656-0.542-0.672
							c-0.415,0.698,0.347,2.228,0.506,2.264c-0.296,2.601-0.853-1.015-0.871-0.216l0.055,1.082l0.085-0.244
							c0.299,0.877,0.616,0.955,0.58,2.552c-0.146,1.01-0.451,0.519-0.479,0.915c-0.052-0.003-0.076,0.131-0.021,0.609l-0.063,2.345
							l0.578-0.938c0.285,1.039-0.03,2.206,0.624,1.124c-1.009,1.587-0.362,8.748-0.675,9.722c0.421,1.456,0.414,2.894,0.363,4.674
							c0.12-0.442,0.77-0.707,0.69,0.827c-1.34-0.561-0.582,2.812-1.545,4.053c0.639-1.108,0.158,4.364,1.065,2.625
							c-0.108,1.28-0.501,0.077-0.817,1.051c0.519,3.049-0.337,6.718-0.162,10.488c0.176,0.059,0.445-0.574,0.707,0.236l-0.879,1.99
							c0.043,0.372,0.297,0.543,0.464,0.791c0.083,0.146,0.145,0.219,0.147,0.513c0.002,0.282-0.054,0.635-0.207,1.171
							c0.148-0.325,0.371-0.742,0.427-0.071c-0.113,1.357-0.184,2.794-0.226,4.237c1.119,0.034,2.283,0.049,3.453,0.051
							c1.022-0.009,2.047-0.017,3.074-0.025c1.637-0.035,3.281-0.07,4.925-0.105c3.289-0.039,6.583,0.063,9.838,0.762
							c-1.015-0.34-0.339-0.374,0.438-0.387c-0.505-0.082,0.01-0.435-0.089-0.673l3.14,0.662c0.572-0.661,3.365-0.045,3.693-0.677
							l-0.994,0.113c1.321-0.746-1.851-1.659-1.657-2.617c-1.48,0.849-3.903-1.257-6.333-0.042c-0.535-0.195,0.459-0.309,0.17-0.53
							c-0.615,0.41-1.357,0.496-2.736,0.312l0.156-0.102c-3.87,0.101-5.531-0.305-9.878-0.574l0.321,0.474
							c-0.935-0.063-1.131-0.212-1.567-0.33c-1.072,0.718,2.623,0.04,1.646,0.832c-0.228-0.177-0.593-0.289-1.044-0.362
							c-0.226-0.036-0.473-0.063-0.734-0.081c-0.192-0.013-0.394-0.026-0.602-0.04c-0.619-0.034-1.353-0.007-1.767-0.112
							c0.077-0.452,0.223-0.832,0.514-1.096c0.003-0.283-0.134-0.187-0.271-0.069c-0.137,0.115-0.274,0.251-0.271-0.142
							c0-0.008,0.296-0.289,0.296-0.28c0,0.01-0.382-0.096-0.382-0.105c0.016-0.135,0.051-0.252,0.098-0.347
							c0.048-0.166,0.108-0.323,0.174-0.44c0.132-0.241,0.287-0.369,0.413-0.387c-0.03,0.208,0.07,0.696,0.092,0.847
							c0.349-1.127-0.119-3.419-0.005-3.817l-0.183,1.38c-0.277-3.921,0.112-8.711-0.491-12.501l-0.224,0.286
							c-0.414-2.893,0.246-2.317,0.054-5.496l0.053,0.116c-0.223-0.636-0.335-1.485-0.31-2.355c0.262,0.803,0.509-1.509,0.798-0.456
							c-0.444-3.14-0.349-1.554-1.179-3.626l0.371-0.479c-0.335-0.705-0.512-0.765-0.608-2.351c0.318,1.301,0.565-1.014,0.986,0.443
							c0.811-3.329-0.819-4.945,0.367-6.474c-1.026-1.527-0.57,2.882-0.79,2.026c-0.335,0.718-0.767-1.262-0.664-2.308
							c0.023-1.063,1.313-1.809,1.293-4.485c-0.005,0.267,0.073,0.285,0.068,0.551c0.262-1.002-0.354-1.963,0.071-3.19
							c-0.621-0.688,0.036-1.597-0.756-1.793l0.183,2.454c-0.207-1.393-1.133-2.697-0.684-4.989c0.16,0.178,0.37,0.859,0.487,1.328
							c0.233-0.669-0.155-1.29,0.085-1.985c0.792,0.198,0.172,2.983,0.776,4.474c0.334-0.718-0.574-2.819,0.284-2.07
							c-1.091-1.077,0.138-2.638-0.695-4.449l0.475,0.12c-0.075-0.287-0.299-0.882-0.287-1.41l0.615,0.958
							c-0.525-1.47,0.459-2.83,0.173-4.236c0.015,2.945-0.572,0.66-0.918,1.906c-0.635-3.634,1.241-2.09,1.014-6.159
							c0.067,0.551-0.285,2.069-0.505,1.207c0.098-0.773,0.28-1.797,0.529-2.272c-0.099-2.696-0.488,0.413-0.78-0.734
							c0.578-0.918-0.235-1.324-0.42-2.505l0.482-0.01c0.31-3.072-1.005-0.813-0.631-3.58l0.669,1.17l-0.173-1.442l0.549,0.298
							c-0.407-1.571-0.302-2.059-0.148-3.595c-0.34,0.357-0.875-0.202-0.891-1.563c0.287-0.928,0.458,0.521,0.39-1.408
							c0.302,0.435,0.681,0.913,0.236,1.752c0.157,0.085,0.303,0.43,0.458,0.518c0.33-1,0.075-2.511,0.071-3.209
							c-0.018,0.269-0.044,0.59-0.113,0.754l-0.668-2.797c0.181-0.439,0.327-0.09,0.469,0.256c-0.052-0.567-0.274-0.957-0.315-1.79
							c0.392,0.215,0.797,0.164,0.981,1.341l-0.435-2.662c0.17-0.179,0.468-1.367,0.613-1.023c0.23-1.476-0.761-3.623-0.457-5.58
							c-0.076-0.102-0.149-0.305-0.205-0.722c0.089-1.841,0.57-3.472,0.032-5.652l0.703-1.238c-0.16-1.708-0.886,1.676-1.151-1.168
							c-0.224-2.013,0.6-0.751,0.795-1.459c-0.354-1-1.076-2.741-0.503-4.592C109.102,144.16,108.998,144.642,109.05,145.212z
							 M108.739,124.145c0.101,0.408,0.414,1.221,0.129,1.52C108.315,125.201,108.58,124.842,108.739,124.145z M120.372,106.967
							c-0.303,0.16-0.773,0.081-1.303-0.102C119.454,106.826,119.889,106.844,120.372,106.967z M137.229,180.63
							c-0.008-0.018-0.014-0.03-0.023-0.044C137.394,179.676,137.319,179.998,137.229,180.63z M137.02,182.521
							c0.067,0.19,0.134,0.177,0.202,0.097c-0.122-0.132-0.13-0.557-0.096-1.04C136.999,181.712,136.911,181.956,137.02,182.521z
							 M104.618,204.077l0.126-0.367C104.883,204.539,104.757,204.307,104.618,204.077z"/>
						<path style="fill:#D83B3F;" d="M116.74,107.627c-0.115-0.082-0.147-0.171-0.174-0.262
							C116.405,107.446,116.402,107.54,116.74,107.627z"/>
						<path style="fill:#D83B3F;" d="M109.304,158.315l-0.005,0.064c0.029,0.036,0.058,0.054,0.087,0.065L109.304,158.315z"/>
						<path style="fill:#D83B3F;" d="M132.929,153.23c0.069-0.39,0.158-0.607,0.249-0.751
							C133.06,152.458,132.96,152.635,132.929,153.23z"/>
						<path style="fill:#D83B3F;" d="M137.839,192.541l-0.125-1.212c0.024,0.586-0.082,0.795-0.158,1.091
							C137.668,192.394,137.832,192.162,137.839,192.541z"/>
						<path style="fill:#D83B3F;" d="M134.854,203.054c0.059,0.177,0.006,0.376,0.066,0.55l0.224-0.048
							C135.13,202.802,134.949,202.274,134.854,203.054z"/>
						<path style="fill:#D83B3F;" d="M136.236,193.662c-0.406,0.096-0.268,0.855-0.193,1.704c-0.001-0.051-0.005-0.1,0-0.15
							C136.611,195.466,136.423,194.563,136.236,193.662z"/>
						<path style="fill:#D83B3F;" d="M136.057,195.563c0.019,0.262,0.03,0.529,0.01,0.785
							C136.295,196.446,136.115,196.029,136.057,195.563z"/>
						<path style="fill:#D83B3F;" d="M137.289,184.919c-0.104,0.402,0.519,0.252,0.354,0.48
							C138.159,185.849,137.017,182.717,137.289,184.919z"/>
						<polygon style="fill:#D83B3F;" points="134.899,194.349 135.4,194.045 134.997,193.569 						"/>
						<path style="fill:#D83B3F;" d="M135.267,187.65l-0.139,1.355c0.084-0.021,0.133,0.151,0.171,0.363
							C135.316,188.533,135.416,187.618,135.267,187.65z"/>
						<path style="fill:#D83B3F;" d="M135.299,189.369c-0.01,0.435,0.001,0.849,0.083,1.091
							C135.377,190.225,135.36,189.718,135.299,189.369z"/>
						<polygon style="fill:#D83B3F;" points="134.749,192.496 134.854,192.095 134.89,191.138 						"/>
						<path style="fill:#D83B3F;" d="M135.364,173.076l-0.144-1.479c-0.172-0.151-0.277,0.252-0.208,0.803
							C135.131,172.754,135.198,173.303,135.364,173.076z"/>
						<path style="fill:#D83B3F;" d="M133.992,177.551c0.104-0.4,0.216-0.427,0.381-0.652l-0.621-0.045L133.992,177.551z"/>
						<path style="fill:#D83B3F;" d="M133.847,173.236c-0.172-0.148-0.495-2.148-0.456-0.272
							C133.562,173.114,133.705,174.596,133.847,173.236z"/>
						<polygon style="fill:#D83B3F;" points="134.632,150.942 134.64,151.318 135.659,151.264 						"/>
						<path style="fill:#D83B3F;" d="M132.196,131.292c-0.244,1.753,0.628,0.416,0.324,2c0.241,0.412,0.249-1.295,0.457-0.873
							C132.722,131.362,132.866,130.806,132.196,131.292z"/>
						<path style="fill:#D83B3F;" d="M132.976,132.42c0.04,0.169,0.089,0.349,0.155,0.54
							C133.067,132.654,133.019,132.51,132.976,132.42z"/>
						<polygon style="fill:#D83B3F;" points="131.789,250.123 132.917,250.336 132.189,249.993 						"/>
						<path style="fill:#D83B3F;" d="M133.955,249.367l0.265,0.649l0.677-0.587C134.641,249.458,134.148,249.514,133.955,249.367z"
							/>
						<path style="fill:#D83B3F;" d="M110.046,121.013l-0.156-0.086c-0.169,0.174-0.182,0.438-0.208,0.967L110.046,121.013z"/>
						<polygon style="fill:#D83B3F;" points="109.561,136.304 109.574,136.042 108.987,136.534 						"/>
						<path style="fill:#D83B3F;" d="M110.309,149.137c0.024-0.523-0.106-1.138-0.082-1.666
							C110.333,148.614,109.577,149.279,110.309,149.137z"/>
					</g>
				</g>
			</g>
		</g>
	</g>
	<g>
		<rect x="149.07" y="219.326" style="fill:#FFFFFF;" width="99.212" height="28.348"/>
		<g>
			<g>
				<g>
					<g>
						<path style="fill:#D83B3F;" d="M250.717,247.376c-0.037,0.377,0.383,0.241,0.457,0.298
							C251.082,247.044,250.607,247.392,250.717,247.376z"/>
						<polygon style="fill:#D83B3F;" points="249.766,241.158 249.937,241.269 249.518,240.352 						"/>
						<path style="fill:#D83B3F;" d="M249.773,235.344c-0.714,0.55,0.115,2.106-0.139,3.143l-0.162,0.171l0.574,0.468
							C249.955,237.865,249.574,236.23,249.773,235.344z"/>
						<path style="fill:#D83B3F;" d="M251.317,232.244c-0.278,0.19-0.239-0.671-0.087,0.723c0.03-0.07,0.048-0.091,0.07-0.131
							C251.297,232.71,251.297,232.537,251.317,232.244z"/>
						<path style="fill:#D83B3F;" d="M251.301,232.836C251.32,233.448,251.534,232.435,251.301,232.836L251.301,232.836z"/>
						<path style="fill:#D83B3F;" d="M251.142,230.008l0.248,0.807c0.164-0.168,0.201-0.887,0.32-0.62
							C251.574,229.367,251.411,229.538,251.142,230.008z"/>
						<path style="fill:#D83B3F;" d="M250.621,229.243l0.104,0.418C250.795,229.588,250.818,229.478,250.621,229.243z"/>
						<path style="fill:#D83B3F;" d="M250.947,230.548l-0.222-0.887c-0.115,0.117-0.347,0.129,0.08,0.407
							C250.594,229.996,250.797,230.171,250.947,230.548z"/>
						<path style="fill:#D83B3F;" d="M250.838,231.049c-0.154,0.453-0.252,1.037-0.5,0.228
							C250.437,232.819,250.938,232.592,250.838,231.049z"/>
						<path style="fill:#D83B3F;" d="M249.035,235.047l-0.209,0.605l0.239,0.522C248.947,235.914,249.259,235.01,249.035,235.047z"
							/>
						<path style="fill:#D83B3F;" d="M251.512,224.983c-0.152-0.05-0.405,0.271-0.6,0.331l0.174,0.596
							C251.19,225.604,251.286,225.024,251.512,224.983z"/>
						<path style="fill:#D83B3F;" d="M250.912,225.314l-0.261-0.891C250.621,225.22,250.744,225.365,250.912,225.314z"/>
						<polygon style="fill:#D83B3F;" points="249.828,229.1 250.376,230.563 249.82,228.817 						"/>
						<path style="fill:#D83B3F;" d="M251.53,220.228l0.352,0.831c0-0.036-0.531-1.5-0.531-1.465L251.53,220.228z"/>
						<path style="fill:#D83B3F;" d="M251.46,216.14c0.007-0.002,0.014-0.004,0.015-0.006c0.114,0.147,0.214-0.04,0.305-0.305
							c-0.116-0.138-0.459-0.254,0.116-0.361c-1.285,0.052-2.513,0.302-3.508,0.526C249.387,215.869,250.431,215.901,251.46,216.14z
							"/>
						<path style="fill:#D83B3F;" d="M246.799,216.322c0.469-0.07,0.989-0.195,1.589-0.328
							C247.855,216.063,247.325,216.158,246.799,216.322z"/>
						<path style="fill:#D83B3F;" d="M250.727,222.729c0.092-0.12,0.332-0.355,0.434-1.257c0,0-0.106,0.176-0.214,0.351
							c-0.106,0.166-0.214,0.331-0.214,0.331C250.731,222.329,250.729,222.527,250.727,222.729z"/>
						<path style="fill:#D83B3F;" d="M250.719,222.176l0.014-0.022c0.013-0.626,0.021-1.061,0.024-1.247
							C250.752,221.066,250.741,221.449,250.719,222.176z"/>
						<path style="fill:#D83B3F;" d="M250.725,222.873c0.001-0.054,0.001-0.093,0.002-0.145
							C250.685,222.786,250.67,222.819,250.725,222.873z"/>
						<path style="fill:#D83B3F;" d="M250.215,226.763c-0.238-0.523-0.495-1.615-0.859-0.559
							C249.648,226.579,249.855,225.975,250.215,226.763z"/>
						<path style="fill:#D83B3F;" d="M250.19,223.429l-0.098,0.947c0.112-0.019,0.277-0.189,0.396,0.069L250.19,223.429z"/>
						<path style="fill:#D83B3F;" d="M250.055,222.864c0,0,0.034,0.167,0.068,0.333c0.033,0.116,0.067,0.231,0.067,0.231
							l0.036-0.404L250.055,222.864z"/>
						<path style="fill:#D83B3F;" d="M249.377,216.723c-0.823,0.186-1.544,0.201-2.377,0.23c0.841,0.084,1.689,0.13,2.53,0.129
							C249.757,216.947,250.364,216.707,249.377,216.723z"/>
						<path style="fill:#D83B3F;" d="M250.768,218.668c-0.008-0.042-0.018-0.092-0.024-0.132
							C250.707,218.654,250.695,218.735,250.768,218.668z"/>
						<polygon style="fill:#D83B3F;" points="241.044,216.951 241.124,217.028 241.143,216.955 						"/>
						<path style="fill:#D83B3F;" d="M249.606,217.162c0.304,0.044,0.576,0.034,0.845-0.005c0.034,0.166,0.089,0.285,0.149,0.4
							c-0.013-0.16-0.025-0.323-0.039-0.511c-0.325,0.021-0.675,0.033-1.031,0.035C249.427,217.143,249.384,217.183,249.606,217.162
							z"/>
						<path style="fill:#D83B3F;" d="M244.371,216.521c0.291,0.09,0.748,0.166,1.14,0.235
							C245.214,216.621,244.427,216.41,244.371,216.521z"/>
						<path style="fill:#D83B3F;" d="M250.861,218.221c0.007,0.029,0.013,0.057,0.02,0.087
							C250.973,218.014,250.928,218.076,250.861,218.221z"/>
						<path style="fill:#D83B3F;" d="M250.861,218.221c-0.062-0.303-0.167-0.484-0.261-0.663c0.034,0.366,0.079,0.699,0.143,0.979
							C250.773,218.432,250.819,218.313,250.861,218.221z"/>
						<path style="fill:#D83B3F;" d="M239.537,219.693c0.071-0.396,1.142-0.762,2.065-0.337c0.909-0.297,0.315-1.6-0.479-2.328
							c-0.028,0.173-0.028,0.333-0.964,0.566c0.328,0.216,2.076,0.506,1.287,0.864c-1.24,0.204-1.016-0.141-1.618-0.35
							c0.512,0.494-1.577,0.719-1.308,1.443l1.087-0.255C239.629,219.41,239.235,219.591,239.537,219.693z"/>
						<path style="fill:#D83B3F;" d="M242.907,217.068l0.385-0.049c-0.439-0.068-0.753-0.227-1.332-0.537
							c-0.641,0.193-0.773,0.34-0.817,0.473l1.896,0.055L242.907,217.068z"/>
						<path style="fill:#D83B3F;" d="M245.377,217.018c-0.264,0.216-0.779,0.369-1.011,0.527c-0.198,0.158-0.288,0.32-0.005,0.554
							c1.452-0.03,1.085-0.36,2.112-0.547c-1.341,0.054-1.141-0.007-0.833-0.11c0.304-0.104,0.77-0.252-0.249-0.374
							c0.581-0.073,1.11-0.096,1.608-0.114c-0.508-0.052-1.006-0.117-1.489-0.196c0.025,0.011,0.043,0.018,0.064,0.026l0.015-0.001
							l-0.004,0.007c0.12,0.054,0.155,0.086,0.016,0.055c-0.011,0.006-0.047,0.008-0.063,0.01c-0.031,0.06-0.095,0.111-0.16,0.162
							c-0.837-0.089-0.124-0.111,0.16-0.162c0.014-0.021,0.04-0.041,0.048-0.064l-0.011-0.006c0,0-0.19,0.016-0.477,0.037
							c-0.266,0.022-0.73,0.052-0.894,0.082c-0.457,0.059-0.913,0.117-0.913,0.117c0.193,0.03,0.41,0.042,0.688,0.04
							C244.351,217.049,244.801,217.035,245.377,217.018z"/>
						<path style="fill:#D83B3F;" d="M248.429,225.229c0.038-0.057,0.069-0.054,0.101-0.059
							C248.477,225.053,248.439,225.008,248.429,225.229z"/>
						<path style="fill:#D83B3F;" d="M248.689,224.479c0.06,0.133,0.232,0.243,0.188,0.675c-0.129,0.374-0.207-0.002-0.348,0.018
							c0.113,0.26,0.309,0.91,0.518,0.095l-0.059-0.129c0.148-0.735,0.686-1.68,0.745-1.552
							C249.346,223.8,249.069,223.989,248.689,224.479z"/>
						<path style="fill:#D83B3F;" d="M249.529,219.26c-0.041-0.353-0.082-0.705-0.082-1.099l-0.926,0.129
							c0.181,0.101,0.346,0.202,0.595,0.202l-0.171,0.342l0.225-0.264C249.082,219.705,249.357,219.252,249.529,219.26z"/>
						<polygon style="fill:#D83B3F;" points="240.87,216.736 241.072,216.281 240.193,216.924 						"/>
						<polygon style="fill:#D83B3F;" points="238.894,216.791 238.967,216.395 238.445,216.634 						"/>
						<path style="fill:#D83B3F;" d="M151.445,241.034l0.112,0.446C151.523,241.269,151.485,241.133,151.445,241.034z"/>
						<path style="fill:#D83B3F;" d="M151.472,237.798l-0.195-0.078C151.385,237.869,151.464,237.931,151.472,237.798z"/>
						<path style="fill:#D83B3F;" d="M190.354,216.836c-0.651-0.37-1.378-0.943-1.3-0.498l0.2,0.434
							C189.709,216.693,190.058,216.742,190.354,216.836z"/>
						<path style="fill:#D83B3F;" d="M157.11,219.426c0.062,0.043,0.126,0.088,0.19,0.132c0.158-0.148,0.305-0.288,0.44-0.415
							C157.549,219.229,157.335,219.324,157.11,219.426z"/>
						<path style="fill:#D83B3F;" d="M156.651,221.221l-0.858-0.279C155.985,221.039,156.262,221.133,156.651,221.221z"/>
						<path style="fill:#D83B3F;" d="M160.101,244.839l0.521-0.442C159.806,244.399,160.165,244.622,160.101,244.839z"/>
						<path style="fill:#D83B3F;" d="M218.651,216.951c-0.562-0.17-1.009-0.241-1.401-0.262
							C217.927,216.938,218.473,217.313,218.651,216.951z"/>
						<path style="fill:#D83B3F;" d="M146.841,239.761c0.079,0.272,0.167,0.391,0.264,0.382
							C147.031,239.861,146.948,239.701,146.841,239.761z"/>
						<path style="fill:#D83B3F;" d="M215.628,216.69c0.099,0.044,0.195,0.065,0.297,0.103c0.41-0.073,0.823-0.132,1.325-0.104
							C216.75,216.504,216.178,216.389,215.628,216.69z"/>
						<path style="fill:#D83B3F;" d="M224.185,245.198c0.046,0.02,0.103,0.028,0.145,0.052
							C224.344,245.191,224.279,245.188,224.185,245.198z"/>
						<path style="fill:#D83B3F;" d="M242.854,249.576c-0.184,0.027-0.483,0.027-0.767,0.033
							C242.226,249.639,242.457,249.637,242.854,249.576z"/>
						<path style="fill:#D83B3F;" d="M230.941,216.602C231.36,216.573,231.008,216.554,230.941,216.602L230.941,216.602z"/>
						<path style="fill:#D83B3F;" d="M232.979,218.317c-0.089,0.049-0.156,0.11-0.167,0.211
							C232.847,218.424,232.905,218.357,232.979,218.317z"/>
						<path style="fill:#D83B3F;" d="M211.452,219.391c-0.013-0.001-0.022-0.001-0.036-0.002
							C211.541,219.475,211.52,219.458,211.452,219.391z"/>
						<path style="fill:#D83B3F;" d="M231.572,216.799c-0.157-0.053-0.339-0.098-0.536-0.129
							C231.123,216.703,231.286,216.746,231.572,216.799z"/>
						<path style="fill:#D83B3F;" d="M231.487,216.594c0.145,0.017,0.258,0.029,0.366,0.042
							C231.906,216.563,231.859,216.518,231.487,216.594z"/>
						<path style="fill:#D83B3F;" d="M230.357,216.625c0.24-0.007,0.464,0.014,0.679,0.045c-0.082-0.029-0.117-0.054-0.095-0.068
							C230.818,216.606,230.645,216.613,230.357,216.625z"/>
						<path style="fill:#D83B3F;" d="M189.847,246.359c0.028,0.014,0.061,0.022,0.092,0.041
							C190.361,246.221,190.174,246.249,189.847,246.359z"/>
						<path style="fill:#D83B3F;" d="M179.443,221.341c0.02-0.005,0.03-0.016,0.048-0.021c-0.02-0.005-0.044-0.012-0.062-0.016
							L179.443,221.341z"/>
						<path style="fill:#D83B3F;" d="M177.938,221.664c0.641-0.54,1.005-0.474,1.492-0.359l-0.498-1.251L177.938,221.664z"/>
						<path style="fill:#D83B3F;" d="M151.959,245.174c-0.03,0-0.018-0.39,0.013-0.39c0.895-0.642,0.614-0.421,0.957-0.969
							c-0.311,0.48-0.51,0.639-0.702,0.702c-0.116-0.154,0.083-0.5-0.794-0.369c0-0.015,0.286-0.297,0.286-0.282
							c-0.013,0.064,0.067,0.066,0.053,0.126c0.325-0.104,0.08-0.548-0.223-0.816c-0.303-0.301-0.663-0.651-0.566-1.524
							c0.104-0.607,0.301-1.033,0.462-0.617l-0.336-1.357c0.026-0.394,0.262-0.298,0.236,0.096l-0.108-2.069l0.04,0.017
							c-0.213-0.296-0.542-0.964-0.683-1.291c0.195-0.526,0.144,0.263,0.313,0.129l-0.329-1.145
							c0.352-0.468,0.693,0.481,0.643,1.273c1.356-1.069-0.342-0.951,0.45-3.26l0.172,1.081c0.771-0.695,0.491-1.54,0.972-2.764
							c-0.251,0.291-1.21,2.449-1.549,1.205c0.103-0.35,0.151-0.812-0.122-1.482c0.483-0.006,0.364-0.661,0.337-1.48l0.64,0.056
							c-0.185-0.886-0.51-0.815-0.798-1.337c0.063-0.987,0.559-1.191,0.976-1.424c0.102-1.581-0.794,1.092-0.915-0.779
							c0.122-0.658,0.118-1.218,0.036-1.81c-0.042-0.296-0.102-0.6-0.177-0.928c-0.039-0.164-0.079-0.334-0.121-0.513
							c-0.043-0.154-0.089-0.195-0.137-0.316c0.22-0.395,0.391,0.136,0.574,0.014c0,0.03-0.51-0.454-0.51-0.485
							c0.012-0.093,0.169,0.007,0.248,0.052c-0.198-0.409-0.639-0.277-0.813-1.054c-0.309-0.295-0.149-0.521,0.061-0.661
							c0.764,0.269,1.332,0.618,1.557,0.169c0.242,0.182,0.06,0.392,0.215,0.64c0.583-0.525,0.766-0.381,2.192-1.088l1.284,0.42
							c-0.943-0.48,0.262-1.049,1.317-1.516c-0.334-0.232-0.62-0.436-0.812-0.531l1.685-0.344c0.203,0.105,0.034,0.324-0.242,0.592
							c0.115-0.053,0.224-0.105,0.309-0.153c0.602,0.236,0.29,0.605-0.142,0.963c-0.202-0.131-0.406-0.265-0.607-0.395
							c-0.416,0.389-0.805,0.819-0.718,1.193c0.109-0.073,0.32-0.138,0.552-0.173c-0.109,0.105-0.178,0.199-0.128,0.264
							c0.058,0.067,0.233-0.074,0.509-0.237l0.383,0.713l0.093-0.283l2.204,0.446c1.577-0.718,2.948-1.774,5.451-2.068
							c-0.621,0.522-0.133,0.854-0.167,1.473c-0.683-0.655-1.938,0.279-3.235,0.146c0.677,0.068,0.528,0.363,0.356,0.467
							l2.313-0.597c-0.052,0.507,0.491,0.38,1.096,0.589c-0.457-1.001,1.724-0.666,2.666-0.974c0.058,0.337-0.167,0.68-1.316,0.599
							c1.267,0.754,1.637-1.176,2.881-0.535c-0.28,0.008-0.432-0.044-0.542,0.127c0.654-0.299,2.256-0.063,1.879,0.23l-0.279,0.008
							c1.861,0.118,5.667,0.007,5.944-0.844c0.019,0.109-0.244,1.025-0.356,1.197l3.322-2.861c-0.293,0.73,0.83,2.47-0.714,2.883
							c0.443,0.104,0.992,0.225,1.927-0.033c-0.303-0.104-0.754-1.056-0.341-1.123c1.134,0.814,0.787,0.436,2.186,1.129
							c-0.453-0.156,0.05-1.303,0.767-1.266c-0.112,0.172,0.06,1.131-0.202,1.25l1.782-1.125c-0.445,0.203-0.078,0.953,0.32,1.271
							c-0.185-0.221,1.541,0.021,2.017-0.091l-0.756-0.261c2.013,0.17,1.988-1.582,3.985-1.522c-0.242,0.232-0.598,1.43,0.418,1.571
							c0.466-0.576,2.061-2.771,3.828-3.214l0.338,0.329l1.355-0.375c-0.844,0.867-3.212,2.69-4.506,3.4
							c0.753,0.26,0.21,0.388,1.338,0.357c0.398,0.309-0.614,0.469-0.946,0.486l2.626,0.199c-0.117-0.672,2.008-0.674,1.908-1.234
							l-2.853,0.697c-0.115-0.671,1.649-1.908,3.51-1.789c0.474,0.268-0.354,1.196-0.315,1.42c0.242-0.23,1.767-0.441,1.938-0.277
							l-0.789,0.359c1.035,0.253,1.69-0.891,2.936-0.25c0.43,0.043,1.282,0.866,1.356,0.469c-0.7-0.768-0.838-3.141-0.37-3.717
							c0.15,0.052,2.256,0.733,2.746,1.112c0.708,0.602-1.062,1.434-0.459,1.95c0.025-0.184,0.416-0.41,0.579-0.482
							c0.451,0.156-0.187,0.568,0.794,0.485c0.163-0.682,1.994,0.058,0.464-0.576c0.959-0.194,1.019,0.14,2.146,0.11
							c-0.358-0.44,1.011-1.499,1.972-1.693c-0.057,0.174,0.159,0.398,0.264,0.502c1.966,0.062,3.021,0.371,4.854,0.377
							c0.169,0.165,1.054,0.365,0.677,0.658c0.264-0.121,0.506-0.352,1.071-0.368c1.095,0.589-1.261,0.092-0.426,0.8
							c0.071-0.396,1.462-0.547,2.268-0.794c-0.248-0.612-1.861-0.117-2.668,0.13c-0.003-0.844,1.4-1.728,3.317-2.117
							c1.522-0.21,0.66,0.545,0.924,0.425c2.86,0.147,2.438-1.474,4.813-0.864c0.942,0.537,0.042,1.069,0.252,1.457
							c-1.241,0.203-1.905-0.342-2.746-0.32l1.035,0.255c-0.395,0.179-1.223,0.314-1.674,0.159c0.79,0.482,4.833,0.092,7.04,0.538
							c0.392-0.181,1.068-0.366,0.748-0.583l-0.698,0.075c-0.642-0.434,1.314-0.6,0.431-0.802c0.937-0.305,1.986-0.784,3.306-0.539
							l0.247,0.613c-0.028-0.18-0.861-0.365-1.232-0.178c0.55-0.272,2.022,0.829,2.624,0.026l-0.924-0.425
							c0.94-0.309,2.103-0.959,3.271-0.766c-0.532-0.605-0.27,0.069-1.1-0.639c0.72,0.881-2.99-0.037-1.833,0.889
							c-0.853-0.822-1.476-0.349-2.589-1.05c0.034,0.202,0.395,0.387-0.587,0.287c-0.044,0.06-0.148,0.134-0.215,0.179
							c-0.03-0.007-0.041-0.01-0.066-0.016l0.054,0.023c-0.042,0.031-0.046,0.037,0.021,0.009c0.233,0.089,0.423,0.194,0.5,0.308
							c-0.487,0.465-2.047,0.449-2.574,0.689c-0.583-0.096,0.243-0.231-0.075-0.447l-0.788,0.359
							c-0.078-0.449-1.547-0.746-0.175-1.01l-1.234-0.02c-0.727-0.252-1.727-0.352-2.343-0.163
							c-0.582-0.097-1.471,0.497-0.964,0.146l-1.936,0.278l-0.018-0.112c-1.91-0.057-3.932,0.744-6.115-0.066
							c-0.644,0.113-1.308,0.252-2.384,0.124l-0.21-0.389c-0.825,0.136-2.479-0.389-2.834,0.017
							c-0.891-1.046-4.007-0.229-5.459-0.414l-0.055,0.508c-0.999-0.029-1.958,0.115-3.198,0.318l0.076,0.448
							c-1.069,0.368-2.75-0.319-4.441-0.272c0.115-0.172,0.544-0.127,0.848-0.023c-2.021-1.013-4.265,0.736-6.098-0.001
							c-0.457,0.163-0.787,0.107-1.107-0.005c0.042-0.002,0.08-0.01,0.113-0.023c-0.047-0.006-0.116-0.007-0.188-0.006
							c-0.202-0.077-0.41-0.167-0.635-0.238c0.191,0.108,0.374,0.198,0.533,0.24c-0.352,0.009-0.886,0.064-1.41,0.177l-0.223-0.481
							c-0.043,0.005-0.076,0.009-0.121,0.014c-0.514-0.178-0.413,0.229-0.139,0.59c-0.265,0.08-0.506,0.175-0.693,0.291
							c-0.417-0.777-1.374,0.262-1.943-0.567c-0.354,0.404-2.634,0.304-2.912,1.155c-0.019-0.111-0.173-0.164,0.11-0.171
							c-0.584-0.097-1.167-0.194-1.691,0.046l-0.247-0.612l-1.275,0.823c-0.774-0.373-1.096-0.59-0.326-1.061
							c-1.857,0.725-1.507,0.272-3.086,0.99l0.077-0.396c-0.564,0.015-1.467,0.546-1.808,0.218c-1.263-0.752-6.248-0.104-9.49-0.803
							c0.629,1.166-1.507-0.522-1.635,0.381c-0.188-0.275-0.641-0.432-0.116-0.671c-1.654,0.271-2.485-0.437-3.627,0.325
							c-0.189-0.277,0.354-0.404,0.186-0.568c-0.133,0.06-0.525,0.24-0.698,0.075c-0.168-0.164,0.242-0.231,0.504-0.352
							c-1.69,0.046-1.861,0.896-1.984,1.693c-0.856-0.378-1.284-0.324-1.902,0.198c-0.298-0.26-0.796-0.533,0.254-0.627
							c-0.591-0.038-3.609-0.383-3.669,0.257c-0.184-0.162-1.112-0.048-1.28,0.026c-1.777-0.038-1.998-0.096-3.7-0.035l0.574,0.104
							c-0.008,0.273-0.137,0.375-0.38,0.396c0.037,0.497-0.191,0.898-0.131,1.798l-0.079-0.086
							c-0.278,1.396-0.211,1.834-0.155,2.158c0.029,0.173,0.055,0.339,0.034,0.654c-0.021,0.321-0.088,0.624-0.247,1.235l0.479-0.13
							c1.032,0.222-0.608,2.104-0.214,3.481l0.274-0.498c0.353,0.753-1.403,2.104-1.532,2.858c-0.09,0.165-0.144-0.26-0.21-0.489
							c-0.608,1.979,0.628,0.256,0.774,1.73c-0.339,0.271-0.862-0.351-0.925,0.642c-0.274,0.495,1.1,2.878,0.45,4.231
							c0.261-0.299,0.522-0.594,0.718,0.09c0.093,1.05-0.987,2.838-0.164,3.785c-0.071,0.134-0.14,0.184-0.205,0.189
							c0.212,0.803,0.353,2.607,0.799,3.09c-0.162,0.072-0.284,0.179-0.375,0.311s-0.15,0.267-0.185,0.554
							c-0.07,0.517-0.043,1.153,0.02,1.774c0.126,1.269,0.398,2.353,0.333,3.176c0.409,0.037,0.562,0.181,0.271,0.516l3.695-0.082
							l-0.133,0.156c0.571,0.024,1.136,0.021,1.479-0.005c0.283-0.026,0.518-0.073,0.721-0.136c0.406-0.125,0.684-0.309,0.96-0.492
							c0.365,0.104,0.099,0.247,0.069,0.327c2.304,0.308,2.534,0.243,4.466-0.519l0.201,0.496c0.524-0.288,3.332,0.777,5.592,0.199
							c-0.022,0.057-0.069,0.152-0.248,0.223c2.543-0.582,6.088,1.375,7.02-0.431l1.68-0.444c-2.171-0.141,0.322-0.783-0.57-1.084
							c0.853-0.105,2.208,0.545,1.158,0.638l-0.165-0.091c-0.385,0.941,2.699,0.334,2.641,0.975
							c4.271-0.047,8.437,0.475,12.438,0.515l-0.46-0.731l1.396,0.042c0.366,0.171,0.492,0.572-0.504,0.542
							c0.523,0.414,1.671-0.348,1.698-0.506c1.949,0.296-0.762,0.853-0.163,0.87l0.812-0.055l-0.183-0.085
							c0.657-0.299,0.717-0.616,1.914-0.58c0.757,0.146,0.389,0.451,0.686,0.479c-0.002,0.052,0.099,0.076,0.458,0.021l1.758,0.063
							l-0.703-0.577c0.779-0.284,1.655,0.03,0.844-0.624c1.189,1.009,6.561,0.362,7.291,0.676c1.092-0.422,2.17-0.414,3.505-0.363
							c-0.332-0.12-0.53-0.77,0.621-0.689c-0.421,1.34,2.108,0.581,3.039,1.545c-0.831-0.639,3.272-0.158,1.969-1.065
							c0.96,0.108,0.058,0.501,0.788,0.817c2.286-0.52,5.038,0.337,7.866,0.162c0.044-0.176-0.431-0.445,0.177-0.707l1.492,0.879
							c0.559-0.086,0.515-1.015,1.533-0.404c-0.144-0.148-0.358-0.371,0.017-0.428c5.537,0.857,11.314-0.701,16.938,0.908
							c-0.761-0.34-0.255-0.374,0.328-0.387c-0.379-0.082,0.008-0.435-0.066-0.673l2.354,0.662c0.43-0.661,2.524-0.045,2.771-0.677
							l-0.745,0.113c0.99-0.746-1.389-1.659-1.243-2.617c-1.11,0.849-2.928-1.257-4.75-0.042c-0.4-0.195,0.345-0.309,0.128-0.53
							c-0.461,0.41-1.018,0.496-2.052,0.312l0.117-0.102c-2.903,0.101-4.148-0.305-7.409-0.574l0.241,0.474
							c-0.701-0.063-0.849-0.212-1.176-0.33c-0.804,0.718,1.967,0.04,1.234,0.832c-0.93-0.964-4.941-0.015-5.569-1.109
							c-1.078-0.006,0.315,0.548-0.763,0.541l-0.285-0.296l-0.272,0.382c-0.706-0.063-1.063-0.434-1.09-0.685
							c0.173,0.03,0.487-0.07,0.672-0.092c-0.918-0.349-2.585,0.119-2.899,0.005l1.035,0.184c-2.941,0.277-6.533-0.112-9.376,0.49
							l0.215,0.224c-2.17,0.413-1.738-0.245-4.122-0.054l0.087-0.054c-0.477,0.223-1.113,0.335-1.767,0.31
							c0.603-0.262-1.131-0.509-0.342-0.799c-2.354,0.444-1.166,0.35-2.72,1.18l-0.359-0.371c-0.528,0.336-0.572,0.513-1.763,0.609
							c0.977-0.318-0.76-0.565,0.333-0.986c-2.497-0.811-3.709,0.818-4.855-0.367c-1.146,1.026,2.162,0.57,1.521,0.789
							c0.538,0.336-0.947,0.768-1.731,0.664c-0.797-0.022-1.356-1.313-3.364-1.293c0.201,0.005,0.214-0.072,0.413-0.068
							c-0.751-0.262-1.472,0.354-2.393-0.07c-0.516,0.62-1.197-0.036-1.345,0.756l1.841-0.184c-1.044,0.207-2.022,1.133-3.741,0.684
							c0.133-0.159,0.644-0.369,0.995-0.486c-0.501-0.233-0.967,0.154-1.488-0.085c0.148-0.792,2.237-0.173,3.355-0.776
							c-0.539-0.334-2.115,0.574-1.554-0.284c-0.808,1.091-1.978-0.138-3.337,0.695l0.09-0.475
							c-0.215,0.075-0.661,0.299-1.057,0.286l0.718-0.615c-1.102,0.525-2.122-0.459-3.177-0.173c2.209-0.015,0.495,0.571,1.43,0.918
							c-2.726,0.636-1.567-1.241-4.619-1.014c0.413-0.067,1.552,0.285,0.904,0.505c-0.58-0.098-1.347-0.279-1.704-0.529
							c-2.022,0.1,0.311,0.488-0.551,0.78c-0.688-0.578-0.993,0.235-1.878,0.421l-0.007-0.482c-2.304-0.311-0.61,1.005-2.685,0.631
							l0.878-0.669l-1.082,0.173l0.224-0.549c-1.178,0.407-1.544,0.302-2.696,0.148c0.268,0.34-0.151,0.875-1.171,0.891
							c-0.696-0.287,0.391-0.459-1.056-0.391c0.326-0.301,0.685-0.68,1.314-0.236c0.064-0.156,0.322-0.303,0.389-0.457
							c-0.75-0.33-1.883-0.076-2.407-0.071c0.202,0.019,0.442,0.044,0.565,0.112l-2.098,0.669c-0.329-0.181-0.067-0.327,0.192-0.47
							c-0.425,0.053-0.718,0.274-1.342,0.316c0.161-0.393,0.123-0.797,1.005-0.982l-1.997,0.436
							c-0.134-0.17-1.025-0.469-0.767-0.613c-1.106-0.23-2.717,0.762-4.185,0.457c-0.076,0.076-0.229,0.148-0.541,0.205
							c-1.381-0.089-2.604-0.57-4.239-0.032l-0.928-0.703c-1.281,0.159,1.256,0.886-0.877,1.151
							c-0.188,0.027-0.339,0.039-0.458,0.038c-0.141-0.002-0.119-0.017-0.167-0.041c-0.057-0.049-0.064-0.137-0.058-0.237
							c0.017-0.203,0.063-0.458,0.011-0.556c-0.107,0.171-0.334,0.428-0.644,0.583c-0.294,0.155-0.682,0.209-0.715-0.025
							l0.055-0.107c0.014,0.005,0.026,0.012,0.035,0.019C151.739,245.143,151.786,245.221,151.959,245.174z M151.259,232.979
							c0.101,0.307,0.414,0.916,0.129,1.14C150.835,233.771,151.1,233.502,151.259,232.979z M159.436,220.354
							c-0.228,0.159-0.58,0.08-0.977-0.103C158.748,220.211,159.074,220.229,159.436,220.354z M226.347,216.994
							c-0.013,0.008-0.022,0.014-0.032,0.023C225.631,216.83,225.873,216.904,226.347,216.994z M227.765,217.203
							c0.143-0.066,0.133-0.134,0.073-0.201c-0.1,0.122-0.418,0.131-0.78,0.096C227.158,217.225,227.342,217.313,227.765,217.203z
							 M194.325,249.606l-0.275-0.126C194.672,249.342,194.497,249.467,194.325,249.606z"/>
						<path style="fill:#D83B3F;" d="M156.713,221.014c-0.087-0.082-0.111-0.172-0.131-0.263
							C156.461,220.832,156.459,220.926,156.713,221.014z"/>
						<path style="fill:#D83B3F;" d="M160.003,244.92l0.048,0.006c0.027-0.029,0.041-0.059,0.049-0.087L160.003,244.92z"/>
						<path style="fill:#D83B3F;" d="M205.797,221.294c-0.292-0.069-0.455-0.157-0.563-0.249
							C205.218,221.163,205.351,221.263,205.797,221.294z"/>
						<path style="fill:#D83B3F;" d="M235.28,216.384l-0.908,0.126c0.439-0.024,0.596,0.081,0.817,0.158
							C235.17,216.555,234.996,216.392,235.28,216.384z"/>
						<path style="fill:#D83B3F;" d="M243.165,219.369c0.133-0.059,0.281-0.006,0.412-0.066l-0.036-0.225
							C242.976,219.094,242.58,219.273,243.165,219.369z"/>
						<path style="fill:#D83B3F;" d="M236.121,217.986c0.072,0.406,0.642,0.269,1.278,0.193c-0.038,0.002-0.074,0.005-0.112,0
							C237.475,217.611,236.796,217.8,236.121,217.986z"/>
						<path style="fill:#D83B3F;" d="M237.547,218.166c0.196-0.02,0.396-0.029,0.588-0.01
							C238.21,217.928,237.896,218.108,237.547,218.166z"/>
						<path style="fill:#D83B3F;" d="M229.563,216.935c0.302,0.104,0.189-0.519,0.36-0.354
							C230.261,216.064,227.912,217.206,229.563,216.935z"/>
						<polygon style="fill:#D83B3F;" points="236.637,219.324 236.408,218.822 236.052,219.227 						"/>
						<path style="fill:#D83B3F;" d="M231.612,218.956l1.017,0.139c-0.016-0.084,0.113-0.134,0.272-0.171
							C232.274,218.907,231.588,218.808,231.612,218.956z"/>
						<path style="fill:#D83B3F;" d="M232.901,218.924c0.326,0.01,0.637-0.001,0.818-0.083
							C233.543,218.846,233.163,218.863,232.901,218.924z"/>
						<polygon style="fill:#D83B3F;" points="235.246,219.475 234.946,219.369 234.228,219.333 						"/>
						<path style="fill:#D83B3F;" d="M220.682,218.859l-1.109,0.144c-0.113,0.172,0.189,0.276,0.603,0.208
							C220.44,219.092,220.853,219.025,220.682,218.859z"/>
						<path style="fill:#D83B3F;" d="M224.038,220.231c-0.3-0.104-0.32-0.216-0.489-0.381l-0.034,0.621L224.038,220.231z"/>
						<path style="fill:#D83B3F;" d="M220.802,220.377c-0.11,0.172-1.61,0.494-0.204,0.455
							C220.71,220.661,221.821,220.518,220.802,220.377z"/>
						<polygon style="fill:#D83B3F;" points="204.081,219.591 204.363,219.583 204.323,218.564 						"/>
						<path style="fill:#D83B3F;" d="M189.344,222.027c1.315,0.244,0.313-0.629,1.501-0.324c0.309-0.24-0.972-0.248-0.654-0.456
							C189.396,221.501,188.979,221.357,189.344,222.027z"/>
						<path style="fill:#D83B3F;" d="M190.19,221.247c0.127-0.04,0.262-0.089,0.404-0.155
							C190.365,221.156,190.257,221.205,190.19,221.247z"/>
						<polygon style="fill:#D83B3F;" points="245.951,250.123 246.797,250.336 246.251,249.993 						"/>
						<path style="fill:#D83B3F;" d="M247.575,249.367l0.199,0.649l0.508-0.587C248.091,249.458,247.721,249.514,247.575,249.367z"
							/>
						<path style="fill:#D83B3F;" d="M152.566,230.631l-0.156-0.064c-0.169,0.131-0.182,0.329-0.208,0.726L152.566,230.631z"/>
						<polygon style="fill:#D83B3F;" points="152.081,242.099 152.094,241.902 151.507,242.271 						"/>
						<path style="fill:#D83B3F;" d="M153.12,243.915c-0.289-0.013-0.166,0.015-0.207,0.041c-0.01,0.026-0.028,0.053-0.034,0.04
							c0.027-0.053,0.017,0.11,0.043,0.194c-0.011,0.021,0.026,0.037,0.076,0.044c0.039,0.007,0.07,0.004,0.093-0.013
							C153.135,244.188,153.146,244.098,153.12,243.915z"/>
					</g>
				</g>
			</g>
		</g>
	</g>
</g>
</svg>
