<?xml version="1.0" encoding="iso-8859-1"?>
<!-- Generator: Adobe Illustrator 16.0.0, SVG Export Plug-In . SVG Version: 6.00 Build 0)  -->
<!DOCTYPE svg PUBLIC "-//W3C//DTD SVG 1.1//EN" "http://www.w3.org/Graphics/SVG/1.1/DTD/svg11.dtd">
<svg version="1.1" id="&#x56FE;&#x5C42;_1" xmlns="http://www.w3.org/2000/svg" xmlns:xlink="http://www.w3.org/1999/xlink" x="0px"
	 y="0px" width="283.46px" height="283.46px" viewBox="0 0 283.46 283.46" style="enable-background:new 0 0 283.46 283.46;"
	 xml:space="preserve">
<path style="opacity:0.6;fill:#EEBA1D;" d="M88.013,49.095v123.487H39.585c-3.067-9.93-4.717-20.482-4.717-31.417
	C34.868,101.82,56.243,67.47,88.013,49.095z"/>
<path style="fill:#D6ECE5;" d="M88.013,172.582v21.264H48.817c-3.81-6.668-6.922-13.793-9.232-21.264H88.013z"/>
<path style="fill:#D6ECE5;" d="M109.275,193.846v48.75c-7.478-2.349-14.595-5.498-21.263-9.354v-39.396H109.275z"/>
<path style="opacity:0.6;fill:#563C94;" d="M88.013,193.846v39.389c-16.29-9.419-29.85-23.047-39.195-39.389H88.013z"/>
<path style="opacity:0.6;fill:#20AEE0;" d="M247.463,141.165c0,10.935-1.65,21.487-4.718,31.417h-133.47V39.735
	c10.065-3.165,20.782-4.867,31.89-4.867C199.868,34.868,247.463,82.463,247.463,141.165z"/>
<path style="fill:#D6ECE5;" d="M109.275,39.735V87.54H88.013V49.095C94.681,45.233,101.798,42.083,109.275,39.735z"/>
<rect x="109.275" y="172.582" style="fill:#D6ECE5;" width="10.627" height="21.264"/>
<path style="fill:#D6ECE5;" d="M242.745,172.582c-2.31,7.471-5.423,14.596-9.232,21.264h-39.202v-21.264H242.745z"/>
<g>
	<rect x="88.013" y="87.54" style="fill:#59BEAF;" width="21.263" height="106.306"/>
	<rect x="119.903" y="172.582" style="fill:#59BEAF;" width="74.408" height="21.264"/>
</g>
<path style="opacity:0.6;fill:#E83818;" d="M233.513,193.846c-18.315,32.032-52.815,53.616-92.348,53.616
	c-11.107,0-21.825-1.702-31.89-4.866v-48.75H233.513z"/>
</svg>
